<svg id="Layer_1" data-name="Layer 1" xmlns="http://www.w3.org/2000/svg" viewBox="0 0 426.6 272.75"><defs><style>.cls-1{fill:none;}.cls-2{fill:#bcd7ea;}.cls-3{fill:#addaea;}</style></defs><rect class="cls-1" y="1.09" width="426.6" height="271.66"/><path class="cls-2" d="M8.88,129.44l-.12.17-.14-.15c-.46-.48-1.16-.73-1.55-.19h0a1.52,1.52,0,0,0,.12,1.86l.14.15L9,133l1.53-2.12a1.52,1.52,0,0,0-.12-1.86h0C9.94,128.57,9.27,128.9,8.88,129.44Z"/><path class="cls-3" d="M95.37,45.56v-32h11a21.09,21.09,0,0,1,5.36.6,10.25,10.25,0,0,1,3.65,1.7,6.68,6.68,0,0,1,2.08,2.68,8.92,8.92,0,0,1,.67,3.54,6.81,6.81,0,0,1-.34,2.15,6.17,6.17,0,0,1-1,1.93A7.58,7.58,0,0,1,115,27.8,10.45,10.45,0,0,1,112.48,29q6.6,1.49,6.59,7.13a9,9,0,0,1-.77,3.76,8.34,8.34,0,0,1-2.26,3,10.85,10.85,0,0,1-3.65,2,15.93,15.93,0,0,1-5,.7Zm5.95-18.13h4.76a8.06,8.06,0,0,0,4.6-1.1,4,4,0,0,0,1.56-3.52,4.18,4.18,0,0,0-1.41-3.56,7.42,7.42,0,0,0-4.43-1.06h-5.08Zm0,4.11v9.37h6a8.22,8.22,0,0,0,2.78-.4,4.66,4.66,0,0,0,1.79-1.06,3.87,3.87,0,0,0,1-1.54,6,6,0,0,0,.3-1.88,5,5,0,0,0-.34-1.87,3.57,3.57,0,0,0-1-1.42,4.87,4.87,0,0,0-1.81-.89,10.12,10.12,0,0,0-2.68-.31Z"/><path class="cls-3" d="M139.43,45.69h-2.17a2.37,2.37,0,0,1-1.08-.21,1.35,1.35,0,0,1-.59-.83l-.43-1.43a17.13,17.13,0,0,1-1.5,1.2,9.18,9.18,0,0,1-1.52.87,7.72,7.72,0,0,1-1.67.53,10.75,10.75,0,0,1-2,.18,7.78,7.78,0,0,1-2.35-.35,5.12,5.12,0,0,1-1.85-1,4.69,4.69,0,0,1-1.21-1.71,6.08,6.08,0,0,1-.43-2.38,4.64,4.64,0,0,1,.6-2.25,5.53,5.53,0,0,1,2-2,12.66,12.66,0,0,1,3.7-1.49,23.57,23.57,0,0,1,5.74-.59V33a4.45,4.45,0,0,0-.85-3,3.13,3.13,0,0,0-2.48-1,5.93,5.93,0,0,0-2,.28,7.24,7.24,0,0,0-1.36.61l-1.07.62a2.26,2.26,0,0,1-1.08.28,1.46,1.46,0,0,1-.84-.26,2,2,0,0,1-.57-.63l-.88-1.55A11.93,11.93,0,0,1,132,25.2a7.88,7.88,0,0,1,3.14.58,6.64,6.64,0,0,1,2.35,1.6,6.94,6.94,0,0,1,1.46,2.47,9.54,9.54,0,0,1,.5,3.13Zm-9.41-3a7.16,7.16,0,0,0,1.38-.13,5.5,5.5,0,0,0,1.18-.41,6.29,6.29,0,0,0,1.08-.67,8.42,8.42,0,0,0,1.05-.93V37.16a20,20,0,0,0-3.54.27,9.59,9.59,0,0,0-2.29.68,3,3,0,0,0-1.23,1,2.44,2.44,0,0,0,.39,3,3.26,3.26,0,0,0,2,.55Z"/><path class="cls-3" d="M142.45,58.94V38.82h3a1.2,1.2,0,0,1,1.24.89l.33,1.58a9.85,9.85,0,0,1,1.28-1.13,9.22,9.22,0,0,1,1.43-.89,7.8,7.8,0,0,1,1.62-.57,9.16,9.16,0,0,1,1.88-.19,7.18,7.18,0,0,1,2.93.56,5.8,5.8,0,0,1,2.13,1.57,6.78,6.78,0,0,1,1.29,2.41,10.07,10.07,0,0,1,.44,3.08v12.8h-4.84V46.13a4.24,4.24,0,0,0-.85-2.85,3.17,3.17,0,0,0-2.56-1,5,5,0,0,0-2.35.57,8.3,8.3,0,0,0-2.08,1.55V58.94Z"/><path class="cls-3" d="M178.55,58.58a1.18,1.18,0,0,1-1.23-.88l-.39-2A12.26,12.26,0,0,1,175.61,57a7.75,7.75,0,0,1-1.48,1,7.31,7.31,0,0,1-1.71.63,7.64,7.64,0,0,1-2,.23,6.57,6.57,0,0,1-5.38-2.68A9.46,9.46,0,0,1,163.54,53a16.25,16.25,0,0,1-.54-4.39,13.92,13.92,0,0,1,.61-4.16,10.18,10.18,0,0,1,1.75-3.34,8.08,8.08,0,0,1,2.72-2.2,7.9,7.9,0,0,1,3.57-.8,7.09,7.09,0,0,1,2.88.54,7.6,7.6,0,0,1,2.14,1.44V29.43h4.84V58.57ZM172.1,55a5,5,0,0,0,2.57-.63,7.57,7.57,0,0,0,2-1.78v-9a4.88,4.88,0,0,0-1.8-1.41,5.52,5.52,0,0,0-2.09-.41,4.73,4.73,0,0,0-2,.41,3.9,3.9,0,0,0-1.51,1.25,6.34,6.34,0,0,0-.95,2.12,12.35,12.35,0,0,0-.33,3,13.71,13.71,0,0,0,.28,3,6,6,0,0,0,.82,2,3.18,3.18,0,0,0,1.29,1.12,4.16,4.16,0,0,0,1.7.33Z"/><path class="cls-3" d="M202.85,54.37h-2.18a2.51,2.51,0,0,1-1.08-.21,1.34,1.34,0,0,1-.59-.84l-.43-1.43a15.77,15.77,0,0,1-1.5,1.2,8.48,8.48,0,0,1-1.52.88,8.68,8.68,0,0,1-1.66.53,10,10,0,0,1-2,.17,7.84,7.84,0,0,1-2.36-.34,5.12,5.12,0,0,1-1.85-1,4.82,4.82,0,0,1-1.2-1.72,6,6,0,0,1-.43-2.38,4.59,4.59,0,0,1,.6-2.25,5.61,5.61,0,0,1,2-2,12.26,12.26,0,0,1,3.7-1.48,23.57,23.57,0,0,1,5.74-.59V41.69a4.45,4.45,0,0,0-.85-3,3.13,3.13,0,0,0-2.48-1,5.92,5.92,0,0,0-2,.27,7.58,7.58,0,0,0-1.36.62l-1.07.62a2.14,2.14,0,0,1-1.08.27,1.41,1.41,0,0,1-.84-.25,2,2,0,0,1-.57-.63L187,37.05a11.93,11.93,0,0,1,8.37-3.17,8.07,8.07,0,0,1,3.15.57,6.54,6.54,0,0,1,2.34,1.61,6.84,6.84,0,0,1,1.46,2.46,9.34,9.34,0,0,1,.5,3.14Zm-9.41-3a7,7,0,0,0,1.37-.14,4.83,4.83,0,0,0,1.18-.4,5.93,5.93,0,0,0,1.08-.67,8.58,8.58,0,0,0,1.05-.94V45.83a21,21,0,0,0-3.54.27,9.51,9.51,0,0,0-2.28.68,3,3,0,0,0-1.24,1,2.44,2.44,0,0,0,.39,3,3.33,3.33,0,0,0,2,.55Z"/><path class="cls-3" d="M207.73,54V33.89h2.84a1.54,1.54,0,0,1,1,.28,1.55,1.55,0,0,1,.39.94l.3,2.43a9.52,9.52,0,0,1,2.53-2.94,5.29,5.29,0,0,1,3.25-1.08,4.22,4.22,0,0,1,2.47.69l-.63,3.63a.8.8,0,0,1-.25.5.93.93,0,0,1-.53.15,3.05,3.05,0,0,1-.8-.14,5.19,5.19,0,0,0-1.36-.13,4.07,4.07,0,0,0-2.58.83,6.47,6.47,0,0,0-1.83,2.44V54Z"/><path class="cls-3" d="M256.77,26.78a1.63,1.63,0,0,1-.55.67,1.46,1.46,0,0,1-.74.19,1.86,1.86,0,0,1-1-.34c-.36-.22-.78-.47-1.26-.74a11.2,11.2,0,0,0-1.7-.74,7.16,7.16,0,0,0-2.3-.33,6.73,6.73,0,0,0-2.09.29,4.63,4.63,0,0,0-1.5.8,3.17,3.17,0,0,0-.91,1.23,4.27,4.27,0,0,0-.3,1.58,2.8,2.8,0,0,0,.61,1.82,5.19,5.19,0,0,0,1.62,1.24,14.22,14.22,0,0,0,2.29.92c.86.27,1.73.56,2.62.86a27.14,27.14,0,0,1,2.62,1.07,9.39,9.39,0,0,1,2.29,1.54,7,7,0,0,1,1.62,2.28,8,8,0,0,1,.61,3.28,10.52,10.52,0,0,1-.72,3.92,8.91,8.91,0,0,1-2.1,3.2,9.68,9.68,0,0,1-3.36,2.14,12.27,12.27,0,0,1-4.56.78,14.22,14.22,0,0,1-2.91-.29,14.73,14.73,0,0,1-2.75-.82A14.05,14.05,0,0,1,239.88,50a12.11,12.11,0,0,1-2-1.66l1.67-2.76a2.1,2.1,0,0,1,.57-.5,1.29,1.29,0,0,1,.74-.2,2,2,0,0,1,1.15.43c.42.3.9.62,1.47,1a10.81,10.81,0,0,0,2,1,7.85,7.85,0,0,0,2.75.44A5.67,5.67,0,0,0,252,46.57a4.18,4.18,0,0,0,1.35-3.35,3.17,3.17,0,0,0-.61-2,4.85,4.85,0,0,0-1.62-1.29,12.49,12.49,0,0,0-2.29-.89c-.86-.24-1.73-.5-2.61-.79a22.45,22.45,0,0,1-2.61-1,8.37,8.37,0,0,1-2.29-1.56,7.26,7.26,0,0,1-1.62-2.41,9.24,9.24,0,0,1-.61-3.56,8.53,8.53,0,0,1,2.64-6.15,10,10,0,0,1,3.18-2,11.67,11.67,0,0,1,4.3-.75,14.73,14.73,0,0,1,5.05.86,11.42,11.42,0,0,1,3.94,2.4Z"/><path class="cls-3" d="M267,35.85V48.64a4.3,4.3,0,0,0,.86,2.85,3.14,3.14,0,0,0,2.55,1,5.22,5.22,0,0,0,2.36-.56,8,8,0,0,0,2.07-1.54V35.85h4.85V56h-3a1.19,1.19,0,0,1-1.23-.89l-.34-1.61a14,14,0,0,1-1.29,1.15,7.46,7.46,0,0,1-1.42.88,7.88,7.88,0,0,1-3.5.78,7.16,7.16,0,0,1-2.92-.56,5.9,5.9,0,0,1-2.12-1.58,6.76,6.76,0,0,1-1.3-2.42,10.07,10.07,0,0,1-.44-3.08V35.85Z"/><path class="cls-3" d="M282.76,51.12V31h3a1.18,1.18,0,0,1,1.24.88l.33,1.59a9.93,9.93,0,0,1,1.29-1.14,8.31,8.31,0,0,1,1.43-.88,6.57,6.57,0,0,1,1.61-.57,8.52,8.52,0,0,1,1.88-.2,7.15,7.15,0,0,1,2.93.56,5.8,5.8,0,0,1,2.13,1.57,6.78,6.78,0,0,1,1.29,2.41,10.08,10.08,0,0,1,.45,3.08v12.8h-4.85V38.31a4.29,4.29,0,0,0-.85-2.85,3.18,3.18,0,0,0-2.56-1,5,5,0,0,0-2.35.57,8.55,8.55,0,0,0-2.08,1.55V51.12Z"/><path class="cls-3" d="M301.55,30.19h3.84a1.62,1.62,0,0,1,.93.26,1.09,1.09,0,0,1,.47.64l2.88,10.75c.16.58.28,1.16.38,1.72s.19,1.12.29,1.69c.14-.57.3-1.13.46-1.69s.34-1.14.52-1.72l3.33-10.79a1.28,1.28,0,0,1,.47-.65,1.36,1.36,0,0,1,.83-.25h2.13a1.54,1.54,0,0,1,.89.25,1.28,1.28,0,0,1,.47.65l3.29,11c.17.56.33,1.11.46,1.64s.27,1.06.4,1.6c.09-.57.2-1.13.31-1.69s.25-1.15.42-1.75l3-10.74a1.11,1.11,0,0,1,.47-.65,1.5,1.5,0,0,1,.87-.25h3.66L325.93,50.3H322c-.42,0-.72-.28-.9-.86L317.5,37.82c-.11-.38-.22-.77-.32-1.15s-.18-.77-.24-1.15c-.08.39-.17.78-.26,1.17s-.2.77-.31,1.17l-3.66,11.58a1.07,1.07,0,0,1-1.06.87H308Z"/><path class="cls-3" d="M350.07,50.17h-2.18a2.25,2.25,0,0,1-1.08-.21,1.35,1.35,0,0,1-.59-.83l-.43-1.43a17.13,17.13,0,0,1-1.5,1.2,8.79,8.79,0,0,1-1.52.87,7.39,7.39,0,0,1-1.67.53,10.64,10.64,0,0,1-2,.18,7.54,7.54,0,0,1-2.36-.35,5.12,5.12,0,0,1-1.85-1,4.78,4.78,0,0,1-1.2-1.71A6.28,6.28,0,0,1,333.3,45a4.79,4.79,0,0,1,.6-2.25,5.56,5.56,0,0,1,2-2,12.55,12.55,0,0,1,3.7-1.49,23.57,23.57,0,0,1,5.74-.59V37.5a4.52,4.52,0,0,0-.85-3,3.13,3.13,0,0,0-2.48-1,6.16,6.16,0,0,0-2,.28,7.27,7.27,0,0,0-1.36.62l-1.07.61a2.15,2.15,0,0,1-1.08.28,1.39,1.39,0,0,1-.84-.26,2,2,0,0,1-.57-.62l-.88-1.56a12,12,0,0,1,8.37-3.17,8.06,8.06,0,0,1,3.14.58,6.77,6.77,0,0,1,2.35,1.6,6.94,6.94,0,0,1,1.46,2.47,9.56,9.56,0,0,1,.5,3.14Zm-9.42-3A7,7,0,0,0,342,47a5.58,5.58,0,0,0,1.19-.41,6.2,6.2,0,0,0,1.07-.67,7.76,7.76,0,0,0,1-.93V41.64a21,21,0,0,0-3.54.27,9.38,9.38,0,0,0-2.28.68,3,3,0,0,0-1.24,1,2.43,2.43,0,0,0,.4,3,3.27,3.27,0,0,0,2,.55Z"/><path class="cls-3" d="M360.81,55.9a1.74,1.74,0,0,1-.55.76,1.76,1.76,0,0,1-1,.26h-3.54l3.7-7.92-8-18.31h4.16a1.31,1.31,0,0,1,.89.27,1.89,1.89,0,0,1,.46.62l4.22,10.25a9.11,9.11,0,0,1,.36,1c.1.36.2.72.27,1.08.1-.37.22-.74.34-1.08s.26-.7.4-1.06l4-10.23a1.39,1.39,0,0,1,.51-.64,1.33,1.33,0,0,1,.8-.25h3.81Z"/><path class="cls-3" d="M70.32,1.09c-6.65,0-12,5.91-12,13.2s7.06,14.38,12,22.13c5-7.75,12-14.84,12-22.13S77,1.09,70.32,1.09Zm-6,11.6a6.06,6.06,0,1,1,6,6.06,6.05,6.05,0,0,1-6-6.06Z"/></svg>