<?xml version="1.0" encoding="utf-8"?>
<!-- Generator: Adobe Illustrator 25.1.0, SVG Export Plug-In . SVG Version: 6.00 Build 0)  -->
<svg version="1.1" id="Layer_1" xmlns="http://www.w3.org/2000/svg" xmlns:xlink="http://www.w3.org/1999/xlink" x="0px" y="0px"
	 viewBox="0 0 426.6 272.8" style="enable-background:new 0 0 426.6 272.8;" xml:space="preserve">
<style type="text/css">
	.st0{fill:#BBD7EA;}
	.st1{fill:#DCEEF4;}
	.st2{fill:#D2E8F7;}
	.st3{fill:#ABDAEA;}
	.st4{opacity:0.51;}
	.st5{fill:url(#SVGID_1_);}
	.st6{fill:url(#SVGID_2_);}
	.st7{fill:url(#SVGID_3_);}
	.st8{fill:url(#SVGID_4_);}
	.st9{fill:url(#SVGID_5_);}
	.st10{fill:url(#SVGID_6_);}
	.st11{fill:url(#SVGID_7_);}
	.st12{fill:url(#SVGID_8_);}
	.st13{fill:url(#SVGID_9_);}
	.st14{fill:url(#SVGID_10_);}
	.st15{fill:url(#SVGID_11_);}
	.st16{fill:url(#SVGID_12_);}
	.st17{fill:url(#SVGID_13_);}
	.st18{fill:url(#SVGID_14_);}
	.st19{fill:url(#SVGID_15_);}
	.st20{fill:url(#SVGID_16_);}
	.st21{fill:url(#SVGID_17_);}
	.st22{fill:url(#SVGID_18_);}
	.st23{fill:url(#SVGID_19_);}
	.st24{fill:url(#SVGID_20_);}
	.st25{fill:url(#SVGID_21_);}
	.st26{fill:url(#SVGID_22_);}
	.st27{fill:url(#SVGID_23_);}
	.st28{fill:url(#SVGID_24_);}
	.st29{fill:url(#SVGID_25_);}
	.st30{fill:url(#SVGID_26_);}
	.st31{fill:url(#SVGID_27_);}
	.st32{fill:url(#SVGID_28_);}
	.st33{fill:url(#SVGID_29_);}
</style>
<path class="st0" d="M8.9,129.4l-0.1,0.2l-0.1-0.1c-0.5-0.5-1.2-0.7-1.6-0.2l0,0c-0.4,0.6-0.3,1.3,0.1,1.9l0.1,0.1L9,133l1.5-2.1
	c0.4-0.6,0.3-1.3-0.1-1.9l0,0C9.9,128.6,9.3,128.9,8.9,129.4z"/>
<g transform="translate(-1520.926 -1231.417)">
	<path class="st1" d="M1534.4,1356.4v-51l0,0v-14.7c-8.1-4.4-13.5-12.1-13.5-20.8c0-13.7,13.3-24.8,29.7-24.8
		c14.3,0,26.2,8.4,29.1,19.7c2.3-0.5,4.7-0.7,7-0.7c12.5,0,23.2,6.5,27.6,15.7c6.1-5.7,14.2-8.9,22.6-8.7
		c16.4,0,29.7,11.1,29.7,24.9c0,0.4,0,0.7,0,1c5.3-4.4,11.9-6.8,18.8-6.7c6.1-0.1,12,1.8,17,5.3c4-7.8,13.3-13.2,24-13.2
		c13.6,0,24.8,8.7,26,19.8c1.3-0.3,2.7-0.4,4-0.4c3.9,0,7.8,1.1,11,3.2c-0.3-1-0.4-2.1-0.4-3.2c0-8.3,8-14.9,17.9-14.9
		c4.6-0.1,9,1.5,12.6,4.4c2.4-5.9,9.1-10.1,16.9-10.1c5.2-0.1,10.2,1.9,13.9,5.6c4.7-4.2,12.1-6.9,20.3-6.9
		c10.5,0,19.6,4.4,23.6,10.8c8.7-3.4,18.4-3.4,27.1-0.2c3.5-7.9,12.6-13.4,23.2-13.4c13.7,0,24.7,9.3,24.7,20.7s2.4,57-11.3,57
		c-3.8,0-27.7,2.1-27.7,2.1L1534.4,1356.4z"/>
	<path class="st2" d="M1766.6,1363.3l-0.3,0.2l-0.1-0.3c-0.4-1-1.3-1.7-2.2-1.1l0,0c-0.9,0.7-1.2,1.8-0.8,2.8l0.1,0.3l1.6,3.5
		l3.4-2.4c0.9-0.7,1.2-1.8,0.8-2.8l0,0C1768.6,1362.6,1767.5,1362.7,1766.6,1363.3z"/>
	<path class="st2" d="M1891.4,1361.7l-0.1,0.2l-0.1-0.1c-0.5-0.5-1.2-0.7-1.6-0.2l0,0c-0.4,0.6-0.3,1.3,0.1,1.9l0.1,0.1l1.7,1.8
		l1.5-2.1c0.4-0.6,0.3-1.3-0.1-1.9l0,0C1892.4,1360.8,1891.8,1361.2,1891.4,1361.7z"/>
	<path class="st2" d="M1530.8,1314.1l-0.1,0.2l-0.1-0.1c-0.5-0.5-1.2-0.7-1.6-0.2l0,0c-0.4,0.6-0.3,1.3,0.1,1.9l0.1,0.1l1.7,1.8
		l1.5-2.1c0.4-0.6,0.3-1.3-0.1-1.9l0,0C1531.9,1313.2,1531.2,1313.5,1530.8,1314.1z"/>
	<path class="st3" d="M1816.2,1296.7v64.2h28.3v-64.2H1816.2z M1832.6,1307.3h-12v-5.3h12L1832.6,1307.3z M1841.3,1307.3h-5.4v-5.3
		h5.4V1307.3z"/>
	<path class="st3" d="M1854,1290.9v61.9h14.2v-61.9H1854z M1866,1302.3h-3.3v-2.6h3.3V1302.3z M1866,1298.1h-6.5v-2.6h6.5V1298.1z"
		/>
	<g transform="translate(0 2.786)">
		<path class="st3" d="M1884.9,1276.2v81.8h24v-81.8H1884.9z M1888.2,1280.1h6.5v2.6h-6.5V1280.1z M1905.5,1337.5h-17.3v-50.8h17.3
			L1905.5,1337.5z"/>
		<rect x="1889.2" y="1288" class="st3" width="15.3" height="50.6"/>
	</g>
	<path class="st3" d="M1763.5,1281.5h-14l-4.1,1.9v77.6h22.2v-77.6L1763.5,1281.5z M1763.8,1297.1h-13.8v-1.3h13.8L1763.8,1297.1z
		 M1763.8,1294.5h-13.8v-1.3h13.8L1763.8,1294.5z M1763.8,1291.8h-13.8v-1.3h13.8L1763.8,1291.8z"/>
	<path class="st3" d="M1608.2,1295.1v66h49.3v-66H1608.2z M1619,1317.2h-4.4v-5.3h4.4V1317.2z M1619,1309.3h-4.4v-5.3h4.4V1309.3z
		 M1626.6,1317.2h-4.4v-5.3h4.4V1317.2z M1626.6,1309.3h-4.4v-5.3h4.4V1309.3z M1633.2,1309.3h-4.4v-5.3h4.4V1309.3z M1640.8,1309.3
		h-4.4v-5.3h4.4V1309.3z M1647.3,1309.3h-4.4v-5.3h4.4V1309.3z"/>
	<path class="st3" d="M1628.9,1333.4v27.6h49.3v-27.6H1628.9z M1668,1354.3h-4.2v-6.6l4.2-5.4V1354.3z M1674.6,1354.3h-4.2v-6.6
		l4.2-5.4L1674.6,1354.3z"/>
	<path class="st3" d="M1654.4,1361.5h-1.3v-13.1h-3.5v13.1h-1.3v-13.1h-3.5v13.1h-1.3v-13.1h-3.5v13.1h-1.3v-13.1h-3.5v13.1h-1.3
		v-13.1h-3.5v13.1h-1.3v-13.1h-3.5v13.1h-1.3V1347h30.5L1654.4,1361.5L1654.4,1361.5z"/>
	<rect x="1803.2" y="1302.7" class="st3" width="9.8" height="58.2"/>
	<rect x="1827.1" y="1290.1" class="st3" width="9.8" height="6.6"/>
	<rect x="1840.2" y="1329.1" class="st3" width="50.1" height="31.7"/>
	<rect x="1840.8" y="1329.8" class="st3" width="49" height="30.4"/>
	<rect x="1530" y="1231.4" class="st3" width="13.9" height="129.7"/>
	<rect x="1813" y="1321.2" class="st3" width="3.3" height="6.6"/>
	<rect x="1581" y="1342.7" class="st3" width="27.5" height="18.4"/>
	<path class="st3" d="M1794.4,1297.1v-5.3h-15.3v69.1h15.3v-54h-8.7v-1.3h8.7v-3.2h-8.7v-1.3h8.7v-2.6h-8.7v-1.3L1794.4,1297.1z"/>
	<path class="st3" d="M1762.8,1318.6v42.3h21.8v-42.3H1762.8z M1772.6,1329.1h-8.7v-1.3h8.7V1329.1z M1772.6,1326.5h-8.7v-1.3h8.7
		V1326.5z"/>
	<path class="st3" d="M1686.5,1288.9v72.2h26.1v-72.2H1686.5z M1709.4,1331.4h-19.6v-4h19.6V1331.4z M1709.4,1318.8h-19.6v-4h19.6
		V1318.8z M1709.4,1306.2h-19.6v-4h19.6V1306.2z M1709.4,1299.2h-19.6v-4h19.6V1299.2z"/>
	<path class="st3" d="M1718.7,1331.8v29.1h29.4v-29.1H1718.7z M1740.5,1347.7h-2.2v-9.3h2.2V1347.7z M1743.8,1347.7h-2.2v-9.3h2.2
		V1347.7z"/>
	<path class="st3" d="M1914.1,1255.1v105.8h24v-105.8H1914.1z M1919.6,1308h-3.3v-9.3h3.3L1919.6,1308z M1919.6,1292.1h-3.3v-9.3
		h3.3L1919.6,1292.1z M1919.6,1276.3h-3.3v-9.3h3.3L1919.6,1276.3z M1928.3,1292.1h-3.3v-9.3h3.3V1292.1z M1928.3,1276.3h-3.3v-9.3
		h3.3V1276.3z"/>
	<path class="st3" d="M1528.1,1251.4v65.8h8.7v4h-8.7v39.9h28v-109.7H1528.1z M1553.2,1268.5h-10.9v-4h10.9V1268.5z M1553.2,1261.8
		h-10.9v-4h10.9V1261.8z"/>
	<path class="st3" d="M1566.2,1313.3v18.5h-24v21.2h36v-39.7L1566.2,1313.3z M1564.1,1339.7h-3.3v-4h3.3L1564.1,1339.7z
		 M1569.5,1339.7h-3.3v-4h3.3V1339.7z M1575,1339.7h-3.3v-4h3.3V1339.7z"/>
	<path class="st3" d="M1889.7,1331.1h-48.9l2.1-11.9h44.8L1889.7,1331.1z"/>
	<path class="st3" d="M1843.3,1319.9l-1.8,10.6h47.5l-1.8-10.6H1843.3 M1842.4,1318.6h45.7l2.2,13.2h-50.2L1842.4,1318.6z"/>
	<rect x="1597.2" y="1313.3" class="st3" width="18.5" height="47.6"/>
	<rect x="1844.6" y="1335.8" class="st3" width="13.1" height="2.6"/>
	<path class="st3" d="M1808.1,1361.5h-1.3v-13.1h-3.5v13.1h-1.3v-13.1h-3.5v13.1h-1.3v-13.1h-3.5v13.1h-1.3v-13.1h-3.5v13.1h-1.3
		v-13.1h-3.5v13.1h-1.3v-13.1h-3.5v13.1h-1.3V1347h30.5L1808.1,1361.5L1808.1,1361.5z"/>
	<rect x="1860.9" y="1335.8" class="st3" width="25.1" height="2.6"/>
	<path class="st3" d="M1736.9,1361.5h-1.3v-13.1h-3.5v13.1h-1.3v-13.1h-3.5v13.1h-1.3v-13.1h-3.5v13.1h-1.3v-13.1h-3.5v13.1h-1.3
		v-13.1h-3.5v13.1h-1.3v-13.1h-3.5v13.1h-1.3V1347h30.5L1736.9,1361.5L1736.9,1361.5z"/>
	<path class="st3" d="M1527.5,1352.9h408.6v13.2h-408.6V1352.9z"/>
	<g transform="translate(3465.557 2735.584) rotate(180)" class="st4">
		
			<linearGradient id="SVGID_1_" gradientUnits="userSpaceOnUse" x1="2042.6252" y1="966.986" x2="2042.6252" y2="967.986" gradientTransform="matrix(-14.166 0 0 61.946 30796.9629 -58610.0547)">
			<stop  offset="0" style="stop-color:#ABDAEA;stop-opacity:0"/>
			<stop  offset="1" style="stop-color:#ABDAEA"/>
		</linearGradient>
		<path class="st5" d="M1854,1290.9v61.9h14.2v-61.9H1854z M1866,1302.3h-3.3v-2.6h3.3V1302.3z M1866,1298.1h-6.5v-2.6h6.5V1298.1z"
			/>
		<g transform="translate(0 2.786)">
			
				<linearGradient id="SVGID_2_" gradientUnits="userSpaceOnUse" x1="2039.9684" y1="965.2165" x2="2039.9684" y2="966.2165" gradientTransform="matrix(-23.974 0 0 81.8459 50803.0742 -77722.8125)">
				<stop  offset="0" style="stop-color:#ABDAEA;stop-opacity:0"/>
				<stop  offset="1" style="stop-color:#ABDAEA"/>
			</linearGradient>
			<path class="st6" d="M1884.9,1276.2v81.8h24v-81.8H1884.9z M1888.2,1280.1h6.5v2.6h-6.5V1280.1z M1905.5,1337.5h-17.3v-50.8h17.3
				L1905.5,1337.5z"/>
			
				<linearGradient id="SVGID_3_" gradientUnits="userSpaceOnUse" x1="2042.1259" y1="963.2595" x2="2042.1259" y2="964.2595" gradientTransform="matrix(-15.346 0 0 50.571 33235.3398 -47425.0078)">
				<stop  offset="0" style="stop-color:#ABDAEA;stop-opacity:0"/>
				<stop  offset="1" style="stop-color:#ABDAEA"/>
			</linearGradient>
			<rect x="1889.2" y="1288" class="st7" width="15.3" height="50.6"/>
		</g>
		
			<linearGradient id="SVGID_4_" gradientUnits="userSpaceOnUse" x1="2040.27" y1="967.9108" x2="2040.27" y2="968.9108" gradientTransform="matrix(-22.2271 0 0 79.541 47105.7383 -75707.0703)">
			<stop  offset="0" style="stop-color:#ABDAEA;stop-opacity:0"/>
			<stop  offset="1" style="stop-color:#ABDAEA"/>
		</linearGradient>
		<path class="st8" d="M1763.5,1281.5h-14l-4.1,1.9v77.6h22.2v-77.6L1763.5,1281.5z M1763.8,1297.1h-13.8v-1.3h13.8L1763.8,1297.1z
			 M1763.8,1294.5h-13.8v-1.3h13.8L1763.8,1294.5z M1763.8,1291.8h-13.8v-1.3h13.8L1763.8,1291.8z"/>
		
			<linearGradient id="SVGID_5_" gradientUnits="userSpaceOnUse" x1="2037.9969" y1="967.2419" x2="2037.9969" y2="968.2419" gradientTransform="matrix(-49.3 0 0 65.985 102106.2266 -62528.3477)">
			<stop  offset="0" style="stop-color:#ABDAEA;stop-opacity:0"/>
			<stop  offset="1" style="stop-color:#ABDAEA"/>
		</linearGradient>
		<path class="st9" d="M1608.2,1295.1v66h49.3v-66H1608.2z M1619,1317.2h-4.4v-5.3h4.4V1317.2z M1619,1309.3h-4.4v-5.3h4.4V1309.3z
			 M1626.6,1317.2h-4.4v-5.3h4.4V1317.2z M1626.6,1309.3h-4.4v-5.3h4.4V1309.3z M1633.2,1309.3h-4.4v-5.3h4.4V1309.3z
			 M1640.8,1309.3h-4.4v-5.3h4.4V1309.3z M1647.3,1309.3h-4.4v-5.3h4.4V1309.3z"/>
		
			<linearGradient id="SVGID_6_" gradientUnits="userSpaceOnUse" x1="2037.9969" y1="961.7952" x2="2037.9969" y2="962.7952" gradientTransform="matrix(-49.3 0 0 27.636 102126.9375 -25246.7168)">
			<stop  offset="0" style="stop-color:#ABDAEA;stop-opacity:0"/>
			<stop  offset="1" style="stop-color:#ABDAEA"/>
		</linearGradient>
		<path class="st10" d="M1628.9,1333.4v27.6h49.3v-27.6H1628.9z M1668,1354.3h-4.2v-6.6l4.2-5.4V1354.3z M1674.6,1354.3h-4.2v-6.6
			l4.2-5.4L1674.6,1354.3z"/>
		
			<linearGradient id="SVGID_7_" gradientUnits="userSpaceOnUse" x1="2039.1461" y1="953.3615" x2="2039.1461" y2="954.3615" gradientTransform="matrix(-30.511 0 0 14.546 63855.5234 -12520.623)">
			<stop  offset="0" style="stop-color:#ABDAEA;stop-opacity:0"/>
			<stop  offset="1" style="stop-color:#ABDAEA"/>
		</linearGradient>
		<path class="st11" d="M1654.4,1361.5h-1.3v-13.1h-3.5v13.1h-1.3v-13.1h-3.5v13.1h-1.3v-13.1h-3.5v13.1h-1.3v-13.1h-3.5v13.1h-1.3
			v-13.1h-3.5v13.1h-1.3v-13.1h-3.5v13.1h-1.3V1347h30.5L1654.4,1361.5L1654.4,1361.5z"/>
		
			<linearGradient id="SVGID_8_" gradientUnits="userSpaceOnUse" x1="2045.512" y1="966.7156" x2="2045.512" y2="967.7156" gradientTransform="matrix(-9.807 0 0 58.184 21868.4004 -54944.6836)">
			<stop  offset="0" style="stop-color:#ABDAEA;stop-opacity:0"/>
			<stop  offset="1" style="stop-color:#ABDAEA"/>
		</linearGradient>
		<rect x="1803.2" y="1302.7" class="st12" width="9.8" height="58.2"/>
		<linearGradient id="SVGID_9_" gradientUnits="userSpaceOnUse" x1="1830.4041" y1="1290.072" x2="1830.4041" y2="1360.877">
			<stop  offset="0" style="stop-color:#ABDAEA;stop-opacity:0"/>
			<stop  offset="1" style="stop-color:#ABDAEA"/>
		</linearGradient>
		<path class="st13" d="M1816.2,1360.9h28.3v-64.2h-7.6v-6.6h-9.8v6.6h-10.9V1360.9z M1841.3,1307.3h-5.4v-5.3h5.4V1307.3z
			 M1820.6,1302h12l0,5.3h-12V1302z"/>
		
			<linearGradient id="SVGID_10_" gradientUnits="userSpaceOnUse" x1="2037.9662" y1="963.0062" x2="2037.9662" y2="964.0062" gradientTransform="matrix(-50.126 0 0 31.737 104020.3672 -29233.7871)">
			<stop  offset="0" style="stop-color:#ABDAEA;stop-opacity:0"/>
			<stop  offset="1" style="stop-color:#ABDAEA"/>
		</linearGradient>
		<rect x="1840.2" y="1329.1" class="st14" width="50.1" height="31.7"/>
		
			<linearGradient id="SVGID_11_" gradientUnits="userSpaceOnUse" x1="2038.007" y1="962.6512" x2="2038.007" y2="963.6512" gradientTransform="matrix(-49.037 0 0 30.414 101803.0234 -27948.2715)">
			<stop  offset="0" style="stop-color:#ABDAEA;stop-opacity:0"/>
			<stop  offset="1" style="stop-color:#ABDAEA"/>
		</linearGradient>
		<rect x="1840.8" y="1329.8" class="st15" width="49" height="30.4"/>
		
			<linearGradient id="SVGID_12_" gradientUnits="userSpaceOnUse" x1="2042.7592" y1="969.1694" x2="2042.7592" y2="970.1694" gradientTransform="matrix(-13.88 0 0 129.659 29890.4844 -124430.1172)">
			<stop  offset="0" style="stop-color:#ABDAEA;stop-opacity:0"/>
			<stop  offset="1" style="stop-color:#ABDAEA"/>
		</linearGradient>
		<rect x="1530" y="1231.4" class="st16" width="13.9" height="129.7"/>
		
			<linearGradient id="SVGID_13_" gradientUnits="userSpaceOnUse" x1="2064.2739" y1="931.9958" x2="2064.2739" y2="932.9958" gradientTransform="matrix(-3.269 0 0 6.612 8562.7148 -4841.1499)">
			<stop  offset="0" style="stop-color:#ABDAEA;stop-opacity:0"/>
			<stop  offset="1" style="stop-color:#ABDAEA"/>
		</linearGradient>
		<rect x="1813" y="1321.2" class="st17" width="3.3" height="6.6"/>
		
			<linearGradient id="SVGID_14_" gradientUnits="userSpaceOnUse" x1="2039.4755" y1="957.0756" x2="2039.4755" y2="958.0756" gradientTransform="matrix(-27.507 0 0 18.38 57694.5898 -16248.3516)">
			<stop  offset="0" style="stop-color:#ABDAEA;stop-opacity:0"/>
			<stop  offset="1" style="stop-color:#ABDAEA"/>
		</linearGradient>
		<rect x="1581" y="1342.7" class="st18" width="27.5" height="18.4"/>
		
			<linearGradient id="SVGID_15_" gradientUnits="userSpaceOnUse" x1="2042.1613" y1="967.4165" x2="2042.1613" y2="968.4165" gradientTransform="matrix(-15.256 0 0 69.058 32941.9883 -65516.0156)">
			<stop  offset="0" style="stop-color:#ABDAEA;stop-opacity:0"/>
			<stop  offset="1" style="stop-color:#ABDAEA"/>
		</linearGradient>
		<path class="st19" d="M1794.4,1297.1v-5.3h-15.3v69.1h15.3v-54h-8.7v-1.3h8.7v-3.2h-8.7v-1.3h8.7v-2.6h-8.7v-1.3L1794.4,1297.1z"
			/>
		
			<linearGradient id="SVGID_16_" gradientUnits="userSpaceOnUse" x1="2040.3522" y1="965.0464" x2="2040.3522" y2="966.0464" gradientTransform="matrix(-21.7939 0 0 42.316 46241.0625 -39518.3789)">
			<stop  offset="0" style="stop-color:#ABDAEA;stop-opacity:0"/>
			<stop  offset="1" style="stop-color:#ABDAEA"/>
		</linearGradient>
		<path class="st20" d="M1762.8,1318.6v42.3h21.8v-42.3H1762.8z M1772.6,1329.1h-8.7v-1.3h8.7V1329.1z M1772.6,1326.5h-8.7v-1.3h8.7
			V1326.5z"/>
		
			<linearGradient id="SVGID_17_" gradientUnits="userSpaceOnUse" x1="2039.6587" y1="967.5781" x2="2039.6587" y2="968.5781" gradientTransform="matrix(-26.078 0 0 72.168 54889.7266 -68539.2422)">
			<stop  offset="0" style="stop-color:#ABDAEA;stop-opacity:0"/>
			<stop  offset="1" style="stop-color:#ABDAEA"/>
		</linearGradient>
		<path class="st21" d="M1686.5,1288.9v72.2h26.1v-72.2H1686.5z M1709.4,1331.4h-19.6v-4h19.6V1331.4z M1709.4,1318.8h-19.6v-4h19.6
			V1318.8z M1709.4,1306.2h-19.6v-4h19.6V1306.2z M1709.4,1299.2h-19.6v-4h19.6V1299.2z"/>
		
			<linearGradient id="SVGID_18_" gradientUnits="userSpaceOnUse" x1="2039.2578" y1="962.2642" x2="2039.2578" y2="963.2642" gradientTransform="matrix(-29.422 0 0 29.092 61732.4453 -26662.4453)">
			<stop  offset="0" style="stop-color:#ABDAEA;stop-opacity:0"/>
			<stop  offset="1" style="stop-color:#ABDAEA"/>
		</linearGradient>
		<path class="st22" d="M1718.7,1331.8v29.1h29.4v-29.1H1718.7z M1740.5,1347.7h-2.2v-9.3h2.2V1347.7z M1743.8,1347.7h-2.2v-9.3h2.2
			V1347.7z"/>
		
			<linearGradient id="SVGID_19_" gradientUnits="userSpaceOnUse" x1="2039.9684" y1="968.7188" x2="2039.9684" y2="969.7188" gradientTransform="matrix(-23.974 0 0 105.7889 50832.3047 -101224.6406)">
			<stop  offset="0" style="stop-color:#ABDAEA;stop-opacity:0"/>
			<stop  offset="1" style="stop-color:#ABDAEA"/>
		</linearGradient>
		<path class="st23" d="M1914.1,1255.1v105.8h24v-105.8H1914.1z M1919.6,1308h-3.3v-9.3h3.3L1919.6,1308z M1919.6,1292.1h-3.3v-9.3
			h3.3L1919.6,1292.1z M1919.6,1276.3h-3.3v-9.3h3.3L1919.6,1276.3z M1928.3,1292.1h-3.3v-9.3h3.3V1292.1z M1928.3,1276.3h-3.3v-9.3
			h3.3V1276.3z"/>
		
			<linearGradient id="SVGID_20_" gradientUnits="userSpaceOnUse" x1="2039.4111" y1="968.8055" x2="2039.4111" y2="969.8055" gradientTransform="matrix(-28.046 0 0 109.675 58739.4961 -105002.3906)">
			<stop  offset="0" style="stop-color:#ABDAEA;stop-opacity:0"/>
			<stop  offset="1" style="stop-color:#ABDAEA"/>
		</linearGradient>
		<path class="st24" d="M1528.1,1251.4v65.8h8.7v4h-8.7v39.9h28v-109.7H1528.1z M1553.2,1268.5h-10.9v-4h10.9V1268.5z
			 M1553.2,1261.8h-10.9v-4h10.9V1261.8z"/>
		
			<linearGradient id="SVGID_21_" gradientUnits="userSpaceOnUse" x1="2038.6892" y1="964.6383" x2="2038.6892" y2="965.6383" gradientTransform="matrix(-35.96 0 0 39.671 74871.4375 -36954.9141)">
			<stop  offset="0" style="stop-color:#ABDAEA;stop-opacity:0"/>
			<stop  offset="1" style="stop-color:#ABDAEA"/>
		</linearGradient>
		<path class="st25" d="M1566.2,1313.3v18.5h-24v21.2h36v-39.7L1566.2,1313.3z M1564.1,1339.7h-3.3v-4h3.3L1564.1,1339.7z
			 M1569.5,1339.7h-3.3v-4h3.3V1339.7z M1575,1339.7h-3.3v-4h3.3V1339.7z"/>
		
			<linearGradient id="SVGID_22_" gradientUnits="userSpaceOnUse" x1="2038.0134" y1="949.4023" x2="2038.0134" y2="950.4023" gradientTransform="matrix(-48.871 0 0 11.9 101464.9297 -9978.6865)">
			<stop  offset="0" style="stop-color:#ABDAEA;stop-opacity:0"/>
			<stop  offset="1" style="stop-color:#ABDAEA"/>
		</linearGradient>
		<path class="st26" d="M1889.7,1331.1h-48.9l2.1-11.9h44.8L1889.7,1331.1z"/>
		
			<linearGradient id="SVGID_23_" gradientUnits="userSpaceOnUse" x1="2037.963" y1="951.5814" x2="2037.963" y2="952.5814" gradientTransform="matrix(-50.214 0 0 13.224 104199.4844 -11265.1504)">
			<stop  offset="0" style="stop-color:#ABDAEA;stop-opacity:0"/>
			<stop  offset="1" style="stop-color:#ABDAEA"/>
		</linearGradient>
		<path class="st27" d="M1843.3,1319.9l-1.8,10.6h47.5l-1.8-10.6H1843.3 M1842.4,1318.6h45.7l2.2,13.2h-50.2L1842.4,1318.6z"/>
		
			<linearGradient id="SVGID_24_" gradientUnits="userSpaceOnUse" x1="2041.0972" y1="965.7264" x2="2041.0972" y2="966.7264" gradientTransform="matrix(-18.525 0 0 47.605 39417.793 -44660.1328)">
			<stop  offset="0" style="stop-color:#ABDAEA;stop-opacity:0"/>
			<stop  offset="1" style="stop-color:#ABDAEA"/>
		</linearGradient>
		<rect x="1597.2" y="1313.3" class="st28" width="18.5" height="47.6"/>
		
			<linearGradient id="SVGID_25_" gradientUnits="userSpaceOnUse" x1="2043.1666" y1="873.2464" x2="2043.1666" y2="874.2464" gradientTransform="matrix(-13.076 0 0 2.645 28567.5547 -973.9847)">
			<stop  offset="0" style="stop-color:#ABDAEA;stop-opacity:0"/>
			<stop  offset="1" style="stop-color:#ABDAEA"/>
		</linearGradient>
		<rect x="1844.6" y="1335.8" class="st29" width="13.1" height="2.6"/>
		
			<linearGradient id="SVGID_26_" gradientUnits="userSpaceOnUse" x1="2039.1461" y1="953.3615" x2="2039.1461" y2="954.3615" gradientTransform="matrix(-30.5117 0 0 14.546 64010.6602 -12520.623)">
			<stop  offset="0" style="stop-color:#ABDAEA;stop-opacity:0"/>
			<stop  offset="1" style="stop-color:#ABDAEA"/>
		</linearGradient>
		<path class="st30" d="M1808.1,1361.5h-1.3v-13.1h-3.5v13.1h-1.3v-13.1h-3.5v13.1h-1.3v-13.1h-3.5v13.1h-1.3v-13.1h-3.5v13.1h-1.3
			v-13.1h-3.5v13.1h-1.3v-13.1h-3.5v13.1h-1.3V1347h30.5L1808.1,1361.5L1808.1,1361.5z"/>
		
			<linearGradient id="SVGID_27_" gradientUnits="userSpaceOnUse" x1="2039.8016" y1="873.2464" x2="2039.8016" y2="874.2464" gradientTransform="matrix(-25.063 0 0 2.645 52996.9922 -973.9847)">
			<stop  offset="0" style="stop-color:#ABDAEA;stop-opacity:0"/>
			<stop  offset="1" style="stop-color:#ABDAEA"/>
		</linearGradient>
		<rect x="1860.9" y="1335.8" class="st31" width="25.1" height="2.6"/>
		
			<linearGradient id="SVGID_28_" gradientUnits="userSpaceOnUse" x1="2039.1461" y1="953.3615" x2="2039.1461" y2="954.3615" gradientTransform="matrix(-30.511 0 0 14.546 63938.0547 -12520.623)">
			<stop  offset="0" style="stop-color:#ABDAEA;stop-opacity:0"/>
			<stop  offset="1" style="stop-color:#ABDAEA"/>
		</linearGradient>
		<path class="st32" d="M1736.9,1361.5h-1.3v-13.1h-3.5v13.1h-1.3v-13.1h-3.5v13.1h-1.3v-13.1h-3.5v13.1h-1.3v-13.1h-3.5v13.1h-1.3
			v-13.1h-3.5v13.1h-1.3v-13.1h-3.5v13.1h-1.3V1347h30.5L1736.9,1361.5L1736.9,1361.5z"/>
		
			<linearGradient id="SVGID_29_" gradientUnits="userSpaceOnUse" x1="2036.356" y1="951.5814" x2="2036.356" y2="952.5814" gradientTransform="matrix(-408.64 0 0 13.224 833868.3125 -11230.7695)">
			<stop  offset="0" style="stop-color:#ABDAEA;stop-opacity:0"/>
			<stop  offset="1" style="stop-color:#ABDAEA"/>
		</linearGradient>
		<path class="st33" d="M1527.5,1352.9h408.6v13.2h-408.6V1352.9z"/>
	</g>
</g>
</svg>
