<svg xmlns="http://www.w3.org/2000/svg" xmlns:xlink="http://www.w3.org/1999/xlink" width="426.596" height="272.75" viewBox="0 0 426.596 272.75"><defs><linearGradient id="a" x1="0.5" x2="0.5" y2="1" gradientUnits="objectBoundingBox"><stop offset="0" stop-color="#abdaea" stop-opacity="0"/><stop offset="1" stop-color="#abdaea"/></linearGradient></defs><path d="M1851.631,965.36l-.262.184-.131-.293c-.428-.956-1.349-1.684-2.206-1.084h0a2.386,2.386,0,0,0-.779,2.818l.131.291,1.551,3.461,3.369-2.358a2.384,2.384,0,0,0,.779-2.817h0C1853.653,964.607,1852.489,964.759,1851.631,965.36Z" transform="translate(-1606.953 -786.664)" fill="#bbd7ea"/><path d="M2001.423,963.589l-.119.166-.14-.149c-.458-.484-1.165-.729-1.555-.188h0a1.52,1.52,0,0,0,.125,1.858l.14.148,1.661,1.754,1.53-2.126a1.52,1.52,0,0,0-.125-1.858h0C2002.48,962.711,2001.812,963.048,2001.423,963.589Z" transform="translate(-1631.989 -786.501)" fill="#bbd7ea"/><path d="M1569.37,906.495l-.119.166-.14-.149c-.459-.484-1.165-.729-1.555-.188h0a1.518,1.518,0,0,0,.125,1.858l.14.148,1.66,1.755,1.529-2.126a1.519,1.519,0,0,0-.124-1.858h0C1570.426,905.617,1569.759,905.954,1569.37,906.495Z" transform="translate(-1560.487 -777.052)" fill="#bbd7ea"/><g transform="translate(-1520.926 -1231.417)" style="isolation:isolate"><path d="M1534.426,1356.4v-51h0v-14.722c-8.127-4.435-13.5-12.107-13.5-20.829,0-13.724,13.3-24.85,29.715-24.85,14.3,0,26.23,8.445,29.069,19.695a35.315,35.315,0,0,1,7.023-.7c12.532,0,23.243,6.491,27.611,15.669a32.292,32.292,0,0,1,22.6-8.727c16.411,0,29.714,11.127,29.714,24.852,0,.351-.014.7-.031,1.047a28.753,28.753,0,0,1,18.814-6.684,29.219,29.219,0,0,1,17,5.26c4.02-7.758,13.254-13.187,24.009-13.187,13.587,0,24.753,8.665,26.033,19.75a21.145,21.145,0,0,1,4.009-.392,20.077,20.077,0,0,1,11.042,3.208,12.635,12.635,0,0,1-.423-3.208c0-8.257,8-14.95,17.877-14.95a19.706,19.706,0,0,1,12.6,4.354c2.4-5.9,9.056-10.147,16.917-10.147a19.309,19.309,0,0,1,13.935,5.6c4.729-4.207,12.05-6.91,20.275-6.91,10.526,0,19.574,4.425,23.6,10.768a38.757,38.757,0,0,1,27.149-.239c3.507-7.851,12.555-13.443,23.166-13.443,13.655,0,24.724,9.258,24.724,20.679s2.4,56.972-11.254,56.972c-3.767.012-27.679,2.133-27.679,2.133Z" fill="#dceef4" style="isolation:isolate"/><path d="M1766.6,1363.324l-.262.184-.131-.293c-.428-.956-1.349-1.684-2.206-1.084h0a2.386,2.386,0,0,0-.779,2.818l.131.291,1.551,3.461,3.369-2.358a2.384,2.384,0,0,0,.779-2.817h0C1768.626,1362.571,1767.462,1362.723,1766.6,1363.324Z" fill="#d2e8f7"/><path d="M1891.361,1361.716l-.119.166-.14-.149c-.458-.484-1.165-.729-1.555-.188h0a1.519,1.519,0,0,0,.125,1.858l.14.148,1.661,1.754,1.53-2.126a1.521,1.521,0,0,0-.125-1.858h0C1892.418,1360.838,1891.75,1361.175,1891.361,1361.716Z" fill="#d2e8f7"/><path d="M1530.809,1314.071l-.119.166-.14-.149c-.459-.484-1.165-.729-1.555-.188h0a1.518,1.518,0,0,0,.125,1.858l.14.148,1.66,1.755,1.529-2.126a1.521,1.521,0,0,0-.124-1.858h0C1531.865,1313.193,1531.2,1313.53,1530.809,1314.071Z" fill="#d2e8f7"/><path d="M1816.238,1296.684v64.193h28.332v-64.193Zm16.345,10.578H1820.6v-5.289h11.987Zm8.718,0h-5.449v-5.289h5.449Z" fill="#abdaea"/><path d="M1854.018,1290.9v61.946h14.166V1290.9Zm11.987,11.36h-3.269v-2.645h3.269Zm0-4.192h-6.538v-2.645h6.538Z" fill="#abdaea"/><g transform="translate(0 2.786)"><path d="M1884.889,1276.245v81.846h23.974v-81.846Zm3.269,3.836h6.538v2.558h-6.538Zm17.391,57.391H1888.2v-50.842h17.346Z" transform="translate(0 0)" fill="#abdaea"/><rect width="15.346" height="50.571" transform="translate(1889.203 1287.985)" fill="#abdaea"/></g><path d="M1763.5,1281.536h-13.988l-4.073,1.941v77.6h22.227v-77.6Zm.338,15.572H1750.05v-1.322h13.791Zm0-2.645H1750.05v-1.322h13.791Zm0-2.644H1750.05V1290.5h13.791Z" fill="#abdaea"/><path d="M1608.229,1295.092v65.985h49.3v-65.985ZM1619,1317.238h-4.359v-5.289H1619Zm0-7.934h-4.359v-5.289H1619Zm7.628,7.934h-4.359v-5.289h4.359Zm0-7.934h-4.359v-5.289h4.359Zm6.538,0h-4.359v-5.289h4.359Zm7.628,0h-4.359v-5.289h4.359Zm6.538,0h-4.359v-5.289h4.359Z" fill="#abdaea"/><path d="M1628.933,1333.44v27.636h49.3V1333.44Zm39.1,20.83h-4.174v-6.616l4.174-5.384Zm6.538,0H1670.4v-6.616l4.174-5.384Z" fill="#abdaea"/><path d="M1654.416,1361.538h-1.34V1348.47h-3.52v13.068h-1.342V1348.47h-3.52v13.068h-1.341V1348.47h-3.521v13.068h-1.341V1348.47h-3.521v13.068h-1.341V1348.47h-3.521v13.068h-1.341V1348.47h-3.521v13.068h-1.341v-14.546h30.511v14.546Z" fill="#abdaea"/><rect width="9.807" height="58.184" transform="translate(1803.161 1302.693)" fill="#abdaea"/><rect width="9.807" height="6.612" transform="translate(1827.134 1290.072)" fill="#abdaea"/><rect width="50.126" height="31.737" transform="translate(1840.211 1329.14)" fill="#abdaea"/><rect width="49.037" height="30.414" transform="translate(1840.756 1329.801)" fill="#abdaea"/><rect width="13.88" height="129.659" transform="translate(1530.047 1231.417)" fill="#abdaea"/><rect width="3.269" height="6.612" transform="translate(1812.968 1321.206)" fill="#abdaea"/><rect width="27.507" height="18.38" transform="translate(1580.985 1342.697)" fill="#abdaea"/><path d="M1794.443,1297.108v-5.289h-15.256v69.058h15.256v-53.959h-8.718V1305.6h8.718v-3.2h-8.718v-1.322h8.718v-2.646h-8.718v-1.322Z" fill="#abdaea"/><path d="M1762.842,1318.561v42.316h21.794v-42.316Zm9.807,10.579h-8.718v-1.322h8.718Zm0-2.645h-8.718v-1.322h8.718Z" fill="#abdaea"/><path d="M1686.462,1288.909v72.168h26.078v-72.168Zm22.984,42.483h-19.615v-3.967h19.615Zm0-12.611h-19.615v-3.967h19.615Zm0-12.61h-19.615V1302.2h19.615Zm0-7.016h-19.615v-3.967h19.615Z" fill="#abdaea"/><path d="M1718.7,1331.785v29.092h29.422v-29.092Zm21.793,15.869h-2.179V1338.4h2.179Zm3.27,0h-2.179V1338.4h2.179Z" fill="#abdaea"/><path d="M1924.118,1255.087v105.789h23.974V1255.087Zm5.449,52.9H1926.3v-9.257h3.269Zm0-15.869H1926.3v-9.257h3.269Zm0-15.868H1926.3v-9.257h3.269Zm8.717,15.868h-3.269v-9.257h3.269Zm0-15.868h-3.269v-9.257h3.269Z" transform="translate(-10)" fill="#abdaea"/><path d="M1523.107,1251.4v65.838h8.717v3.967h-8.717v39.87h28.046V1251.4Zm25.063,17.059h-10.9v-3.967h10.9Zm0-6.612h-10.9v-3.967h10.9Z" transform="translate(5)" fill="#abdaea"/><path d="M1561.246,1313.272v18.513h-23.973v21.158h35.96v-39.671Zm-2.179,26.447H1555.8v-3.967h3.269Zm5.448,0h-3.269v-3.967h3.269Zm5.449,0h-3.269v-3.967h3.269Z" transform="translate(5)" fill="#abdaea"/><path d="M1889.671,1331.124H1840.8l2.06-11.9h44.827Z" fill="#abdaea"/><path d="M1843.3,1319.884l-1.831,10.579h47.539l-1.768-10.579H1843.3m-.884-1.323h45.715l2.21,13.224h-50.214Z" fill="#abdaea"/><rect width="18.525" height="47.605" transform="translate(1597.206 1313.272)" fill="#abdaea"/><rect width="13.076" height="2.645" transform="translate(1844.569 1335.752)" fill="#abdaea"/><path d="M1808.064,1361.538h-1.339V1348.47H1803.2v13.068h-1.342V1348.47h-3.52v13.068H1797V1348.47h-3.521v13.068h-1.341V1348.47h-3.521v13.068h-1.341V1348.47h-3.521v13.068h-1.341V1348.47h-3.521v13.068h-1.341v-14.546h30.511v14.546Z" fill="#abdaea"/><rect width="25.063" height="2.645" transform="translate(1860.915 1335.752)" fill="#abdaea"/><path d="M1736.946,1361.538h-1.34V1348.47h-3.52v13.068h-1.342V1348.47h-3.52v13.068h-1.341V1348.47h-3.521v13.068h-1.341V1348.47H1717.5v13.068h-1.341V1348.47h-3.521v13.068H1711.3V1348.47h-3.521v13.068h-1.341v-14.546h30.511v14.546Z" fill="#abdaea"/><path d="M0,0H408.64V13.224H0Z" transform="translate(1527.465 1352.943)" fill="#abdaea"/><path d="M1705.883,1297.679V1265.7h11.032a20.93,20.93,0,0,1,5.363.6,10.212,10.212,0,0,1,3.65,1.7,6.608,6.608,0,0,1,2.086,2.677,9.011,9.011,0,0,1,.663,3.538,6.917,6.917,0,0,1-.334,2.155,6.183,6.183,0,0,1-1.027,1.924,7.679,7.679,0,0,1-1.769,1.625,10.633,10.633,0,0,1-2.553,1.241q6.587,1.481,6.59,7.125a9.058,9.058,0,0,1-.773,3.759,8.275,8.275,0,0,1-2.26,2.975,10.737,10.737,0,0,1-3.649,1.955,15.958,15.958,0,0,1-4.955.709Zm5.949-18.135h4.755a7.959,7.959,0,0,0,4.6-1.1,4,4,0,0,0,1.564-3.517,4.169,4.169,0,0,0-1.415-3.561,7.406,7.406,0,0,0-4.423-1.06h-5.085Zm0,4.115v9.374h6.037a8.341,8.341,0,0,0,2.781-.4,4.8,4.8,0,0,0,1.792-1.062,3.853,3.853,0,0,0,.973-1.545,5.85,5.85,0,0,0,.3-1.882,4.964,4.964,0,0,0-.331-1.866,3.5,3.5,0,0,0-1.043-1.416,4.895,4.895,0,0,0-1.813-.893,10.069,10.069,0,0,0-2.676-.309Z" transform="translate(-89.584 -20.701)" fill="#abdaea"/><path d="M1738.4,1288.81h-2.178a2.339,2.339,0,0,1-1.078-.208,1.327,1.327,0,0,1-.589-.834l-.431-1.43a16.767,16.767,0,0,1-1.5,1.2,9.059,9.059,0,0,1-1.519.872,7.831,7.831,0,0,1-1.669.53,10.1,10.1,0,0,1-1.958.177,7.718,7.718,0,0,1-2.355-.344,5.08,5.08,0,0,1-1.849-1.032,4.712,4.712,0,0,1-1.206-1.712,6.076,6.076,0,0,1-.432-2.381,4.667,4.667,0,0,1,.6-2.252,5.607,5.607,0,0,1,1.989-2,12.685,12.685,0,0,1,3.7-1.486,23.657,23.657,0,0,1,5.746-.59v-1.187a4.509,4.509,0,0,0-.854-3.014,3.122,3.122,0,0,0-2.481-.977,5.961,5.961,0,0,0-1.962.276,7.357,7.357,0,0,0-1.361.616q-.58.343-1.069.617a2.163,2.163,0,0,1-1.079.276,1.413,1.413,0,0,1-.841-.256,1.99,1.99,0,0,1-.569-.627l-.883-1.55a11.959,11.959,0,0,1,8.371-3.175,8.035,8.035,0,0,1,3.146.578,6.666,6.666,0,0,1,2.344,1.607,6.917,6.917,0,0,1,1.461,2.465,9.476,9.476,0,0,1,.5,3.136Zm-9.412-3.02a6.622,6.622,0,0,0,1.373-.134,5.209,5.209,0,0,0,1.188-.405,6.463,6.463,0,0,0,1.079-.667,9.445,9.445,0,0,0,1.05-.935v-3.364a19.664,19.664,0,0,0-3.544.266,9.251,9.251,0,0,0-2.285.683,2.933,2.933,0,0,0-1.233.968,2.434,2.434,0,0,0,.394,3.04,3.233,3.233,0,0,0,1.979.547Z" transform="translate(-78.04 -11.704)" fill="#abdaea"/><path d="M1738.151,1291.085v-20.119h2.958a1.193,1.193,0,0,1,1.233.883l.331,1.589a10.84,10.84,0,0,1,1.285-1.137,8.849,8.849,0,0,1,1.431-.883,7.355,7.355,0,0,1,1.618-.57,8.618,8.618,0,0,1,1.883-.194,7.254,7.254,0,0,1,2.928.558,5.815,5.815,0,0,1,2.126,1.569,6.932,6.932,0,0,1,1.295,2.413,10.23,10.23,0,0,1,.442,3.082v12.8h-4.84v-12.8a4.29,4.29,0,0,0-.854-2.852,3.158,3.158,0,0,0-2.558-1.011,5.043,5.043,0,0,0-2.353.569,8.423,8.423,0,0,0-2.079,1.55v14.548Z" transform="translate(-74.771 -0.727)" fill="#abdaea"/><path d="M1768.437,1293.333a1.19,1.19,0,0,1-1.233-.883l-.393-1.942a11.991,11.991,0,0,1-1.313,1.273,8.159,8.159,0,0,1-1.482.98,7.588,7.588,0,0,1-1.706.638,8.178,8.178,0,0,1-1.971.226,6.559,6.559,0,0,1-5.383-2.678,9.532,9.532,0,0,1-1.528-3.224,16.291,16.291,0,0,1-.538-4.392,13.735,13.735,0,0,1,.607-4.161,10.124,10.124,0,0,1,1.744-3.333,8.142,8.142,0,0,1,2.726-2.206,7.863,7.863,0,0,1,3.57-.792,6.966,6.966,0,0,1,2.88.539,7.525,7.525,0,0,1,2.139,1.441v-10.633h4.842v29.137Zm-6.449-3.544a4.958,4.958,0,0,0,2.569-.627,7.666,7.666,0,0,0,2-1.783v-9.021a4.808,4.808,0,0,0-1.8-1.41,5.277,5.277,0,0,0-2.088-.411,4.678,4.678,0,0,0-1.99.411,3.9,3.9,0,0,0-1.51,1.244,6.166,6.166,0,0,0-.951,2.119,12.159,12.159,0,0,0-.333,3.03,13.465,13.465,0,0,0,.284,2.99,5.875,5.875,0,0,0,.814,2,3.106,3.106,0,0,0,1.294,1.118,4.119,4.119,0,0,0,1.7.333Z" transform="translate(-68.959 -3.337)" fill="#abdaea"/><path d="M1785.646,1292.331h-2.176a2.336,2.336,0,0,1-1.078-.208,1.325,1.325,0,0,1-.587-.833l-.433-1.43a16.628,16.628,0,0,1-1.5,1.2,8.992,8.992,0,0,1-1.518.872,7.776,7.776,0,0,1-1.668.53,9.966,9.966,0,0,1-1.96.177,7.707,7.707,0,0,1-2.355-.344,5.11,5.11,0,0,1-1.849-1.032,4.707,4.707,0,0,1-1.205-1.712,6.118,6.118,0,0,1-.432-2.381,4.7,4.7,0,0,1,.6-2.251,5.633,5.633,0,0,1,1.993-2,12.619,12.619,0,0,1,3.7-1.486,23.647,23.647,0,0,1,5.746-.59v-1.187a4.483,4.483,0,0,0-.854-3.014,3.114,3.114,0,0,0-2.479-.977,5.951,5.951,0,0,0-1.96.276,7.444,7.444,0,0,0-1.362.616q-.58.342-1.069.616a2.162,2.162,0,0,1-1.078.276,1.421,1.421,0,0,1-.843-.256,2.03,2.03,0,0,1-.568-.627l-.881-1.55a11.957,11.957,0,0,1,8.371-3.174,8.031,8.031,0,0,1,3.147.578,6.664,6.664,0,0,1,2.344,1.607,6.862,6.862,0,0,1,1.46,2.464,9.393,9.393,0,0,1,.5,3.138Zm-9.41-3.02a6.5,6.5,0,0,0,1.371-.134,5.11,5.11,0,0,0,1.188-.405,6.4,6.4,0,0,0,1.078-.667,9.4,9.4,0,0,0,1.051-.935V1283.8a19.686,19.686,0,0,0-3.544.267,9.374,9.374,0,0,0-2.284.683,2.909,2.909,0,0,0-1.233.968,2.144,2.144,0,0,0-.364,1.2,2.122,2.122,0,0,0,.755,1.837,3.243,3.243,0,0,0,1.982.547Z" transform="translate(-61.874 -6.549)" fill="#abdaea"/><path d="M1783.953,1292.271v-20.119h2.843a1.519,1.519,0,0,1,1.04.276,1.581,1.581,0,0,1,.393.942l.293,2.432a9.547,9.547,0,0,1,2.529-2.942,5.328,5.328,0,0,1,3.256-1.078,4.182,4.182,0,0,1,2.465.686l-.625,3.627a.76.76,0,0,1-.256.5.869.869,0,0,1-.53.154,3.269,3.269,0,0,1-.8-.137,5.437,5.437,0,0,0-1.353-.139,4.109,4.109,0,0,0-2.587.834,6.45,6.45,0,0,0-1.823,2.441v12.531Z" transform="translate(-55.299 -6.841)" fill="#abdaea"/><path d="M1818.343,1271.472a1.614,1.614,0,0,1-.547.665,1.375,1.375,0,0,1-.739.193,1.874,1.874,0,0,1-.963-.336c-.357-.222-.779-.468-1.262-.74a10.544,10.544,0,0,0-1.7-.737,7.155,7.155,0,0,0-2.3-.336,6.733,6.733,0,0,0-2.086.291,4.439,4.439,0,0,0-1.5.8,3.228,3.228,0,0,0-.911,1.233,4.037,4.037,0,0,0-.3,1.573,2.745,2.745,0,0,0,.609,1.82,5.117,5.117,0,0,0,1.616,1.242,14.825,14.825,0,0,0,2.291.92q1.286.406,2.622.866a25.273,25.273,0,0,1,2.622,1.068,9.229,9.229,0,0,1,2.291,1.542,7,7,0,0,1,1.616,2.278,7.9,7.9,0,0,1,.611,3.276,10.622,10.622,0,0,1-.718,3.926,9.017,9.017,0,0,1-2.1,3.2,9.829,9.829,0,0,1-3.364,2.139,12.387,12.387,0,0,1-4.558.779,14.71,14.71,0,0,1-2.91-.288,15.372,15.372,0,0,1-2.75-.824,14.493,14.493,0,0,1-2.463-1.285,12.222,12.222,0,0,1-2.042-1.668l1.669-2.762a2.158,2.158,0,0,1,.567-.5,1.406,1.406,0,0,1,.737-.2,2.024,2.024,0,0,1,1.156.437c.417.293.9.617,1.467.972a11.033,11.033,0,0,0,1.992.976,7.688,7.688,0,0,0,2.75.437,5.641,5.641,0,0,0,3.81-1.166,4.179,4.179,0,0,0,1.345-3.347,3.1,3.1,0,0,0-.612-1.992,4.871,4.871,0,0,0-1.615-1.294,12.266,12.266,0,0,0-2.291-.888c-.858-.244-1.726-.5-2.61-.792a22.591,22.591,0,0,1-2.613-1.029,8.418,8.418,0,0,1-2.289-1.561,7.116,7.116,0,0,1-1.617-2.409,9.207,9.207,0,0,1-.61-3.564,8.5,8.5,0,0,1,2.644-6.141,9.759,9.759,0,0,1,3.177-1.99,11.6,11.6,0,0,1,4.3-.75,14.469,14.469,0,0,1,5.046.854,11.462,11.462,0,0,1,3.938,2.4Z" transform="translate(-40.647 -13.275)" fill="#abdaea"/><path d="M1820.054,1269.78v12.79a4.3,4.3,0,0,0,.854,2.854,3.153,3.153,0,0,0,2.558,1.011,5.138,5.138,0,0,0,2.353-.559,8.245,8.245,0,0,0,2.077-1.541V1269.78h4.845V1289.9h-2.96a1.19,1.19,0,0,1-1.233-.883l-.333-1.609a14.289,14.289,0,0,1-1.295,1.148,7.9,7.9,0,0,1-1.422.883,7.955,7.955,0,0,1-3.5.774,7.187,7.187,0,0,1-2.912-.558,5.876,5.876,0,0,1-2.127-1.578,6.913,6.913,0,0,1-1.3-2.422,10.288,10.288,0,0,1-.441-3.082v-12.79Z" transform="translate(-32.116 -2.517)" fill="#abdaea"/><path d="M1831.209,1289.915V1269.8h2.962a1.185,1.185,0,0,1,1.233.883l.334,1.589a10.721,10.721,0,0,1,1.285-1.137,8.84,8.84,0,0,1,1.432-.883,7.3,7.3,0,0,1,1.615-.571,8.576,8.576,0,0,1,1.882-.194,7.222,7.222,0,0,1,2.928.558,5.791,5.791,0,0,1,2.129,1.569,6.9,6.9,0,0,1,1.293,2.413,10.286,10.286,0,0,1,.441,3.082v12.8H1843.9v-12.8a4.287,4.287,0,0,0-.854-2.853,3.164,3.164,0,0,0-2.558-1.011,5.062,5.062,0,0,0-2.353.569,8.433,8.433,0,0,0-2.079,1.55v14.548Z" transform="translate(-27.522 -7.378)" fill="#abdaea"/><path d="M1845.552,1268.4h3.843a1.608,1.608,0,0,1,.924.256,1.1,1.1,0,0,1,.47.647l2.882,10.745q.236.881.382,1.724c.1.563.193,1.123.285,1.686.143-.563.3-1.123.462-1.686s.339-1.137.52-1.724l3.335-10.787a1.207,1.207,0,0,1,.47-.647,1.369,1.369,0,0,1,.823-.254h2.137a1.455,1.455,0,0,1,.882.254,1.2,1.2,0,0,1,.472.647l3.293,10.979c.173.563.325,1.108.462,1.637s.271,1.063.4,1.6q.136-.844.308-1.686c.114-.562.253-1.145.421-1.746l2.982-10.745a1.082,1.082,0,0,1,.47-.647,1.5,1.5,0,0,1,.862-.256h3.666l-6.371,20.119h-3.9c-.42,0-.718-.288-.9-.865l-3.627-11.625c-.117-.38-.226-.761-.323-1.148s-.179-.77-.245-1.145c-.08.39-.163.781-.254,1.166s-.2.771-.308,1.167l-3.667,11.587a1.061,1.061,0,0,1-1.057.865h-3.7Z" transform="translate(-23.075 -6.794)" fill="#abdaea"/><path d="M1884.768,1289.984h-2.177a2.336,2.336,0,0,1-1.079-.208,1.329,1.329,0,0,1-.589-.834l-.431-1.43a16.84,16.84,0,0,1-1.5,1.2,9.085,9.085,0,0,1-1.519.872,7.839,7.839,0,0,1-1.667.53,10.085,10.085,0,0,1-1.958.177,7.77,7.77,0,0,1-2.355-.343,5.083,5.083,0,0,1-1.849-1.033,4.712,4.712,0,0,1-1.205-1.712,6.087,6.087,0,0,1-.433-2.381,4.68,4.68,0,0,1,.6-2.251,5.614,5.614,0,0,1,1.991-2,12.631,12.631,0,0,1,3.7-1.485,23.641,23.641,0,0,1,5.746-.59v-1.187a4.514,4.514,0,0,0-.852-3.014,3.12,3.12,0,0,0-2.481-.977,5.974,5.974,0,0,0-1.962.276,7.518,7.518,0,0,0-1.361.616c-.387.228-.741.435-1.069.616a2.179,2.179,0,0,1-1.078.276,1.416,1.416,0,0,1-.841-.256,1.994,1.994,0,0,1-.569-.627l-.883-1.551a11.958,11.958,0,0,1,8.371-3.174,8.028,8.028,0,0,1,3.147.578,6.67,6.67,0,0,1,2.344,1.606,6.887,6.887,0,0,1,1.461,2.465,9.442,9.442,0,0,1,.5,3.136Zm-9.412-3.02a6.631,6.631,0,0,0,1.373-.134,5.228,5.228,0,0,0,1.188-.406,6.459,6.459,0,0,0,1.078-.667,9.358,9.358,0,0,0,1.05-.935v-3.364a19.634,19.634,0,0,0-3.544.267,9.291,9.291,0,0,0-2.285.683,2.918,2.918,0,0,0-1.233.967,2.143,2.143,0,0,0-.361,1.2,2.122,2.122,0,0,0,.755,1.837,3.237,3.237,0,0,0,1.977.547Z" transform="translate(-13.775 -8.396)" fill="#abdaea"/><path d="M1890.349,1292.89a1.846,1.846,0,0,1-.55.757,1.685,1.685,0,0,1-1.031.26h-3.544l3.7-7.922-8-18.307h4.161a1.309,1.309,0,0,1,.888.271,1.792,1.792,0,0,1,.462.616l4.22,10.251a8.769,8.769,0,0,1,.367,1.042c.1.359.194.718.268,1.078.1-.371.214-.732.339-1.078s.257-.7.4-1.06l3.966-10.233a1.422,1.422,0,0,1,.511-.636,1.359,1.359,0,0,1,.8-.252h3.816Z" transform="translate(-8.611 -5.572)" fill="#abdaea"/><path d="M1689.954,1261.029c-6.649,0-12.039,5.911-12.039,13.2s7.066,14.387,12.039,22.128c4.972-7.741,12.039-14.837,12.039-22.128S1696.6,1261.029,1689.954,1261.029Zm0,18.805a6.056,6.056,0,1,1,0,.005Z" transform="translate(-98.704 -28.525)" fill="#abdaea"/><g transform="translate(3465.557 2735.584) rotate(180)" opacity="0.25" style="isolation:isolate"><path d="M1816.238,1296.684v64.193h28.332v-64.193Zm16.345,10.578H1820.6v-5.289h11.987Zm8.718,0h-5.449v-5.289h5.449Z" fill="url(#a)"/><path d="M1854.018,1290.9v61.946h14.166V1290.9Zm11.987,11.36h-3.269v-2.645h3.269Zm0-4.192h-6.538v-2.645h6.538Z" fill="url(#a)"/><g transform="translate(0 2.786)"><path d="M1884.889,1276.245v81.846h23.974v-81.846Zm3.269,3.836h6.538v2.558h-6.538Zm17.391,57.391H1888.2v-50.842h17.346Z" transform="translate(0 0)" fill="url(#a)"/><rect width="15.346" height="50.571" transform="translate(1889.203 1287.985)" fill="url(#a)"/></g><path d="M1763.5,1281.536h-13.988l-4.073,1.941v77.6h22.227v-77.6Zm.338,15.572H1750.05v-1.322h13.791Zm0-2.645H1750.05v-1.322h13.791Zm0-2.644H1750.05V1290.5h13.791Z" fill="url(#a)"/><path d="M1608.229,1295.092v65.985h49.3v-65.985ZM1619,1317.238h-4.359v-5.289H1619Zm0-7.934h-4.359v-5.289H1619Zm7.628,7.934h-4.359v-5.289h4.359Zm0-7.934h-4.359v-5.289h4.359Zm6.538,0h-4.359v-5.289h4.359Zm7.628,0h-4.359v-5.289h4.359Zm6.538,0h-4.359v-5.289h4.359Z" fill="url(#a)"/><path d="M1628.933,1333.44v27.636h49.3V1333.44Zm39.1,20.83h-4.174v-6.616l4.174-5.384Zm6.538,0H1670.4v-6.616l4.174-5.384Z" fill="url(#a)"/><path d="M1654.416,1361.538h-1.34V1348.47h-3.52v13.068h-1.342V1348.47h-3.52v13.068h-1.341V1348.47h-3.521v13.068h-1.341V1348.47h-3.521v13.068h-1.341V1348.47h-3.521v13.068h-1.341V1348.47h-3.521v13.068h-1.341v-14.546h30.511v14.546Z" fill="url(#a)"/><rect width="9.807" height="58.184" transform="translate(1803.161 1302.693)" fill="url(#a)"/><rect width="9.807" height="6.612" transform="translate(1827.134 1290.072)" fill="url(#a)"/><rect width="50.126" height="31.737" transform="translate(1840.211 1329.14)" fill="url(#a)"/><rect width="49.037" height="30.414" transform="translate(1840.756 1329.801)" fill="url(#a)"/><rect width="13.88" height="129.659" transform="translate(1530.047 1231.417)" fill="url(#a)"/><rect width="3.269" height="6.612" transform="translate(1812.968 1321.206)" fill="url(#a)"/><rect width="27.507" height="18.38" transform="translate(1580.986 1342.697)" fill="url(#a)"/><path d="M1794.443,1297.108v-5.289h-15.256v69.058h15.256v-53.959h-8.718V1305.6h8.718v-3.2h-8.718v-1.322h8.718v-2.646h-8.718v-1.322Z" fill="url(#a)"/><path d="M1762.842,1318.561v42.316h21.794v-42.316Zm9.807,10.579h-8.718v-1.322h8.718Zm0-2.645h-8.718v-1.322h8.718Z" fill="url(#a)"/><path d="M1686.462,1288.909v72.168h26.078v-72.168Zm22.984,42.483h-19.615v-3.967h19.615Zm0-12.611h-19.615v-3.967h19.615Zm0-12.61h-19.615V1302.2h19.615Zm0-7.016h-19.615v-3.967h19.615Z" fill="url(#a)"/><path d="M1718.7,1331.785v29.092h29.422v-29.092Zm21.793,15.869h-2.179V1338.4h2.179Zm3.27,0h-2.179V1338.4h2.179Z" fill="url(#a)"/><path d="M1924.118,1255.087v105.789h23.974V1255.087Zm5.449,52.9H1926.3v-9.257h3.269Zm0-15.869H1926.3v-9.257h3.269Zm0-15.868H1926.3v-9.257h3.269Zm8.717,15.868h-3.269v-9.257h3.269Zm0-15.868h-3.269v-9.257h3.269Z" transform="translate(-10)" fill="url(#a)"/><path d="M1523.107,1251.4v65.838h8.717v3.967h-8.717v39.87h28.046V1251.4Zm25.063,17.059h-10.9v-3.967h10.9Zm0-6.612h-10.9v-3.967h10.9Z" transform="translate(5)" fill="url(#a)"/><path d="M1561.246,1313.272v18.513h-23.973v21.158h35.96v-39.671Zm-2.179,26.447H1555.8v-3.967h3.269Zm5.448,0h-3.269v-3.967h3.269Zm5.449,0h-3.269v-3.967h3.269Z" transform="translate(5)" fill="url(#a)"/><path d="M1889.671,1331.124H1840.8l2.06-11.9h44.827Z" fill="url(#a)"/><path d="M1843.3,1319.884l-1.831,10.579h47.539l-1.768-10.579H1843.3m-.884-1.323h45.715l2.21,13.224h-50.214Z" fill="url(#a)"/><rect width="18.525" height="47.605" transform="translate(1597.206 1313.272)" fill="url(#a)"/><rect width="13.076" height="2.645" transform="translate(1844.57 1335.752)" fill="url(#a)"/><path d="M1808.064,1361.538h-1.339V1348.47H1803.2v13.068h-1.342V1348.47h-3.52v13.068H1797V1348.47h-3.521v13.068h-1.341V1348.47h-3.521v13.068h-1.341V1348.47h-3.521v13.068h-1.341V1348.47h-3.521v13.068h-1.341v-14.546h30.511v14.546Z" fill="url(#a)"/><rect width="25.063" height="2.645" transform="translate(1860.915 1335.752)" fill="url(#a)"/><path d="M1736.946,1361.538h-1.34V1348.47h-3.52v13.068h-1.342V1348.47h-3.52v13.068h-1.341V1348.47h-3.521v13.068h-1.341V1348.47H1717.5v13.068h-1.341V1348.47h-3.521v13.068H1711.3V1348.47h-3.521v13.068h-1.341v-14.546h30.511v14.546Z" fill="url(#a)"/><path d="M0,0H408.64V13.224H0Z" transform="translate(1527.465 1352.943)" fill="url(#a)"/></g></g></svg>