<svg xmlns="http://www.w3.org/2000/svg" width="426.434" height="149.589" viewBox="0 0 426.434 149.589"><g transform="translate(29 65.27)" opacity="0.654"><path d="M333.494,103.054a30.97,30.97,0,0,1-22.222,9c-9.439.006-18.3-4-23.777-10.742-4.536,14.165-20.939,24.656-40.48,24.656-14.177,0-26.7-5.521-34.241-13.962-3.537,8.318-10.42,13.962-18.333,13.962S179.639,120.318,176.1,112c-6.939,8.758-18.327,13.978-30.482,13.971-11.029.01-21.49-4.292-28.54-11.735a31.663,31.663,0,0,1-18.609,5.877c-9.682.006-18.737-4.2-24.17-11.237A54.907,54.907,0,0,1,58,111.319c-26.962,0-48.819-19.181-48.819-42.843a38.594,38.594,0,0,1,5.885-20.41C5.766,43.551,0,34.959,0,25.633,0,11.476,13.077,0,29.208,0h0C45.339,0,58.416,11.476,58.416,25.633h0c26.8.2,48.4,19.324,48.4,42.843,0,.475-.009.952-.027,1.421a30.85,30.85,0,0,1,9.072,3.982c7-8.246,18.04-13.1,29.76-13.092,14.773,0,28.142,7.682,34.048,19.566,3.78-4.845,9-7.848,14.771-7.848,5.635,0,10.749,2.864,14.5,7.516,6.531-11.338,21.121-19.233,38.071-19.233,15.856,0,29.653,6.91,36.711,17.087,4.131-10.241,15.167-17.087,27.546-17.087a31.379,31.379,0,0,1,20.2,7.118c6.618-18.21,24.778-31.286,46.148-31.286,26.962,0,48.819,20.821,48.819,46.505s-21.857,46.505-48.819,46.505C358.141,129.628,341.329,118.765,333.494,103.054Z" transform="translate(397.434 84.319) rotate(180)" fill="#fff" opacity="0.8"/><path d="M401.709,37.794a24.732,24.732,0,0,0-23.166,16.074,32.853,32.853,0,0,0-27.149.286c-4.022-7.585-13.071-12.876-23.6-12.876a27.8,27.8,0,0,0-20.275,8.263,17.856,17.856,0,0,0-30.851,5.439,17.863,17.863,0,0,0-30.06,16.507,17.7,17.7,0,0,0-15.05-3.369,26.16,26.16,0,0,0-50.043-7.847,26.136,26.136,0,0,0-35.817,1.7c.017-.416.032-.832.032-1.252A29.708,29.708,0,0,0,93.417,41.442,29.708,29.708,0,0,0,58.784,23.549,29.716,29.716,0,1,0,36.738,58.586,29.709,29.709,0,0,0,88.408,71.7a29.7,29.7,0,0,0,49.95,8.6A26.158,26.158,0,0,0,188.523,90.53,26.137,26.137,0,0,0,219.3,92.9a17.863,17.863,0,0,0,33.724-11.211,17.842,17.842,0,0,0,27.958-8.3,17.834,17.834,0,0,0,24.575.581c4.495,6.385,12.771,10.669,22.243,10.669a29.87,29.87,0,0,0,10.992-2.061c3.874,9.14,14.264,15.686,26.481,15.686,11.262,0,20.971-5.564,25.455-13.6a24.726,24.726,0,1,0,10.984-46.878Z" transform="translate(397.434 41.029) rotate(180)" fill="#abdaea" opacity="0.05" style="mix-blend-mode:multiply;isolation:isolate"/><path d="M3.562,1.411,3.3,1.6,3.169,1.3C2.741.347,1.82-.382.962.218h0A2.386,2.386,0,0,0,.183,3.036l.131.291L1.864,6.789,5.233,4.431a2.384,2.384,0,0,0,.779-2.817h0C5.584.658,4.42.811,3.562,1.411Z" transform="translate(139.318 -18.898) rotate(180)" fill="#bbd7ea"/><path d="M2.074.627,1.954.793,1.814.644C1.356.16.649-.084.259.457h0A1.52,1.52,0,0,0,.384,2.315l.14.148L2.185,4.218l1.53-2.126A1.52,1.52,0,0,0,3.589.234h0C3.131-.251,2.463.086,2.074.627Z" transform="translate(13.073 -18.371) rotate(180)" fill="#bbd7ea"/><path d="M2.074.627,1.955.793,1.815.645C1.356.161.65-.084.26.457h0A1.518,1.518,0,0,0,.384,2.315l.14.148,1.66,1.755L3.714,2.092A1.519,1.519,0,0,0,3.59.234h0C3.131-.251,2.463.086,2.074.627Z" transform="translate(373.626 24.005) rotate(180)" fill="#bbd7ea"/></g></svg>