<svg xmlns="http://www.w3.org/2000/svg" width="477" height="84.001" viewBox="0 0 477 84.001">
  <g id="Group_623" data-name="Group 623" transform="translate(0)">
    <path id="cloud_f" data-name="cloud f" d="M114.237-1440a7.237,7.237,0,0,1-7.237-7.237,7.237,7.237,0,0,1,7.237-7.237h21.258a7.2,7.2,0,0,1-.789-3.289,7.237,7.237,0,0,1,7.237-7.237h61.293a7.237,7.237,0,0,1,7.237,7.237q0,.11,0,.22h10.294a7.237,7.237,0,0,1,7.237,7.237,7.237,7.237,0,0,1-7.237,7.237H188.8a7.228,7.228,0,0,1-5.918,3.07Z" transform="translate(249 1465)" fill="#dceef4" opacity="0.572"/>
    <path id="cloud_f2" data-name="cloud f2" d="M115.684-1435a8.684,8.684,0,0,1-8.684-8.684,8.684,8.684,0,0,1,8.684-8.685h25.234a8.648,8.648,0,0,1-.947-3.947,8.685,8.685,0,0,1,8.685-8.684h72.8a8.684,8.684,0,0,1,8.684,8.684c0,.088,0,.176,0,.264h12.18a8.684,8.684,0,0,1,8.684,8.684,8.684,8.684,0,0,1-8.684,8.684H204.333a8.674,8.674,0,0,1-7.1,3.685Z" transform="translate(-107 1519)" fill="#dceef4" opacity="0.572"/>
  </g>
</svg>
