<svg xmlns="http://www.w3.org/2000/svg" xmlns:xlink="http://www.w3.org/1999/xlink" width="87" height="87" viewBox="0 0 87 87">
  <defs>
    <filter id="Ellipse_264" x="0" y="0" width="87" height="87" filterUnits="userSpaceOnUse">
      <feOffset dy="3" input="SourceAlpha"/>
      <feGaussianBlur stdDeviation="3" result="blur"/>
      <feFlood flood-opacity="0.161"/>
      <feComposite operator="in" in2="blur"/>
      <feComposite in="SourceGraphic"/>
    </filter>
    <filter id="Path_1264" x="12.908" y="20.852" width="61.179" height="48.158" filterUnits="userSpaceOnUse">
      <feOffset dy="3" input="SourceAlpha"/>
      <feGaussianBlur stdDeviation="3" result="blur-2"/>
      <feFlood flood-color="#8d69b1" flood-opacity="0.161"/>
      <feComposite operator="in" in2="blur-2"/>
      <feComposite in="SourceGraphic"/>
    </filter>
  </defs>
  <g id="Group_624" data-name="Group 624" transform="translate(-247 -28)">
    <g transform="matrix(1, 0, 0, 1, 247, 28)" filter="url(#Ellipse_264)">
      <circle id="Ellipse_264-2" data-name="Ellipse 264" cx="34.5" cy="34.5" r="34.5" transform="translate(9 6)" fill="#fff89b"/>
    </g>
    <g transform="matrix(1, 0, 0, 1, 247, 28)" filter="url(#Path_1264)">
      <path id="Path_1264-2" data-name="Path 1264" d="M3.685,0H37.494a3.685,3.685,0,0,1,3.685,3.685V24.473a3.685,3.685,0,0,1-3.685,3.685H3.685A3.685,3.685,0,0,1,0,24.473V3.685A3.685,3.685,0,0,1,3.685,0Z" transform="translate(22.91 27.85)" fill="#abdaea" stroke="#547394" stroke-width="2"/>
    </g>
    <path id="Path_1265" data-name="Path 1265" d="M1284.519,515.616l16.113,12.725,15.708-12.725" transform="translate(-1009.741 -455.369)" fill="none" stroke="#547394" stroke-linecap="round" stroke-miterlimit="10" stroke-width="2"/>
    <path id="Path_1293" data-name="Path 1293" d="M15.449,1.738,12.885.251a1.863,1.863,0,0,0-2.549.686l-9.1,15.545L0,24.724a.325.325,0,0,0,.507.319l6.524-5.2L16.131,4.3A1.877,1.877,0,0,0,15.449,1.738Z" transform="translate(301.091 66.093) rotate(7)" fill="#fff89b" stroke="#547394" stroke-miterlimit="10" stroke-width="2"/>
    <path id="Path_1294" data-name="Path 1294" d="M1321.525,522.093" transform="translate(-1011.54 -455.197)" fill="none" stroke="#707070" stroke-width="1"/>
    <path id="Path_1295" data-name="Path 1295" d="M5.974,7.591h0L0,3.478S2.716-1.685,6.414.57,5.974,7.591,5.974,7.591Z" transform="matrix(0.998, 0.07, -0.07, 0.998, 311.975, 63.656)" fill="#f8b67b" stroke="#547394" stroke-width="1.5"/>
    <path id="Path_1296" data-name="Path 1296" d="M1324.936,529.494l-5.513-4.472,1.67-2.3,5.638,4.528Z" transform="translate(-1009.347 -455.617)" fill="#fff" stroke="#547394" stroke-width="1.5"/>
  </g>
</svg>
