<svg xmlns="http://www.w3.org/2000/svg" width="181.082" height="152.073" viewBox="0 0 181.082 152.073">
  <g id="Group_265" data-name="Group 265" transform="matrix(0.966, -0.259, 0.259, 0.966, -253.447, -13.016)" opacity="0.1">
    <g id="Group_91" data-name="Group 91" transform="translate(279.414 115.607)">
      <path id="Path_244" data-name="Path 244" d="M108.909,944.661c-.227-.286-.462-.564-.7-.843-.345.352-.7.689-1.056,1.019q.363.418.7.836a50.811,50.811,0,1,1-40.568-18.722c.359-.007.726-.015,1.085-.015h.1c.2,0,.4,0,.594.007l1.114-1.444c-.227-.007-.454-.015-.682-.015l-1.048,1.364c.059-.462.139-.917.227-1.378h-.205c-.315,0-.638,0-.953.007a52.361,52.361,0,1,0,41.4,19.184ZM71.3,927.017a.419.419,0,0,1,.1.007v-.132Z" transform="translate(-16.17 -899.882)" fill="#223245"/>
      <g id="Group_84" data-name="Group 84" transform="translate(10.931 96.267)">
        <path id="Path_245" data-name="Path 245" d="M31.081,1030.811l.1-.07.721.508,3.533-2.359-.615-.923-1.409.195-.069-.1,1.418-.947,2.709,4.057-1.418.947-.07-.1.721-1.226-.616-.922-3.535,2.36.192.86-.1.07Z" transform="translate(-31.081 -1023.281)" fill="#223245"/>
        <path id="Path_246" data-name="Path 246" d="M34.835,1036.458l.094-.082.673.287,3.187-2.789-.2-.705.094-.081,1.6,1.832L40.2,1035l-.637-.245-1.377,1.206,1.416,1.616,1.377-1.206-.169-.676.093-.082,1.609,1.838-.093.082-.669-.28-3.186,2.788.19.7-.094.083-1.608-1.839.093-.082.648.257,1.489-1.3-1.416-1.617-1.488,1.3.159.665-.094.082Z" transform="translate(-32.083 -1024.876)" fill="#223245"/>
        <path id="Path_247" data-name="Path 247" d="M41.167,1043.292l.083-.092.705.2,2.8-3.177-.284-.673.081-.093,3.17,2.794-.886,1.007-.092-.083.174-1.066-1.274-1.123-1.215,1.379.9.789.767-.213.093.082-1.153,1.309-.093-.082.1-.775-.9-.791-1.322,1.5,1.414,1.246,1.218-.467.093.082-1.046,1.186Z" transform="translate(-33.773 -1026.575)" fill="#223245"/>
        <path id="Path_248" data-name="Path 248" d="M49.344,1049.878l.066-.105.728.077,2.229-3.6-.393-.618.065-.106,2.116,1.31-.066.106-.727-.077-2.229,3.6.393.617-.065.1Zm2.915-1.232,2.925-.688-.336-.545.065-.106,1.556.964-.065.1-.55-.085-2.44.524.413,3.428.343.477-.065.1-1.465-.906Z" transform="translate(-35.956 -1028.196)" fill="#223245"/>
        <path id="Path_249" data-name="Path 249" d="M56.808,1054.206l.054-.112.732,0,1.85-3.808-.453-.574.054-.112,2.239,1.088-.055.112-.732,0-1.85,3.809.455.573-.055.112Z" transform="translate(-37.949 -1029.285)" fill="#223245"/>
        <path id="Path_250" data-name="Path 250" d="M61.138,1056.276l.041-.117.729-.075,1.435-3.975-.509-.531.043-.116,1.385.5,1.676,4.216,1.007-2.785-.726-.593.042-.117,1.955.707-.042.116-.721.078-1.6,4.434-.452-.163-1.874-4.651-1.107,3.063.724.6-.043.117Z" transform="translate(-39.104 -1029.781)" fill="#223245"/>
        <path id="Path_251" data-name="Path 251" d="M69.849,1059.238l.026-.122.711-.174.886-4.139-.578-.449.027-.122,2.585.554a3.669,3.669,0,0,1,1.468.624,2.281,2.281,0,0,1,.785,1.018,2.169,2.169,0,0,1,.08,1.238,2.762,2.762,0,0,1-.451,1.046,2.613,2.613,0,0,1-.787.735,2.84,2.84,0,0,1-1.031.374,3.2,3.2,0,0,1-1.189-.04Zm3.257-4.1-.485-.1-.893,4.171.591.127a1.719,1.719,0,0,0,1.478-.274,2.685,2.685,0,0,0,.64-3.04A1.854,1.854,0,0,0,73.106,1055.137Z" transform="translate(-41.43 -1030.521)" fill="#223245"/>
        <path id="Path_252" data-name="Path 252" d="M78.75,1061.008l.01-.123.68-.268.313-4.214-.633-.374.01-.124,1.469.109,2.749,3.611.22-2.955-.859-.375.009-.124,2.073.155-.01.123-.673.27-.349,4.7-.48-.036-3.055-3.975-.241,3.248.858.382-.01.124Z" transform="translate(-43.806 -1030.967)" fill="#223245"/>
        <path id="Path_253" data-name="Path 253" d="M87.848,1061.465l-.007-.124.64-.352-.228-4.229-.675-.281-.007-.124,4.219-.229.073,1.339-.124.007-.622-.883-1.7.092.1,1.835,1.192-.064.4-.69.124-.006.095,1.742-.125.005-.468-.625-1.193.064.108,2,1.882-.1.541-1.187.124-.007.086,1.579Z" transform="translate(-46.161 -1031.026)" fill="#223245"/>
        <path id="Path_254" data-name="Path 254" d="M97.238,1060.674a3.557,3.557,0,0,1-.909.041,3.767,3.767,0,0,1-.792-.164l-.289-1.28.137-.023.7.852a1.631,1.631,0,0,0,.49.187,1.394,1.394,0,0,0,.509.011,1.1,1.1,0,0,0,.641-.306.688.688,0,0,0,.166-.62.74.74,0,0,0-.189-.408,1.148,1.148,0,0,0-.446-.254q-.3-.1-.817-.24a2.372,2.372,0,0,1-.927-.43,1.262,1.262,0,0,1-.364-1.383,1.776,1.776,0,0,1,.339-.566,2.066,2.066,0,0,1,.533-.438,1.917,1.917,0,0,1,.649-.231,3.123,3.123,0,0,1,.766-.032,2.874,2.874,0,0,1,.708.153l.277,1.21-.131.021-.677-.776a1.8,1.8,0,0,0-.426-.171,1.064,1.064,0,0,0-.438-.01.725.725,0,0,0-.487.284.709.709,0,0,0-.12.562.675.675,0,0,0,.31.479,3.274,3.274,0,0,0,.859.326,3.584,3.584,0,0,1,1.133.49,1.236,1.236,0,0,1,.474.834,1.315,1.315,0,0,1-.145.888,1.824,1.824,0,0,1-.639.655A2.446,2.446,0,0,1,97.238,1060.674Z" transform="translate(-48.162 -1030.827)" fill="#223245"/>
        <path id="Path_255" data-name="Path 255" d="M103.464,1059.334a3.5,3.5,0,0,1-.9.132,3.818,3.818,0,0,1-.8-.088l-.413-1.247.135-.035.777.78a1.609,1.609,0,0,0,.507.137,1.373,1.373,0,0,0,.507-.038,1.109,1.109,0,0,0,.608-.366.688.688,0,0,0,.1-.634.743.743,0,0,0-.228-.389,1.139,1.139,0,0,0-.469-.208q-.308-.074-.836-.159a2.361,2.361,0,0,1-.964-.337,1.2,1.2,0,0,1-.5-.725,1.188,1.188,0,0,1,0-.615,1.8,1.8,0,0,1,.282-.6,2.07,2.07,0,0,1,.489-.487,1.938,1.938,0,0,1,.624-.294,3.047,3.047,0,0,1,.758-.105,2.928,2.928,0,0,1,.72.081l.394,1.179-.128.034-.75-.707a1.838,1.838,0,0,0-.44-.128,1.086,1.086,0,0,0-.437.032.729.729,0,0,0-.457.331.71.71,0,0,0-.066.57.673.673,0,0,0,.356.446,3.238,3.238,0,0,0,.887.242,3.553,3.553,0,0,1,1.176.377,1.235,1.235,0,0,1,.553.783,1.325,1.325,0,0,1-.058.9,1.839,1.839,0,0,1-.573.714A2.437,2.437,0,0,1,103.464,1059.334Z" transform="translate(-49.732 -1030.474)" fill="#223245"/>
        <path id="Path_256" data-name="Path 256" d="M110.271,1056.771l-.05-.114.478-.554-1.686-3.884-.731-.028-.049-.115,3.876-1.683.534,1.231-.113.049-.891-.611-1.558.677.732,1.685,1.1-.475.133-.785.114-.05.695,1.6-.114.049-.658-.425-1.1.476.8,1.835,1.728-.751.1-1.3.113-.051.63,1.452Z" transform="translate(-51.676 -1029.495)" fill="#223245"/>
        <path id="Path_257" data-name="Path 257" d="M116.99,1053.446l-.063-.106.369-.579.385-2.522-2.561-1.154-.586.013-.063-.108,2.2-1.3.062.107-.373.572.019.034,1.649.719.262-1.847-.016-.026-.679.041-.064-.107,1.57-.925.064.106-.309.5-.391,2.454,2.688,1.169.632-.012.064.107-2.238,1.32-.064-.106.332-.538-.016-.027-1.744-.789-.284,1.976,0,.035.688-.054.063.106Z" transform="translate(-53.341 -1028.392)" fill="#223245"/>
        <path id="Path_258" data-name="Path 258" d="M124.463,1049.076l-.076-.1.328-.654-2.586-3.353-.716.151-.076-.1,2.124-1.638a2.852,2.852,0,0,1,1.365-.636,1.131,1.131,0,0,1,1.081.494,1.118,1.118,0,0,1,.236.781,1.891,1.891,0,0,1-.311.886,3.293,3.293,0,0,1-.786.836l-.527.407,1.122,1.455.821-.231.076.1Zm-1.416-4.833,1.24,1.609.3-.228a1.489,1.489,0,0,0,.592-.819.893.893,0,0,0-.163-.784.878.878,0,0,0-.761-.4,1.8,1.8,0,0,0-.946.426Z" transform="translate(-55.174 -1027.453)" fill="#223245"/>
        <path id="Path_259" data-name="Path 259" d="M130.424,1044.309l-.087-.089.248-.689-2.97-3.018-.692.236-.088-.089,1.891-1.86a2.163,2.163,0,0,1,1.152-.659,1.078,1.078,0,0,1,.984.332,1.036,1.036,0,0,1,.31.723,1.99,1.99,0,0,1-.2.873l2.568.563.616-.17.087.089-1.2,1.179-2.686-.685-.293.288,1.349,1.371.643-.175.087.088Zm-1.764-4.846-.221.217,1.36,1.382.255-.25a1.051,1.051,0,0,0,.35-.727.941.941,0,0,0-.3-.7.913.913,0,0,0-.694-.313A1.16,1.16,0,0,0,128.66,1039.462Z" transform="translate(-56.642 -1026.221)" fill="#223245"/>
        <path id="Path_260" data-name="Path 260" d="M136.074,1038.345l-.1-.078.163-.712-3.31-2.641-.66.317-.1-.078,2.635-3.3,1.049.836-.078.1-1.072-.122-1.059,1.328,1.437,1.146.746-.933-.251-.756.076-.1,1.364,1.087-.077.1-.78-.067-.745.933,1.564,1.248,1.174-1.474-.524-1.193.076-.1,1.237.987Z" transform="translate(-58.04 -1024.546)" fill="#223245"/>
        <path id="Path_261" data-name="Path 261" d="M141.946,1031.167a3.461,3.461,0,0,1-.573.707,3.806,3.806,0,0,1-.65.482l-1.149-.636.076-.118,1.1.047a1.656,1.656,0,0,0,.465-.242,1.39,1.39,0,0,0,.346-.372,1.109,1.109,0,0,0,.2-.683.683.683,0,0,0-.353-.536.733.733,0,0,0-.43-.132,1.154,1.154,0,0,0-.487.164q-.277.154-.722.451a2.373,2.373,0,0,1-.938.405,1.257,1.257,0,0,1-1.274-.647,1.776,1.776,0,0,1-.2-.63,2.074,2.074,0,0,1,.029-.689,1.9,1.9,0,0,1,.259-.64,3.026,3.026,0,0,1,.486-.591,2.8,2.8,0,0,1,.584-.428l1.089.6-.071.111-1.03-.011a1.813,1.813,0,0,0-.411.2,1.078,1.078,0,0,0-.3.319.728.728,0,0,0-.111.553.707.707,0,0,0,.339.463.672.672,0,0,0,.564.087,3.242,3.242,0,0,0,.815-.424,3.558,3.558,0,0,1,1.12-.52,1.232,1.232,0,0,1,.938.2,1.314,1.314,0,0,1,.566.7,1.8,1.8,0,0,1,.064.913A2.42,2.42,0,0,1,141.946,1031.167Z" transform="translate(-59.447 -1023.272)" fill="#223245"/>
        <path id="Path_262" data-name="Path 262" d="M145.1,1025.636a3.5,3.5,0,0,1-.5.76,3.875,3.875,0,0,1-.6.544l-1.205-.521.064-.124,1.1-.062a1.656,1.656,0,0,0,.441-.286,1.4,1.4,0,0,0,.307-.4,1.11,1.11,0,0,0,.131-.7.682.682,0,0,0-.4-.5.733.733,0,0,0-.441-.089,1.137,1.137,0,0,0-.468.212c-.174.12-.4.294-.674.519a2.38,2.38,0,0,1-.893.5,1.262,1.262,0,0,1-1.332-.519,1.8,1.8,0,0,1-.257-.609,2.049,2.049,0,0,1-.039-.689,1.888,1.888,0,0,1,.194-.661,3.118,3.118,0,0,1,.426-.636,2.823,2.823,0,0,1,.539-.484l1.142.49-.058.117-1.027.09a1.838,1.838,0,0,0-.389.243,1.06,1.06,0,0,0-.265.347.731.731,0,0,0-.059.562.706.706,0,0,0,.384.427.666.666,0,0,0,.57.032,3.235,3.235,0,0,0,.77-.5,3.556,3.556,0,0,1,1.063-.628,1.234,1.234,0,0,1,.953.108,1.32,1.32,0,0,1,.633.641,1.827,1.827,0,0,1,.153.9A2.414,2.414,0,0,1,145.1,1025.636Z" transform="translate(-60.241 -1021.886)" fill="#223245"/>
      </g>
      <path id="Path_263" data-name="Path 263" d="M71.355,932.337l-.55.711c-.205-.007-.411-.007-.616-.007a.1.1,0,0,0-.066,0c-.132-.008-.264-.008-.4-.008-.22,0-.44,0-.652.008A43.993,43.993,0,0,0,37.817,946.9a47.383,47.383,0,0,0-13.224,32.951,46.561,46.561,0,0,0,3.79,18.51l-.674.293a47.361,47.361,0,0,1-3.849-18.8,48.143,48.143,0,0,1,13.43-33.464,44.684,44.684,0,0,1,31.785-14.075c.22-.007.433-.007.652-.007.161,0,.315,0,.477.007-.015.213-.015.425-.015.638l.491-.631C70.908,932.314,71.128,932.322,71.355,932.337Z" transform="translate(-18.223 -901.705)" fill="#223245"/>
      <path id="Path_264" data-name="Path 264" d="M91.694,932.96l-.235.308c-.22-.022-.44-.044-.66-.051l.535-.7a1.892,1.892,0,0,1,.286.029C91.643,932.689,91.672,932.82,91.694,932.96Z" transform="translate(-36.092 -901.764)" fill="#223245"/>
      <path id="Path_265" data-name="Path 265" d="M144.891,986.037a47.67,47.67,0,0,1-2.067,13.921l-.7-.213a47.561,47.561,0,0,0-7.668-42.532c-.169-.227-.345-.455-.52-.675-.051-.066-.1-.132-.161-.2s-.132-.168-.2-.249l.462-.6c.125.147.242.293.359.447.007,0,.007.007.015.015.227.286.455.579.682.872A48.154,48.154,0,0,1,144.891,986.037Z" transform="translate(-47.511 -907.896)" fill="#223245"/>
      <path id="Path_266" data-name="Path 266" d="M76.19,941.074l-.52.675c.213.022.425.044.638.073l.521-.674C76.615,941.118,76.4,941.1,76.19,941.074Zm26.669,14.258q-.374-.451-.77-.88c-.161.066-.323.125-.484.183l.3-.389c-.125-.139-.249-.278-.381-.411l-.454.587c.1.1.191.2.286.3.029.037.066.073.1.11.235.257.462.513.689.777a40.3,40.3,0,1,1-30.576-14.067H71.6c.381,0,.755.007,1.136.022-.015-.044-.022-.1-.037-.139-.051-.2-.1-.4-.139-.6-.33-.007-.66-.015-1-.015h-.132a41.1,41.1,0,1,0,31.426,14.522Zm-29.41-14.478-.542.711c.22.007.44.015.667.029l.542-.7C73.9,940.876,73.668,940.861,73.448,940.854Zm26.192,12.1.088.088.088-.11Z" transform="translate(-20.001 -903.977)" fill="#223245"/>
      <path id="Path_267" data-name="Path 267" d="M56.888,996.749l-.249.323q.3.066.572.154C57.1,997.064,56.991,996.9,56.888,996.749Zm6.436,7.279c-.088-.066-.169-.132-.249-.2l-.125.161a7.181,7.181,0,0,1,.081.8l.337-.432.139-.183C63.449,1004.13,63.383,1004.079,63.325,1004.028Zm1.613,1.166-1.737,2.257-.286.374a4.359,4.359,0,0,1,.689.007h.007l.249-.33,1.547-2.016C65.245,1005.391,65.091,1005.3,64.937,1005.194Zm2.031,1.143-1.393,1.811-.213.286a3.768,3.768,0,0,1,.447.315l.22-.286,1.451-1.891C67.305,1006.5,67.137,1006.417,66.968,1006.337Zm2.214.909-1.994,2.588-.227.3c.235.213.367-.11.425.264a.274.274,0,0,0,.007.073v.029c.007-.022.022-.044.029-.066a.359.359,0,0,1,.022-.052.7.7,0,0,1,.213-.256l.015-.015.345-.454h.007l1.708-2.229A5.342,5.342,0,0,1,69.182,1007.246Zm2.4.667-.249.33a3.953,3.953,0,0,1,.462-.286Zm28.531-49.76c-.293-.308-.594-.623-.9-.931-.132-.132-.264-.264-.4-.388l-.293.374-.117.161h-.007a26.493,26.493,0,0,1-2.632.308l1.356-1.767.293-.381c-.132-.125-.279-.242-.418-.367l-.3.388-1.649,2.155h-.007a18.96,18.96,0,0,1-2.045-.022l2.434-3.167.022-.029a.25.25,0,0,1-.073-.007c-.191-.015-.374-.037-.564-.066l-2.485,3.233h-.007c-.674-.051-1.349-.132-2.016-.249l2.558-3.328c-.2-.044-.4-.088-.594-.139l-2.58,3.365q-.946-.187-1.869-.44l2.646-3.445-.55-.2-2.668,3.467c-.374-.11-.755-.235-1.122-.374-.2-.073-.4-.147-.586-.22l.4-.521,2.324-3.035q-.253-.11-.506-.242l-2.045,2.668-.7.909c-.051-.022-.1-.037-.147-.059-.5-.22-1-.455-1.481-.711l1.056-1.378.044-.059,1.7-2.221c-.044-.022-.081-.051-.125-.073-.117-.073-.235-.147-.345-.22l-2.822,3.68c-.286-.154-.557-.315-.828-.491q-.33-.209-.66-.44l.52-.682,2.375-3.094c-.139-.117-.279-.235-.418-.367l-2.925,3.812a15.889,15.889,0,0,1-1.371-1.158L82.6,948.5q-.2-.209-.374-.418L79.2,952.017a14.518,14.518,0,0,1-1.188-1.327l2.375-3.086.352-.462c-.2-.044-.4-.088-.6-.117l-.359.462-2.119,2.756a16.191,16.191,0,0,1-1.034-1.547l1.173-1.518.367-.484c-.205-.03-.411-.052-.623-.081l-.381.491-.828,1.078a11.811,11.811,0,0,1-.63-1.209c-.088-.176-.169-.352-.242-.535l.007-.015a.01.01,0,0,0-.015,0c-.2-.022-.4-.029-.6-.037-.081-.007-.154-.015-.235-.015-.125-.007-.249-.015-.381-.015a45.413,45.413,0,0,0-7.609.359C40.7,950.052,36.37,977.271,36.37,977.271a5,5,0,0,1,.777.191c1.51.484,3.306,1.686,3.306,3.094,0,.1-.007.2-.015.315a6.757,6.757,0,0,1,2.053-.315A6.851,6.851,0,0,1,48.2,991.185a1.953,1.953,0,0,1,1.063.85,2.612,2.612,0,0,1-.792,3.071,2.18,2.18,0,0,1,1.9,1,2.124,2.124,0,0,1,.015,1.95,8.278,8.278,0,0,1,3.365-1.151,4.784,4.784,0,0,1,.564-.044,1.747,1.747,0,0,1,.279-.007.641.641,0,0,1,.117-.007h.169l-.081-.264.073-.1,1.012-1.312c-.1-.169-.205-.337-.3-.506l-.975,1.268-.623-2.082v-.007l.652-.843q-.143-.275-.286-.528l-.557.726-.52-1.759-.11-.381.293-.381c-.1-.2-.183-.389-.264-.565l-.227.293-.286-.975c3.218,1.481,16.421,7.5,19.873,8.232l.425,1.415c.205.638.44,1.283.682,1.928l.022.073c.073.2.147.4.227.609.242.616.506,1.254.777,1.884.059.154.132.3.2.447l.059.125c.235.535.469,1.049.718,1.547.044.1.088.191.132.278.007.015.015.037.022.051a4.775,4.775,0,0,0,.469-.242c.059-.037.125-.066.183-.1a.436.436,0,0,1-.029-.059c-.044-.088-.088-.183-.132-.271-.22-.455-.447-.938-.66-1.43l-.1-.212c-.066-.139-.132-.279-.191-.425q-.407-.946-.77-1.869c-.066-.183-.132-.359-.2-.535l-.022-.066c-.249-.667-.484-1.319-.7-1.965l-.4-1.319c5.916-6.4,15.409-16.523,17.33-18.18l3.1,14.83.073.359a3.243,3.243,0,0,1,1.07-.227,3.324,3.324,0,0,1,2.72,1.158c.037-.058.081-.11.125-.168a3.854,3.854,0,0,1-1.063-1.188c-1.334-2.3-.073-5.52,2.815-7.184a7.052,7.052,0,0,1,3.79-.968,8.1,8.1,0,0,1-2.06-5.41c0-4.113,2.419-8.709,6.319-9.354v-.007c.176-.029.352-.051.535-.066A36.4,36.4,0,0,0,100.11,958.153Zm-47.576,30a1.032,1.032,0,0,1,.579-.572,1.016,1.016,0,0,1,.11-.037L70.868,983.1c-.015.19-.029.381-.037.579-.037.638-.051,1.327-.051,2.089,0,.293.007.579.015.9.022.99.073,1.877.154,2.7.022.242.044.484.073.733l.007.081c.088.77.205,1.6.345,2.456l.139.733c.132.726.293,1.473.476,2.214l.183.733a.9.9,0,0,0,.037.132C67.862,995.216,53.744,988.714,52.534,988.15Zm20.394,8.144c-.015-.051-.029-.1-.044-.154l-.176-.689c-.176-.74-.337-1.488-.476-2.221l-.132-.719c-.147-.843-.257-1.657-.345-2.412l-.007-.081c-.022-.242-.051-.476-.073-.711-.073-.814-.125-1.686-.147-2.683-.007-.286-.015-.572-.015-.858,0-.748.015-1.422.051-2.053.015-.264.029-.52.051-.807l17.733-4.464a1.027,1.027,0,0,1,.645.051C88.74,979.529,85.016,983.209,72.928,996.294Z" transform="translate(-21.562 -905.449)" fill="#223245" opacity="0.11"/>
      <path id="Path_268" data-name="Path 268" d="M54.858,1007.979l.11.374c-.1-.008-.183-.008-.279-.008a6.761,6.761,0,0,0-.858.051,7.812,7.812,0,0,0-3.277,1.107l-1,.608.469-1.07a1.773,1.773,0,0,0,.007-1.62,1.841,1.841,0,0,0-1.6-.814l-.85-.029.608-.6a2.262,2.262,0,0,0,.733-2.624,1.558,1.558,0,0,0-.872-.682l-.447-.161.264-.389a6.49,6.49,0,0,0-7.345-9.772l-.528.169.051-.55c.007-.1.015-.183.015-.279,0-1.393-2.272-2.683-3.775-2.925l.117-.726c1.532.249,4.23,1.606,4.384,3.482a7.213,7.213,0,0,1,7.917,10.637,2.2,2.2,0,0,1,.85.829,2.744,2.744,0,0,1-.389,2.991,2.359,2.359,0,0,1,1.5,1.077,2.243,2.243,0,0,1,.271,1.4,8.908,8.908,0,0,1,2.676-.777c.191-.022.381-.044.564-.051s.337-.015.506-.015h.059a.5.5,0,0,1,.1.007l-.073.1Z" transform="translate(-21.541 -916.584)" fill="#223245"/>
      <path id="Path_269" data-name="Path 269" d="M64.5,1015.586l-.242.315a4.642,4.642,0,0,0-.572-.147l.491-.645C64.284,1015.264,64.394,1015.425,64.5,1015.586Z" transform="translate(-28.855 -923.81)" fill="#223245"/>
      <path id="Path_270" data-name="Path 270" d="M72.237,1026.119c0-.257-.015-.513-.037-.77l.44-.579c.081.066.161.132.249.2.022.11.029.22.044.33l-.7.909A.356.356,0,0,0,72.237,1026.119Z" transform="translate(-31.127 -926.389)" fill="#223245"/>
      <path id="Path_271" data-name="Path 271" d="M72.751,1029.71a4,4,0,0,1,.66.051l-.52.682h-.007a3.03,3.03,0,0,0-.682.037l-.051.008Z" transform="translate(-31.113 -927.708)" fill="#223245"/>
      <path id="Path_272" data-name="Path 272" d="M76.05,1030.66a4.184,4.184,0,0,1,.454.315l-.447.579a3.74,3.74,0,0,0-.447-.315Z" transform="translate(-32.037 -927.961)" fill="#223245"/>
      <path id="Path_273" data-name="Path 273" d="M80.725,1032.918q-.209.143-.418.264a2.059,2.059,0,0,1-1.063.257c-.315.014-.359.014-.447.249l-.345.9-.286.066-.051-.682-.029-.344a.662.662,0,0,1-.147-.044.565.565,0,0,1-.139-.1l.447-.586a.007.007,0,0,1,.007.007.518.518,0,0,1,.205.014.935.935,0,0,1,.616-.2l-.55.719Z" transform="translate(-32.621 -928.511)" fill="#223245"/>
      <path id="Path_274" data-name="Path 274" d="M84.037,1030.34c.2.044.4.088.6.117l-.183.242h-.007a12.966,12.966,0,0,0-1.407.938Z" transform="translate(-34.02 -927.876)" fill="#223245"/>
      <path id="Path_275" data-name="Path 275" d="M88.174,1031.4l.066.3-.169-.169-.176-.183-.205-.213.2-.264a1.472,1.472,0,0,0,.183.015l.081.4.022.11Z" transform="translate(-35.262 -928.017)" fill="#223245"/>
      <path id="Path_276" data-name="Path 276" d="M90.747,1027.121c.073.139.132.264.191.381-.051.029-.11.058-.161.088a5.252,5.252,0,0,1-.484.256h-.007c-.059-.125-.117-.249-.183-.381-.044-.088-.088-.183-.132-.278.139-.066.286-.14.44-.227a1.845,1.845,0,0,1,.205-.11C90.659,1026.938,90.7,1027.033,90.747,1027.121Z" transform="translate(-35.87 -926.944)" fill="#223245"/>
      <path id="Path_277" data-name="Path 277" d="M122.426,989.454a7.761,7.761,0,0,0,1.965,5.168l.579.652-.872-.044a6.73,6.73,0,0,0-3.585.917c-2.705,1.569-3.907,4.567-2.683,6.686a3.563,3.563,0,0,0,.968,1.078l.293.22-.623.828-.293-.344a2.931,2.931,0,0,0-2.368-1.034,2.891,2.891,0,0,0-1.07.227l-.073-.367-.073-.359a3.7,3.7,0,0,1,1.07-.234,3.855,3.855,0,0,1,1.444.191c-1.275-2.463.051-5.8,3.042-7.521a7.4,7.4,0,0,1,3.211-1,8.518,8.518,0,0,1-1.664-5.058c0-4.464,2.749-9.471,7.2-9.794l.051.726C124.919,980.679,122.426,985.319,122.426,989.454Z" transform="translate(-42.442 -914.347)" fill="#223245"/>
      <path id="Path_278" data-name="Path 278" d="M94.952,954.148c.022.014.037.029.051.036l.022-.029A.25.25,0,0,1,94.952,954.148Zm-17.176-8.723-.66.858-.381.491c.213.015.425.044.638.073l.367-.484.66-.85C78.194,945.476,77.982,945.447,77.777,945.425Zm2.588.432H80.35l-.638.836-.359.462c.205.036.4.073.608.117l.352-.462.374-.484C80.577,946.172,80.467,946.018,80.364,945.857Zm17.08,8.437c-.154.007-.308,0-.455-.007l-.418.542-.3.388.425.359.293-.381.6-.777C97.54,954.375,97.5,954.331,97.445,954.295Zm3.335,3.255c-.279-.316-.564-.616-.858-.917-.374.1-.748.183-1.129.256l.6-.792c-.132-.125-.264-.257-.4-.389l-.608.792-.293.374c.037.037.081.073.117.117.1.088.191.183.286.279.22.219.433.44.645.66a36.5,36.5,0,0,1,7.932,12.931v.007a36.448,36.448,0,1,1-70.821,12.125,36.879,36.879,0,0,1,.469-5.865A36.51,36.51,0,0,1,72.7,946.546c.447,0,.9.008,1.341.03q.627.011,1.232.066c-.088-.176-.169-.352-.242-.535l.007-.015.689-.894-.667-.044-.279.359a3.376,3.376,0,0,1-.139-.381c-.4-.022-.792-.037-1.195-.037-.249-.015-.5-.015-.748-.015a37.971,37.971,0,1,0,28.076,12.47Z" transform="translate(-21.14 -905.117)" fill="#223245"/>
      <g id="Group_86" data-name="Group 86" transform="translate(29.796 0)">
        <path id="Path_279" data-name="Path 279" d="M102.034,1013.854l-1.649-7.888-.073-.367-.073-.366-3.13-15.028a2.106,2.106,0,0,0-2.573-1.54l-14.053,3.541-3.313.835-.748.183L58.4,997.763a1.342,1.342,0,0,0-.293.1,2.088,2.088,0,0,0-1.261,1.613,1.97,1.97,0,0,0,.037.872l2.214,7.478.11.359.1.359,4.281,14.463a1.959,1.959,0,0,0,.938,1.187,1.859,1.859,0,0,0,.777.271c.088.007.176.015.264.015a2.255,2.255,0,0,0,.5-.059l6.495-1.547.286-.066,27.688-6.6a1.987,1.987,0,0,0,1.276-.923A1.858,1.858,0,0,0,102.034,1013.854Zm-1.158.872a.926.926,0,0,1-.594.418l-17.183,4.09-.74.176-2.309.557h-.007l-.132.029-.257.066-.455.1-2.712.645-.85.205-.513.125-2.2.52-.022.007-.059.015-.506.125-.257.059h-.007l-2.712.645-.843.2-2.7.645h-.015a1.053,1.053,0,0,1-.374.022.823.823,0,0,1-.279-.088.333.333,0,0,1-.073-.037.855.855,0,0,1-.425-.542l-.352-1.187-.191-.652-.616-2.082-.191-.645v-.007l-.616-2.082-.059-.183-.139-.462-.616-2.075-.191-.66v-.007l-.616-2.075-.2-.645-.425-1.444-.11-.374-.081-.264-.029-.1-.161-.542-.623-2.082v-.007l-.191-.645-.52-1.76-.11-.381-.2-.652-.286-.975-.2-.66a.928.928,0,0,1-.007-.4.752.752,0,0,1,.059-.22,1.032,1.032,0,0,1,.579-.572.941.941,0,0,1,.11-.037l17.645-4.442.748-.191,17.733-4.464a1.027,1.027,0,0,1,.645.051h.007a1.063,1.063,0,0,1,.125.066.989.989,0,0,1,.447.6l.037.191,3.1,14.83.073.359.073.366,1.649,7.91A.808.808,0,0,1,100.876,1014.726Z" transform="translate(-56.816 -916.734)" fill="#223245"/>
        <path id="Path_280" data-name="Path 280" d="M101.994,956.327l-.044.059.015-.066C101.972,956.32,101.987,956.327,101.994,956.327Z" transform="translate(-68.864 -908.117)" fill="#223245"/>
        <path id="Path_281" data-name="Path 281" d="M101.3,959.992a5.687,5.687,0,0,1-.132,1.371c-.279,1.158-.96,1.8-1.877,1.8a2.192,2.192,0,0,1-.513-.066,17.267,17.267,0,0,1-2.228-.748c-.242-.1-.484-.191-.718-.293-1.4-.594-2.566-1.2-2.646-1.239l-.381-.2.1-.418a6.571,6.571,0,0,1,2.316-3.379c.183-.147.359-.286.528-.4.139-.1.279-.2.4-.279a9.174,9.174,0,0,1,.821-.484l.022.044-.52.682q.33.231.66.44a9.01,9.01,0,0,0-.982.667,6.159,6.159,0,0,0-2.053,2.558c.3.147.762.367,1.3.616.161.073.337.154.521.227.535.242,1.122.484,1.693.689.183.073.367.132.542.191.308.1.6.191.88.256.242.059.792.191,1.063-.924a4.972,4.972,0,0,0,.088-1.517,3.79,3.79,0,0,0-.051-.4,4.117,4.117,0,0,0-.147-.7.753.753,0,0,0-.051-.184c.051.022.1.037.147.059l.7-.909a4.013,4.013,0,0,1,.227.608l-.4.521c.191.073.389.147.586.22A8.325,8.325,0,0,1,101.3,959.992Z" transform="translate(-66.421 -907.941)" fill="#223245"/>
        <path id="Path_282" data-name="Path 282" d="M97.992,940.922a.756.756,0,0,1,.051.183l.1-.125C98.087,940.959,98.043,940.944,97.992,940.922Zm-1.862-.916-.11-.066c-.286-.154-.557-.315-.828-.491a9.08,9.08,0,0,0-.982.667c.367.257.748.491,1.136.711.081.051.169.1.257.147s.154.081.227.124l.682-.887C96.386,940.145,96.254,940.072,96.13,940.006Zm1.862.916a.756.756,0,0,1,.051.183l.1-.125C98.087,940.959,98.043,940.944,97.992,940.922Zm-1.862-.916-.11-.066c-.286-.154-.557-.315-.828-.491a9.08,9.08,0,0,0-.982.667c.367.257.748.491,1.136.711.081.051.169.1.257.147s.154.081.227.124l.682-.887C96.386,940.145,96.254,940.072,96.13,940.006Zm1.862.916a.756.756,0,0,1,.051.183l.1-.125C98.087,940.959,98.043,940.944,97.992,940.922Zm-1.862-.916-.11-.066c-.286-.154-.557-.315-.828-.491a9.08,9.08,0,0,0-.982.667c.367.257.748.491,1.136.711.081.051.169.1.257.147s.154.081.227.124l.682-.887C96.386,940.145,96.254,940.072,96.13,940.006Zm20.005,1.415c-.029-.037-.066-.073-.1-.11-.235.081-.462.161-.7.234-.623.205-1.246.381-1.877.535-.374.1-.748.183-1.129.257h-.007c-.191.036-.381.073-.572.1a1.3,1.3,0,0,1-.235.044h-.007c-.872.147-1.752.249-2.632.308-.242.015-.477.022-.718.029h-.007a18.991,18.991,0,0,1-2.045-.022c-.22-.007-.447-.022-.667-.037h-.007c-.674-.051-1.349-.132-2.016-.249-.205-.029-.411-.066-.616-.1q-.946-.187-1.869-.44c-.191-.059-.381-.11-.572-.176-.374-.11-.755-.235-1.122-.374-.2-.073-.4-.147-.586-.22s-.345-.147-.52-.22c-.051-.022-.1-.037-.147-.059-.5-.22-1-.454-1.481-.711-.125-.066-.257-.139-.381-.205l-.11-.066c-.286-.154-.557-.315-.828-.491q-.33-.209-.66-.44a3.3,3.3,0,0,1-.323-.242.479.479,0,0,1-.125-.088,15.86,15.86,0,0,1-1.371-1.158c-.139-.125-.271-.257-.4-.388a14.522,14.522,0,0,1-1.188-1.327c-.125-.146-.235-.293-.352-.447a16.237,16.237,0,0,1-1.034-1.547,5.158,5.158,0,0,1-.293-.513,11.822,11.822,0,0,1-.63-1.209c-.088-.176-.169-.352-.242-.535-.007-.007-.007-.007-.007-.015-.088-.191-.169-.381-.242-.579a3.391,3.391,0,0,1-.139-.381c-.205-.521-.381-1.048-.542-1.6v-.007c-.066-.22-.132-.432-.183-.66-.015-.051-.029-.1-.044-.161-.381-.015-.755-.022-1.136-.022.015.051.022.1.037.146A23.263,23.263,0,0,0,87,930.542c.117.315.235.623.359.931.073.183.147.367.235.55a18.667,18.667,0,0,0,5.689,7.426,1.641,1.641,0,0,0,.139.1c.147.117.293.227.447.33.11.081.227.161.345.234.367.257.748.491,1.136.711.081.051.169.1.257.147s.154.081.227.124c.535.286,1.07.543,1.62.785.169.073.345.146.52.22.088.036.183.073.271.11.367.147.74.286,1.114.4a24.486,24.486,0,0,0,7.946,1.319h.037c.227,0,.447,0,.674-.015a25.9,25.9,0,0,0,4.677-.542c.183-.029.367-.066.542-.11.367-.081.733-.176,1.092-.271.843-.227,1.679-.491,2.5-.8C116.6,941.934,116.369,941.678,116.135,941.421Zm0,0c-.029-.037-.066-.073-.1-.11-.235.081-.462.161-.7.234-.623.205-1.246.381-1.877.535-.374.1-.748.183-1.129.257h-.007c-.191.036-.381.073-.572.1a1.3,1.3,0,0,1-.235.044h-.007c-.872.147-1.752.249-2.632.308-.242.015-.477.022-.718.029h-.007a18.991,18.991,0,0,1-2.045-.022c-.22-.007-.447-.022-.667-.037h-.007c-.674-.051-1.349-.132-2.016-.249-.205-.029-.411-.066-.616-.1q-.946-.187-1.869-.44c-.191-.059-.381-.11-.572-.176-.374-.11-.755-.235-1.122-.374-.2-.073-.4-.147-.586-.22s-.345-.147-.52-.22c-.051-.022-.1-.037-.147-.059-.5-.22-1-.454-1.481-.711-.125-.066-.257-.139-.381-.205l-.11-.066c-.286-.154-.557-.315-.828-.491q-.33-.209-.66-.44a3.3,3.3,0,0,1-.323-.242.479.479,0,0,1-.125-.088,15.86,15.86,0,0,1-1.371-1.158c-.139-.125-.271-.257-.4-.388a14.522,14.522,0,0,1-1.188-1.327c-.125-.146-.235-.293-.352-.447a16.237,16.237,0,0,1-1.034-1.547,5.158,5.158,0,0,1-.293-.513,11.822,11.822,0,0,1-.63-1.209c-.088-.176-.169-.352-.242-.535-.007-.007-.007-.007-.007-.015-.088-.191-.169-.381-.242-.579a3.391,3.391,0,0,1-.139-.381c-.205-.521-.381-1.048-.542-1.6v-.007c-.066-.22-.132-.432-.183-.66-.015-.051-.029-.1-.044-.161-.381-.015-.755-.022-1.136-.022.015.051.022.1.037.146A23.263,23.263,0,0,0,87,930.542c.117.315.235.623.359.931.073.183.147.367.235.55a18.667,18.667,0,0,0,5.689,7.426,1.641,1.641,0,0,0,.139.1c.147.117.293.227.447.33.11.081.227.161.345.234.367.257.748.491,1.136.711.081.051.169.1.257.147s.154.081.227.124c.535.286,1.07.543,1.62.785.169.073.345.146.52.22.088.036.183.073.271.11.367.147.74.286,1.114.4a24.486,24.486,0,0,0,7.946,1.319h.037c.227,0,.447,0,.674-.015a25.9,25.9,0,0,0,4.677-.542c.183-.029.367-.066.542-.11.367-.081.733-.176,1.092-.271.843-.227,1.679-.491,2.5-.8C116.6,941.934,116.369,941.678,116.135,941.421Zm0,0c-.029-.037-.066-.073-.1-.11-.235.081-.462.161-.7.234-.623.205-1.246.381-1.877.535-.374.1-.748.183-1.129.257h-.007c-.191.036-.381.073-.572.1a1.3,1.3,0,0,1-.235.044h-.007c-.872.147-1.752.249-2.632.308-.242.015-.477.022-.718.029h-.007a18.991,18.991,0,0,1-2.045-.022c-.22-.007-.447-.022-.667-.037h-.007c-.674-.051-1.349-.132-2.016-.249-.205-.029-.411-.066-.616-.1q-.946-.187-1.869-.44c-.191-.059-.381-.11-.572-.176-.374-.11-.755-.235-1.122-.374-.2-.073-.4-.147-.586-.22s-.345-.147-.52-.22c-.051-.022-.1-.037-.147-.059-.5-.22-1-.454-1.481-.711-.125-.066-.257-.139-.381-.205l-.11-.066c-.286-.154-.557-.315-.828-.491q-.33-.209-.66-.44a3.3,3.3,0,0,1-.323-.242.479.479,0,0,1-.125-.088,15.86,15.86,0,0,1-1.371-1.158c-.139-.125-.271-.257-.4-.388a14.522,14.522,0,0,1-1.188-1.327c-.125-.146-.235-.293-.352-.447a16.237,16.237,0,0,1-1.034-1.547,5.158,5.158,0,0,1-.293-.513,11.822,11.822,0,0,1-.63-1.209c-.088-.176-.169-.352-.242-.535-.007-.007-.007-.007-.007-.015-.088-.191-.169-.381-.242-.579a3.391,3.391,0,0,1-.139-.381c-.205-.521-.381-1.048-.542-1.6v-.007c-.066-.22-.132-.432-.183-.66-.015-.051-.029-.1-.044-.161-.381-.015-.755-.022-1.136-.022.015.051.022.1.037.146A23.263,23.263,0,0,0,87,930.542c.117.315.235.623.359.931.073.183.147.367.235.55a18.667,18.667,0,0,0,5.689,7.426,1.641,1.641,0,0,0,.139.1c.147.117.293.227.447.33.11.081.227.161.345.234.367.257.748.491,1.136.711.081.051.169.1.257.147s.154.081.227.124c.535.286,1.07.543,1.62.785.169.073.345.146.52.22.088.036.183.073.271.11.367.147.74.286,1.114.4a24.486,24.486,0,0,0,7.946,1.319h.037c.227,0,.447,0,.674-.015a25.9,25.9,0,0,0,4.677-.542c.183-.029.367-.066.542-.11.367-.081.733-.176,1.092-.271.843-.227,1.679-.491,2.5-.8C116.6,941.934,116.369,941.678,116.135,941.421Zm0,0c-.029-.037-.066-.073-.1-.11-.235.081-.462.161-.7.234-.623.205-1.246.381-1.877.535-.374.1-.748.183-1.129.257h-.007c-.191.036-.381.073-.572.1a1.3,1.3,0,0,1-.235.044h-.007c-.872.147-1.752.249-2.632.308-.242.015-.477.022-.718.029h-.007a18.991,18.991,0,0,1-2.045-.022c-.22-.007-.447-.022-.667-.037h-.007c-.674-.051-1.349-.132-2.016-.249-.205-.029-.411-.066-.616-.1q-.946-.187-1.869-.44c-.191-.059-.381-.11-.572-.176-.374-.11-.755-.235-1.122-.374-.2-.073-.4-.147-.586-.22s-.345-.147-.52-.22c-.051-.022-.1-.037-.147-.059-.5-.22-1-.454-1.481-.711-.125-.066-.257-.139-.381-.205l-.11-.066c-.286-.154-.557-.315-.828-.491q-.33-.209-.66-.44a3.3,3.3,0,0,1-.323-.242.479.479,0,0,1-.125-.088,15.86,15.86,0,0,1-1.371-1.158c-.139-.125-.271-.257-.4-.388a14.522,14.522,0,0,1-1.188-1.327c-.125-.146-.235-.293-.352-.447a16.237,16.237,0,0,1-1.034-1.547,5.158,5.158,0,0,1-.293-.513,11.822,11.822,0,0,1-.63-1.209c-.088-.176-.169-.352-.242-.535-.007-.007-.007-.007-.007-.015-.088-.191-.169-.381-.242-.579a3.391,3.391,0,0,1-.139-.381c-.205-.521-.381-1.048-.542-1.6v-.007c-.066-.22-.132-.432-.183-.66-.015-.051-.029-.1-.044-.161-.381-.015-.755-.022-1.136-.022.015.051.022.1.037.146A23.263,23.263,0,0,0,87,930.542c.117.315.235.623.359.931.073.183.147.367.235.55a18.667,18.667,0,0,0,5.689,7.426,1.641,1.641,0,0,0,.139.1c.147.117.293.227.447.33.11.081.227.161.345.234.367.257.748.491,1.136.711.081.051.169.1.257.147s.154.081.227.124c.535.286,1.07.543,1.62.785.169.073.345.146.52.22.088.036.183.073.271.11.367.147.74.286,1.114.4a24.486,24.486,0,0,0,7.946,1.319h.037c.227,0,.447,0,.674-.015a25.9,25.9,0,0,0,4.677-.542c.183-.029.367-.066.542-.11.367-.081.733-.176,1.092-.271.843-.227,1.679-.491,2.5-.8C116.6,941.934,116.369,941.678,116.135,941.421Zm0,0c-.029-.037-.066-.073-.1-.11-.235.081-.462.161-.7.234-.623.205-1.246.381-1.877.535-.374.1-.748.183-1.129.257h-.007c-.191.036-.381.073-.572.1a1.3,1.3,0,0,1-.235.044h-.007c-.872.147-1.752.249-2.632.308-.242.015-.477.022-.718.029h-.007a18.991,18.991,0,0,1-2.045-.022c-.22-.007-.447-.022-.667-.037h-.007c-.674-.051-1.349-.132-2.016-.249-.205-.029-.411-.066-.616-.1q-.946-.187-1.869-.44c-.191-.059-.381-.11-.572-.176-.374-.11-.755-.235-1.122-.374-.2-.073-.4-.147-.586-.22s-.345-.147-.52-.22c-.051-.022-.1-.037-.147-.059-.5-.22-1-.454-1.481-.711-.125-.066-.257-.139-.381-.205l-.11-.066c-.286-.154-.557-.315-.828-.491q-.33-.209-.66-.44a3.3,3.3,0,0,1-.323-.242.479.479,0,0,1-.125-.088,15.86,15.86,0,0,1-1.371-1.158c-.139-.125-.271-.257-.4-.388a14.522,14.522,0,0,1-1.188-1.327c-.125-.146-.235-.293-.352-.447a16.237,16.237,0,0,1-1.034-1.547,5.158,5.158,0,0,1-.293-.513,11.822,11.822,0,0,1-.63-1.209c-.088-.176-.169-.352-.242-.535-.007-.007-.007-.007-.007-.015-.088-.191-.169-.381-.242-.579a3.391,3.391,0,0,1-.139-.381c-.205-.521-.381-1.048-.542-1.6v-.007c-.066-.22-.132-.432-.183-.66-.015-.051-.029-.1-.044-.161-.381-.015-.755-.022-1.136-.022.015.051.022.1.037.146A23.263,23.263,0,0,0,87,930.542c.117.315.235.623.359.931.073.183.147.367.235.55a18.667,18.667,0,0,0,5.689,7.426,1.641,1.641,0,0,0,.139.1c.147.117.293.227.447.33.11.081.227.161.345.234.367.257.748.491,1.136.711.081.051.169.1.257.147s.154.081.227.124c.535.286,1.07.543,1.62.785.169.073.345.146.52.22.088.036.183.073.271.11.367.147.74.286,1.114.4a24.486,24.486,0,0,0,7.946,1.319h.037c.227,0,.447,0,.674-.015a25.9,25.9,0,0,0,4.677-.542c.183-.029.367-.066.542-.11.367-.081.733-.176,1.092-.271.843-.227,1.679-.491,2.5-.8C116.6,941.934,116.369,941.678,116.135,941.421Zm0,0c-.029-.037-.066-.073-.1-.11-.235.081-.462.161-.7.234-.623.205-1.246.381-1.877.535-.374.1-.748.183-1.129.257h-.007c-.191.036-.381.073-.572.1a1.3,1.3,0,0,1-.235.044h-.007c-.872.147-1.752.249-2.632.308-.242.015-.477.022-.718.029h-.007a18.991,18.991,0,0,1-2.045-.022c-.22-.007-.447-.022-.667-.037h-.007c-.674-.051-1.349-.132-2.016-.249-.205-.029-.411-.066-.616-.1q-.946-.187-1.869-.44c-.191-.059-.381-.11-.572-.176-.374-.11-.755-.235-1.122-.374-.2-.073-.4-.147-.586-.22s-.345-.147-.52-.22c-.051-.022-.1-.037-.147-.059-.5-.22-1-.454-1.481-.711-.125-.066-.257-.139-.381-.205l-.11-.066c-.286-.154-.557-.315-.828-.491q-.33-.209-.66-.44a3.3,3.3,0,0,1-.323-.242.479.479,0,0,1-.125-.088,15.86,15.86,0,0,1-1.371-1.158c-.139-.125-.271-.257-.4-.388a14.522,14.522,0,0,1-1.188-1.327c-.125-.146-.235-.293-.352-.447a16.237,16.237,0,0,1-1.034-1.547,5.158,5.158,0,0,1-.293-.513,11.822,11.822,0,0,1-.63-1.209c-.088-.176-.169-.352-.242-.535-.007-.007-.007-.007-.007-.015-.088-.191-.169-.381-.242-.579a3.391,3.391,0,0,1-.139-.381c-.205-.521-.381-1.048-.542-1.6v-.007c-.066-.22-.132-.432-.183-.66-.015-.051-.029-.1-.044-.161-.381-.015-.755-.022-1.136-.022.015.051.022.1.037.146A23.263,23.263,0,0,0,87,930.542c.117.315.235.623.359.931.073.183.147.367.235.55a18.667,18.667,0,0,0,5.689,7.426,1.641,1.641,0,0,0,.139.1c.147.117.293.227.447.33.11.081.227.161.345.234.367.257.748.491,1.136.711.081.051.169.1.257.147s.154.081.227.124c.535.286,1.07.543,1.62.785.169.073.345.146.52.22.088.036.183.073.271.11.367.147.74.286,1.114.4a24.486,24.486,0,0,0,7.946,1.319h.037c.227,0,.447,0,.674-.015a25.9,25.9,0,0,0,4.677-.542c.183-.029.367-.066.542-.11.367-.081.733-.176,1.092-.271.843-.227,1.679-.491,2.5-.8C116.6,941.934,116.369,941.678,116.135,941.421Zm0,0c-.029-.037-.066-.073-.1-.11-.235.081-.462.161-.7.234-.623.205-1.246.381-1.877.535-.374.1-.748.183-1.129.257h-.007c-.191.036-.381.073-.572.1a1.3,1.3,0,0,1-.235.044h-.007c-.872.147-1.752.249-2.632.308-.242.015-.477.022-.718.029h-.007a18.991,18.991,0,0,1-2.045-.022c-.22-.007-.447-.022-.667-.037h-.007c-.674-.051-1.349-.132-2.016-.249-.205-.029-.411-.066-.616-.1q-.946-.187-1.869-.44c-.191-.059-.381-.11-.572-.176-.374-.11-.755-.235-1.122-.374-.2-.073-.4-.147-.586-.22s-.345-.147-.52-.22c-.051-.022-.1-.037-.147-.059-.5-.22-1-.454-1.481-.711-.125-.066-.257-.139-.381-.205l-.11-.066c-.286-.154-.557-.315-.828-.491q-.33-.209-.66-.44a3.3,3.3,0,0,1-.323-.242.479.479,0,0,1-.125-.088,15.86,15.86,0,0,1-1.371-1.158c-.139-.125-.271-.257-.4-.388a14.522,14.522,0,0,1-1.188-1.327c-.125-.146-.235-.293-.352-.447a16.237,16.237,0,0,1-1.034-1.547,5.158,5.158,0,0,1-.293-.513,11.822,11.822,0,0,1-.63-1.209c-.088-.176-.169-.352-.242-.535-.007-.007-.007-.007-.007-.015-.088-.191-.169-.381-.242-.579a3.391,3.391,0,0,1-.139-.381c-.205-.521-.381-1.048-.542-1.6v-.007c-.066-.22-.132-.432-.183-.66-.015-.051-.029-.1-.044-.161-.381-.015-.755-.022-1.136-.022.015.051.022.1.037.146A23.263,23.263,0,0,0,87,930.542c.117.315.235.623.359.931.073.183.147.367.235.55a18.667,18.667,0,0,0,5.689,7.426,1.641,1.641,0,0,0,.139.1c.147.117.293.227.447.33.11.081.227.161.345.234.367.257.748.491,1.136.711.081.051.169.1.257.147s.154.081.227.124c.535.286,1.07.543,1.62.785.169.073.345.146.52.22.088.036.183.073.271.11.367.147.74.286,1.114.4a24.486,24.486,0,0,0,7.946,1.319h.037c.227,0,.447,0,.674-.015a25.9,25.9,0,0,0,4.677-.542c.183-.029.367-.066.542-.11.367-.081.733-.176,1.092-.271.843-.227,1.679-.491,2.5-.8C116.6,941.934,116.369,941.678,116.135,941.421Zm0,0c-.029-.037-.066-.073-.1-.11-.235.081-.462.161-.7.234-.623.205-1.246.381-1.877.535-.374.1-.748.183-1.129.257h-.007c-.191.036-.381.073-.572.1a1.3,1.3,0,0,1-.235.044h-.007c-.872.147-1.752.249-2.632.308-.242.015-.477.022-.718.029h-.007a18.991,18.991,0,0,1-2.045-.022c-.22-.007-.447-.022-.667-.037h-.007c-.674-.051-1.349-.132-2.016-.249-.205-.029-.411-.066-.616-.1q-.946-.187-1.869-.44c-.191-.059-.381-.11-.572-.176-.374-.11-.755-.235-1.122-.374-.2-.073-.4-.147-.586-.22s-.345-.147-.52-.22c-.051-.022-.1-.037-.147-.059-.5-.22-1-.454-1.481-.711-.125-.066-.257-.139-.381-.205l-.11-.066c-.286-.154-.557-.315-.828-.491q-.33-.209-.66-.44a3.3,3.3,0,0,1-.323-.242.479.479,0,0,1-.125-.088,15.86,15.86,0,0,1-1.371-1.158c-.139-.125-.271-.257-.4-.388a14.522,14.522,0,0,1-1.188-1.327c-.125-.146-.235-.293-.352-.447a16.237,16.237,0,0,1-1.034-1.547,5.158,5.158,0,0,1-.293-.513,11.822,11.822,0,0,1-.63-1.209c-.088-.176-.169-.352-.242-.535-.007-.007-.007-.007-.007-.015-.088-.191-.169-.381-.242-.579a3.391,3.391,0,0,1-.139-.381c-.205-.521-.381-1.048-.542-1.6v-.007c-.066-.22-.132-.432-.183-.66-.015-.051-.029-.1-.044-.161-.381-.015-.755-.022-1.136-.022.015.051.022.1.037.146A23.263,23.263,0,0,0,87,930.542c.117.315.235.623.359.931.073.183.147.367.235.55a18.667,18.667,0,0,0,5.689,7.426,1.641,1.641,0,0,0,.139.1c.147.117.293.227.447.33.11.081.227.161.345.234.367.257.748.491,1.136.711.081.051.169.1.257.147s.154.081.227.124c.535.286,1.07.543,1.62.785.169.073.345.146.52.22.088.036.183.073.271.11.367.147.74.286,1.114.4a24.486,24.486,0,0,0,7.946,1.319h.037c.227,0,.447,0,.674-.015a25.9,25.9,0,0,0,4.677-.542c.183-.029.367-.066.542-.11.367-.081.733-.176,1.092-.271.843-.227,1.679-.491,2.5-.8C116.6,941.934,116.369,941.678,116.135,941.421Zm0,0c-.029-.037-.066-.073-.1-.11-.235.081-.462.161-.7.234-.623.205-1.246.381-1.877.535-.374.1-.748.183-1.129.257h-.007c-.191.036-.381.073-.572.1a1.3,1.3,0,0,1-.235.044h-.007c-.872.147-1.752.249-2.632.308-.242.015-.477.022-.718.029h-.007a18.991,18.991,0,0,1-2.045-.022c-.22-.007-.447-.022-.667-.037h-.007c-.674-.051-1.349-.132-2.016-.249-.205-.029-.411-.066-.616-.1q-.946-.187-1.869-.44c-.191-.059-.381-.11-.572-.176-.374-.11-.755-.235-1.122-.374-.2-.073-.4-.147-.586-.22s-.345-.147-.52-.22c-.051-.022-.1-.037-.147-.059-.5-.22-1-.454-1.481-.711-.125-.066-.257-.139-.381-.205l-.11-.066c-.286-.154-.557-.315-.828-.491q-.33-.209-.66-.44a3.3,3.3,0,0,1-.323-.242.479.479,0,0,1-.125-.088,15.86,15.86,0,0,1-1.371-1.158c-.139-.125-.271-.257-.4-.388a14.522,14.522,0,0,1-1.188-1.327c-.125-.146-.235-.293-.352-.447a16.237,16.237,0,0,1-1.034-1.547,5.158,5.158,0,0,1-.293-.513,11.822,11.822,0,0,1-.63-1.209c-.088-.176-.169-.352-.242-.535-.007-.007-.007-.007-.007-.015-.088-.191-.169-.381-.242-.579a3.391,3.391,0,0,1-.139-.381c-.205-.521-.381-1.048-.542-1.6v-.007c-.066-.22-.132-.432-.183-.66-.015-.051-.029-.1-.044-.161-.381-.015-.755-.022-1.136-.022.015.051.022.1.037.146A23.263,23.263,0,0,0,87,930.542c.117.315.235.623.359.931.073.183.147.367.235.55a18.667,18.667,0,0,0,5.689,7.426,1.641,1.641,0,0,0,.139.1c.147.117.293.227.447.33.11.081.227.161.345.234.367.257.748.491,1.136.711.081.051.169.1.257.147s.154.081.227.124c.535.286,1.07.543,1.62.785.169.073.345.146.52.22.088.036.183.073.271.11.367.147.74.286,1.114.4a24.486,24.486,0,0,0,7.946,1.319h.037c.227,0,.447,0,.674-.015a25.9,25.9,0,0,0,4.677-.542c.183-.029.367-.066.542-.11.367-.081.733-.176,1.092-.271.843-.227,1.679-.491,2.5-.8C116.6,941.934,116.369,941.678,116.135,941.421Zm0,0c-.029-.037-.066-.073-.1-.11-.235.081-.462.161-.7.234-.623.205-1.246.381-1.877.535-.374.1-.748.183-1.129.257h-.007c-.191.036-.381.073-.572.1a1.3,1.3,0,0,1-.235.044h-.007c-.872.147-1.752.249-2.632.308-.242.015-.477.022-.718.029h-.007a18.991,18.991,0,0,1-2.045-.022c-.22-.007-.447-.022-.667-.037h-.007c-.674-.051-1.349-.132-2.016-.249-.205-.029-.411-.066-.616-.1q-.946-.187-1.869-.44c-.191-.059-.381-.11-.572-.176-.374-.11-.755-.235-1.122-.374-.2-.073-.4-.147-.586-.22s-.345-.147-.52-.22c-.051-.022-.1-.037-.147-.059-.5-.22-1-.454-1.481-.711-.125-.066-.257-.139-.381-.205l-.11-.066c-.286-.154-.557-.315-.828-.491q-.33-.209-.66-.44a3.3,3.3,0,0,1-.323-.242.479.479,0,0,1-.125-.088,15.86,15.86,0,0,1-1.371-1.158c-.139-.125-.271-.257-.4-.388a14.522,14.522,0,0,1-1.188-1.327c-.125-.146-.235-.293-.352-.447a16.237,16.237,0,0,1-1.034-1.547,5.158,5.158,0,0,1-.293-.513,11.822,11.822,0,0,1-.63-1.209c-.088-.176-.169-.352-.242-.535-.007-.007-.007-.007-.007-.015-.088-.191-.169-.381-.242-.579a3.391,3.391,0,0,1-.139-.381c-.205-.521-.381-1.048-.542-1.6v-.007c-.066-.22-.132-.432-.183-.66-.015-.051-.029-.1-.044-.161-.381-.015-.755-.022-1.136-.022.015.051.022.1.037.146A23.263,23.263,0,0,0,87,930.542c.117.315.235.623.359.931.073.183.147.367.235.55a18.667,18.667,0,0,0,5.689,7.426,1.641,1.641,0,0,0,.139.1c.147.117.293.227.447.33.11.081.227.161.345.234.367.257.748.491,1.136.711.081.051.169.1.257.147s.154.081.227.124c.535.286,1.07.543,1.62.785.169.073.345.146.52.22.088.036.183.073.271.11.367.147.74.286,1.114.4a24.486,24.486,0,0,0,7.946,1.319h.037c.227,0,.447,0,.674-.015a25.9,25.9,0,0,0,4.677-.542c.183-.029.367-.066.542-.11.367-.081.733-.176,1.092-.271.843-.227,1.679-.491,2.5-.8C116.6,941.934,116.369,941.678,116.135,941.421Zm0,0c-.029-.037-.066-.073-.1-.11-.235.081-.462.161-.7.234-.623.205-1.246.381-1.877.535-.374.1-.748.183-1.129.257h-.007c-.191.036-.381.073-.572.1a1.3,1.3,0,0,1-.235.044h-.007c-.872.147-1.752.249-2.632.308-.242.015-.477.022-.718.029h-.007a18.991,18.991,0,0,1-2.045-.022c-.22-.007-.447-.022-.667-.037h-.007c-.674-.051-1.349-.132-2.016-.249-.205-.029-.411-.066-.616-.1q-.946-.187-1.869-.44c-.191-.059-.381-.11-.572-.176-.374-.11-.755-.235-1.122-.374-.2-.073-.4-.147-.586-.22s-.345-.147-.52-.22c-.051-.022-.1-.037-.147-.059-.5-.22-1-.454-1.481-.711-.125-.066-.257-.139-.381-.205l-.11-.066c-.286-.154-.557-.315-.828-.491q-.33-.209-.66-.44a3.3,3.3,0,0,1-.323-.242.479.479,0,0,1-.125-.088,15.86,15.86,0,0,1-1.371-1.158c-.139-.125-.271-.257-.4-.388a14.522,14.522,0,0,1-1.188-1.327c-.125-.146-.235-.293-.352-.447a16.237,16.237,0,0,1-1.034-1.547,5.158,5.158,0,0,1-.293-.513,11.822,11.822,0,0,1-.63-1.209c-.088-.176-.169-.352-.242-.535-.007-.007-.007-.007-.007-.015-.088-.191-.169-.381-.242-.579a3.391,3.391,0,0,1-.139-.381c-.205-.521-.381-1.048-.542-1.6v-.007c-.066-.22-.132-.432-.183-.66-.015-.051-.029-.1-.044-.161-.381-.015-.755-.022-1.136-.022.015.051.022.1.037.146A23.263,23.263,0,0,0,87,930.542c.117.315.235.623.359.931.073.183.147.367.235.55a18.667,18.667,0,0,0,5.689,7.426,1.641,1.641,0,0,0,.139.1c.147.117.293.227.447.33.11.081.227.161.345.234.367.257.748.491,1.136.711.081.051.169.1.257.147s.154.081.227.124c.535.286,1.07.543,1.62.785.169.073.345.146.52.22.088.036.183.073.271.11.367.147.74.286,1.114.4a24.486,24.486,0,0,0,7.946,1.319h.037c.227,0,.447,0,.674-.015a25.9,25.9,0,0,0,4.677-.542c.183-.029.367-.066.542-.11.367-.081.733-.176,1.092-.271.843-.227,1.679-.491,2.5-.8C116.6,941.934,116.369,941.678,116.135,941.421Zm0,0c-.029-.037-.066-.073-.1-.11-.235.081-.462.161-.7.234-.623.205-1.246.381-1.877.535-.374.1-.748.183-1.129.257h-.007c-.191.036-.381.073-.572.1a1.3,1.3,0,0,1-.235.044h-.007c-.872.147-1.752.249-2.632.308-.242.015-.477.022-.718.029h-.007a18.991,18.991,0,0,1-2.045-.022c-.22-.007-.447-.022-.667-.037h-.007c-.674-.051-1.349-.132-2.016-.249-.205-.029-.411-.066-.616-.1q-.946-.187-1.869-.44c-.191-.059-.381-.11-.572-.176-.374-.11-.755-.235-1.122-.374-.2-.073-.4-.147-.586-.22s-.345-.147-.52-.22c-.051-.022-.1-.037-.147-.059-.5-.22-1-.454-1.481-.711-.125-.066-.257-.139-.381-.205l-.11-.066c-.286-.154-.557-.315-.828-.491q-.33-.209-.66-.44a3.3,3.3,0,0,1-.323-.242.479.479,0,0,1-.125-.088,15.86,15.86,0,0,1-1.371-1.158c-.139-.125-.271-.257-.4-.388a14.522,14.522,0,0,1-1.188-1.327c-.125-.146-.235-.293-.352-.447a16.237,16.237,0,0,1-1.034-1.547,5.158,5.158,0,0,1-.293-.513,11.822,11.822,0,0,1-.63-1.209c-.088-.176-.169-.352-.242-.535-.007-.007-.007-.007-.007-.015-.088-.191-.169-.381-.242-.579a3.391,3.391,0,0,1-.139-.381c-.205-.521-.381-1.048-.542-1.6v-.007c-.066-.22-.132-.432-.183-.66-.015-.051-.029-.1-.044-.161-.381-.015-.755-.022-1.136-.022.015.051.022.1.037.146A23.263,23.263,0,0,0,87,930.542c.117.315.235.623.359.931.073.183.147.367.235.55a18.667,18.667,0,0,0,5.689,7.426,1.641,1.641,0,0,0,.139.1c.147.117.293.227.447.33.11.081.227.161.345.234.367.257.748.491,1.136.711.081.051.169.1.257.147s.154.081.227.124c.535.286,1.07.543,1.62.785.169.073.345.146.52.22.088.036.183.073.271.11.367.147.74.286,1.114.4a24.486,24.486,0,0,0,7.946,1.319h.037c.227,0,.447,0,.674-.015a25.9,25.9,0,0,0,4.677-.542c.183-.029.367-.066.542-.11.367-.081.733-.176,1.092-.271.843-.227,1.679-.491,2.5-.8C116.6,941.934,116.369,941.678,116.135,941.421Zm-17.945.389a4.126,4.126,0,0,0-.147-.7.756.756,0,0,0-.051-.183c-.5-.22-1-.454-1.481-.711-.125-.066-.257-.139-.381-.205l-.11-.066c-.286-.154-.557-.315-.828-.491a9.08,9.08,0,0,0-.982.667c.367.257.748.491,1.136.711.081.051.169.1.257.147s.154.081.227.124c.535.286,1.07.543,1.62.785.169.073.345.146.52.22.088.036.183.073.271.11A3.776,3.776,0,0,0,98.19,941.809Zm0,0a4.126,4.126,0,0,0-.147-.7.756.756,0,0,0-.051-.183c-.5-.22-1-.454-1.481-.711-.125-.066-.257-.139-.381-.205l-.11-.066c-.286-.154-.557-.315-.828-.491a9.08,9.08,0,0,0-.982.667c.367.257.748.491,1.136.711.081.051.169.1.257.147s.154.081.227.124c.535.286,1.07.543,1.62.785.169.073.345.146.52.22.088.036.183.073.271.11A3.776,3.776,0,0,0,98.19,941.809Zm0,0a4.126,4.126,0,0,0-.147-.7.756.756,0,0,0-.051-.183c-.5-.22-1-.454-1.481-.711-.125-.066-.257-.139-.381-.205l-.11-.066c-.286-.154-.557-.315-.828-.491a9.08,9.08,0,0,0-.982.667c.367.257.748.491,1.136.711.081.051.169.1.257.147s.154.081.227.124c.535.286,1.07.543,1.62.785.169.073.345.146.52.22.088.036.183.073.271.11A3.776,3.776,0,0,0,98.19,941.809Zm0,0a4.126,4.126,0,0,0-.147-.7.756.756,0,0,0-.051-.183c-.5-.22-1-.454-1.481-.711-.125-.066-.257-.139-.381-.205l-.11-.066c-.286-.154-.557-.315-.828-.491a9.08,9.08,0,0,0-.982.667c.367.257.748.491,1.136.711.081.051.169.1.257.147s.154.081.227.124c.535.286,1.07.543,1.62.785.169.073.345.146.52.22.088.036.183.073.271.11A3.776,3.776,0,0,0,98.19,941.809Zm0,0a4.126,4.126,0,0,0-.147-.7.756.756,0,0,0-.051-.183c-.5-.22-1-.454-1.481-.711-.125-.066-.257-.139-.381-.205l-.11-.066c-.286-.154-.557-.315-.828-.491a9.08,9.08,0,0,0-.982.667c.367.257.748.491,1.136.711.081.051.169.1.257.147s.154.081.227.124c.535.286,1.07.543,1.62.785.169.073.345.146.52.22.088.036.183.073.271.11A3.776,3.776,0,0,0,98.19,941.809Zm0,0a4.126,4.126,0,0,0-.147-.7.756.756,0,0,0-.051-.183c-.5-.22-1-.454-1.481-.711-.125-.066-.257-.139-.381-.205l-.11-.066c-.286-.154-.557-.315-.828-.491a9.08,9.08,0,0,0-.982.667c.367.257.748.491,1.136.711.081.051.169.1.257.147s.154.081.227.124c.535.286,1.07.543,1.62.785.169.073.345.146.52.22.088.036.183.073.271.11A3.776,3.776,0,0,0,98.19,941.809Zm28.179-47.686c-11.143-7.345-27.035-2.954-35.429,9.787a33.026,33.026,0,0,0-4.677,11.069v.007c-.051.213-.1.418-.139.63v.037c-.037.169-.066.337-.1.506-.088.491-.169.982-.227,1.473-.073.542-.132,1.078-.176,1.62-.029.33-.044.66-.059.982s-.029.623-.029.931c-.007.242-.015.491,0,.733a27.384,27.384,0,0,0,.579,5.5c.051.242.11.491.169.733.015.051.022.1.037.146A23.263,23.263,0,0,0,87,930.542c.117.315.235.623.359.931.073.183.147.367.235.55a18.667,18.667,0,0,0,5.689,7.426,1.641,1.641,0,0,0,.139.1c.147.117.293.227.447.33.11.081.227.161.345.234.367.257.748.491,1.136.711.081.051.169.1.257.147s.154.081.227.124c.535.286,1.07.543,1.62.785.169.073.345.146.52.22.088.036.183.073.271.11.367.147.74.286,1.114.4a24.486,24.486,0,0,0,7.946,1.319h.037c.227,0,.447,0,.674-.015a25.9,25.9,0,0,0,4.677-.542c.183-.029.367-.066.542-.11.367-.081.733-.176,1.092-.271.843-.227,1.679-.491,2.5-.8.242-.088.476-.183.718-.278.6-.242,1.2-.506,1.8-.8.161-.073.33-.154.491-.242.271-.132.542-.279.814-.425q.495-.275.99-.572c.213-.125.425-.257.638-.388a29.8,29.8,0,0,0,4.1-3.137q.55-.484,1.056-1.012a30.2,30.2,0,0,0,3.922-4.8C139.747,917.8,137.511,901.469,126.368,894.124Zm4.061,35.81a29.353,29.353,0,0,1-3.709,4.567c-.345.352-.7.689-1.056,1.019a28.877,28.877,0,0,1-4.076,3.1c-.015.007-.022.015-.037.022h-.007c-.2.132-.4.249-.594.366-.235.14-.455.271-.689.389l-.007.007a27.833,27.833,0,0,1-3.482,1.635c-.161.066-.323.125-.484.183l-.249.088c-.235.081-.462.161-.7.234-.623.205-1.246.381-1.877.535-.374.1-.748.183-1.129.257h-.007c-.191.036-.381.073-.572.1a1.3,1.3,0,0,1-.235.044h-.007c-.872.147-1.752.249-2.632.308-.242.015-.477.022-.718.029h-.007a18.991,18.991,0,0,1-2.045-.022c-.22-.007-.447-.022-.667-.037h-.007c-.674-.051-1.349-.132-2.016-.249-.205-.029-.411-.066-.616-.1q-.946-.187-1.869-.44c-.191-.059-.381-.11-.572-.176-.374-.11-.755-.235-1.122-.374-.2-.073-.4-.147-.586-.22s-.345-.147-.52-.22c-.051-.022-.1-.037-.147-.059-.5-.22-1-.454-1.481-.711-.125-.066-.257-.139-.381-.205l-.11-.066c-.286-.154-.557-.315-.828-.491q-.33-.209-.66-.44a3.3,3.3,0,0,1-.323-.242.479.479,0,0,1-.125-.088,15.86,15.86,0,0,1-1.371-1.158c-.139-.125-.271-.257-.4-.388a14.522,14.522,0,0,1-1.188-1.327c-.125-.146-.235-.293-.352-.447a16.237,16.237,0,0,1-1.034-1.547,5.158,5.158,0,0,1-.293-.513,11.822,11.822,0,0,1-.63-1.209c-.088-.176-.169-.352-.242-.535-.007-.007-.007-.007-.007-.015-.088-.191-.169-.381-.242-.579a3.391,3.391,0,0,1-.139-.381c-.205-.521-.381-1.048-.542-1.6v-.007c-.066-.22-.132-.432-.183-.66-.015-.051-.029-.1-.044-.161s-.022-.1-.037-.139c-.051-.2-.1-.4-.139-.6-.1-.447-.183-.9-.257-1.356v-.007c-.044-.242-.081-.5-.117-.748v-.007a25.562,25.562,0,0,1-.2-2.61c-.015-.264-.022-.52-.022-.784v-.1c0-.213,0-.425.015-.638a25.238,25.238,0,0,1,.161-2.566c.029-.33.066-.652.117-.982a.368.368,0,0,1,.015-.088c.059-.462.139-.917.227-1.378q.187-1.033.462-2.067v-.007c.117-.477.249-.938.4-1.408v-.007a31.522,31.522,0,0,1,3.812-8.144c5.425-8.24,14.1-12.858,22.424-12.858a20.724,20.724,0,0,1,11.48,3.379c6.275,4.135,9.574,11.275,9.574,18.95A29.084,29.084,0,0,1,130.43,929.934ZM98.19,941.809a4.126,4.126,0,0,0-.147-.7.756.756,0,0,0-.051-.183c-.5-.22-1-.454-1.481-.711-.125-.066-.257-.139-.381-.205l-.11-.066c-.286-.154-.557-.315-.828-.491a9.08,9.08,0,0,0-.982.667c.367.257.748.491,1.136.711.081.051.169.1.257.147s.154.081.227.124c.535.286,1.07.543,1.62.785.169.073.345.146.52.22.088.036.183.073.271.11A3.776,3.776,0,0,0,98.19,941.809Zm0,0a4.126,4.126,0,0,0-.147-.7.756.756,0,0,0-.051-.183c-.5-.22-1-.454-1.481-.711-.125-.066-.257-.139-.381-.205l-.11-.066c-.286-.154-.557-.315-.828-.491a9.08,9.08,0,0,0-.982.667c.367.257.748.491,1.136.711.081.051.169.1.257.147s.154.081.227.124c.535.286,1.07.543,1.62.785.169.073.345.146.52.22.088.036.183.073.271.11A3.776,3.776,0,0,0,98.19,941.809Zm0,0a4.126,4.126,0,0,0-.147-.7.756.756,0,0,0-.051-.183c-.5-.22-1-.454-1.481-.711-.125-.066-.257-.139-.381-.205l-.11-.066c-.286-.154-.557-.315-.828-.491a9.08,9.08,0,0,0-.982.667c.367.257.748.491,1.136.711.081.051.169.1.257.147s.154.081.227.124c.535.286,1.07.543,1.62.785.169.073.345.146.52.22.088.036.183.073.271.11A3.776,3.776,0,0,0,98.19,941.809Zm0,0a4.126,4.126,0,0,0-.147-.7.756.756,0,0,0-.051-.183c-.5-.22-1-.454-1.481-.711-.125-.066-.257-.139-.381-.205l-.11-.066c-.286-.154-.557-.315-.828-.491a9.08,9.08,0,0,0-.982.667c.367.257.748.491,1.136.711.081.051.169.1.257.147s.154.081.227.124c.535.286,1.07.543,1.62.785.169.073.345.146.52.22.088.036.183.073.271.11A3.776,3.776,0,0,0,98.19,941.809Zm0,0a4.126,4.126,0,0,0-.147-.7.756.756,0,0,0-.051-.183c-.5-.22-1-.454-1.481-.711-.125-.066-.257-.139-.381-.205l-.11-.066c-.286-.154-.557-.315-.828-.491a9.08,9.08,0,0,0-.982.667c.367.257.748.491,1.136.711.081.051.169.1.257.147s.154.081.227.124c.535.286,1.07.543,1.62.785.169.073.345.146.52.22.088.036.183.073.271.11A3.776,3.776,0,0,0,98.19,941.809Zm0,0a4.126,4.126,0,0,0-.147-.7.756.756,0,0,0-.051-.183c-.5-.22-1-.454-1.481-.711-.125-.066-.257-.139-.381-.205l-.11-.066c-.286-.154-.557-.315-.828-.491a9.08,9.08,0,0,0-.982.667c.367.257.748.491,1.136.711.081.051.169.1.257.147s.154.081.227.124c.535.286,1.07.543,1.62.785.169.073.345.146.52.22.088.036.183.073.271.11A3.776,3.776,0,0,0,98.19,941.809Zm17.945-.389c-.029-.037-.066-.073-.1-.11-.235.081-.462.161-.7.234-.623.205-1.246.381-1.877.535-.374.1-.748.183-1.129.257h-.007c-.191.036-.381.073-.572.1a1.3,1.3,0,0,1-.235.044h-.007c-.872.147-1.752.249-2.632.308-.242.015-.477.022-.718.029h-.007a18.991,18.991,0,0,1-2.045-.022c-.22-.007-.447-.022-.667-.037h-.007c-.674-.051-1.349-.132-2.016-.249-.205-.029-.411-.066-.616-.1q-.946-.187-1.869-.44c-.191-.059-.381-.11-.572-.176-.374-.11-.755-.235-1.122-.374-.2-.073-.4-.147-.586-.22s-.345-.147-.52-.22c-.051-.022-.1-.037-.147-.059-.5-.22-1-.454-1.481-.711-.125-.066-.257-.139-.381-.205l-.11-.066c-.286-.154-.557-.315-.828-.491q-.33-.209-.66-.44a3.3,3.3,0,0,1-.323-.242.479.479,0,0,1-.125-.088,15.86,15.86,0,0,1-1.371-1.158c-.139-.125-.271-.257-.4-.388a14.522,14.522,0,0,1-1.188-1.327c-.125-.146-.235-.293-.352-.447a16.237,16.237,0,0,1-1.034-1.547,5.158,5.158,0,0,1-.293-.513,11.822,11.822,0,0,1-.63-1.209c-.088-.176-.169-.352-.242-.535-.007-.007-.007-.007-.007-.015-.088-.191-.169-.381-.242-.579a3.391,3.391,0,0,1-.139-.381c-.205-.521-.381-1.048-.542-1.6v-.007c-.066-.22-.132-.432-.183-.66-.015-.051-.029-.1-.044-.161-.381-.015-.755-.022-1.136-.022.015.051.022.1.037.146A23.263,23.263,0,0,0,87,930.542c.117.315.235.623.359.931.073.183.147.367.235.55a18.667,18.667,0,0,0,5.689,7.426,1.641,1.641,0,0,0,.139.1c.147.117.293.227.447.33.11.081.227.161.345.234.367.257.748.491,1.136.711.081.051.169.1.257.147s.154.081.227.124c.535.286,1.07.543,1.62.785.169.073.345.146.52.22.088.036.183.073.271.11.367.147.74.286,1.114.4a24.486,24.486,0,0,0,7.946,1.319h.037c.227,0,.447,0,.674-.015a25.9,25.9,0,0,0,4.677-.542c.183-.029.367-.066.542-.11.367-.081.733-.176,1.092-.271.843-.227,1.679-.491,2.5-.8C116.6,941.934,116.369,941.678,116.135,941.421Zm0,0c-.029-.037-.066-.073-.1-.11-.235.081-.462.161-.7.234-.623.205-1.246.381-1.877.535-.374.1-.748.183-1.129.257h-.007c-.191.036-.381.073-.572.1a1.3,1.3,0,0,1-.235.044h-.007c-.872.147-1.752.249-2.632.308-.242.015-.477.022-.718.029h-.007a18.991,18.991,0,0,1-2.045-.022c-.22-.007-.447-.022-.667-.037h-.007c-.674-.051-1.349-.132-2.016-.249-.205-.029-.411-.066-.616-.1q-.946-.187-1.869-.44c-.191-.059-.381-.11-.572-.176-.374-.11-.755-.235-1.122-.374-.2-.073-.4-.147-.586-.22s-.345-.147-.52-.22c-.051-.022-.1-.037-.147-.059-.5-.22-1-.454-1.481-.711-.125-.066-.257-.139-.381-.205l-.11-.066c-.286-.154-.557-.315-.828-.491q-.33-.209-.66-.44a3.3,3.3,0,0,1-.323-.242.479.479,0,0,1-.125-.088,15.86,15.86,0,0,1-1.371-1.158c-.139-.125-.271-.257-.4-.388a14.522,14.522,0,0,1-1.188-1.327c-.125-.146-.235-.293-.352-.447a16.237,16.237,0,0,1-1.034-1.547,5.158,5.158,0,0,1-.293-.513,11.822,11.822,0,0,1-.63-1.209c-.088-.176-.169-.352-.242-.535-.007-.007-.007-.007-.007-.015-.088-.191-.169-.381-.242-.579a3.391,3.391,0,0,1-.139-.381c-.205-.521-.381-1.048-.542-1.6v-.007c-.066-.22-.132-.432-.183-.66-.015-.051-.029-.1-.044-.161-.381-.015-.755-.022-1.136-.022.015.051.022.1.037.146A23.263,23.263,0,0,0,87,930.542c.117.315.235.623.359.931.073.183.147.367.235.55a18.667,18.667,0,0,0,5.689,7.426,1.641,1.641,0,0,0,.139.1c.147.117.293.227.447.33.11.081.227.161.345.234.367.257.748.491,1.136.711.081.051.169.1.257.147s.154.081.227.124c.535.286,1.07.543,1.62.785.169.073.345.146.52.22.088.036.183.073.271.11.367.147.74.286,1.114.4a24.486,24.486,0,0,0,7.946,1.319h.037c.227,0,.447,0,.674-.015a25.9,25.9,0,0,0,4.677-.542c.183-.029.367-.066.542-.11.367-.081.733-.176,1.092-.271.843-.227,1.679-.491,2.5-.8C116.6,941.934,116.369,941.678,116.135,941.421Zm0,0c-.029-.037-.066-.073-.1-.11-.235.081-.462.161-.7.234-.623.205-1.246.381-1.877.535-.374.1-.748.183-1.129.257h-.007c-.191.036-.381.073-.572.1a1.3,1.3,0,0,1-.235.044h-.007c-.872.147-1.752.249-2.632.308-.242.015-.477.022-.718.029h-.007a18.991,18.991,0,0,1-2.045-.022c-.22-.007-.447-.022-.667-.037h-.007c-.674-.051-1.349-.132-2.016-.249-.205-.029-.411-.066-.616-.1q-.946-.187-1.869-.44c-.191-.059-.381-.11-.572-.176-.374-.11-.755-.235-1.122-.374-.2-.073-.4-.147-.586-.22s-.345-.147-.52-.22c-.051-.022-.1-.037-.147-.059-.5-.22-1-.454-1.481-.711-.125-.066-.257-.139-.381-.205l-.11-.066c-.286-.154-.557-.315-.828-.491q-.33-.209-.66-.44a3.3,3.3,0,0,1-.323-.242.479.479,0,0,1-.125-.088,15.86,15.86,0,0,1-1.371-1.158c-.139-.125-.271-.257-.4-.388a14.522,14.522,0,0,1-1.188-1.327c-.125-.146-.235-.293-.352-.447a16.237,16.237,0,0,1-1.034-1.547,5.158,5.158,0,0,1-.293-.513,11.822,11.822,0,0,1-.63-1.209c-.088-.176-.169-.352-.242-.535-.007-.007-.007-.007-.007-.015-.088-.191-.169-.381-.242-.579a3.391,3.391,0,0,1-.139-.381c-.205-.521-.381-1.048-.542-1.6v-.007c-.066-.22-.132-.432-.183-.66-.015-.051-.029-.1-.044-.161-.381-.015-.755-.022-1.136-.022.015.051.022.1.037.146A23.263,23.263,0,0,0,87,930.542c.117.315.235.623.359.931.073.183.147.367.235.55a18.667,18.667,0,0,0,5.689,7.426,1.641,1.641,0,0,0,.139.1c.147.117.293.227.447.33.11.081.227.161.345.234.367.257.748.491,1.136.711.081.051.169.1.257.147s.154.081.227.124c.535.286,1.07.543,1.62.785.169.073.345.146.52.22.088.036.183.073.271.11.367.147.74.286,1.114.4a24.486,24.486,0,0,0,7.946,1.319h.037c.227,0,.447,0,.674-.015a25.9,25.9,0,0,0,4.677-.542c.183-.029.367-.066.542-.11.367-.081.733-.176,1.092-.271.843-.227,1.679-.491,2.5-.8C116.6,941.934,116.369,941.678,116.135,941.421Zm0,0c-.029-.037-.066-.073-.1-.11-.235.081-.462.161-.7.234-.623.205-1.246.381-1.877.535-.374.1-.748.183-1.129.257h-.007c-.191.036-.381.073-.572.1a1.3,1.3,0,0,1-.235.044h-.007c-.872.147-1.752.249-2.632.308-.242.015-.477.022-.718.029h-.007a18.991,18.991,0,0,1-2.045-.022c-.22-.007-.447-.022-.667-.037h-.007c-.674-.051-1.349-.132-2.016-.249-.205-.029-.411-.066-.616-.1q-.946-.187-1.869-.44c-.191-.059-.381-.11-.572-.176-.374-.11-.755-.235-1.122-.374-.2-.073-.4-.147-.586-.22s-.345-.147-.52-.22c-.051-.022-.1-.037-.147-.059-.5-.22-1-.454-1.481-.711-.125-.066-.257-.139-.381-.205l-.11-.066c-.286-.154-.557-.315-.828-.491q-.33-.209-.66-.44a3.3,3.3,0,0,1-.323-.242.479.479,0,0,1-.125-.088,15.86,15.86,0,0,1-1.371-1.158c-.139-.125-.271-.257-.4-.388a14.522,14.522,0,0,1-1.188-1.327c-.125-.146-.235-.293-.352-.447a16.237,16.237,0,0,1-1.034-1.547,5.158,5.158,0,0,1-.293-.513,11.822,11.822,0,0,1-.63-1.209c-.088-.176-.169-.352-.242-.535-.007-.007-.007-.007-.007-.015-.088-.191-.169-.381-.242-.579a3.391,3.391,0,0,1-.139-.381c-.205-.521-.381-1.048-.542-1.6v-.007c-.066-.22-.132-.432-.183-.66-.015-.051-.029-.1-.044-.161-.381-.015-.755-.022-1.136-.022.015.051.022.1.037.146A23.263,23.263,0,0,0,87,930.542c.117.315.235.623.359.931.073.183.147.367.235.55a18.667,18.667,0,0,0,5.689,7.426,1.641,1.641,0,0,0,.139.1c.147.117.293.227.447.33.11.081.227.161.345.234.367.257.748.491,1.136.711.081.051.169.1.257.147s.154.081.227.124c.535.286,1.07.543,1.62.785.169.073.345.146.52.22.088.036.183.073.271.11.367.147.74.286,1.114.4a24.486,24.486,0,0,0,7.946,1.319h.037c.227,0,.447,0,.674-.015a25.9,25.9,0,0,0,4.677-.542c.183-.029.367-.066.542-.11.367-.081.733-.176,1.092-.271.843-.227,1.679-.491,2.5-.8C116.6,941.934,116.369,941.678,116.135,941.421Zm0,0c-.029-.037-.066-.073-.1-.11-.235.081-.462.161-.7.234-.623.205-1.246.381-1.877.535-.374.1-.748.183-1.129.257h-.007c-.191.036-.381.073-.572.1a1.3,1.3,0,0,1-.235.044h-.007c-.872.147-1.752.249-2.632.308-.242.015-.477.022-.718.029h-.007a18.991,18.991,0,0,1-2.045-.022c-.22-.007-.447-.022-.667-.037h-.007c-.674-.051-1.349-.132-2.016-.249-.205-.029-.411-.066-.616-.1q-.946-.187-1.869-.44c-.191-.059-.381-.11-.572-.176-.374-.11-.755-.235-1.122-.374-.2-.073-.4-.147-.586-.22s-.345-.147-.52-.22c-.051-.022-.1-.037-.147-.059-.5-.22-1-.454-1.481-.711-.125-.066-.257-.139-.381-.205l-.11-.066c-.286-.154-.557-.315-.828-.491q-.33-.209-.66-.44a3.3,3.3,0,0,1-.323-.242.479.479,0,0,1-.125-.088,15.86,15.86,0,0,1-1.371-1.158c-.139-.125-.271-.257-.4-.388a14.522,14.522,0,0,1-1.188-1.327c-.125-.146-.235-.293-.352-.447a16.237,16.237,0,0,1-1.034-1.547,5.158,5.158,0,0,1-.293-.513,11.822,11.822,0,0,1-.63-1.209c-.088-.176-.169-.352-.242-.535-.007-.007-.007-.007-.007-.015-.088-.191-.169-.381-.242-.579a3.391,3.391,0,0,1-.139-.381c-.205-.521-.381-1.048-.542-1.6v-.007c-.066-.22-.132-.432-.183-.66-.015-.051-.029-.1-.044-.161-.381-.015-.755-.022-1.136-.022.015.051.022.1.037.146A23.263,23.263,0,0,0,87,930.542c.117.315.235.623.359.931.073.183.147.367.235.55a18.667,18.667,0,0,0,5.689,7.426,1.641,1.641,0,0,0,.139.1c.147.117.293.227.447.33.11.081.227.161.345.234.367.257.748.491,1.136.711.081.051.169.1.257.147s.154.081.227.124c.535.286,1.07.543,1.62.785.169.073.345.146.52.22.088.036.183.073.271.11.367.147.74.286,1.114.4a24.486,24.486,0,0,0,7.946,1.319h.037c.227,0,.447,0,.674-.015a25.9,25.9,0,0,0,4.677-.542c.183-.029.367-.066.542-.11.367-.081.733-.176,1.092-.271.843-.227,1.679-.491,2.5-.8C116.6,941.934,116.369,941.678,116.135,941.421Zm0,0c-.029-.037-.066-.073-.1-.11-.235.081-.462.161-.7.234-.623.205-1.246.381-1.877.535-.374.1-.748.183-1.129.257h-.007c-.191.036-.381.073-.572.1a1.3,1.3,0,0,1-.235.044h-.007c-.872.147-1.752.249-2.632.308-.242.015-.477.022-.718.029h-.007a18.991,18.991,0,0,1-2.045-.022c-.22-.007-.447-.022-.667-.037h-.007c-.674-.051-1.349-.132-2.016-.249-.205-.029-.411-.066-.616-.1q-.946-.187-1.869-.44c-.191-.059-.381-.11-.572-.176-.374-.11-.755-.235-1.122-.374-.2-.073-.4-.147-.586-.22s-.345-.147-.52-.22c-.051-.022-.1-.037-.147-.059-.5-.22-1-.454-1.481-.711-.125-.066-.257-.139-.381-.205l-.11-.066c-.286-.154-.557-.315-.828-.491q-.33-.209-.66-.44a3.3,3.3,0,0,1-.323-.242.479.479,0,0,1-.125-.088,15.86,15.86,0,0,1-1.371-1.158c-.139-.125-.271-.257-.4-.388a14.522,14.522,0,0,1-1.188-1.327c-.125-.146-.235-.293-.352-.447a16.237,16.237,0,0,1-1.034-1.547,5.158,5.158,0,0,1-.293-.513,11.822,11.822,0,0,1-.63-1.209c-.088-.176-.169-.352-.242-.535-.007-.007-.007-.007-.007-.015-.088-.191-.169-.381-.242-.579a3.391,3.391,0,0,1-.139-.381c-.205-.521-.381-1.048-.542-1.6v-.007c-.066-.22-.132-.432-.183-.66-.015-.051-.029-.1-.044-.161-.381-.015-.755-.022-1.136-.022.015.051.022.1.037.146A23.263,23.263,0,0,0,87,930.542c.117.315.235.623.359.931.073.183.147.367.235.55a18.667,18.667,0,0,0,5.689,7.426,1.641,1.641,0,0,0,.139.1c.147.117.293.227.447.33.11.081.227.161.345.234.367.257.748.491,1.136.711.081.051.169.1.257.147s.154.081.227.124c.535.286,1.07.543,1.62.785.169.073.345.146.52.22.088.036.183.073.271.11.367.147.74.286,1.114.4a24.486,24.486,0,0,0,7.946,1.319h.037c.227,0,.447,0,.674-.015a25.9,25.9,0,0,0,4.677-.542c.183-.029.367-.066.542-.11.367-.081.733-.176,1.092-.271.843-.227,1.679-.491,2.5-.8C116.6,941.934,116.369,941.678,116.135,941.421Zm0,0c-.029-.037-.066-.073-.1-.11-.235.081-.462.161-.7.234-.623.205-1.246.381-1.877.535-.374.1-.748.183-1.129.257h-.007c-.191.036-.381.073-.572.1a1.3,1.3,0,0,1-.235.044h-.007c-.872.147-1.752.249-2.632.308-.242.015-.477.022-.718.029h-.007a18.991,18.991,0,0,1-2.045-.022c-.22-.007-.447-.022-.667-.037h-.007c-.674-.051-1.349-.132-2.016-.249-.205-.029-.411-.066-.616-.1q-.946-.187-1.869-.44c-.191-.059-.381-.11-.572-.176-.374-.11-.755-.235-1.122-.374-.2-.073-.4-.147-.586-.22s-.345-.147-.52-.22c-.051-.022-.1-.037-.147-.059-.5-.22-1-.454-1.481-.711-.125-.066-.257-.139-.381-.205l-.11-.066c-.286-.154-.557-.315-.828-.491q-.33-.209-.66-.44a3.3,3.3,0,0,1-.323-.242.479.479,0,0,1-.125-.088,15.86,15.86,0,0,1-1.371-1.158c-.139-.125-.271-.257-.4-.388a14.522,14.522,0,0,1-1.188-1.327c-.125-.146-.235-.293-.352-.447a16.237,16.237,0,0,1-1.034-1.547,5.158,5.158,0,0,1-.293-.513,11.822,11.822,0,0,1-.63-1.209c-.088-.176-.169-.352-.242-.535-.007-.007-.007-.007-.007-.015-.088-.191-.169-.381-.242-.579a3.391,3.391,0,0,1-.139-.381c-.205-.521-.381-1.048-.542-1.6v-.007c-.066-.22-.132-.432-.183-.66-.015-.051-.029-.1-.044-.161-.381-.015-.755-.022-1.136-.022.015.051.022.1.037.146A23.263,23.263,0,0,0,87,930.542c.117.315.235.623.359.931.073.183.147.367.235.55a18.667,18.667,0,0,0,5.689,7.426,1.641,1.641,0,0,0,.139.1c.147.117.293.227.447.33.11.081.227.161.345.234.367.257.748.491,1.136.711.081.051.169.1.257.147s.154.081.227.124c.535.286,1.07.543,1.62.785.169.073.345.146.52.22.088.036.183.073.271.11.367.147.74.286,1.114.4a24.486,24.486,0,0,0,7.946,1.319h.037c.227,0,.447,0,.674-.015a25.9,25.9,0,0,0,4.677-.542c.183-.029.367-.066.542-.11.367-.081.733-.176,1.092-.271.843-.227,1.679-.491,2.5-.8C116.6,941.934,116.369,941.678,116.135,941.421Zm0,0c-.029-.037-.066-.073-.1-.11-.235.081-.462.161-.7.234-.623.205-1.246.381-1.877.535-.374.1-.748.183-1.129.257h-.007c-.191.036-.381.073-.572.1a1.3,1.3,0,0,1-.235.044h-.007c-.872.147-1.752.249-2.632.308-.242.015-.477.022-.718.029h-.007a18.991,18.991,0,0,1-2.045-.022c-.22-.007-.447-.022-.667-.037h-.007c-.674-.051-1.349-.132-2.016-.249-.205-.029-.411-.066-.616-.1q-.946-.187-1.869-.44c-.191-.059-.381-.11-.572-.176-.374-.11-.755-.235-1.122-.374-.2-.073-.4-.147-.586-.22s-.345-.147-.52-.22c-.051-.022-.1-.037-.147-.059-.5-.22-1-.454-1.481-.711-.125-.066-.257-.139-.381-.205l-.11-.066c-.286-.154-.557-.315-.828-.491q-.33-.209-.66-.44a3.3,3.3,0,0,1-.323-.242.479.479,0,0,1-.125-.088,15.86,15.86,0,0,1-1.371-1.158c-.139-.125-.271-.257-.4-.388a14.522,14.522,0,0,1-1.188-1.327c-.125-.146-.235-.293-.352-.447a16.237,16.237,0,0,1-1.034-1.547,5.158,5.158,0,0,1-.293-.513,11.822,11.822,0,0,1-.63-1.209c-.088-.176-.169-.352-.242-.535-.007-.007-.007-.007-.007-.015-.088-.191-.169-.381-.242-.579a3.391,3.391,0,0,1-.139-.381c-.205-.521-.381-1.048-.542-1.6v-.007c-.066-.22-.132-.432-.183-.66-.015-.051-.029-.1-.044-.161-.381-.015-.755-.022-1.136-.022.015.051.022.1.037.146A23.263,23.263,0,0,0,87,930.542c.117.315.235.623.359.931.073.183.147.367.235.55a18.667,18.667,0,0,0,5.689,7.426,1.641,1.641,0,0,0,.139.1c.147.117.293.227.447.33.11.081.227.161.345.234.367.257.748.491,1.136.711.081.051.169.1.257.147s.154.081.227.124c.535.286,1.07.543,1.62.785.169.073.345.146.52.22.088.036.183.073.271.11.367.147.74.286,1.114.4a24.486,24.486,0,0,0,7.946,1.319h.037c.227,0,.447,0,.674-.015a25.9,25.9,0,0,0,4.677-.542c.183-.029.367-.066.542-.11.367-.081.733-.176,1.092-.271.843-.227,1.679-.491,2.5-.8C116.6,941.934,116.369,941.678,116.135,941.421Zm0,0c-.029-.037-.066-.073-.1-.11-.235.081-.462.161-.7.234-.623.205-1.246.381-1.877.535-.374.1-.748.183-1.129.257h-.007c-.191.036-.381.073-.572.1a1.3,1.3,0,0,1-.235.044h-.007c-.872.147-1.752.249-2.632.308-.242.015-.477.022-.718.029h-.007a18.991,18.991,0,0,1-2.045-.022c-.22-.007-.447-.022-.667-.037h-.007c-.674-.051-1.349-.132-2.016-.249-.205-.029-.411-.066-.616-.1q-.946-.187-1.869-.44c-.191-.059-.381-.11-.572-.176-.374-.11-.755-.235-1.122-.374-.2-.073-.4-.147-.586-.22s-.345-.147-.52-.22c-.051-.022-.1-.037-.147-.059-.5-.22-1-.454-1.481-.711-.125-.066-.257-.139-.381-.205l-.11-.066c-.286-.154-.557-.315-.828-.491q-.33-.209-.66-.44a3.3,3.3,0,0,1-.323-.242.479.479,0,0,1-.125-.088,15.86,15.86,0,0,1-1.371-1.158c-.139-.125-.271-.257-.4-.388a14.522,14.522,0,0,1-1.188-1.327c-.125-.146-.235-.293-.352-.447a16.237,16.237,0,0,1-1.034-1.547,5.158,5.158,0,0,1-.293-.513,11.822,11.822,0,0,1-.63-1.209c-.088-.176-.169-.352-.242-.535-.007-.007-.007-.007-.007-.015-.088-.191-.169-.381-.242-.579a3.391,3.391,0,0,1-.139-.381c-.205-.521-.381-1.048-.542-1.6v-.007c-.066-.22-.132-.432-.183-.66-.015-.051-.029-.1-.044-.161-.381-.015-.755-.022-1.136-.022.015.051.022.1.037.146A23.263,23.263,0,0,0,87,930.542c.117.315.235.623.359.931.073.183.147.367.235.55a18.667,18.667,0,0,0,5.689,7.426,1.641,1.641,0,0,0,.139.1c.147.117.293.227.447.33.11.081.227.161.345.234.367.257.748.491,1.136.711.081.051.169.1.257.147s.154.081.227.124c.535.286,1.07.543,1.62.785.169.073.345.146.52.22.088.036.183.073.271.11.367.147.74.286,1.114.4a24.486,24.486,0,0,0,7.946,1.319h.037c.227,0,.447,0,.674-.015a25.9,25.9,0,0,0,4.677-.542c.183-.029.367-.066.542-.11.367-.081.733-.176,1.092-.271.843-.227,1.679-.491,2.5-.8C116.6,941.934,116.369,941.678,116.135,941.421Zm0,0c-.029-.037-.066-.073-.1-.11-.235.081-.462.161-.7.234-.623.205-1.246.381-1.877.535-.374.1-.748.183-1.129.257h-.007c-.191.036-.381.073-.572.1a1.3,1.3,0,0,1-.235.044h-.007c-.872.147-1.752.249-2.632.308-.242.015-.477.022-.718.029h-.007a18.991,18.991,0,0,1-2.045-.022c-.22-.007-.447-.022-.667-.037h-.007c-.674-.051-1.349-.132-2.016-.249-.205-.029-.411-.066-.616-.1q-.946-.187-1.869-.44c-.191-.059-.381-.11-.572-.176-.374-.11-.755-.235-1.122-.374-.2-.073-.4-.147-.586-.22s-.345-.147-.52-.22c-.051-.022-.1-.037-.147-.059-.5-.22-1-.454-1.481-.711-.125-.066-.257-.139-.381-.205l-.11-.066c-.286-.154-.557-.315-.828-.491q-.33-.209-.66-.44a3.3,3.3,0,0,1-.323-.242.479.479,0,0,1-.125-.088,15.86,15.86,0,0,1-1.371-1.158c-.139-.125-.271-.257-.4-.388a14.522,14.522,0,0,1-1.188-1.327c-.125-.146-.235-.293-.352-.447a16.237,16.237,0,0,1-1.034-1.547,5.158,5.158,0,0,1-.293-.513,11.822,11.822,0,0,1-.63-1.209c-.088-.176-.169-.352-.242-.535-.007-.007-.007-.007-.007-.015-.088-.191-.169-.381-.242-.579a3.391,3.391,0,0,1-.139-.381c-.205-.521-.381-1.048-.542-1.6v-.007c-.066-.22-.132-.432-.183-.66-.015-.051-.029-.1-.044-.161-.381-.015-.755-.022-1.136-.022.015.051.022.1.037.146A23.263,23.263,0,0,0,87,930.542c.117.315.235.623.359.931.073.183.147.367.235.55a18.667,18.667,0,0,0,5.689,7.426,1.641,1.641,0,0,0,.139.1c.147.117.293.227.447.33.11.081.227.161.345.234.367.257.748.491,1.136.711.081.051.169.1.257.147s.154.081.227.124c.535.286,1.07.543,1.62.785.169.073.345.146.52.22.088.036.183.073.271.11.367.147.74.286,1.114.4a24.486,24.486,0,0,0,7.946,1.319h.037c.227,0,.447,0,.674-.015a25.9,25.9,0,0,0,4.677-.542c.183-.029.367-.066.542-.11.367-.081.733-.176,1.092-.271.843-.227,1.679-.491,2.5-.8C116.6,941.934,116.369,941.678,116.135,941.421Zm0,0c-.029-.037-.066-.073-.1-.11-.235.081-.462.161-.7.234-.623.205-1.246.381-1.877.535-.374.1-.748.183-1.129.257h-.007c-.191.036-.381.073-.572.1a1.3,1.3,0,0,1-.235.044h-.007c-.872.147-1.752.249-2.632.308-.242.015-.477.022-.718.029h-.007a18.991,18.991,0,0,1-2.045-.022c-.22-.007-.447-.022-.667-.037h-.007c-.674-.051-1.349-.132-2.016-.249-.205-.029-.411-.066-.616-.1q-.946-.187-1.869-.44c-.191-.059-.381-.11-.572-.176-.374-.11-.755-.235-1.122-.374-.2-.073-.4-.147-.586-.22s-.345-.147-.52-.22c-.051-.022-.1-.037-.147-.059-.5-.22-1-.454-1.481-.711-.125-.066-.257-.139-.381-.205l-.11-.066c-.286-.154-.557-.315-.828-.491q-.33-.209-.66-.44a3.3,3.3,0,0,1-.323-.242.479.479,0,0,1-.125-.088,15.86,15.86,0,0,1-1.371-1.158c-.139-.125-.271-.257-.4-.388a14.522,14.522,0,0,1-1.188-1.327c-.125-.146-.235-.293-.352-.447a16.237,16.237,0,0,1-1.034-1.547,5.158,5.158,0,0,1-.293-.513,11.822,11.822,0,0,1-.63-1.209c-.088-.176-.169-.352-.242-.535-.007-.007-.007-.007-.007-.015-.088-.191-.169-.381-.242-.579a3.391,3.391,0,0,1-.139-.381c-.205-.521-.381-1.048-.542-1.6v-.007c-.066-.22-.132-.432-.183-.66-.015-.051-.029-.1-.044-.161-.381-.015-.755-.022-1.136-.022.015.051.022.1.037.146A23.263,23.263,0,0,0,87,930.542c.117.315.235.623.359.931.073.183.147.367.235.55a18.667,18.667,0,0,0,5.689,7.426,1.641,1.641,0,0,0,.139.1c.147.117.293.227.447.33.11.081.227.161.345.234.367.257.748.491,1.136.711.081.051.169.1.257.147s.154.081.227.124c.535.286,1.07.543,1.62.785.169.073.345.146.52.22.088.036.183.073.271.11.367.147.74.286,1.114.4a24.486,24.486,0,0,0,7.946,1.319h.037c.227,0,.447,0,.674-.015a25.9,25.9,0,0,0,4.677-.542c.183-.029.367-.066.542-.11.367-.081.733-.176,1.092-.271.843-.227,1.679-.491,2.5-.8C116.6,941.934,116.369,941.678,116.135,941.421Zm0,0c-.029-.037-.066-.073-.1-.11-.235.081-.462.161-.7.234-.623.205-1.246.381-1.877.535-.374.1-.748.183-1.129.257h-.007c-.191.036-.381.073-.572.1a1.3,1.3,0,0,1-.235.044h-.007c-.872.147-1.752.249-2.632.308-.242.015-.477.022-.718.029h-.007a18.991,18.991,0,0,1-2.045-.022c-.22-.007-.447-.022-.667-.037h-.007c-.674-.051-1.349-.132-2.016-.249-.205-.029-.411-.066-.616-.1q-.946-.187-1.869-.44c-.191-.059-.381-.11-.572-.176-.374-.11-.755-.235-1.122-.374-.2-.073-.4-.147-.586-.22s-.345-.147-.52-.22c-.051-.022-.1-.037-.147-.059-.5-.22-1-.454-1.481-.711-.125-.066-.257-.139-.381-.205l-.11-.066c-.286-.154-.557-.315-.828-.491q-.33-.209-.66-.44a3.3,3.3,0,0,1-.323-.242.479.479,0,0,1-.125-.088,15.86,15.86,0,0,1-1.371-1.158c-.139-.125-.271-.257-.4-.388a14.522,14.522,0,0,1-1.188-1.327c-.125-.146-.235-.293-.352-.447a16.237,16.237,0,0,1-1.034-1.547,5.158,5.158,0,0,1-.293-.513,11.822,11.822,0,0,1-.63-1.209c-.088-.176-.169-.352-.242-.535-.007-.007-.007-.007-.007-.015-.088-.191-.169-.381-.242-.579l-.381.5.022.044c-.081-.007-.154-.015-.235-.015-.125-.007-.249-.015-.381-.015.073.183.147.367.235.55a18.667,18.667,0,0,0,5.689,7.426,1.641,1.641,0,0,0,.139.1c.147.117.293.227.447.33.11.081.227.161.345.234.367.257.748.491,1.136.711.081.051.169.1.257.147s.154.081.227.124c.535.286,1.07.543,1.62.785.169.073.345.146.52.22.088.036.183.073.271.11.367.147.74.286,1.114.4a24.486,24.486,0,0,0,7.946,1.319h.037c.227,0,.447,0,.674-.015a25.9,25.9,0,0,0,4.677-.542c.183-.029.367-.066.542-.11.367-.081.733-.176,1.092-.271.843-.227,1.679-.491,2.5-.8C116.6,941.934,116.369,941.678,116.135,941.421ZM96.13,940.006l-.11-.066c-.286-.154-.557-.315-.828-.491a9.08,9.08,0,0,0-.982.667c.367.257.748.491,1.136.711.081.051.169.1.257.147s.154.081.227.124l.682-.887C96.386,940.145,96.254,940.072,96.13,940.006Zm1.862.916a.756.756,0,0,1,.051.183l.1-.125C98.087,940.959,98.043,940.944,97.992,940.922Zm-1.862-.916-.11-.066c-.286-.154-.557-.315-.828-.491a9.08,9.08,0,0,0-.982.667c.367.257.748.491,1.136.711.081.051.169.1.257.147s.154.081.227.124l.682-.887C96.386,940.145,96.254,940.072,96.13,940.006Zm1.862.916a.756.756,0,0,1,.051.183l.1-.125C98.087,940.959,98.043,940.944,97.992,940.922Zm-1.862-.916-.11-.066c-.286-.154-.557-.315-.828-.491a9.08,9.08,0,0,0-.982.667c.367.257.748.491,1.136.711.081.051.169.1.257.147s.154.081.227.124l.682-.887C96.386,940.145,96.254,940.072,96.13,940.006Zm1.862.916a.756.756,0,0,1,.051.183l.1-.125C98.087,940.959,98.043,940.944,97.992,940.922Z" transform="translate(-64.48 -890.564)" fill="#223245"/>
        <g id="Group_85" data-name="Group 85" transform="translate(1.198 66.392)">
          <path id="Path_283" data-name="Path 283" d="M60.834,1009.807l-.652.843v.007l-.411.535-.191-.652.411-.535.557-.726Q60.691,1009.533,60.834,1009.807Z" transform="translate(-58.752 -988.646)" fill="#223245"/>
          <path id="Path_284" data-name="Path 284" d="M59.352,1006.624l-.293.381-.411.535-.2-.652.411-.535.227-.293C59.168,1006.236,59.256,1006.426,59.352,1006.624Z" transform="translate(-58.45 -987.787)" fill="#223245"/>
          <path id="Path_285" data-name="Path 285" d="M62.376,1012.776l-1.012,1.312-.073.1-.205.271-.205.264-.073-.257-.11-.366-.007-.022v-.007l.411-.528.975-1.268C62.171,1012.439,62.273,1012.607,62.376,1012.776Z" transform="translate(-59.048 -989.445)" fill="#223245"/>
          <path id="Path_286" data-name="Path 286" d="M87.28,981.133a.225.225,0,0,1-.051.2l-.051.066C87.206,981.309,87.243,981.221,87.28,981.133Z" transform="translate(-66.118 -981.133)" fill="#223245"/>
          <path id="Path_287" data-name="Path 287" d="M64,1015.586l-.242.315-1.356,1.767-.418.543-.191-.652.41-.535.982-1.268.242-.323.249-.323C63.777,1015.264,63.887,1015.425,64,1015.586Z" transform="translate(-59.342 -990.203)" fill="#223245"/>
          <path id="Path_288" data-name="Path 288" d="M65.36,1017.79c.117.146.235.3.352.455l-2.624,3.416-.2-.66Z" transform="translate(-59.635 -990.918)" fill="#223245"/>
          <path id="Path_289" data-name="Path 289" d="M67.152,1020.31c.125.139.242.279.367.418l-3.328,4.333-.191-.645v-.008Z" transform="translate(-59.931 -991.591)" fill="#223245"/>
          <path id="Path_290" data-name="Path 290" d="M69.044,1022.64l-3.944,5.124.191.653,4.142-5.388Z" transform="translate(-60.225 -992.213)" fill="#223245"/>
          <path id="Path_291" data-name="Path 291" d="M71.471,1025.115l-.139.183-.337.433v.007l-.367.469-3.819,4.97-.41.535-.2-.645.418-.543,3.981-5.175.315-.418.125-.161c.081.066.161.132.249.2C71.346,1025.019,71.412,1025.071,71.471,1025.115Z" transform="translate(-60.519 -992.781)" fill="#223245"/>
          <path id="Path_292" data-name="Path 292" d="M73.778,1026.923l-1.547,2.016-.249.33h-.007l-.264.351H71.7l-2.984,3.885-.433.564-.557-.19.337-.44,2.9-3.775.315-.4.286-.374,1.737-2.258C73.463,1026.733,73.616,1026.828,73.778,1026.923Z" transform="translate(-60.927 -993.278)" fill="#223245"/>
          <path id="Path_293" data-name="Path 293" d="M77.005,1028.424l-1.451,1.892-.22.286-.227.293-1.679,2.185-.528.689h-.007l-.843.205.535-.7,2.075-2.7.227-.293L75.1,1030l1.393-1.811C76.661,1028.271,76.83,1028.351,77.005,1028.424Z" transform="translate(-62.08 -993.694)" fill="#223245"/>
          <path id="Path_294" data-name="Path 294" d="M80.553,1029.613l-1.708,2.228h-.007l-.345.454-.015.015-.191.249-.044.059-.029.036-.337.44-.125.161-.843.2.528-.689h.007l.117-.161.22-.286.227-.3L80,1029.43A5.345,5.345,0,0,0,80.553,1029.613Z" transform="translate(-63.378 -994.025)" fill="#223245"/>
          <path id="Path_295" data-name="Path 295" d="M84.3,1030.457l-.183.242h-.007l-.96,1.253-.535.7-.843.2.528-.689.4-.52.733-.953.015-.015.249-.33.213.044h.007C84.042,1030.413,84.167,1030.435,84.3,1030.457Z" transform="translate(-64.675 -994.268)" fill="#223245"/>
          <path id="Path_296" data-name="Path 296" d="M88.262,1030.914l-.257.337H88l-.11.139v.007l-.1.132-.315.41-.85.205.535-.7.249-.315.2-.264a1.472,1.472,0,0,0,.183.015C87.947,1030.9,88.1,1030.906,88.262,1030.914Z" transform="translate(-65.97 -994.41)" fill="#223245"/>
        </g>
        <path id="Path_297" data-name="Path 297" d="M70.869,1023.028c-.132-.125-.264-.256-.389-.388" transform="translate(-60.463 -925.821)" fill="none"/>
        <path id="Path_298" data-name="Path 298" d="M96.532,990.738c-.051.036-.132.1-.235.183-1.921,1.656-11.414,11.78-17.33,18.18l-.2.22-.286-.044c-.073-.015-.154-.029-.242-.044-3.453-.733-16.655-6.752-19.873-8.232-.381-.176-.616-.286-.689-.322l.462-1a.45.45,0,0,1,.081.037c1.21.564,15.328,7.067,19.675,8.3.169.044.33.088.469.117.081-.088.169-.176.249-.264v-.007c12.088-13.085,15.812-16.765,17.066-17.8h.007c.484-.4.594-.4.682-.4v1.1A.716.716,0,0,0,96.532,990.738Z" transform="translate(-57.046 -917.017)" fill="#223245"/>
        <path id="Path_299" data-name="Path 299" d="M94.2,964.338c-.007.007-.073.066-.191.191a37.609,37.609,0,0,0-7.426,12.11c-.037.1-.066.176-.1.249a39.135,39.135,0,0,0-1.444,4.743c-.088.4-.183.814-.264,1.239a35.836,35.836,0,0,0-.542,3.555c-.029.242-.044.462-.059.689l-.015.125a1.3,1.3,0,0,0-.007.169c-.007.059-.007.117-.015.169-.022.286-.037.543-.051.806-.037.63-.051,1.3-.051,2.053,0,.286.007.572.015.858.022,1,.073,1.87.147,2.683.022.234.051.469.073.711l.007.081c.088.755.2,1.569.345,2.412l.132.718c.139.733.3,1.481.476,2.221l.176.689c.015.058.029.1.044.154v.007c.029.125.066.249.1.374l.257.857.4,1.319c.213.645.447,1.3.7,1.965l.022.066c.066.176.132.352.2.535q.363.924.77,1.87c.059.146.125.286.191.425l.1.213c.213.491.44.975.66,1.429.044.088.088.183.132.271a.431.431,0,0,0,.029.059l.161.323c.029.052.051.11.081.161.279.572.579,1.136.894,1.708a.7.7,0,0,0,.037.073c.015.036.029.066.044.1l.044.073-.645.344-.037-.066a1.6,1.6,0,0,1-.1-.19c-.015-.03-.029-.052-.044-.081-.293-.528-.579-1.085-.843-1.62-.022-.051-.051-.1-.073-.154h-.007c-.051-.11-.1-.212-.161-.33-.007-.015-.015-.037-.022-.051-.044-.088-.088-.183-.132-.278-.249-.5-.484-1.012-.718-1.547l-.059-.125c-.066-.147-.139-.293-.2-.447-.271-.63-.535-1.268-.777-1.884-.081-.212-.154-.41-.227-.608l-.022-.073c-.242-.645-.477-1.29-.682-1.928l-.425-1.415-.235-.791c-.037-.147-.081-.286-.11-.426a.884.884,0,0,1-.037-.132l-.183-.733c-.183-.74-.344-1.488-.476-2.214L83.9,997.3c-.139-.858-.257-1.686-.345-2.456l-.007-.081c-.029-.249-.051-.491-.073-.733-.081-.821-.132-1.708-.154-2.7-.007-.323-.015-.608-.015-.9,0-.762.015-1.452.051-2.089.007-.2.022-.388.037-.579.007-.132.015-.257.029-.381,0-.059.007-.139.015-.213l.007-.1q.011-.231.044-.462c0-.088.015-.176.022-.264.125-1.217.308-2.434.55-3.621.081-.425.176-.843.271-1.261a39.552,39.552,0,0,1,1.466-4.816,2.42,2.42,0,0,1,.1-.264,38.505,38.505,0,0,1,7.389-12.147c.249-.271.4-.418.4-.425Z" transform="translate(-63.888 -910.117)" fill="#223245"/>
      </g>
      <g id="Group_87" data-name="Group 87" transform="translate(26.836 57.987)">
        <rect id="Rectangle_89" data-name="Rectangle 89" width="0.733" height="2.743" transform="translate(3.932)" fill="#223245"/>
        <rect id="Rectangle_90" data-name="Rectangle 90" width="0.733" height="2.744" transform="translate(3.932 5.854)" fill="#223245"/>
        <rect id="Rectangle_91" data-name="Rectangle 91" width="2.744" height="0.733" transform="translate(0 3.932)" fill="#223245"/>
        <rect id="Rectangle_92" data-name="Rectangle 92" width="2.744" height="0.733" transform="translate(5.854 3.932)" fill="#223245"/>
      </g>
      <g id="Group_88" data-name="Group 88" transform="translate(69.354 61.652)">
        <rect id="Rectangle_93" data-name="Rectangle 93" width="0.733" height="2.743" transform="translate(3.932)" fill="#223245"/>
        <rect id="Rectangle_94" data-name="Rectangle 94" width="0.733" height="2.744" transform="translate(3.932 5.854)" fill="#223245"/>
        <rect id="Rectangle_95" data-name="Rectangle 95" width="2.744" height="0.733" transform="translate(0 3.932)" fill="#223245"/>
        <rect id="Rectangle_96" data-name="Rectangle 96" width="2.744" height="0.733" transform="translate(5.854 3.932)" fill="#223245"/>
      </g>
      <g id="Group_89" data-name="Group 89" transform="translate(50.684 18.052)">
        <path id="Path_300" data-name="Path 300" d="M90.144,928.275l-2.119,2.756-.55.711-.594.777-.528.682c-.022-.278-.029-.564-.044-.843l.484-.623.066-.095.491-.63,2.668-3.475.1-.125v.132C90.122,927.791,90.129,928.033,90.144,928.275Z" transform="translate(-85.577 -918.452)" fill="#223245"/>
        <path id="Path_301" data-name="Path 301" d="M90.06,921.75c-.037.344-.073.7-.11,1.041v.007l-1.32,1.708-1.114,1.444-.748.975-1.261,1.635-.154.2c-.022-.279-.029-.565-.044-.843l.257-.338,1.261-1.635.073-.088,1.048-1.364Z" transform="translate(-85.31 -916.941)" fill="#223245"/>
        <path id="Path_302" data-name="Path 302" d="M91.368,915.19c-.154.469-.286.938-.4,1.415v.007l-3.108,4.039v.007l-1.5,1.95c-.007-.125-.015-.257-.022-.381v-.036c-.007-.147-.015-.286-.022-.425l.161-.205v-.007l1.781-2.309v-.007Z" transform="translate(-85.577 -915.19)" fill="#223245"/>
        <path id="Path_303" data-name="Path 303" d="M90.608,932.845l-.235.307-3.064,3.981v.007l-.454.586c-.044-.242-.088-.491-.125-.74l.462-.6v-.007l2.522-3.277.535-.7.242-.315c.015.117.029.227.044.344C90.557,932.574,90.586,932.706,90.608,932.845Z" transform="translate(-85.689 -919.701)" fill="#223245"/>
        <path id="Path_304" data-name="Path 304" d="M91.485,936.887l-2.133,2.778-.542.7-.608.792v.007l-.411.528c-.066-.213-.132-.433-.191-.652l.418-.542.117-.161h.007l.542-.711,2.624-3.409C91.361,936.447,91.427,936.667,91.485,936.887Z" transform="translate(-85.921 -920.804)" fill="#223245"/>
        <path id="Path_305" data-name="Path 305" d="M92.708,940.491l-.315.411-.52.674-1.715,2.236-.689.894-.007.014-.374.484c-.081-.176-.161-.359-.235-.535l-.022-.044.381-.5.279-.359,1.745-2.265.52-.674.718-.938C92.547,940.1,92.627,940.293,92.708,940.491Z" transform="translate(-86.25 -921.783)" fill="#223245"/>
        <path id="Path_306" data-name="Path 306" d="M94.224,943.725l-.982,1.283-.66.85-.367.484-1.173,1.517-.352.462c-.1-.169-.205-.337-.3-.506l.359-.469.828-1.078.381-.491.66-.858,1.327-1.73C94.033,943.373,94.129,943.549,94.224,943.725Z" transform="translate(-86.666 -922.664)" fill="#223245"/>
        <path id="Path_307" data-name="Path 307" d="M96.02,946.606l-.374.484-.352.462-2.375,3.086-.337.433c-.125-.139-.235-.286-.352-.44l.337-.44,2.119-2.757.359-.462.638-.836.007-.007a.007.007,0,0,0,.007.007C95.8,946.3,95.91,946.452,96.02,946.606Z" transform="translate(-87.157 -923.449)" fill="#223245"/>
        <path id="Path_308" data-name="Path 308" d="M98.071,949.138l-3.006,3.907-.33.433c-.139-.125-.271-.257-.4-.389l.33-.432L97.7,948.72Q97.873,948.929,98.071,949.138Z" transform="translate(-87.72 -924.14)" fill="#223245"/>
        <path id="Path_309" data-name="Path 309" d="M99.611,951.366l-2.375,3.094-.52.682-.667.872-1.891,2.463c-.154-.1-.3-.213-.447-.33l1.891-2.463.389-.506.279-.367L99.193,951C99.333,951.132,99.472,951.249,99.611,951.366Z" transform="translate(-87.552 -924.749)" fill="#223245"/>
        <path id="Path_310" data-name="Path 310" d="M102.085,953.193l-1.7,2.221-.044.059-1.056,1.378-.682.887-1.855,2.419-.345.447c-.088-.051-.183-.1-.271-.147s-.139-.081-.213-.125l.308-.4,1.891-2.463.674-.887,2.822-3.68c.11.073.227.147.345.22C102,953.142,102.041,953.171,102.085,953.193Z" transform="translate(-88.142 -925.256)" fill="#223245"/>
        <path id="Path_311" data-name="Path 311" d="M105.04,954.7l-2.324,3.035-.4.52-.469.609-.22.293-1.759,2.295-.125.161h-.007l-.513-.22.1-.132,1.781-2.324.594-.777.1-.125.7-.909,2.045-2.668Q104.788,954.592,105.04,954.7Z" transform="translate(-89.023 -925.673)" fill="#223245"/>
        <path id="Path_312" data-name="Path 312" d="M108.86,955.918l-2.646,3.445-.359.462h-.007c-.191-.052-.367-.11-.557-.176l.352-.462,2.668-3.467Z" transform="translate(-90.643 -926.009)" fill="#223245"/>
        <path id="Path_313" data-name="Path 313" d="M112.138,956.839l-2.558,3.328-.389.506-.6-.125.374-.484,2.58-3.365C111.742,956.751,111.94,956.8,112.138,956.839Z" transform="translate(-91.524 -926.27)" fill="#223245"/>
        <path id="Path_314" data-name="Path 314" d="M115.673,957.433l-.022.029-2.434,3.167-.418.543-.66-.051.4-.528h.007l2.485-3.233c.191.029.374.051.564.066A.254.254,0,0,0,115.673,957.433Z" transform="translate(-92.472 -926.447)" fill="#223245"/>
        <path id="Path_315" data-name="Path 315" d="M119.128,957.654l-.088.117-.6.777-.293.381-1.356,1.767-.872,1.129-.117.154-.66-.051.066-.088.858-1.114h.007l1.649-2.155.3-.389.418-.542c.147.007.3.015.455.007C118.967,957.654,119.047,957.654,119.128,957.654Z" transform="translate(-93.273 -926.521)" fill="#223245"/>
        <path id="Path_316" data-name="Path 316" d="M123.739,957.35l-.088.11-1.473,1.913-.6.792h-.007l-.286.381-.484.623-.66-.051.616-.807h.007l.117-.161.293-.374.608-.792,1.188-1.547q.3-.022.594-.066Z" transform="translate(-94.607 -926.444)" fill="#223245"/>
        <path id="Path_317" data-name="Path 317" d="M128.8,956.24l-1.635,2.126-.3.389-.154.2-.909,1.188-.66-.051.777-1.012.411-.535.454-.586L127.9,956.5C128.2,956.416,128.5,956.328,128.8,956.24Z" transform="translate(-95.942 -926.148)" fill="#223245"/>
        <path id="Path_318" data-name="Path 318" d="M135.348,953.27l-1.6,2.075-.022.037h-.007l-.432.565-1.283,1.671-.205.264-.286-.022-.374-.029,1.29-1.686.007-.007.491-.638.462-.6.726-.946.007-.007C134.534,953.732,134.945,953.5,135.348,953.27Z" transform="translate(-97.544 -925.355)" fill="#223245"/>
      </g>
      <path id="Path_319" data-name="Path 319" d="M95.519,943.725c-.1-.176-.191-.352-.279-.535" transform="translate(-37.277 -904.612)" fill="none"/>
      <path id="Path_320" data-name="Path 320" d="M101.608,951.366c-.139-.117-.279-.234-.418-.366" transform="translate(-38.865 -906.697)" fill="none"/>
      <path id="Path_321" data-name="Path 321" d="M106.976,954.7q-.253-.11-.506-.242" transform="translate(-40.275 -907.62)" fill="none"/>
      <path id="Path_322" data-name="Path 322" d="M109.96,955.918l-.55-.2" transform="translate(-41.059 -907.957)" fill="none"/>
    </g>
    <g id="Group_92" data-name="Group 92" transform="translate(219.279 160.881)">
      <path id="Path_323" data-name="Path 323" d="M-59.274,1022.018V1020.5a24.742,24.742,0,0,1,8.613,1.292,52.123,52.123,0,0,0,7.566,2.337,27,27,0,0,0,15.065-1.671,27.15,27.15,0,0,1,21.051.123,26.023,26.023,0,0,0,19.235.329,31.509,31.509,0,0,1,10-2.407c.515-.013,1.031,0,1.6,0v1.38a62.6,62.6,0,0,0-6.274.959c-2.376.6-4.67,1.623-7.036,2.291a26.567,26.567,0,0,1-17.642-.9,27.531,27.531,0,0,0-21.433.067,26.369,26.369,0,0,1-19.856.05,27.622,27.622,0,0,0-10.44-2.24A2.184,2.184,0,0,1-59.274,1022.018Z" transform="translate(59.29 -992.106)" fill="#547394"/>
      <path id="Path_324" data-name="Path 324" d="M23.866,1033.929v1.4a30.058,30.058,0,0,0-4.56.492c-2.651.682-5.249,1.637-7.879,2.439a26.4,26.4,0,0,1-17.456-.313,32.592,32.592,0,0,0-12.62-2.517,33.7,33.7,0,0,0-10.533,2.448,26.654,26.654,0,0,1-19.659-.351,26.793,26.793,0,0,0-9.844-2.08,5.3,5.3,0,0,1-.571-.072v-1.56a24.72,24.72,0,0,1,7.364.956c2.456.771,4.853,1.856,7.339,2.432a24.711,24.711,0,0,0,15.505-1.059,28.289,28.289,0,0,1,16.4-1.892,54.478,54.478,0,0,1,7.163,2.231,25.8,25.8,0,0,0,18.045-.343,30.065,30.065,0,0,1,9.715-2.3c.385-.015.769-.03,1.153-.025A2.127,2.127,0,0,1,23.866,1033.929Z" transform="translate(59.285 -996.03)" fill="#547394"/>
      <path id="Path_325" data-name="Path 325" d="M-59.271,995.395v-1.56a20.907,20.907,0,0,1,7.187.844c2.26.686,4.446,1.732,6.724,2.3a27.047,27.047,0,0,0,17.129-1.154,27.161,27.161,0,0,1,21.064,0,27.225,27.225,0,0,0,21.546-.382,22.779,22.779,0,0,1,9.449-1.632v1.512a27.248,27.248,0,0,0-4.172.39,68.6,68.6,0,0,0-7.185,2.162A29.061,29.061,0,0,1,.147,999.331c-3.359-.252-6.456-1.641-9.648-2.661a26.722,26.722,0,0,0-18.648.792,26.982,26.982,0,0,1-20.954-.078A26.473,26.473,0,0,0-59.271,995.395Z" transform="translate(59.289 -984.284)" fill="#547394"/>
      <path id="Path_326" data-name="Path 326" d="M-59.285,1008.685v-1.6a29.459,29.459,0,0,1,4.246.351,49.822,49.822,0,0,1,6.691,1.919,26.039,26.039,0,0,0,19.645-.048,27.248,27.248,0,0,1,14.337-1.966,40.109,40.109,0,0,1,7.824,2.11,26.718,26.718,0,0,0,19.755-.235,25.908,25.908,0,0,1,9.74-2.065c.274,0,.547.028.887.048v1.362a51.921,51.921,0,0,0-5.956.868c-2.547.662-5,1.815-7.551,2.46a28.26,28.26,0,0,1-18.162-1.241,26.06,26.06,0,0,0-18.352-.558,59.416,59.416,0,0,1-7.264,2.267,26.764,26.764,0,0,1-15.3-1.449,26.854,26.854,0,0,0-9.933-2.171C-58.847,1008.735-59.017,1008.71-59.285,1008.685Z" transform="translate(59.293 -988.206)" fill="#547394"/>
      <path id="Path_327" data-name="Path 327" d="M-59.3,981.99v-1.608a38.159,38.159,0,0,1,4.659.419,35.028,35.028,0,0,1,5.882,1.693,26.99,26.99,0,0,0,20.843-.124,28.131,28.131,0,0,1,11.853-1.854c3.688.151,7.122,1.354,10.6,2.567a26.168,26.168,0,0,0,19.331-.8,24.056,24.056,0,0,1,9.947-1.82v1.519a21.543,21.543,0,0,0-3.441.293,75.266,75.266,0,0,0-7.508,2.119,28,28,0,0,1-20.567-.41,26.6,26.6,0,0,0-14.964-1.609,27.381,27.381,0,0,0-5.134,1.647A27.823,27.823,0,0,1-49.248,984a23.982,23.982,0,0,0-8.81-1.911C-58.437,982.082-58.816,982.029-59.3,981.99Z" transform="translate(59.297 -980.382)" fill="#547394"/>
    </g>
  </g>
</svg>
