<svg id="Group_387" data-name="Group 387" xmlns="http://www.w3.org/2000/svg" width="325" height="20.082" viewBox="0 0 325 20.082">
  <path id="Path_510" data-name="Path 510" d="M-2.7,0H10.517L-2.327,20.082H-15.546Z" transform="translate(15.546)" fill="#f8b67b"/>
  <path id="Path_517" data-name="Path 517" d="M-2.7,0H10.517L-2.327,20.082H-15.546Z" transform="translate(125.403)" fill="#f8b67b"/>
  <path id="Path_521" data-name="Path 521" d="M-2.7,0H10.517L-2.327,20.082H-15.546Z" transform="translate(233.147)" fill="#f8b67b"/>
  <path id="Path_512" data-name="Path 512" d="M-2.7,0H10.517L-2.327,20.082H-15.546Z" transform="translate(70.474)" fill="#f8b67b"/>
  <path id="Path_514" data-name="Path 514" d="M-2.7,0H10.517L-2.327,20.082H-15.546Z" transform="translate(180.331)" fill="#f8b67b"/>
  <path id="Path_518" data-name="Path 518" d="M-2.7,0H10.517L-2.327,20.082H-15.546Z" transform="translate(288.076)" fill="#f8b67b"/>
  <path id="Path_511" data-name="Path 511" d="M-2.7,0H10.517L-2.327,20.082H-15.546Z" transform="translate(41.954)" fill="#abdaea"/>
  <path id="Path_516" data-name="Path 516" d="M-2.7,0H10.517L-2.327,20.082H-15.546Z" transform="translate(151.811)" fill="#abdaea"/>
  <path id="Path_520" data-name="Path 520" d="M-2.7,0H10.517L-2.327,20.082H-15.546Z" transform="translate(259.555)" fill="#abdaea"/>
  <path id="Path_513" data-name="Path 513" d="M-2.7,0H10.517L-2.327,20.082H-15.546Z" transform="translate(96.882)" fill="#abdaea"/>
  <path id="Path_515" data-name="Path 515" d="M-2.7,0H10.517L-2.327,20.082H-15.546Z" transform="translate(206.739)" fill="#abdaea"/>
  <path id="Path_519" data-name="Path 519" d="M-2.7,0H10.517L-2.327,20.082H-15.546Z" transform="translate(314.483)" fill="#abdaea"/>
</svg>
