<svg xmlns="http://www.w3.org/2000/svg" width="325" height="20.082" viewBox="0 0 325 20.082"><path d="M-2.7,0H10.517L-2.327,20.082H-15.546Z" transform="translate(15.546)" fill="#abdaea"/><path d="M-2.7,0H10.517L-2.327,20.082H-15.546Z" transform="translate(125.403)" fill="#abdaea"/><path d="M-2.7,0H10.517L-2.327,20.082H-15.546Z" transform="translate(233.147)" fill="#abdaea"/><path d="M-2.7,0H10.517L-2.327,20.082H-15.546Z" transform="translate(70.474)" fill="#abdaea"/><path d="M-2.7,0H10.517L-2.327,20.082H-15.546Z" transform="translate(180.331)" fill="#abdaea"/><path d="M-2.7,0H10.517L-2.327,20.082H-15.546Z" transform="translate(288.076)" fill="#abdaea"/><path d="M-2.7,0H10.517L-2.327,20.082H-15.546Z" transform="translate(41.954)" fill="#bcefe1"/><path d="M-2.7,0H10.517L-2.327,20.082H-15.546Z" transform="translate(151.811)" fill="#bcefe1"/><path d="M-2.7,0H10.517L-2.327,20.082H-15.546Z" transform="translate(259.555)" fill="#bcefe1"/><path d="M-2.7,0H10.517L-2.327,20.082H-15.546Z" transform="translate(96.882)" fill="#bcefe1"/><path d="M-2.7,0H10.517L-2.327,20.082H-15.546Z" transform="translate(206.739)" fill="#bcefe1"/><path d="M-2.7,0H10.517L-2.327,20.082H-15.546Z" transform="translate(314.483)" fill="#bcefe1"/></svg>