<svg xmlns="http://www.w3.org/2000/svg" xmlns:xlink="http://www.w3.org/1999/xlink" width="165" height="114.386" viewBox="0 0 165 114.386"><defs><filter id="a" x="23.815" y="0" width="43.584" height="42.669" filterUnits="userSpaceOnUse"><feOffset dy="1" input="SourceAlpha"/><feGaussianBlur stdDeviation="3" result="b"/><feFlood flood-opacity="0.161"/><feComposite operator="in" in2="b"/><feComposite in="SourceGraphic"/></filter><filter id="c" x="50.733" y="13.587" width="26.939" height="26.235" filterUnits="userSpaceOnUse"><feOffset dy="1" input="SourceAlpha"/><feGaussianBlur stdDeviation="3" result="d"/><feFlood flood-opacity="0.161"/><feComposite operator="in" in2="d"/><feComposite in="SourceGraphic"/></filter><filter id="e" x="0" y="27.552" width="37.756" height="52.217" filterUnits="userSpaceOnUse"><feOffset dy="1" input="SourceAlpha"/><feGaussianBlur stdDeviation="3" result="f"/><feFlood flood-opacity="0.161"/><feComposite operator="in" in2="f"/><feComposite in="SourceGraphic"/></filter><filter id="g" x="26.092" y="38.027" width="19.708" height="19.652" filterUnits="userSpaceOnUse"><feOffset dy="1" input="SourceAlpha"/><feGaussianBlur stdDeviation="3" result="h"/><feFlood flood-opacity="0.161"/><feComposite operator="in" in2="h"/><feComposite in="SourceGraphic"/></filter><filter id="i" x="20.626" y="13.49" width="75.705" height="64.4" filterUnits="userSpaceOnUse"><feOffset dy="1" input="SourceAlpha"/><feGaussianBlur stdDeviation="3" result="j"/><feFlood flood-opacity="0.161"/><feComposite operator="in" in2="j"/><feComposite in="SourceGraphic"/></filter><filter id="k" x="74.191" y="39.166" width="90.809" height="43.449" filterUnits="userSpaceOnUse"><feOffset dy="1" input="SourceAlpha"/><feGaussianBlur stdDeviation="3" result="l"/><feFlood flood-opacity="0.161"/><feComposite operator="in" in2="l"/><feComposite in="SourceGraphic"/></filter><filter id="m" x="21.047" y="60.654" width="36.643" height="48.13" filterUnits="userSpaceOnUse"><feOffset dy="1" input="SourceAlpha"/><feGaussianBlur stdDeviation="3" result="n"/><feFlood flood-opacity="0.161"/><feComposite operator="in" in2="n"/><feComposite in="SourceGraphic"/></filter><filter id="o" x="36.251" y="73.271" width="49.964" height="41.115" filterUnits="userSpaceOnUse"><feOffset dy="1" input="SourceAlpha"/><feGaussianBlur stdDeviation="3" result="p"/><feFlood flood-opacity="0.161"/><feComposite operator="in" in2="p"/><feComposite in="SourceGraphic"/></filter><filter id="q" x="68.873" y="72.329" width="68.934" height="39.044" filterUnits="userSpaceOnUse"><feOffset dy="1" input="SourceAlpha"/><feGaussianBlur stdDeviation="3" result="r"/><feFlood flood-opacity="0.161"/><feComposite operator="in" in2="r"/><feComposite in="SourceGraphic"/></filter><filter id="s" x="98.655" y="12.905" width="41.612" height="37.207" filterUnits="userSpaceOnUse"><feOffset dy="1" input="SourceAlpha"/><feGaussianBlur stdDeviation="3" result="t"/><feFlood flood-opacity="0.114"/><feComposite operator="in" in2="t"/><feComposite in="SourceGraphic"/></filter></defs><g transform="translate(9 8)"><g transform="translate(-31 -42.572)"><g transform="translate(-2518 -2330.954)"><g transform="matrix(1, 0, 0, 1, 2540, 2365.53)" filter="url(#a)"><path d="M63.319,17.26l-.038-.023a.728.728,0,0,0-.43-.066.546.546,0,0,0-.356.3,7.092,7.092,0,0,1-1.349,1.655,1.621,1.621,0,0,1-1.168.471,1.431,1.431,0,0,1-.444-.071,1.9,1.9,0,0,1-.48-.323,5.7,5.7,0,0,1-.453-.367,4.065,4.065,0,0,1-.616-.561,1.349,1.349,0,0,1-.152-.125l-.09-.089c-.249-.23-.478-.431-.691-.6-.206-.15-.384-.281-.558-.409a5.246,5.246,0,0,0-.785-.319,1.673,1.673,0,0,0-.775-.061,3.023,3.023,0,0,0-1.168.48,4.634,4.634,0,0,0-.622.56l.868-3.474q.2-.957.394-1.859.2-.874.367-1.723c.281-1.426.5-2.72.65-3.846a26.245,26.245,0,0,0,.2-2.984,13.378,13.378,0,0,0-.115-1.368,6.752,6.752,0,0,0-.235-1.108,2.514,2.514,0,0,0-.6-.931,1.569,1.569,0,0,0-.9-.407h-.169a1.537,1.537,0,0,0-.747.186A2.046,2.046,0,0,0,52.1.88a3.719,3.719,0,0,0-.473.885,9.142,9.142,0,0,0-.344,1.2A24.679,24.679,0,0,0,50.858,5.7c-.038.417-.068.869-.095,1.34-.592.056-1.18.123-1.757.209a24.6,24.6,0,0,0-2.814.547.544.544,0,0,0-.083-.053L46,7.684l-.07-.017a.828.828,0,0,0-.4.088.5.5,0,0,0-.177.251,24.719,24.719,0,0,0-3.8,1.367,20.2,20.2,0,0,0-3.276,1.882A.893.893,0,0,0,38,11.6l-.011.142a.551.551,0,0,0,.139.341.571.571,0,0,0,.382.264.508.508,0,0,0,.433-.14,16.857,16.857,0,0,1,2.934-1.7,24.931,24.931,0,0,1,3.208-1.244c-.3,2.047-.6,4.3-.866,6.695-.262,2.486-.509,5.209-.734,8.107a.708.708,0,0,0,.036.219.432.432,0,0,0,.1.176.4.4,0,0,0,.2.169.475.475,0,0,0,.21.044.671.671,0,0,0,.2-.03.379.379,0,0,0,.207-.114.328.328,0,0,0,.13-.169.44.44,0,0,0,.071-.228c.2-2.934.461-5.71.76-8.253.276-2.5.583-4.842.913-6.964.919-.213,1.857-.394,2.785-.537.532-.07,1.07-.128,1.608-.177-.011.345-.019.7-.024,1.064v1.015c0,.727.009,1.486.028,2.26.038,1.146.095,2.333.17,3.531l.2,2.509a15.935,15.935,0,0,0,.223,1.738.6.6,0,0,0,.061.372.519.519,0,0,0,.253.183.209.209,0,0,0,.078.06.228.228,0,0,0,.086.04.664.664,0,0,0,.271.061h.111l.024-.008a.582.582,0,0,0,.344-.3,10.59,10.59,0,0,1,1.357-2.134,2.16,2.16,0,0,1,1.2-.769.946.946,0,0,1,.363.024,2.373,2.373,0,0,1,.459.177,4.079,4.079,0,0,1,.433.352c.169.15.365.328.609.549a1.828,1.828,0,0,1,.231.207c.244.244.475.456.683.626a3.85,3.85,0,0,0,.523.407,3.7,3.7,0,0,0,.766.412,2.737,2.737,0,0,0,.75.179,2.624,2.624,0,0,0,1.8-.622,7.675,7.675,0,0,0,1.8-2.1.8.8,0,0,0,.068-.284l0-.115a.667.667,0,0,0-.251-.372M51.847,9.292c.006-.407.017-.8.03-1.182.075,0,.149-.012.223-.016a.708.708,0,0,0,.24-.045.392.392,0,0,0,.153-.143.514.514,0,0,0,.123-.2.7.7,0,0,0,.036-.219.448.448,0,0,0-.036-.191.379.379,0,0,0-.15-.2.577.577,0,0,0-.174-.123.97.97,0,0,0-.228-.036c-.044,0-.087.008-.13.011.024-.394.05-.776.083-1.136a18.938,18.938,0,0,1,.391-2.572,8.863,8.863,0,0,1,.306-1.03,2.562,2.562,0,0,1,.35-.7.654.654,0,0,1,.293-.263.528.528,0,0,1,.286-.088.489.489,0,0,1,.278.153,1.258,1.258,0,0,1,.273.421,3.9,3.9,0,0,1,.189.9,7.657,7.657,0,0,1,.083,1.187,24.874,24.874,0,0,1-.2,2.855c-.15,1.1-.358,2.371-.618,3.766-.113.545-.234,1.107-.367,1.694-.113.6-.245,1.226-.392,1.851q-.226.9-.48,1.889-.148.591-.305,1.212c0-.019,0-.037-.006-.055q-.028-.507-.056-1.044c-.075-1.173-.132-2.338-.169-3.463s-.047-2.2-.028-3.234" transform="translate(-5.18 8)" fill="#557496"/></g><g transform="matrix(1, 0, 0, 1, 2540, 2365.53)" filter="url(#c)"><path d="M89.866,25.3a.669.669,0,0,0-.26-.379.555.555,0,0,0-.432-.139.689.689,0,0,0-.386.271,2.646,2.646,0,0,1-.173.251,2.486,2.486,0,0,0-.282.338.441.441,0,0,0-.075.1.283.283,0,0,0-.05.078q-.337.422-.591.732c-.168.2-.309.374-.412.5q-.307.307-.586.559a4.44,4.44,0,0,1-.569.433,5.084,5.084,0,0,1-.965.468,2.769,2.769,0,0,1-.89.215,2.142,2.142,0,0,1-.752-.023,1.782,1.782,0,0,1-.6-.313,2.078,2.078,0,0,1-.518-.564,2.942,2.942,0,0,1-.246-.743,15,15,0,0,0,2.171-1.259,5.741,5.741,0,0,0,1.412-1.382,2.156,2.156,0,0,0,.363-.664,1.98,1.98,0,0,0,.122-.675,1.235,1.235,0,0,0-.157-.6,1.254,1.254,0,0,0-.377-.444,1.448,1.448,0,0,0-.531-.284,2.154,2.154,0,0,0-1.259,0,4.813,4.813,0,0,0-.645.294,4.036,4.036,0,0,0-1.235,1.147,6.038,6.038,0,0,0-.782,1.737,5.175,5.175,0,0,0-.2,1.126,5.324,5.324,0,0,0-.029.552,3.9,3.9,0,0,0,.029.488,2.973,2.973,0,0,0,.177.889,2.508,2.508,0,0,0,.421.751,3.2,3.2,0,0,0,.592.564,3.111,3.111,0,0,0,.709.384,3.213,3.213,0,0,0,.849.209h.254a4.145,4.145,0,0,0,.677-.059,5.655,5.655,0,0,0,.989-.291,5.85,5.85,0,0,0,1.006-.545,5.215,5.215,0,0,0,.727-.522,5.357,5.357,0,0,0,.659-.658c.134-.134.3-.317.49-.547.17-.208.369-.463.582-.75a.606.606,0,0,0,.121-.178c.113-.133.209-.247.283-.34.09-.108.162-.189.235-.267a.682.682,0,0,0,.139-.369Zm-7.717.48c.007-.029.015-.059.023-.089a3.992,3.992,0,0,1,.08-.4,4.788,4.788,0,0,1,.629-1.367,2.587,2.587,0,0,1,.906-.853,1.652,1.652,0,0,1,.67-.234c.025,0,.05,0,.074,0a.682.682,0,0,1,.364.1,1.142,1.142,0,0,0,.085.107.363.363,0,0,1,.011.088,1.043,1.043,0,0,1-.039.3c-.055.108-.127.236-.212.371a5.069,5.069,0,0,1-1.1,1.042,8.974,8.974,0,0,1-1.489.938" transform="translate(-21.2 -0.09)" fill="#557496"/></g><g transform="matrix(1, 0, 0, 1, 2540, 2365.53)" filter="url(#e)"><path d="M19.414,44.237a.711.711,0,0,0-1.138,0q-.626.684-1.367,1.48t-1.537,1.708a7.948,7.948,0,0,0-.911.968q-.626.683-1.594,1.708-1.822,2.05-3.359,3.644Q7.971,55.4,6.832,56.534,5.75,57.559,4.725,58.527q-.968.911-1.936,1.708A62.828,62.828,0,0,1,4.1,52.378a50.146,50.146,0,0,1,2.107-6.6.8.8,0,0,0-.513-1.081.883.883,0,0,0-.683-.057.964.964,0,0,0-.4.512,47.734,47.734,0,0,0-2.22,7.23A75.916,75.916,0,0,0,.968,61.089a6.244,6.244,0,0,0-.113.683,3.2,3.2,0,0,0-.456.342q-.4.284-.4.569V62.8a.858.858,0,0,0,.228.513.365.365,0,0,0,.171.228.613.613,0,0,0,.342.114Q.455,66.5.342,69.97.228,73.386.228,77.315v.342a.342.342,0,0,0,.228.228.547.547,0,0,0,.285.228,1.067,1.067,0,0,0,.342.057.629.629,0,0,0,.285-.057.547.547,0,0,0,.285-.228.37.37,0,0,0,.171-.228,1.087,1.087,0,0,0,.056-.342q0-3.587.114-6.661t.285-5.693a2.824,2.824,0,0,1,.171.285.181.181,0,0,0,.171.113,24.971,24.971,0,0,0,1.31,2.164q.683.968,1.252,1.651a17.063,17.063,0,0,0,1.48,1.708,11.53,11.53,0,0,0,1.594,1.253,9.535,9.535,0,0,0,4.213,1.594,13.163,13.163,0,0,0,4.9-.512.23.23,0,0,0,.228-.114,1.881,1.881,0,0,0,.228-.285,1.067,1.067,0,0,0,.057-.342.531.531,0,0,0,0-.342,2.188,2.188,0,0,0-.114-.285.9.9,0,0,0-.228-.171.612.612,0,0,0-.342-.113h-.342a10.208,10.208,0,0,1-4.156.455,7.258,7.258,0,0,1-3.473-1.252,9.086,9.086,0,0,1-1.367-1.138,11.2,11.2,0,0,1-1.366-1.537,14.689,14.689,0,0,1-1.139-1.481A20.233,20.233,0,0,1,3.986,64.5l-1.2-2.05q1.2-1.024,2.506-2.163Q6.6,59.1,8.028,57.673,9.166,56.534,10.7,54.94q1.481-1.594,3.416-3.7.854-.911,2.448-2.733.854-.911,1.594-1.708.74-.74,1.31-1.424a.818.818,0,0,0,.285-.569.778.778,0,0,0-.342-.569" transform="translate(9 -8.4)" fill="#557496"/></g><g transform="matrix(1, 0, 0, 1, 2540, 2365.53)" filter="url(#g)"><path d="M41.85,62.086a.343.343,0,0,0,.228.228h.683a.641.641,0,0,0,.228-.228.546.546,0,0,0,.228-.285.609.609,0,0,0,.113-.341.387.387,0,0,0-.113-.285.551.551,0,0,0-.228-.285.883.883,0,0,0-.228-.171,1.041,1.041,0,0,0-.683,0,.367.367,0,0,0-.228.171.713.713,0,0,0-.171.285.632.632,0,0,0-.057.285,1.061,1.061,0,0,0,.057.341.7.7,0,0,0,.171.285" transform="translate(-6.53 -14.63)" fill="#557496"/></g><g transform="matrix(1, 0, 0, 1, 2540, 2365.53)" filter="url(#i)"><path d="M90.153,29.661a17.624,17.624,0,0,0,.4-2.847,4.192,4.192,0,0,0,.056-.683,15.729,15.729,0,0,0-.171-1.594A3.36,3.36,0,0,0,89.47,22.6a3.24,3.24,0,0,0-1.765-.968,2.894,2.894,0,0,0-.8-.114,3.178,3.178,0,0,0-1.2.228,4.432,4.432,0,0,0-1.765,1.2,7.145,7.145,0,0,0-1.309,1.879,21.821,21.821,0,0,0-1.082,2.619,38.331,38.331,0,0,0-1.537,6.091q-.626,3.53-1.082,8.142-.17,1.993-.342,4.156-.114,2.163-.228,4.441a6.1,6.1,0,0,0-2.9-.8,6.178,6.178,0,0,0-2.847.569,9.4,9.4,0,0,0-2.448,1.879,10.9,10.9,0,0,0-1.792,2.432,1.06,1.06,0,0,0-.1-.041,1.154,1.154,0,0,0-.626.228,3.362,3.362,0,0,1-.4.456q-.342.341-.8.854-.626.569-1.765,1.765a12.187,12.187,0,0,1-1.2.968q-.512.456-.968.8-.8.569-1.367.911a2.694,2.694,0,0,1-1.082.285.841.841,0,0,1-.74-.228,1.748,1.748,0,0,1-.513-.911,1.721,1.721,0,0,1-.171-.683,8.2,8.2,0,0,1-.114-1.537v-.57a2.472,2.472,0,0,1-.057-.455q-.056-.968-.171-1.708a7.719,7.719,0,0,0-.285-1.252l-.342-.683a5.292,5.292,0,0,0-.4-.569,4.629,4.629,0,0,0-.74-.4,2.141,2.141,0,0,0-.513-.056h-.285a3.169,3.169,0,0,0-1.2.4,8.42,8.42,0,0,0-1.367.968,14.409,14.409,0,0,0-1.081,1.082q-.57.626-1.31,1.537c-.076.114-.171.247-.285.4s-.247.322-.4.512q-.684.854-1.2,1.424l-.683.854q-.512.626-.911,1.025l-.626.626-.342.171a.555.555,0,0,1-.285.114.051.051,0,0,1-.057.057h-.057a.05.05,0,0,0-.057-.057l-.057-.057a2.749,2.749,0,0,0-.171-.285,3.944,3.944,0,0,1-.114-.456,8.36,8.36,0,0,1-.285-1.138,9.413,9.413,0,0,1-.114-1.537v-.968q0-.626.057-1.424V54.6a.629.629,0,0,0-.057-.285,2.872,2.872,0,0,1-.171-.285,2.894,2.894,0,0,1-.285-.171.639.639,0,0,0-.285-.057,1.085,1.085,0,0,0-.342.057l-.016.005a.716.716,0,0,0-.4-.062.839.839,0,0,0-.512.4,24.845,24.845,0,0,1-2.22,3.018,15.855,15.855,0,0,1-2.334,2.22,13.423,13.423,0,0,1-1.879,1.2,2.841,2.841,0,0,1-1.366.285.612.612,0,0,1-.342-.114.875.875,0,0,1-.228-.171,1.267,1.267,0,0,1-.171-.456v-.683a9.887,9.887,0,0,1,.74-2.675A32.767,32.767,0,0,1,37.23,53.4a.836.836,0,0,0,.171-.626,1.146,1.146,0,0,0-.456-.513,1.42,1.42,0,0,0-.626-.171.665.665,0,0,0-.455.4,29.779,29.779,0,0,0-2.05,3.815,9.931,9.931,0,0,0-.854,3.017,2.922,2.922,0,0,0-.057.569,4.548,4.548,0,0,0,.057.74,2.083,2.083,0,0,0,.456.968,1.493,1.493,0,0,0,.683.683,1.979,1.979,0,0,0,.968.342h.456a4.884,4.884,0,0,0,1.708-.342A10.267,10.267,0,0,0,39.678,60.8a25.646,25.646,0,0,0,2.562-2.448q.613-.73,1.212-1.552v.414a11.267,11.267,0,0,0,.114,1.708q.17.8.341,1.424a3.821,3.821,0,0,0,.626,1.366,1.7,1.7,0,0,0,.968.57.642.642,0,0,0,.456.056,2.921,2.921,0,0,0,.569-.056,4.342,4.342,0,0,0,1.139-.626,4.472,4.472,0,0,0,.8-.74,10.675,10.675,0,0,0,1.082-1.138q.228-.228.74-.854.456-.569,1.2-1.48l.341-.456a2.39,2.39,0,0,1,.342-.455,15.317,15.317,0,0,1,1.2-1.367,12.982,12.982,0,0,1,1.024-1.025,4.226,4.226,0,0,1,.854-.683,1.236,1.236,0,0,1,.626-.285h.171a.671.671,0,0,1,.114.171.369.369,0,0,1,.171.171,2.827,2.827,0,0,0,.171.285q.056.4.171,1.025.057.626.171,1.481v.4a3.607,3.607,0,0,0,.056.569q0,1.139.057,1.822a3.812,3.812,0,0,0,.285,1.024,3.741,3.741,0,0,0,1.139,1.651,2.355,2.355,0,0,0,1.765.456,4.2,4.2,0,0,0,1.537-.342A9.186,9.186,0,0,0,63.492,60.8a7.4,7.4,0,0,0,1.138-.854q.57-.512,1.2-1.138.4-.342.854-.8c.088-.088.181-.186.271-.28a10.065,10.065,0,0,0-.369,2.615,4.558,4.558,0,0,0,.171,1.31,2.088,2.088,0,0,0,.455.968,2,2,0,0,0,.854.74,2.683,2.683,0,0,0,1.252.057,6.181,6.181,0,0,0,2.9-1.879,41.018,41.018,0,0,0,4.1-4.839l.911-1.252q.512-.683.968-1.366v3.188q-.057,3.53,0,5.978.056,2.5.228,3.871a.461.461,0,0,0,.114.342.709.709,0,0,0,.17.285,1.453,1.453,0,0,0,.342.171h.342a.386.386,0,0,0,.285-.114.709.709,0,0,0,.285-.17l.114-.342a1.085,1.085,0,0,0,.057-.342q-.171-1.366-.228-3.815-.056-2.391,0-5.864v-2.96q0-1.48.114-2.961,1.2-1.935,2.391-3.928t2.277-4.1q2.106-4.1,3.473-7.515a42.216,42.216,0,0,0,1.993-6.148m-13.834,24.2q-.684.969-1.31,1.879-1.082,1.366-1.993,2.5-.911,1.082-1.708,1.879a8.286,8.286,0,0,1-1.366,1.139,2.4,2.4,0,0,1-.968.455c-.114.038-.19.038-.228,0a.327.327,0,0,1-.228-.113,1.267,1.267,0,0,1-.171-.456,4.868,4.868,0,0,1-.057-.8,8.485,8.485,0,0,1,.342-2.334,11.624,11.624,0,0,1,1.081-2.5,10.6,10.6,0,0,1,1.651-2.391A6.519,6.519,0,0,1,73.3,51.579a4.861,4.861,0,0,1,2.163-.4,4.593,4.593,0,0,1,2.22.626Q77,52.889,76.319,53.857M83.15,42.527q-.684,1.366-1.424,2.676T80.19,47.879q.114-1.594.171-3.074.114-1.537.228-3.018.455-4.44,1.082-7.914a39.525,39.525,0,0,1,1.48-5.921,16.366,16.366,0,0,1,.968-2.277A4.7,4.7,0,0,1,85.2,24.081a3.462,3.462,0,0,1,1.024-.74,2.077,2.077,0,0,1,1.082-.057,2.261,2.261,0,0,1,.968.569,3.287,3.287,0,0,1,.569,1.025,6.023,6.023,0,0,1,.057,1.879,14.143,14.143,0,0,1-.4,2.5,34.815,34.815,0,0,1-1.936,5.978q-1.366,3.3-3.416,7.287" transform="translate(-3.28 -0.03)" fill="#557496"/></g><g transform="matrix(1, 0, 0, 1, 2540, 2365.53)" filter="url(#k)"><path d="M190.991,69.938a.649.649,0,0,0-.228-.228l-.228-.114a1.065,1.065,0,0,0-.342-.057,10.636,10.636,0,0,0-2.049.74,30.064,30.064,0,0,0-2.847,1.594q-1.651,1.025-3.131,2.106a33.274,33.274,0,0,0-2.847,2.334l-.228-.569a3.8,3.8,0,0,1-.228-.626.373.373,0,0,1-.171-.171.328.328,0,0,1-.057-.228q-.626-1.424-1.082-2.448-.4-1.082-.626-1.708a15.21,15.21,0,0,1-.683-1.936,6.694,6.694,0,0,1-.228-1.594,3.711,3.711,0,0,1,.057-1.138,1.726,1.726,0,0,1,.456-.911,2.61,2.61,0,0,1,.967-.57,7.841,7.841,0,0,1,1.538-.228,2.71,2.71,0,0,1,1.594.456,10.2,10.2,0,0,1,1.935,1.651.821.821,0,0,0,.57.285,1.406,1.406,0,0,0,.626-.228.822.822,0,0,0,.285-.569,1.225,1.225,0,0,0-.228-.683,11.867,11.867,0,0,0-1.082-.968,11.189,11.189,0,0,0-.911-.74,5.391,5.391,0,0,0-1.481-.74,3.933,3.933,0,0,0-1.138-.171h-.228a5.555,5.555,0,0,0-3.644,1.31,4.26,4.26,0,0,0-.968,3.416,6.321,6.321,0,0,0,.285,1.765c.045.192.111.4.169.61a11.316,11.316,0,0,0-1.894.7,30.144,30.144,0,0,0-2.847,1.594q-1.65,1.025-3.131,2.106a33.285,33.285,0,0,0-2.847,2.334l-.228-.569a3.8,3.8,0,0,1-.228-.626.377.377,0,0,1-.171-.171.331.331,0,0,1-.057-.228q-.626-1.424-1.081-2.448-.4-1.082-.626-1.708a15.124,15.124,0,0,1-.683-1.936,6.7,6.7,0,0,1-.228-1.594,3.674,3.674,0,0,1,.057-1.138,1.73,1.73,0,0,1,.455-.911,2.613,2.613,0,0,1,.968-.57,7.834,7.834,0,0,1,1.537-.228,2.709,2.709,0,0,1,1.594.456,10.205,10.205,0,0,1,1.936,1.651.821.821,0,0,0,.569.285,1.406,1.406,0,0,0,.626-.228.819.819,0,0,0,.285-.569,1.225,1.225,0,0,0-.228-.683,11.863,11.863,0,0,0-1.081-.968,11.192,11.192,0,0,0-.911-.74,5.4,5.4,0,0,0-1.48-.74,3.936,3.936,0,0,0-1.138-.171h-.228a5.553,5.553,0,0,0-3.643,1.31,4.258,4.258,0,0,0-.968,3.416,6.3,6.3,0,0,0,.285,1.765c.007.028.018.061.025.09a1.094,1.094,0,0,0-.5.366,5.284,5.284,0,0,1-.4.569,5.326,5.326,0,0,0-.569.683.655.655,0,0,0-.114.171.666.666,0,0,0-.114.171q-.683.855-1.2,1.481t-.854,1.025q-.626.626-1.2,1.138a9.082,9.082,0,0,1-1.2.911,10.6,10.6,0,0,1-1.992.968,5.909,5.909,0,0,1-1.879.456,4.737,4.737,0,0,1-1.651-.057,3.918,3.918,0,0,1-1.31-.683A4.487,4.487,0,0,1,145.355,75a6.417,6.417,0,0,1-.57-1.822,30.279,30.279,0,0,0,4.555-2.619,11.278,11.278,0,0,0,2.79-2.733,4.029,4.029,0,0,0,.683-1.252,3.652,3.652,0,0,0,.228-1.253,2.193,2.193,0,0,0-.285-1.081,2.257,2.257,0,0,0-.683-.8,2.623,2.623,0,0,0-.968-.512,3.579,3.579,0,0,0-1.138-.171,4.534,4.534,0,0,0-1.2.171,9.143,9.143,0,0,0-1.253.569,7.792,7.792,0,0,0-2.391,2.22,11.814,11.814,0,0,0-1.537,3.416c-.056.2-.088.379-.133.569a.9.9,0,0,0-.282-.113,1.155,1.155,0,0,0-.626.228,3.317,3.317,0,0,1-.4.456q-.341.341-.8.854-.626.57-1.765,1.765a12.22,12.22,0,0,1-1.2.968q-.512.455-.968.8-.8.569-1.367.911a2.694,2.694,0,0,1-1.081.285.841.841,0,0,1-.74-.228,1.748,1.748,0,0,1-.512-.911,1.729,1.729,0,0,1-.171-.683,8.208,8.208,0,0,1-.113-1.537V71.93a2.426,2.426,0,0,1-.057-.456q-.057-.968-.171-1.708a7.72,7.72,0,0,0-.285-1.252l-.342-.683a5.127,5.127,0,0,0-.4-.57,4.583,4.583,0,0,0-.74-.4,2.1,2.1,0,0,0-.512-.057h-.285a3.159,3.159,0,0,0-1.2.4,8.372,8.372,0,0,0-1.366.967,14.292,14.292,0,0,0-1.082,1.082q-.569.626-1.31,1.537-.114.171-.285.4c-.114.152-.246.323-.4.512q-.683.855-1.2,1.424l-.683.854q-.512.626-.911,1.025l-.626.626-.342.171a.553.553,0,0,1-.285.114.05.05,0,0,1-.057.057h-.057a.05.05,0,0,0-.056-.057l-.057-.057a2.892,2.892,0,0,0-.171-.285,3.982,3.982,0,0,1-.113-.455,8.279,8.279,0,0,1-.285-1.139,9.408,9.408,0,0,1-.114-1.537v-.968q0-.626.057-1.423V69.88a.629.629,0,0,0-.057-.285,2.737,2.737,0,0,1-.171-.285,2.7,2.7,0,0,1-.285-.171.637.637,0,0,0-.285-.056,1.086,1.086,0,0,0-.342.056l-.342.114a.72.72,0,0,0-.171.285.631.631,0,0,0-.057.285v.171q-.056.854-.057,1.48V72.5a11.347,11.347,0,0,0,.114,1.708q.171.8.342,1.424A3.808,3.808,0,0,0,119.434,77a1.7,1.7,0,0,0,.968.569.644.644,0,0,0,.455.057,2.929,2.929,0,0,0,.57-.057,4.34,4.34,0,0,0,1.138-.626,4.471,4.471,0,0,0,.8-.74,10.674,10.674,0,0,0,1.081-1.138q.228-.228.74-.854.455-.569,1.2-1.48l.342-.455a2.368,2.368,0,0,1,.342-.456,15.422,15.422,0,0,1,1.2-1.367,12.857,12.857,0,0,1,1.025-1.024,4.163,4.163,0,0,1,.854-.683,1.231,1.231,0,0,1,.626-.285h.171a.655.655,0,0,1,.113.171.376.376,0,0,1,.171.171,2.7,2.7,0,0,0,.171.285q.057.4.171,1.024.056.626.171,1.481v.4a3.554,3.554,0,0,0,.057.57q0,1.139.057,1.822a3.8,3.8,0,0,0,.285,1.025,3.734,3.734,0,0,0,1.138,1.651,2.357,2.357,0,0,0,1.765.456,4.2,4.2,0,0,0,1.537-.342,9.184,9.184,0,0,0,1.822-1.082,7.406,7.406,0,0,0,1.139-.854q.569-.513,1.2-1.138.4-.341.854-.8t.968-1.024l.627-.628c-.02.273-.041.547-.041.8a7.878,7.878,0,0,0,.056.968,5.71,5.71,0,0,0,.342,1.708,4.758,4.758,0,0,0,.8,1.423,6.138,6.138,0,0,0,1.138,1.082,5.923,5.923,0,0,0,1.367.74,6.1,6.1,0,0,0,1.594.4h.512a7.975,7.975,0,0,0,1.31-.114,10.883,10.883,0,0,0,1.936-.569A11.576,11.576,0,0,0,154.18,77a10.169,10.169,0,0,0,1.423-1.025,10.675,10.675,0,0,0,1.31-1.31q.4-.4.968-1.082.512-.626,1.2-1.537a1.331,1.331,0,0,0,.228-.342q.341-.4.569-.683c.053-.064.1-.113.145-.169.035.1.061.184.1.283q.228.684.683,1.765.4,1.024,1.081,2.5a.911.911,0,0,1,.057.228.656.656,0,0,0,.114.171,7.25,7.25,0,0,0,.4.968q.17.4.341.74a20.693,20.693,0,0,0-2.163,2.619,10.373,10.373,0,0,0-1.253,2.22,5.991,5.991,0,0,0-.342,1.879,3.179,3.179,0,0,0,.228,1.2,4.214,4.214,0,0,0,2.106,2.22,1.278,1.278,0,0,0,.569.228,5.593,5.593,0,0,0,.8.057,4.869,4.869,0,0,0,.8-.057,1.762,1.762,0,0,0,.626-.228,4.968,4.968,0,0,0,1.139-1.025,5.943,5.943,0,0,0,.74-1.366,5.409,5.409,0,0,0,.171-1.424,13.823,13.823,0,0,0-.114-1.708q-.228-.683-.456-1.537T165.07,78.7l-.113-.342a1.269,1.269,0,0,0-.171-.4,29.624,29.624,0,0,1,2.847-2.391,33.463,33.463,0,0,1,3.188-2.163,19.7,19.7,0,0,1,2.619-1.48,6.273,6.273,0,0,1,1.765-.683.536.536,0,0,0,.161-.027c.151.443.367,1,.653,1.678q.4,1.024,1.082,2.5a.943.943,0,0,1,.057.228.655.655,0,0,0,.113.171,7.411,7.411,0,0,0,.4.968q.171.4.342.74a20.641,20.641,0,0,0-2.163,2.619,10.319,10.319,0,0,0-1.253,2.22,5.972,5.972,0,0,0-.342,1.879,3.189,3.189,0,0,0,.228,1.2,4.214,4.214,0,0,0,2.106,2.22,1.281,1.281,0,0,0,.57.228,5.577,5.577,0,0,0,.8.057,4.883,4.883,0,0,0,.8-.057,1.762,1.762,0,0,0,.626-.228,4.965,4.965,0,0,0,1.138-1.025,5.947,5.947,0,0,0,.74-1.366,5.436,5.436,0,0,0,.171-1.424,13.713,13.713,0,0,0-.114-1.708q-.228-.683-.455-1.537t-.569-1.879l-.114-.342a1.268,1.268,0,0,0-.17-.4,29.538,29.538,0,0,1,2.847-2.391,33.4,33.4,0,0,1,3.188-2.163,19.7,19.7,0,0,1,2.618-1.48,6.275,6.275,0,0,1,1.765-.683.615.615,0,0,0,.342-.114.645.645,0,0,0,.228-.228l.114-.342a.8.8,0,0,0,.056-.342.709.709,0,0,0-.171-.285m-45.977.569a8.383,8.383,0,0,1,.171-.854,9.9,9.9,0,0,1,1.31-2.847,5.522,5.522,0,0,1,1.936-1.822,3.639,3.639,0,0,1,1.48-.513,1.719,1.719,0,0,1,1.139.285,1.85,1.85,0,0,0,.228.285,1.088,1.088,0,0,1,.057.342,2.329,2.329,0,0,1-.114.74q-.171.341-.456.8a10.471,10.471,0,0,1-2.277,2.164,19.6,19.6,0,0,1-3.644,2.22,6.046,6.046,0,0,1,.171-.8M164.33,84.8a2.305,2.305,0,0,1-1.082,1.367.43.43,0,0,0-.17.057h-.683a.23.23,0,0,1-.228-.114,2.439,2.439,0,0,1-1.309-1.31,2.749,2.749,0,0,1,.056-1.822,7.569,7.569,0,0,1,.911-1.708,23.1,23.1,0,0,1,1.708-1.993q.285.911.513,1.708t.341,1.424a5.487,5.487,0,0,1-.056,2.391m15.217,0a2.305,2.305,0,0,1-1.082,1.367.433.433,0,0,0-.171.057h-.683a.229.229,0,0,1-.227-.114,2.44,2.44,0,0,1-1.31-1.31,2.75,2.75,0,0,1,.057-1.822,7.564,7.564,0,0,1,.911-1.708,23.111,23.111,0,0,1,1.708-1.993q.284.911.512,1.708t.342,1.424a5.486,5.486,0,0,1-.057,2.391" transform="translate(-35.16 -15.31)" fill="#557496"/></g><g transform="matrix(1, 0, 0, 1, 2540, 2365.53)" filter="url(#m)"><path d="M46.007,99.11q.236-.094.518-.188.236-.095.424-.189a.6.6,0,0,0,.283-.141l.659-.189q.329-.141.612-.282a.573.573,0,0,0,.377-.33.423.423,0,0,0,.047-.189.763.763,0,0,0-.095-.329.972.972,0,0,0-.377-.471.425.425,0,0,0-.189-.047,1.407,1.407,0,0,0-.329.047,2.356,2.356,0,0,1-.565.283,5.607,5.607,0,0,0-.659.235,1.2,1.2,0,0,0-.283.141q-.188.047-.47.141l-.471.189a1.491,1.491,0,0,1-.471.189q-.236.094-.33.141l-.141.047q-.659.283-1.224.471-.517.235-.942.424-3.719,1.412-6.638,2.731-2.919,1.27-5.085,2.354a.95.95,0,0,0-.376.423v.189a.832.832,0,0,0,.094.376.559.559,0,0,0,.377.377.648.648,0,0,0,.565-.095q1.412-.753,3.013-1.459,1.6-.753,3.342-1.554-.424,1.883-.8,3.625-.377,1.7-.659,3.3a.273.273,0,0,0-.094.188v.33q-.236.989-.424,1.93t-.376,1.836q-.753,3.908-1.224,6.968-.471,3.106-.659,5.366a.592.592,0,0,0,.094.471.443.443,0,0,0,.33.235,1.263,1.263,0,0,0,.329.235h.141a.782.782,0,0,0,.235-.047,26.466,26.466,0,0,1,3.625-.612,30.7,30.7,0,0,1,3.813-.235.663.663,0,0,0,.283-.047,2.291,2.291,0,0,0,.235-.141.6.6,0,0,0,.141-.235.469.469,0,0,0,0-.565,2.4,2.4,0,0,0-.141-.235,1.815,1.815,0,0,1-.235-.094.383.383,0,0,0-.283-.095,28.484,28.484,0,0,0-3.719.236,27.484,27.484,0,0,0-3.342.564q.188-2.165.612-5.084.424-2.873,1.177-6.4l.283-1.695.377-1.789q.424,0,.989-.047a8.656,8.656,0,0,0,1.224-.094h.376a3.156,3.156,0,0,0,.518-.047q.471-.046.848-.094t.659-.094a.654.654,0,0,0,.283-.047,2.189,2.189,0,0,0,.235-.141,1.9,1.9,0,0,0,.095-.235.9.9,0,0,0,.047-.283.507.507,0,0,0-.094-.283,2.471,2.471,0,0,0-.141-.236,1.738,1.738,0,0,1-.235-.094.51.51,0,0,0-.283-.094q-.283.047-.706.094t-.895.094c-.219.032-.392.064-.518.095a1.373,1.373,0,0,1-.329.047q-.518.048-.989.047a7.228,7.228,0,0,1-.8.047q.377-1.694.754-3.484.424-1.836.847-3.766.8-.33,1.7-.706.847-.33,1.883-.754.423-.188.988-.377.565-.235,1.224-.47a1.767,1.767,0,0,1,.471-.189Z" transform="translate(-0.24 -28.1)" fill="#557496"/></g><g transform="matrix(1, 0, 0, 1, 2540, 2365.53)" filter="url(#o)"><path d="M88.651,120.87a2.386,2.386,0,0,0-.895-.612,4.227,4.227,0,0,0-1.13-.235h-.283a7.442,7.442,0,0,0-1.13.094,6.9,6.9,0,0,0-1.789.659A8.3,8.3,0,0,0,81.778,122a9.7,9.7,0,0,0-1.177,1.318,16.63,16.63,0,0,0-1.083,1.648,20.457,20.457,0,0,0-1.742,3.625A31.37,31.37,0,0,0,76.6,133.11a1.654,1.654,0,0,0-.141.423v.424q-.142-3.2-.047-6.308.141-3.059.565-6.026a.882.882,0,0,0-.047-.282l-.094-.189a.536.536,0,0,0-.189-.189.32.32,0,0,0-.235-.094h-.283a1.206,1.206,0,0,0-.283.141.312.312,0,0,0-.141.141.508.508,0,0,0-.094.283c-.258,1.771-.431,3.584-.537,5.43a.609.609,0,0,0-.355-.064.692.692,0,0,0-.424.329,11.36,11.36,0,0,1-2.26,2.731,6.411,6.411,0,0,1-2.448,1.365,4.783,4.783,0,0,1-2.213.047,5.687,5.687,0,0,1-2.212-1.036,8.606,8.606,0,0,1-1.413-1.224,10.124,10.124,0,0,1-1.318-1.648q.753-.894,1.6-1.789l1.836-1.836a.752.752,0,0,0,.189-.471.676.676,0,0,0-.236-.47.782.782,0,0,0-.517-.283.642.642,0,0,0-.471.283q-.848.8-1.648,1.648-.753.848-1.459,1.648a14.851,14.851,0,0,1-1.224-3.06,12.772,12.772,0,0,1-.518-3.248,263.926,263.926,0,0,1-.283-.471,2.145,2.145,0,0,0-.235-.141h-.283a.521.521,0,0,0-.235.047,1.467,1.467,0,0,0-.235.189.588.588,0,0,0-.141.235.3.3,0,0,0,0,.235,16.283,16.283,0,0,0,.612,3.766,17.861,17.861,0,0,0,1.554,3.578l-1.695,2.166q-.8,1.082-1.554,2.213a.709.709,0,0,0-.189.424v.094a.911.911,0,0,0,.377.47.544.544,0,0,0,.377.189h.141a.959.959,0,0,0,.424-.377q.658-.989,1.365-1.978.753-1.036,1.554-1.977a12.176,12.176,0,0,0,1.318,1.695,11.458,11.458,0,0,0,1.507,1.271,7.508,7.508,0,0,0,2.73,1.224,6.15,6.15,0,0,0,2.825-.094,7.33,7.33,0,0,0,2.966-1.554,12.316,12.316,0,0,0,2.107-2.335c-.022.711-.037,1.425-.037,2.146v.377a83.591,83.591,0,0,0,.753,10.309.415.415,0,0,0,.047.189.541.541,0,0,1,.094.141.857.857,0,0,0,.283.376.772.772,0,0,0,.424.095.521.521,0,0,0,.235-.047.6.6,0,0,0,.236-.141,1.569,1.569,0,0,0,.188-.235.888.888,0,0,0,.047-.283,29.828,29.828,0,0,1,.094-4.1,37.675,37.675,0,0,1,.612-4.143,10.173,10.173,0,0,1,.235-1.13,10.865,10.865,0,0,1,.329-1.083h.047a6,6,0,0,0,2.589,0,8.4,8.4,0,0,0,2.777-1.177,10.626,10.626,0,0,0,2.212-1.7,13.749,13.749,0,0,0,1.789-2.212,7.975,7.975,0,0,0,1.13-2.354,4.016,4.016,0,0,0,.188-1.177,3.087,3.087,0,0,0-.094-.754,1.7,1.7,0,0,0-.518-.894m-.942,2.637a7.889,7.889,0,0,1-.894,1.789,14.186,14.186,0,0,1-1.6,1.93,9.14,9.14,0,0,1-1.977,1.507,6.984,6.984,0,0,1-2.26.988,4.222,4.222,0,0,1-2.072.047,15.4,15.4,0,0,1,.8-2.213,13.4,13.4,0,0,1,1.036-1.883A11.732,11.732,0,0,1,83,122.8a5.14,5.14,0,0,1,2.448-1.271,6.382,6.382,0,0,1,1.036-.094,2.024,2.024,0,0,1,.8.141.443.443,0,0,1,.33.235.7.7,0,0,1,.188.33,2.627,2.627,0,0,1-.094,1.365" transform="translate(-12.05 -37.9)" fill="#557496"/></g><g transform="matrix(1, 0, 0, 1, 2540, 2365.53)" filter="url(#q)"><path d="M166.056,123.669a.533.533,0,0,0-.188-.188l-.189-.095a.881.881,0,0,0-.282-.047,8.747,8.747,0,0,0-1.695.612,24.915,24.915,0,0,0-2.354,1.319q-1.365.847-2.589,1.741a27.441,27.441,0,0,0-2.354,1.93l-.188-.471a3.02,3.02,0,0,1-.189-.518.307.307,0,0,1-.141-.141.271.271,0,0,1-.047-.189q-.518-1.176-.895-2.024-.329-.895-.518-1.413a12.5,12.5,0,0,1-.565-1.6,5.537,5.537,0,0,1-.189-1.318,3.084,3.084,0,0,1,.047-.942,1.438,1.438,0,0,1,.376-.753,2.153,2.153,0,0,1,.8-.47,6.382,6.382,0,0,1,1.271-.189,2.24,2.24,0,0,1,1.318.377,8.447,8.447,0,0,1,1.6,1.365.676.676,0,0,0,.471.235,1.159,1.159,0,0,0,.518-.188.677.677,0,0,0,.235-.471,1.01,1.01,0,0,0-.189-.565,9.606,9.606,0,0,0-.894-.8,9.149,9.149,0,0,0-.753-.612,4.482,4.482,0,0,0-1.224-.612,3.267,3.267,0,0,0-.942-.141h-.188a4.593,4.593,0,0,0-3.013,1.083,3.521,3.521,0,0,0-.8,2.825,5.207,5.207,0,0,0,.235,1.459c.05.209.116.436.185.665-.306.106-.647.243-1.031.418a24.988,24.988,0,0,0-2.354,1.319q-1.366.847-2.589,1.741a27.543,27.543,0,0,0-2.354,1.93l-.188-.471a3.119,3.119,0,0,1-.189-.518.3.3,0,0,1-.141-.141.271.271,0,0,1-.047-.189q-.518-1.176-.894-2.024-.33-.895-.518-1.413a12.394,12.394,0,0,1-.564-1.6,5.535,5.535,0,0,1-.189-1.318,3.049,3.049,0,0,1,.047-.942,1.429,1.429,0,0,1,.377-.753,2.143,2.143,0,0,1,.8-.47,6.37,6.37,0,0,1,1.271-.189,2.241,2.241,0,0,1,1.319.377,8.43,8.43,0,0,1,1.6,1.365.676.676,0,0,0,.471.235,1.157,1.157,0,0,0,.518-.188.677.677,0,0,0,.235-.471,1.014,1.014,0,0,0-.188-.565,9.692,9.692,0,0,0-.895-.8,8.971,8.971,0,0,0-.753-.612,4.482,4.482,0,0,0-1.224-.612,3.265,3.265,0,0,0-.942-.141h-.188a4.6,4.6,0,0,0-3.013,1.083,3.523,3.523,0,0,0-.8,2.825,5.211,5.211,0,0,0,.236,1.459c.034.146.084.308.128.463a4.315,4.315,0,0,1-.269.384,4.381,4.381,0,0,0-.471.565,66.2,66.2,0,0,1-.189.283q-.565.706-.989,1.224t-.706.847q-.518.518-.989.942a7.476,7.476,0,0,1-.988.753,8.788,8.788,0,0,1-1.648.8,4.888,4.888,0,0,1-1.554.377,3.92,3.92,0,0,1-1.365-.047,3.249,3.249,0,0,1-1.082-.565,3.716,3.716,0,0,1-.942-1.036,5.293,5.293,0,0,1-.471-1.506,25.066,25.066,0,0,0,3.766-2.166,9.306,9.306,0,0,0,2.307-2.26,3.327,3.327,0,0,0,.565-1.036,3.009,3.009,0,0,0,.188-1.035,1.813,1.813,0,0,0-.235-.894,1.869,1.869,0,0,0-.565-.66,2.177,2.177,0,0,0-.8-.424,2.969,2.969,0,0,0-.942-.141,3.763,3.763,0,0,0-.988.141,7.6,7.6,0,0,0-1.036.471,6.428,6.428,0,0,0-1.977,1.836,9.735,9.735,0,0,0-1.271,2.824,8.419,8.419,0,0,0-.33,1.836c-.03.3-.043.575-.044.844a42.009,42.009,0,0,1-2.873,3.157,9.631,9.631,0,0,1-2.213,1.742,1.471,1.471,0,0,0-.283.094.42.42,0,0,1-.188.047v-.095a.135.135,0,0,1-.047-.094,1.381,1.381,0,0,0-.047-.33v-.376a17.543,17.543,0,0,1,.753-3.907q.753-2.5,2.166-6.073a.613.613,0,0,0,.047-.518.992.992,0,0,0-.423-.377.425.425,0,0,1-.189-.047h-.188a.832.832,0,0,0-.377.094.418.418,0,0,0-.282.236,24.275,24.275,0,0,1-2.4,3.013q-.659.612-1.225,1.083a3.989,3.989,0,0,1-1.083.564,1.246,1.246,0,0,1-.8.095,1.126,1.126,0,0,1-.565-.377,3.372,3.372,0,0,1-.565-1.46,13.377,13.377,0,0,1-.189-2.448.318.318,0,0,0-.094-.235,1.867,1.867,0,0,0-.094-.235.6.6,0,0,1-.236-.141.866.866,0,0,0-.564,0,2.522,2.522,0,0,1-.236.141.583.583,0,0,0-.141.235.521.521,0,0,0-.047.235,15.671,15.671,0,0,0,.235,2.919,5.31,5.31,0,0,0,.753,1.836,2.443,2.443,0,0,0,1.319.895,2.5,2.5,0,0,0,1.695-.141,6.3,6.3,0,0,0,1.413-.754,11.379,11.379,0,0,0,1.506-1.365q-.141.517-.47,1.554-.518,1.742-.8,3.013a10.1,10.1,0,0,0-.283,2.118,5.877,5.877,0,0,0,.094,1.13,1.769,1.769,0,0,0,.424.754,1.3,1.3,0,0,0,.848.47h.094a2.339,2.339,0,0,0,1.036-.283,10.492,10.492,0,0,0,2.5-1.93q.994-.964,2.237-2.381a4.187,4.187,0,0,0,.116.4,3.924,3.924,0,0,0,.659,1.177,5.065,5.065,0,0,0,.942.895,4.887,4.887,0,0,0,1.13.612,5.061,5.061,0,0,0,1.318.33h.424a6.631,6.631,0,0,0,1.083-.094,9.027,9.027,0,0,0,1.6-.471,9.531,9.531,0,0,0,1.648-.894,8.41,8.41,0,0,0,1.177-.848,8.742,8.742,0,0,0,1.083-1.083q.33-.329.8-.895.423-.518.988-1.271a1.1,1.1,0,0,0,.188-.282c.067-.078.124-.146.183-.216.12.334.277.733.476,1.2q.329.847.894,2.071a.777.777,0,0,1,.047.189.549.549,0,0,0,.094.141,6.153,6.153,0,0,0,.33.8q.141.33.283.612a17.086,17.086,0,0,0-1.789,2.166,8.55,8.55,0,0,0-1.036,1.835,4.945,4.945,0,0,0-.282,1.554,2.63,2.63,0,0,0,.189.989,3.486,3.486,0,0,0,1.741,1.836,1.059,1.059,0,0,0,.471.189,4.71,4.71,0,0,0,.659.047,4.1,4.1,0,0,0,.659-.047,1.453,1.453,0,0,0,.518-.189,4.124,4.124,0,0,0,.942-.848,4.9,4.9,0,0,0,.612-1.13,4.49,4.49,0,0,0,.141-1.177,11.376,11.376,0,0,0-.095-1.412q-.187-.566-.376-1.271t-.47-1.554l-.095-.283a1.027,1.027,0,0,0-.141-.329,24.373,24.373,0,0,1,2.354-1.978,27.6,27.6,0,0,1,2.636-1.789,16.244,16.244,0,0,1,2.166-1.224,6.747,6.747,0,0,1,1.057-.461c.122.346.286.763.5,1.261q.33.847.895,2.071a.805.805,0,0,1,.047.189.521.521,0,0,0,.094.141,6.156,6.156,0,0,0,.329.8q.142.33.283.612a17.03,17.03,0,0,0-1.789,2.166,8.575,8.575,0,0,0-1.036,1.835,4.957,4.957,0,0,0-.282,1.554,2.64,2.64,0,0,0,.188.989,3.487,3.487,0,0,0,1.742,1.836,1.059,1.059,0,0,0,.471.189,4.709,4.709,0,0,0,.659.047,4.1,4.1,0,0,0,.659-.047,1.457,1.457,0,0,0,.518-.189,4.125,4.125,0,0,0,.942-.848,4.916,4.916,0,0,0,.612-1.13,4.464,4.464,0,0,0,.141-1.177,11.367,11.367,0,0,0-.094-1.412q-.188-.566-.377-1.271t-.471-1.554l-.094-.283a1.04,1.04,0,0,0-.141-.329,24.372,24.372,0,0,1,2.354-1.978,27.522,27.522,0,0,1,2.636-1.789,16.241,16.241,0,0,1,2.166-1.224,5.179,5.179,0,0,1,1.459-.565.508.508,0,0,0,.283-.094.531.531,0,0,0,.188-.189l.094-.283a.651.651,0,0,0,.047-.283.588.588,0,0,0-.141-.235m-36.859.471a6.8,6.8,0,0,1,.141-.706,8.2,8.2,0,0,1,1.083-2.354,4.563,4.563,0,0,1,1.6-1.506,2.993,2.993,0,0,1,1.224-.424,1.419,1.419,0,0,1,.942.235,1.539,1.539,0,0,0,.188.236.883.883,0,0,1,.047.283,1.913,1.913,0,0,1-.095.611q-.141.283-.376.659a8.658,8.658,0,0,1-1.884,1.789,16.214,16.214,0,0,1-3.013,1.836,4.9,4.9,0,0,1,.141-.659m15.393,11.816a1.9,1.9,0,0,1-.894,1.13.358.358,0,0,0-.141.047h-.565a.189.189,0,0,1-.188-.094,2.018,2.018,0,0,1-1.083-1.083,2.276,2.276,0,0,1,.047-1.507,6.246,6.246,0,0,1,.754-1.412,19.161,19.161,0,0,1,1.412-1.647q.236.752.424,1.412t.283,1.177a4.535,4.535,0,0,1-.047,1.977m12,0a1.906,1.906,0,0,1-.894,1.13.358.358,0,0,0-.141.047h-.565a.19.19,0,0,1-.189-.094,2.018,2.018,0,0,1-1.083-1.083,2.276,2.276,0,0,1,.047-1.507,6.263,6.263,0,0,1,.753-1.412,19.077,19.077,0,0,1,1.413-1.647q.235.752.424,1.412t.282,1.177a4.528,4.528,0,0,1-.047,1.977" transform="translate(-37.39 -37.17)" fill="#557496"/></g></g><g transform="translate(12 9.435)"><g transform="matrix(1, 0, 0, 1, 10, 25.14)" filter="url(#s)"><path d="M17.717,17.166l-1.169-.284-.426-.1L14.557,16.4h0l-.422-.1-1.462-.351-.427-.1-1.46-.354-.427-.1-1.251-.3h0l-.423-.1h0l-1.344-.324-.423-.1h0L5.56,14.232l-.418-.1h0L3.79,13.806l-.418-.1-1.348-.326h0l-.421-.1L.588,13.034a.825.825,0,0,1-.26-.115.685.685,0,0,1-.2-.21.714.714,0,0,1-.11-.539l.078-.41.058-.331.2-1.062.063-.332.2-1.062.061-.329v0l.2-1.059.061-.337.2-1.058.063-.332.2-1.062.061-.329v0L1.633,3.4,1.7,3.067l.2-1.092.059-.334L2.136.7,2.153.6A.711.711,0,0,1,2.281.328.766.766,0,0,1,2.966,0a.6.6,0,0,1,.119.015l.326.076L4.64.37l.428.1L6.48.791l.43.1L8.28,1.2l.428.1,1.376.312.428.1,1.376.312h0l.293.067.135.031h0l1.364.31h0l.433.1,7.03,1.6a.773.773,0,0,1,.588.921l0,.011L18.588,16.657a.7.7,0,0,1-.852.514Z" transform="translate(108.28 22.29) rotate(-2)" fill="#fff89b" stroke="#4e6f96" stroke-width="1.2"/></g><path d="M123.53,50.8l5.59,6.1,8.726-3.464" transform="translate(-0.835 -0.658)" fill="none" stroke="#4e6f96" stroke-linecap="round" stroke-width="1.2"/></g></g></g></svg>