<svg xmlns="http://www.w3.org/2000/svg" xmlns:xlink="http://www.w3.org/1999/xlink" width="105.105" height="70.035" viewBox="0 0 105.105 70.035"><defs><filter id="a" x="8.605" y="14.533" width="96.5" height="55.501" filterUnits="userSpaceOnUse"><feOffset dy="3" input="SourceAlpha"/><feGaussianBlur stdDeviation="3" result="b"/><feFlood flood-opacity="0.078"/><feComposite operator="in" in2="b"/><feComposite in="SourceGraphic"/></filter><filter id="c" x="0" y="14.533" width="103.83" height="48.811" filterUnits="userSpaceOnUse"><feOffset dy="3" input="SourceAlpha"/><feGaussianBlur stdDeviation="3" result="d"/><feFlood flood-opacity="0.078"/><feComposite operator="in" in2="d"/><feComposite in="SourceGraphic"/></filter><filter id="e" x="10.42" y="0" width="90.847" height="45.151" filterUnits="userSpaceOnUse"><feOffset dy="3" input="SourceAlpha"/><feGaussianBlur stdDeviation="3" result="f"/><feFlood flood-opacity="0.078"/><feComposite operator="in" in2="f"/><feComposite in="SourceGraphic"/></filter><filter id="g" x="11.665" y="7.857" width="89.778" height="38.402" filterUnits="userSpaceOnUse"><feOffset dy="3" input="SourceAlpha"/><feGaussianBlur stdDeviation="3" result="h"/><feFlood flood-opacity="0.078"/><feComposite operator="in" in2="h"/><feComposite in="SourceGraphic"/></filter></defs><g transform="matrix(0.995, 0.105, -0.105, 0.995, -256.956, -543.1)"><g transform="matrix(0.99, -0.1, 0.1, 0.99, 312.32, 513.27)" filter="url(#a)"><path d="M63.516,0,73.855,22.244,0,24.534Z" transform="translate(95.25 45.62) rotate(171)" fill="#a4d6e6" stroke="#547394" stroke-linecap="round" stroke-linejoin="round" stroke-miterlimit="10" stroke-width="1.5"/></g><g transform="matrix(0.99, -0.1, 0.1, 0.99, 312.32, 513.27)" filter="url(#c)"><path d="M82.568,0,0,16.38l73.855-2.29Z" transform="translate(93.97 37.57) rotate(171)" fill="#f8f8f8" stroke="#547394" stroke-linecap="round" stroke-linejoin="round" stroke-miterlimit="10" stroke-width="1.5"/></g><g transform="matrix(0.99, -0.1, 0.1, 0.99, 312.32, 513.27)" filter="url(#e)"><path d="M69.687,6.76,54.573,14.714,0,0Z" transform="translate(91.41 21.39) rotate(171)" fill="#f8f8f8" stroke="#547394" stroke-linecap="round" stroke-linejoin="round" stroke-miterlimit="10" stroke-width="1.5"/></g><g transform="matrix(0.99, -0.1, 0.1, 0.99, 312.32, 513.27)" filter="url(#g)"><path d="M69.687,7.882,65.7,0,0,1.122Z" transform="translate(91.58 22.5) rotate(171)" fill="#a4d6e6" stroke="#547394" stroke-linecap="round" stroke-linejoin="round" stroke-miterlimit="10" stroke-width="1.5"/></g></g></svg>