<svg xmlns="http://www.w3.org/2000/svg" xmlns:xlink="http://www.w3.org/1999/xlink" width="145.214" height="65.87" viewBox="0 0 145.214 65.87">
    <defs>
        <filter id="a" x="0" y="0" width="145.214" height="65.87" filterUnits="userSpaceOnUse">
            <feOffset dy="3" input="SourceAlpha"/>
            <feGaussianBlur stdDeviation="3" result="b"/>
            <feFlood flood-color="#b49e59" flood-opacity="0.161"/>
            <feComposite operator="in" in2="b"/>
            <feComposite in="SourceGraphic"/>
        </filter>
    </defs>
    <g transform="translate(-108.537 -655.25)">
        <g transform="matrix(1, 0, 0, 1, 108.54, 655.25)" filter="url(#a)">
            <path d="M-1559.939,45.819c3.581-.609,5.981-4.661,7.307-7.723a9.981,9.981,0,0,1-3.674-7.745V10a10,10,0,0,1,10-10h101a10,10,0,0,1,10,10V30.351a10,10,0,0,1-10,10h-99.6c-4.7,4.845-12.052,6.02-14.908,6.019C-1561.206,46.37-1561.527,46.089-1559.939,45.819Z" transform="translate(1570.77 6.75)" fill="#fff89b" stroke="#547394" stroke-width="1.5" stroke-dasharray="5" opacity="0.921"/>
        </g>
        <path d="M-32.04-12.9v1.467h-4.167V0h-1.746V-11.43h-4.185V-12.9ZM-26.01,0h-.711A.849.849,0,0,1-27.1-.072a.4.4,0,0,1-.189-.306l-.18-.846q-.36.324-.7.581a4.018,4.018,0,0,1-.72.432A3.731,3.731,0,0,1-29.7.054a4.62,4.62,0,0,1-.95.09A3.241,3.241,0,0,1-31.64,0a2.267,2.267,0,0,1-.806-.446A2.121,2.121,0,0,1-32.99-1.2a2.626,2.626,0,0,1-.2-1.076,2.006,2.006,0,0,1,.3-1.039,2.61,2.61,0,0,1,.958-.887A6.244,6.244,0,0,1-30.2-4.838a13.2,13.2,0,0,1,2.619-.284v-.711a2.454,2.454,0,0,0-.455-1.607,1.653,1.653,0,0,0-1.345-.545,2.852,2.852,0,0,0-.986.148,3.73,3.73,0,0,0-.693.333q-.293.184-.5.333a.727.727,0,0,1-.418.149.48.48,0,0,1-.284-.086.651.651,0,0,1-.194-.212l-.288-.513a5.206,5.206,0,0,1,1.629-1.089,5.03,5.03,0,0,1,1.935-.36,3.453,3.453,0,0,1,1.359.252,2.787,2.787,0,0,1,1,.7,2.973,2.973,0,0,1,.612,1.089,4.535,4.535,0,0,1,.207,1.4Zm-4.158-.981a3.27,3.27,0,0,0,.774-.086,3.055,3.055,0,0,0,.662-.243,3.506,3.506,0,0,0,.594-.382,5.146,5.146,0,0,0,.553-.513V-4.1a13.239,13.239,0,0,0-1.881.175,5.276,5.276,0,0,0-1.26.365,1.755,1.755,0,0,0-.707.531,1.142,1.142,0,0,0-.22.684,1.509,1.509,0,0,0,.117.621,1.177,1.177,0,0,0,.315.428,1.243,1.243,0,0,0,.468.243A2.139,2.139,0,0,0-30.168-.981Zm6.588,4.068v-12.2h.954a.408.408,0,0,1,.432.333l.135,1.08a4.867,4.867,0,0,1,1.336-1.143,3.414,3.414,0,0,1,1.733-.432,3.291,3.291,0,0,1,1.422.3,2.932,2.932,0,0,1,1.089.891,4.273,4.273,0,0,1,.693,1.463,7.506,7.506,0,0,1,.243,2.007,6.291,6.291,0,0,1-.27,1.876,4.57,4.57,0,0,1-.774,1.5,3.614,3.614,0,0,1-1.238,1,3.661,3.661,0,0,1-1.651.365,3.4,3.4,0,0,1-1.445-.279,3.255,3.255,0,0,1-1.057-.792V3.087Zm4.059-11.07a2.581,2.581,0,0,0-1.372.36,3.956,3.956,0,0,0-1.084,1.017V-2.2a2.576,2.576,0,0,0,.967.837,2.77,2.77,0,0,0,1.175.243,2.3,2.3,0,0,0,1.953-.909A4.246,4.246,0,0,0-17.2-4.617a6.468,6.468,0,0,0-.157-1.53A2.992,2.992,0,0,0-17.811-7.2a1.768,1.768,0,0,0-.729-.6A2.425,2.425,0,0,0-19.521-7.983ZM-6.48-9.261a4.683,4.683,0,0,1,1.8.333,3.8,3.8,0,0,1,1.368.945A4.184,4.184,0,0,1-2.444-6.5a5.887,5.887,0,0,1,.3,1.939,5.876,5.876,0,0,1-.3,1.944,4.19,4.19,0,0,1-.864,1.476A3.757,3.757,0,0,1-4.676-.2a4.739,4.739,0,0,1-1.8.329A4.739,4.739,0,0,1-8.285-.2a3.8,3.8,0,0,1-1.373-.94,4.208,4.208,0,0,1-.873-1.476,5.8,5.8,0,0,1-.306-1.944A5.808,5.808,0,0,1-10.53-6.5a4.2,4.2,0,0,1,.873-1.481,3.848,3.848,0,0,1,1.373-.945A4.683,4.683,0,0,1-6.48-9.261Zm0,8.136a2.34,2.34,0,0,0,2.016-.9A4.188,4.188,0,0,0-3.8-4.554a4.226,4.226,0,0,0-.666-2.538A2.336,2.336,0,0,0-6.48-8a2.8,2.8,0,0,0-1.188.234,2.224,2.224,0,0,0-.841.675,3,3,0,0,0-.5,1.084A5.813,5.813,0,0,0-9.18-4.554a5.759,5.759,0,0,0,.167,1.449,2.953,2.953,0,0,0,.5,1.076,2.241,2.241,0,0,0,.841.671A2.8,2.8,0,0,0-6.48-1.125ZM-.162,0V-9.117H.792a.408.408,0,0,1,.432.333l.126.99A5.124,5.124,0,0,1,2.677-8.856a3.453,3.453,0,0,1,1.7-.405,3.292,3.292,0,0,1,1.319.248,2.551,2.551,0,0,1,.954.7,3.1,3.1,0,0,1,.581,1.093,4.759,4.759,0,0,1,.2,1.413V0h-1.6V-5.8A2.454,2.454,0,0,0,5.35-7.411a1.766,1.766,0,0,0-1.444-.572,2.693,2.693,0,0,0-1.327.342,4.372,4.372,0,0,0-1.139.927V0ZM13.32,0V-9.117h.954a.408.408,0,0,1,.432.333l.117.936a4.677,4.677,0,0,1,1.13-1.017,2.659,2.659,0,0,1,1.453-.4,2.158,2.158,0,0,1,1.5.513,2.886,2.886,0,0,1,.823,1.386,2.853,2.853,0,0,1,.5-.855,2.9,2.9,0,0,1,.7-.594,2.954,2.954,0,0,1,.824-.342,3.677,3.677,0,0,1,.886-.108,3.371,3.371,0,0,1,1.282.23,2.539,2.539,0,0,1,.954.67,2.987,2.987,0,0,1,.6,1.085A4.8,4.8,0,0,1,25.677-5.8V0h-1.6V-5.8a2.457,2.457,0,0,0-.468-1.625,1.68,1.68,0,0,0-1.359-.554,2.039,2.039,0,0,0-.752.14,1.811,1.811,0,0,0-.625.41,1.92,1.92,0,0,0-.427.679,2.635,2.635,0,0,0-.158.95V0h-1.6V-5.8a2.554,2.554,0,0,0-.441-1.638,1.565,1.565,0,0,0-1.287-.54,2.034,2.034,0,0,0-1.1.32,3.609,3.609,0,0,0-.931.868V0ZM31.707-9.261a4.07,4.07,0,0,1,1.512.275,3.394,3.394,0,0,1,1.2.792A3.611,3.611,0,0,1,35.2-6.916a4.937,4.937,0,0,1,.284,1.732,1.045,1.045,0,0,1-.081.5.336.336,0,0,1-.306.126H29.034a5.033,5.033,0,0,0,.234,1.5,3.073,3.073,0,0,0,.594,1.066,2.38,2.38,0,0,0,.9.639,3.091,3.091,0,0,0,1.17.211,3.432,3.432,0,0,0,1.039-.139,4.946,4.946,0,0,0,.751-.3,5.732,5.732,0,0,0,.527-.3.7.7,0,0,1,.364-.14.353.353,0,0,1,.306.153l.45.585a3.043,3.043,0,0,1-.711.626,4.427,4.427,0,0,1-.887.436A5.631,5.631,0,0,1,32.8.041a5.964,5.964,0,0,1-1,.086,4.636,4.636,0,0,1-1.742-.32,3.822,3.822,0,0,1-1.377-.936,4.294,4.294,0,0,1-.9-1.526,6.2,6.2,0,0,1-.324-2.088,5.312,5.312,0,0,1,.292-1.782,4.2,4.2,0,0,1,.841-1.436,3.874,3.874,0,0,1,1.341-.954A4.4,4.4,0,0,1,31.707-9.261Zm.036,1.179a2.459,2.459,0,0,0-1.827.67,3.156,3.156,0,0,0-.828,1.859h4.959a3.244,3.244,0,0,0-.153-1.022,2.276,2.276,0,0,0-.45-.8A2.014,2.014,0,0,0,32.72-7.9,2.443,2.443,0,0,0,31.743-8.082ZM40.086-12.9v5.148q0,.4-.014.792t-.041.778q-.027.392-.067.8T39.87-4.5H38.781q-.054-.468-.094-.878t-.068-.8q-.027-.392-.041-.778t-.014-.792V-12.9ZM38.178-.99a1.144,1.144,0,0,1,.085-.441,1.131,1.131,0,0,1,.234-.36,1.1,1.1,0,0,1,.355-.243,1.094,1.094,0,0,1,.441-.09,1.094,1.094,0,0,1,.441.09,1.154,1.154,0,0,1,.36.243,1.094,1.094,0,0,1,.238.36,1.144,1.144,0,0,1,.085.441,1.134,1.134,0,0,1-.085.446,1.106,1.106,0,0,1-.238.355,1.094,1.094,0,0,1-.36.238,1.144,1.144,0,0,1-.441.085,1.144,1.144,0,0,1-.441-.085A1.045,1.045,0,0,1,38.5-.189a1.144,1.144,0,0,1-.234-.355A1.134,1.134,0,0,1,38.178-.99Z" transform="translate(184 688)" fill="#547394"/>
    </g>
</svg>