<svg xmlns="http://www.w3.org/2000/svg" xmlns:xlink="http://www.w3.org/1999/xlink" width="145.214" height="65.87" viewBox="0 0 145.214 65.87">
	<defs>
		<filter id="Union_6" x="0" y="0" width="145.214" height="65.87" filterUnits="userSpaceOnUse">
			<feOffset dy="3" input="SourceAlpha" />
			<feGaussianBlur stdDeviation="3" result="blur" />
			<feFlood flood-color="#b49e59" flood-opacity="0.161" />
			<feComposite operator="in" in2="blur" />
			<feComposite in="SourceGraphic" />
		</filter>
	</defs>
	<g id="Group_83" data-name="Group 83" transform="translate(-108.537 -655.25)">
		<g transform="matrix(1, 0, 0, 1, 108.54, 655.25)" filter="url(#Union_6)">
			<path id="Union_6-2" data-name="Union 6" d="M-1559.939,45.819c3.581-.609,5.981-4.661,7.307-7.723a9.981,9.981,0,0,1-3.674-7.745V10a10,10,0,0,1,10-10h101a10,10,0,0,1,10,10V30.351a10,10,0,0,1-10,10h-99.6c-4.7,4.845-12.052,6.02-14.908,6.019C-1561.206,46.37-1561.527,46.089-1559.939,45.819Z" transform="translate(1570.77 6.75)" fill="#fff89b" stroke="#547394" stroke-width="1.5" stroke-dasharray="5" opacity="0.921" />
		</g>
		<text id="Tap_on_me_" data-name="Tap on me!" transform="translate(184 688)" fill="#547394" font-size="18" font-family="Lato">
			<tspan x="-42.39" y="0">
				Tap on me!
			</tspan>
		</text>
	</g>
</svg>
