<svg xmlns="http://www.w3.org/2000/svg" xmlns:xlink="http://www.w3.org/1999/xlink" width="169.561" height="108.323" viewBox="0 0 169.561 108.323">
  <defs>
    <linearGradient id="linear-gradient" x1="0.5" x2="0.5" y2="1" gradientUnits="objectBoundingBox">
      <stop offset="0" stop-color="#f2f7ff"/>
      <stop offset="0.099" stop-color="#f0f9fc"/>
      <stop offset="0.744" stop-color="#f7f7f7"/>
      <stop offset="1" stop-color="#f6f5ff"/>
    </linearGradient>
    <filter id="Union_17" x="45.561" y="31.413" width="55.366" height="53.587" filterUnits="userSpaceOnUse">
      <feOffset dy="3" input="SourceAlpha"/>
      <feGaussianBlur stdDeviation="3" result="blur"/>
      <feFlood flood-opacity="0.149"/>
      <feComposite operator="in" in2="blur"/>
      <feComposite in="SourceGraphic"/>
    </filter>
    <filter id="Union_18" x="61.575" y="24.296" width="55.366" height="53.587" filterUnits="userSpaceOnUse">
      <feOffset dy="3" input="SourceAlpha"/>
      <feGaussianBlur stdDeviation="3" result="blur-2"/>
      <feFlood flood-opacity="0.149"/>
      <feComposite operator="in" in2="blur-2"/>
      <feComposite in="SourceGraphic"/>
    </filter>
    <filter id="Path_1123" x="94.415" y="12.615" width="38.691" height="37.791" filterUnits="userSpaceOnUse">
      <feOffset dy="3" input="SourceAlpha"/>
      <feGaussianBlur stdDeviation="3" result="blur-3"/>
      <feFlood flood-opacity="0.149"/>
      <feComposite operator="in" in2="blur-3"/>
      <feComposite in="SourceGraphic"/>
    </filter>
  </defs>
  <g id="Group_385" data-name="Group 385" transform="translate(38.561 -37.297)">
    <path id="Union_34" data-name="Union 34" d="M-12374.561-2132.862a4.234,4.234,0,0,1,4.282-4.185,4.233,4.233,0,0,1,4.279,4.185,4.231,4.231,0,0,1-4.279,4.185A4.232,4.232,0,0,1-12374.561-2132.862Zm-72.013-23.2c-11.446-4.1-19.427-13.331-19.427-24.059a22.489,22.489,0,0,1,4.624-13.5,19.266,19.266,0,0,1-2.442-9.353c0-12.07,11.422-21.891,25.643-22.178,5.973-7.15,16.1-11.853,27.588-11.853a38.476,38.476,0,0,1,20.24,5.543,31.155,31.155,0,0,1,12.568-2.59c14.789,0,26.779,9.934,26.779,22.188a18.6,18.6,0,0,1-.554,4.51c4.117,3.693,6.554,8.269,6.554,13.223a16.2,16.2,0,0,1-3.03,9.262,28.084,28.084,0,0,1,1.03,7.565c0,13.1-8.954,24.037-20.878,26.613-3.271,7.427-11.4,12.687-20.907,12.687a23.988,23.988,0,0,1-15.035-5.141,29.535,29.535,0,0,1-17.162,5.25C-12434.159-2137.89-12445.026-2145.824-12446.573-2156.061Zm109.012-50.8a4.237,4.237,0,0,1,4.282-4.188,4.233,4.233,0,0,1,4.279,4.188,4.233,4.233,0,0,1-4.279,4.185A4.236,4.236,0,0,1-12337.562-2206.86Zm-153-3.5a5.735,5.735,0,0,1,5.78-5.686,5.735,5.735,0,0,1,5.781,5.686,5.735,5.735,0,0,1-5.781,5.686A5.735,5.735,0,0,1-12490.561-2210.361Zm158-12a5.731,5.731,0,0,1,5.776-5.686,5.733,5.733,0,0,1,5.781,5.686,5.733,5.733,0,0,1-5.781,5.687A5.731,5.731,0,0,1-12332.558-2222.361Zm-139-8a3.735,3.735,0,0,1,3.78-3.686,3.735,3.735,0,0,1,3.78,3.686,3.735,3.735,0,0,1-3.78,3.687A3.735,3.735,0,0,1-12471.561-2230.361Z" transform="translate(12452 2274.297)" fill="url(#linear-gradient)"/>
    <path id="Path_1289" data-name="Path 1289" d="M2011.028,2821.645" transform="translate(-1980.686 -2776.572)" fill="none" stroke="#707070" stroke-width="1"/>
    <g id="Group_692" data-name="Group 692" transform="translate(16 61.673)">
      <g transform="matrix(1, 0, 0, 1, -54.56, -24.38)" filter="url(#Union_17)">
        <g id="Union_17-2" data-name="Union 17" transform="translate(54.56 37.41)" fill="#abdaea">
          <path d="M 36.61641311645508 34.83705902099609 L 7.326274871826172 34.83705902099609 L 6.297154426574707 34.83705902099609 L 6.297154426574707 17.79352951049805 L 6.297154426574707 17.04352951049805 L 5.547154426574707 17.04352951049805 L 1.278254389762878 17.04352951049805 L 9.942914962768555 1.537515997886658 L 18.60758399963379 17.04352951049805 L 14.33868503570557 17.04352951049805 L 13.58868503570557 17.04352951049805 L 13.58868503570557 17.79352951049805 L 13.58868503570557 26.79518890380859 L 13.58868503570557 27.54518890380859 L 14.33868503570557 27.54518890380859 L 36.61641311645508 27.54518890380859 L 36.61641311645508 34.83705902099609 Z" stroke="none"/>
          <path d="M 35.86641311645508 34.08705902099609 L 35.86641311645508 28.29518890380859 L 14.33868503570557 28.29518890380859 L 12.83868503570557 28.29518890380859 L 12.83868503570557 26.79518890380859 L 12.83868503570557 17.79352951049805 L 12.83868503570557 16.29352951049805 L 14.33868503570557 16.29352951049805 L 17.32934379577637 16.29352951049805 L 9.942914962768555 3.075014591217041 L 2.556494235992432 16.29352951049805 L 5.547154426574707 16.29352951049805 L 7.047154426574707 16.29352951049805 L 7.047154426574707 17.79352951049805 L 7.047154426574707 34.08705902099609 L 7.326274871826172 34.08705902099609 L 35.86641311645508 34.08705902099609 M 37.36641311645508 35.58705902099609 L 7.326274871826172 35.58705902099609 L 5.547154426574707 35.58705902099609 L 5.547154426574707 17.79352951049805 L 4.650878963730065e-06 17.79352951049805 L 9.942914962768555 -4.895019287687319e-07 L 19.88583374023438 17.79352951049805 L 14.33868503570557 17.79352951049805 L 14.33868503570557 26.79518890380859 L 37.36641311645508 26.79518890380859 L 37.36641311645508 35.58705902099609 Z" stroke="none" fill="#547394"/>
        </g>
      </g>
      <g transform="matrix(1, 0, 0, 1, -54.56, -24.38)" filter="url(#Union_18)">
        <g id="Union_18-2" data-name="Union 18" transform="translate(107.94 65.88) rotate(180)" fill="#abdaea">
          <path d="M 36.61641311645508 34.83705902099609 L 7.326274871826172 34.83705902099609 L 6.297154426574707 34.83705902099609 L 6.297154426574707 17.79352951049805 L 6.297154426574707 17.04352951049805 L 5.547154426574707 17.04352951049805 L 1.278254389762878 17.04352951049805 L 9.942914962768555 1.537515997886658 L 18.60758399963379 17.04352951049805 L 14.33868503570557 17.04352951049805 L 13.58868503570557 17.04352951049805 L 13.58868503570557 17.79352951049805 L 13.58868503570557 26.79518890380859 L 13.58868503570557 27.54518890380859 L 14.33868503570557 27.54518890380859 L 36.61641311645508 27.54518890380859 L 36.61641311645508 34.83705902099609 Z" stroke="none"/>
          <path d="M 35.86641311645508 34.08705902099609 L 35.86641311645508 28.29518890380859 L 14.33868503570557 28.29518890380859 L 12.83868503570557 28.29518890380859 L 12.83868503570557 26.79518890380859 L 12.83868503570557 17.79352951049805 L 12.83868503570557 16.29352951049805 L 14.33868503570557 16.29352951049805 L 17.32934379577637 16.29352951049805 L 9.942914962768555 3.075014591217041 L 2.556494235992432 16.29352951049805 L 5.547154426574707 16.29352951049805 L 7.047154426574707 16.29352951049805 L 7.047154426574707 17.79352951049805 L 7.047154426574707 34.08705902099609 L 7.326274871826172 34.08705902099609 L 35.86641311645508 34.08705902099609 M 37.36641311645508 35.58705902099609 L 7.326274871826172 35.58705902099609 L 5.547154426574707 35.58705902099609 L 5.547154426574707 17.79352951049805 L 4.650878963730065e-06 17.79352951049805 L 9.942914962768555 -4.895019287687319e-07 L 19.88583374023438 17.79352951049805 L 14.33868503570557 17.79352951049805 L 14.33868503570557 26.79518890380859 L 37.36641311645508 26.79518890380859 L 37.36641311645508 35.58705902099609 Z" stroke="none" fill="#547394"/>
        </g>
      </g>
      <g transform="matrix(1, 0, 0, 1, -54.56, -24.38)" filter="url(#Path_1123)">
        <path id="Path_1123-2" data-name="Path 1123" d="M1098.363,605.836l-.623.681-.631-.675c-2.062-2.207-5.393-3.447-7.433-1.221l0,0a6,6,0,0,0,.039,8.03l.63.674,7.471,7.993,8.012-8.747a6.008,6.008,0,0,0-.038-8.03h0C1103.723,602.336,1100.4,603.608,1098.363,605.836Z" transform="translate(-983.99 -584.02)" fill="#fbacaa" stroke="#597685" stroke-width="1.5"/>
      </g>
      <path id="Path_2051" data-name="Path 2051" d="M43.841-2.606c-1.936-1.9-7.225.833-1.96,6.969" transform="translate(12.151 0.149)" fill="none" stroke="#ffeaea" stroke-linecap="round" stroke-width="1.5"/>
      <path id="Path_2052" data-name="Path 2052" d="M45.886,9.612l6.43-7.273" transform="translate(14.075 0.019)" fill="none" stroke="#f08c89" stroke-linecap="round" stroke-width="1.5"/>
      <path id="Path_2059" data-name="Path 2059" d="M0,0H9.875" transform="translate(12.487 40.35) rotate(-90)" fill="none" stroke="#81cee8" stroke-linecap="round" stroke-width="1.5"/>
      <path id="Path_2060" data-name="Path 2060" d="M0,0H9.875" transform="translate(41.235 23.713) rotate(-90)" fill="none" stroke="#81cee8" stroke-linecap="round" stroke-width="1.5"/>
      <path id="Path_2054" data-name="Path 2054" d="M28.6,18.6l5.685,9.936" transform="translate(8.771 7.836)" fill="none" stroke="#81cee8" stroke-linecap="round" stroke-width="1.5"/>
      <path id="Path_2056" data-name="Path 2056" d="M28.6,18.6l5.685,9.936" transform="translate(-18.266 -0.004)" fill="none" stroke="#81cee8" stroke-linecap="round" stroke-width="1.5"/>
      <path id="Path_2055" data-name="Path 2055" d="M13.856,4.906h25.7" transform="translate(4.827 3.038)" fill="none" stroke="#e0f7ff" stroke-linecap="round" stroke-width="1.5"/>
      <path id="Path_2057" data-name="Path 2057" d="M13.856,4.906h20.7" transform="translate(0.144 37.014)" fill="none" stroke="#e0f7ff" stroke-linecap="round" stroke-width="1.5"/>
    </g>
  </g>
</svg>
