<svg xmlns="http://www.w3.org/2000/svg" width="126.003" height="99.576" viewBox="0 0 126.003 99.576">
  <g id="Group_633" data-name="Group 633" transform="translate(-204 -139.661)">
    <g id="Group_91" data-name="Group 91" transform="translate(233.83 -750.903)">
      <path id="Path_244" data-name="Path 244" d="M87.111,940.15c-.174-.219-.353-.432-.538-.645-.264.269-.533.527-.807.779q.278.32.538.639A38.868,38.868,0,1,1,55.271,926.6c.275-.006.555-.011.83-.011h.073c.151,0,.3,0,.454.006l.852-1.1c-.174-.006-.348-.011-.521-.011l-.8,1.043c.045-.353.107-.7.174-1.054h-.157c-.241,0-.488,0-.729.006A40.054,40.054,0,1,0,87.111,940.15Zm-28.772-13.5a.316.316,0,0,1,.073.006v-.1Z" transform="translate(0 -15.332)" fill="#223245"/>
      <g id="Group_84" data-name="Group 84" transform="translate(24.531 964.203)">
        <path id="Path_245" data-name="Path 245" d="M31.081,1029.941l.079-.053.552.388,2.7-1.8-.47-.706-1.078.149-.053-.079,1.085-.724,2.072,3.1-1.085.724-.053-.079.551-.938-.471-.705-2.7,1.8.147.658-.079.053Z" transform="translate(-31.081 -1024.181)" fill="#223245"/>
        <path id="Path_246" data-name="Path 246" d="M34.835,1035.666l.072-.063.515.22,2.438-2.134-.15-.54.072-.062,1.226,1.4-.072.062-.487-.188-1.054.922,1.083,1.236,1.053-.922-.13-.517.071-.063,1.231,1.406-.071.063-.511-.214-2.437,2.132.145.535-.072.063-1.23-1.406.071-.063.5.2,1.139-1L37.15,1035.5l-1.138,1,.122.509-.072.063Z" transform="translate(-32.73 -1026.806)" fill="#223245"/>
        <path id="Path_247" data-name="Path 247" d="M41.167,1042.39l.063-.071.539.151,2.141-2.43-.218-.515.062-.071,2.425,2.137-.678.77-.071-.063.133-.815-.975-.859-.929,1.055.685.6.587-.163.071.063-.882,1-.071-.063.08-.593-.686-.6-1.011,1.149,1.082.953.931-.357.071.063-.8.907Z" transform="translate(-35.511 -1029.602)" fill="#223245"/>
        <path id="Path_248" data-name="Path 248" d="M49.344,1048.855l.05-.081.557.059,1.7-2.753-.3-.473.05-.081,1.619,1-.05.081-.556-.059-1.7,2.754.3.472-.05.08Zm2.23-.943,2.237-.526-.257-.417.049-.081,1.19.737-.049.08-.421-.065-1.867.4.316,2.623.262.365-.049.08-1.12-.693Z" transform="translate(-39.103 -1032.27)" fill="#223245"/>
        <path id="Path_249" data-name="Path 249" d="M56.808,1053.124l.041-.086.56,0,1.415-2.913-.347-.439.041-.085,1.713.832-.042.085-.56,0-1.415,2.914.348.438-.042.085Z" transform="translate(-42.382 -1034.06)" fill="#223245"/>
        <path id="Path_250" data-name="Path 250" d="M61.138,1055.145l.031-.089.557-.057,1.1-3.041-.39-.406.033-.089,1.059.383,1.282,3.225.77-2.131-.556-.453.032-.089,1.5.541-.032.088-.552.06-1.225,3.392-.346-.125-1.433-3.558-.847,2.344.553.458-.033.09Z" transform="translate(-44.283 -1034.877)" fill="#223245"/>
        <path id="Path_251" data-name="Path 251" d="M69.849,1058.062l.02-.094.544-.132.678-3.166-.442-.344.021-.093,1.977.424a2.8,2.8,0,0,1,1.123.477,1.744,1.744,0,0,1,.6.778,1.66,1.66,0,0,1,.061.947,2.115,2.115,0,0,1-.345.8,2,2,0,0,1-.6.562,2.171,2.171,0,0,1-.789.286,2.442,2.442,0,0,1-.91-.031Zm2.491-3.137-.371-.08-.683,3.191.452.1a1.315,1.315,0,0,0,1.13-.21,2.054,2.054,0,0,0,.49-2.325A1.418,1.418,0,0,0,72.34,1054.925Z" transform="translate(-48.11 -1036.094)" fill="#223245"/>
        <path id="Path_252" data-name="Path 252" d="M78.75,1059.809l.007-.094.52-.205.239-3.224-.484-.286.007-.095,1.124.083,2.1,2.762.168-2.26-.657-.286.007-.095,1.586.118-.007.094-.515.206-.267,3.6-.367-.027-2.337-3.04-.184,2.485.657.292-.008.095Z" transform="translate(-52.019 -1036.829)" fill="#223245"/>
        <path id="Path_253" data-name="Path 253" d="M87.783,1060.21l-.005-.095.49-.27-.174-3.234-.516-.215-.005-.095,3.228-.175.056,1.024-.095.006-.476-.675-1.3.07.076,1.4.912-.049.3-.528.095,0,.072,1.333-.1,0-.358-.478-.912.049.082,1.528,1.439-.077.414-.908.095-.005.066,1.208Z" transform="translate(-55.895 -1036.926)" fill="#223245"/>
        <path id="Path_254" data-name="Path 254" d="M96.728,1059.43a2.706,2.706,0,0,1-.7.031,2.889,2.889,0,0,1-.606-.125l-.221-.979.1-.018.534.652a1.254,1.254,0,0,0,.375.143,1.068,1.068,0,0,0,.389.008.844.844,0,0,0,.491-.234.527.527,0,0,0,.127-.474.566.566,0,0,0-.145-.312.874.874,0,0,0-.341-.194q-.23-.08-.625-.183a1.811,1.811,0,0,1-.709-.329.921.921,0,0,1-.325-.59.911.911,0,0,1,.047-.467,1.359,1.359,0,0,1,.26-.433,1.579,1.579,0,0,1,.408-.335,1.474,1.474,0,0,1,.5-.177,2.381,2.381,0,0,1,.586-.024,2.2,2.2,0,0,1,.542.117l.212.926-.1.016-.518-.594a1.373,1.373,0,0,0-.326-.131.814.814,0,0,0-.335-.008.555.555,0,0,0-.373.217.543.543,0,0,0-.092.43.516.516,0,0,0,.237.367,2.5,2.5,0,0,0,.657.25,2.739,2.739,0,0,1,.867.375.946.946,0,0,1,.362.638,1.006,1.006,0,0,1-.111.68,1.4,1.4,0,0,1-.489.5A1.875,1.875,0,0,1,96.728,1059.43Z" transform="translate(-59.188 -1036.599)" fill="#223245"/>
        <path id="Path_255" data-name="Path 255" d="M102.873,1058.094a2.682,2.682,0,0,1-.688.1,2.926,2.926,0,0,1-.616-.067l-.316-.954.1-.027.594.6a1.233,1.233,0,0,0,.388.105,1.058,1.058,0,0,0,.388-.029.848.848,0,0,0,.465-.28.526.526,0,0,0,.08-.485.568.568,0,0,0-.174-.3.875.875,0,0,0-.359-.159c-.157-.037-.371-.078-.64-.122a1.81,1.81,0,0,1-.737-.258.921.921,0,0,1-.381-.555.909.909,0,0,1,0-.47,1.379,1.379,0,0,1,.216-.456,1.587,1.587,0,0,1,.374-.373,1.483,1.483,0,0,1,.477-.225,2.33,2.33,0,0,1,.58-.08,2.237,2.237,0,0,1,.551.062l.3.9-.1.026-.574-.541a1.4,1.4,0,0,0-.336-.1.83.83,0,0,0-.334.024.558.558,0,0,0-.349.253.543.543,0,0,0-.05.436.515.515,0,0,0,.273.341,2.475,2.475,0,0,0,.679.185,2.714,2.714,0,0,1,.9.289.944.944,0,0,1,.423.6,1.013,1.013,0,0,1-.044.688,1.406,1.406,0,0,1-.438.547A1.866,1.866,0,0,1,102.873,1058.094Z" transform="translate(-61.771 -1036.018)" fill="#223245"/>
        <path id="Path_256" data-name="Path 256" d="M109.792,1055.271l-.038-.087.366-.424-1.29-2.971-.559-.022-.038-.088,2.965-1.287.408.942-.086.038-.682-.467-1.192.517.56,1.289.838-.363.1-.6.087-.038.532,1.225-.087.037-.5-.325-.838.365.61,1.4,1.322-.574.073-.994.086-.039.482,1.111Z" transform="translate(-64.97 -1034.407)" fill="#223245"/>
        <path id="Path_257" data-name="Path 257" d="M116.4,1051.757l-.048-.081.283-.443.294-1.93-1.959-.883-.449.01-.048-.082,1.686-.994.048.082-.285.437.015.026,1.262.55.2-1.413-.012-.02-.519.031-.049-.082,1.2-.708.049.081-.237.381-.3,1.877,2.056.894.483-.009.049.082-1.712,1.009-.049-.081.254-.411-.012-.021-1.334-.6-.217,1.512,0,.026.526-.041.048.081Z" transform="translate(-67.709 -1032.591)" fill="#223245"/>
        <path id="Path_258" data-name="Path 258" d="M123.728,1047.587l-.058-.075.251-.5-1.978-2.565-.548.115-.058-.075,1.625-1.253a2.187,2.187,0,0,1,1.044-.487.866.866,0,0,1,.827.378.855.855,0,0,1,.181.6,1.447,1.447,0,0,1-.238.678,2.518,2.518,0,0,1-.6.639l-.4.311.858,1.114.628-.177.058.075Zm-1.083-3.7.949,1.231.226-.174a1.139,1.139,0,0,0,.453-.626.683.683,0,0,0-.125-.6.672.672,0,0,0-.582-.308,1.376,1.376,0,0,0-.723.326Z" transform="translate(-70.726 -1031.046)" fill="#223245"/>
        <path id="Path_259" data-name="Path 259" d="M129.58,1042.855l-.067-.068.19-.527-2.272-2.309-.529.18-.067-.068,1.446-1.423a1.654,1.654,0,0,1,.881-.5.825.825,0,0,1,.753.254.792.792,0,0,1,.237.553,1.522,1.522,0,0,1-.151.668l1.964.431.471-.13.067.068-.919.9-2.055-.524-.224.22,1.032,1.049.492-.134.067.067Zm-1.35-3.707-.169.166,1.04,1.057.2-.191a.8.8,0,0,0,.268-.556.72.72,0,0,0-.226-.534.7.7,0,0,0-.531-.24A.888.888,0,0,0,128.231,1039.148Z" transform="translate(-73.141 -1029.019)" fill="#223245"/>
        <path id="Path_260" data-name="Path 260" d="M135.134,1036.818l-.075-.059.124-.545-2.532-2.02-.5.243-.074-.06,2.015-2.527.8.639-.059.075-.82-.093-.81,1.016,1.1.876.57-.713-.192-.579.058-.073,1.044.832-.059.074-.6-.052-.57.714,1.2.955.9-1.127-.4-.913.058-.074.946.755Z" transform="translate(-75.441 -1026.263)" fill="#223245"/>
        <path id="Path_261" data-name="Path 261" d="M140.864,1030.207a2.653,2.653,0,0,1-.438.541,2.925,2.925,0,0,1-.5.369l-.879-.487.058-.09.842.036a1.266,1.266,0,0,0,.356-.186,1.065,1.065,0,0,0,.265-.284.848.848,0,0,0,.153-.522.523.523,0,0,0-.27-.41.561.561,0,0,0-.329-.1.887.887,0,0,0-.372.126q-.212.118-.552.345a1.814,1.814,0,0,1-.717.31.962.962,0,0,1-.975-.5,1.359,1.359,0,0,1-.151-.482,1.585,1.585,0,0,1,.022-.527,1.456,1.456,0,0,1,.2-.49,2.318,2.318,0,0,1,.372-.453,2.145,2.145,0,0,1,.446-.327l.833.458-.054.085-.788-.008a1.373,1.373,0,0,0-.314.156.826.826,0,0,0-.229.244.557.557,0,0,0-.085.423.541.541,0,0,0,.259.354.514.514,0,0,0,.432.067,2.478,2.478,0,0,0,.624-.324,2.723,2.723,0,0,1,.857-.4.941.941,0,0,1,.718.153,1.006,1.006,0,0,1,.433.535,1.381,1.381,0,0,1,.049.7A1.853,1.853,0,0,1,140.864,1030.207Z" transform="translate(-77.757 -1024.167)" fill="#223245"/>
        <path id="Path_262" data-name="Path 262" d="M143.98,1024.755a2.677,2.677,0,0,1-.382.582,2.969,2.969,0,0,1-.459.416l-.922-.4.049-.1.841-.048a1.27,1.27,0,0,0,.337-.219,1.071,1.071,0,0,0,.235-.31.848.848,0,0,0,.1-.534.522.522,0,0,0-.309-.381.563.563,0,0,0-.338-.068.87.87,0,0,0-.358.162q-.2.138-.516.4a1.823,1.823,0,0,1-.683.38.966.966,0,0,1-1.019-.4,1.379,1.379,0,0,1-.2-.466,1.567,1.567,0,0,1-.03-.527,1.442,1.442,0,0,1,.148-.506,2.379,2.379,0,0,1,.326-.487,2.158,2.158,0,0,1,.412-.37l.874.375-.044.09-.786.069a1.4,1.4,0,0,0-.3.186.81.81,0,0,0-.2.266.559.559,0,0,0-.045.43.54.54,0,0,0,.294.327.51.51,0,0,0,.436.024,2.461,2.461,0,0,0,.589-.384,2.724,2.724,0,0,1,.813-.481.944.944,0,0,1,.729.082,1.01,1.01,0,0,1,.484.49,1.4,1.4,0,0,1,.117.69A1.849,1.849,0,0,1,143.98,1024.755Z" transform="translate(-79.064 -1021.886)" fill="#223245"/>
      </g>
      <path id="Path_263" data-name="Path 263" d="M60.191,932.328l-.421.544c-.157-.006-.314-.006-.471-.006a.077.077,0,0,0-.05,0c-.1-.006-.2-.006-.3-.006-.168,0-.336,0-.5.006a33.653,33.653,0,0,0-23.91,10.6A36.246,36.246,0,0,0,24.421,968.67a35.617,35.617,0,0,0,2.9,14.159l-.516.224A36.228,36.228,0,0,1,23.86,968.67a36.827,36.827,0,0,1,10.273-25.6,34.181,34.181,0,0,1,24.314-10.766c.168-.006.331-.006.5-.006.123,0,.241,0,.364.006-.011.163-.011.325-.011.488l.376-.482C59.849,932.311,60.017,932.317,60.191,932.328Z" transform="translate(-3.378 -18.332)" fill="#223245"/>
      <path id="Path_264" data-name="Path 264" d="M91.484,932.856l-.179.236c-.168-.017-.336-.034-.5-.039l.409-.533a1.436,1.436,0,0,1,.219.023C91.445,932.649,91.467,932.75,91.484,932.856Z" transform="translate(-32.781 -18.429)" fill="#223245"/>
      <path id="Path_265" data-name="Path 265" d="M142.232,978.856a36.467,36.467,0,0,1-1.581,10.649l-.533-.163a36.382,36.382,0,0,0-5.865-32.535c-.129-.174-.264-.348-.4-.516-.039-.05-.079-.1-.123-.151s-.1-.129-.151-.191l.353-.46c.1.112.185.224.275.342.006,0,.006.006.011.011.174.219.348.443.521.667A36.835,36.835,0,0,1,142.232,978.856Z" transform="translate(-51.572 -28.518)" fill="#223245"/>
      <path id="Path_266" data-name="Path 266" d="M65.455,941.012l-.4.516c.163.017.325.034.488.056l.4-.516C65.78,941.045,65.617,941.029,65.455,941.012Zm20.4,10.907q-.286-.345-.589-.673c-.123.051-.247.1-.37.14l.23-.3c-.1-.107-.191-.213-.292-.314l-.348.449c.073.078.146.151.219.23.022.028.05.056.073.084.179.2.353.393.527.594a30.824,30.824,0,1,1-23.389-10.761h.028c.292,0,.578.006.869.017-.011-.034-.017-.073-.028-.107-.039-.151-.073-.3-.107-.46-.252-.006-.5-.011-.763-.011h-.1a31.439,31.439,0,1,0,24.039,11.108Zm-22.5-11.075-.415.544c.168.006.336.011.51.022l.415-.538C63.7,940.86,63.526,940.849,63.358,940.844ZM83.393,950.1l.067.067.067-.084Z" transform="translate(-6.303 -22.07)" fill="#223245"/>
      <path id="Path_267" data-name="Path 267" d="M52.065,984.9l-.191.247q.227.05.437.118C52.228,985.138,52.144,985.014,52.065,984.9Zm4.923,5.568c-.067-.05-.129-.1-.191-.151l-.1.123a5.5,5.5,0,0,1,.062.611l.258-.331.107-.14C57.084,990.543,57.034,990.5,56.989,990.465Zm1.234.892-1.329,1.727-.219.286a3.312,3.312,0,0,1,.527.006h.006l.191-.252,1.183-1.542C58.458,991.508,58.34,991.435,58.223,991.356Zm1.553.875-1.065,1.385-.163.219a2.882,2.882,0,0,1,.342.241l.168-.219,1.11-1.447C60.034,992.354,59.9,992.293,59.776,992.231Zm1.693.7-1.525,1.979-.174.23c.179.163.28-.084.325.2a.21.21,0,0,0,.006.056v.022c.006-.017.017-.034.022-.05a.269.269,0,0,1,.017-.039.534.534,0,0,1,.163-.2l.011-.011.264-.348h.006l1.307-1.7A4.13,4.13,0,0,1,61.469,992.926Zm1.834.51-.191.252a3.015,3.015,0,0,1,.353-.219Zm21.824-38.064c-.224-.235-.454-.477-.69-.712-.1-.1-.2-.2-.3-.3l-.224.286-.09.123h-.006c-.667.112-1.34.191-2.013.236l1.037-1.352.224-.292c-.1-.1-.213-.185-.32-.28l-.23.3-1.262,1.649h-.006a14.574,14.574,0,0,1-1.564-.017l1.862-2.423.017-.022a.191.191,0,0,1-.056-.006c-.146-.011-.286-.028-.432-.05l-1.9,2.473h-.006c-.516-.039-1.032-.1-1.542-.191l1.957-2.546c-.151-.034-.3-.067-.454-.107l-1.974,2.574q-.723-.143-1.43-.336l2.024-2.635-.421-.151-2.041,2.652c-.286-.084-.578-.179-.858-.286-.151-.056-.3-.112-.449-.168l.308-.4,1.778-2.322q-.193-.084-.387-.185l-1.565,2.041-.533.7c-.039-.017-.073-.028-.112-.045-.381-.168-.763-.348-1.133-.544l.807-1.054.034-.045,1.3-1.7c-.034-.017-.062-.039-.1-.056-.09-.056-.179-.112-.264-.168l-2.159,2.815c-.219-.118-.426-.241-.634-.376q-.252-.16-.5-.336l.4-.522,1.817-2.366c-.107-.09-.213-.179-.32-.28l-2.237,2.916a12.14,12.14,0,0,1-1.049-.886l2.3-2.989q-.151-.16-.286-.32l-2.316,3.011a11.091,11.091,0,0,1-.908-1.015l1.817-2.361.269-.353c-.151-.034-.308-.067-.46-.09l-.275.353-1.621,2.108a12.4,12.4,0,0,1-.791-1.183l.9-1.161.28-.37c-.157-.023-.314-.039-.477-.062l-.292.376-.634.824a9.044,9.044,0,0,1-.482-.925c-.067-.135-.129-.269-.185-.409l.006-.011a.008.008,0,0,0-.011,0c-.151-.017-.308-.022-.46-.028-.062-.006-.118-.011-.179-.011-.1-.006-.191-.011-.292-.011a34.749,34.749,0,0,0-5.821.275C39.678,949.176,36.37,970,36.37,970a3.817,3.817,0,0,1,.594.146c1.155.37,2.529,1.29,2.529,2.366,0,.078-.006.157-.011.241a5.169,5.169,0,0,1,1.57-.241,5.241,5.241,0,0,1,4.368,8.131,1.494,1.494,0,0,1,.813.65,2,2,0,0,1-.606,2.35,1.667,1.667,0,0,1,1.452.763,1.625,1.625,0,0,1,.011,1.492,6.332,6.332,0,0,1,2.574-.88,3.632,3.632,0,0,1,.432-.034,1.341,1.341,0,0,1,.213-.006.482.482,0,0,1,.09-.006h.129l-.062-.2.056-.073.774-1c-.079-.129-.157-.258-.23-.387l-.746.97-.477-1.592v-.006l.5-.645q-.109-.21-.219-.4l-.426.555-.4-1.346-.084-.292.224-.292c-.073-.151-.14-.3-.2-.432l-.174.224-.219-.746c2.462,1.133,12.561,5.737,15.2,6.3l.325,1.082c.157.488.336.981.522,1.475l.017.056c.056.151.112.3.174.465.185.471.387.959.594,1.441.045.118.1.23.151.342l.045.1c.179.409.359.8.55,1.183.034.073.067.146.1.213.006.011.011.028.017.039a3.651,3.651,0,0,0,.359-.185c.045-.028.1-.05.14-.073a.334.334,0,0,1-.022-.045c-.034-.067-.067-.14-.1-.207-.168-.348-.342-.718-.5-1.094l-.073-.163c-.05-.106-.1-.213-.146-.325q-.311-.723-.589-1.43c-.05-.14-.1-.275-.151-.409l-.017-.051c-.191-.51-.37-1.009-.533-1.5l-.3-1.009c4.525-4.9,11.787-12.639,13.256-13.907l2.372,11.344.056.275a2.482,2.482,0,0,1,.819-.174,2.543,2.543,0,0,1,2.08.886c.028-.045.062-.084.1-.129a2.947,2.947,0,0,1-.813-.908c-1.021-1.761-.056-4.222,2.153-5.5a5.394,5.394,0,0,1,2.9-.74,6.2,6.2,0,0,1-1.576-4.138c0-3.146,1.85-6.662,4.834-7.155v-.006c.135-.022.269-.039.409-.05A27.843,27.843,0,0,0,85.127,955.373ZM48.735,978.319a.79.79,0,0,1,.443-.437.76.76,0,0,1,.084-.028l13.5-3.4c-.011.146-.022.292-.028.443-.028.488-.039,1.015-.039,1.6,0,.224.006.443.011.69.017.757.056,1.435.118,2.063.017.185.034.37.056.561l.006.062c.067.589.157,1.222.264,1.879l.107.561c.1.555.224,1.127.364,1.693l.14.561a.682.682,0,0,0,.028.1C60.46,983.724,49.66,978.75,48.735,978.319Zm15.6,6.23c-.011-.039-.022-.073-.034-.118l-.135-.527c-.135-.566-.258-1.138-.364-1.7l-.1-.549c-.112-.645-.2-1.267-.264-1.845l-.006-.062c-.017-.185-.039-.364-.056-.544-.056-.622-.1-1.29-.112-2.052-.006-.219-.011-.437-.011-.656,0-.572.011-1.088.039-1.57.011-.2.022-.4.039-.617L76.9,970.894a.786.786,0,0,1,.493.039C76.43,971.724,73.582,974.539,64.335,984.549Z" transform="translate(-8.873 -24.493)" fill="#223245" opacity="0.11"/>
      <path id="Path_268" data-name="Path 268" d="M50.494,1003.292l.084.286c-.073-.006-.14-.006-.213-.006a5.165,5.165,0,0,0-.656.039,5.978,5.978,0,0,0-2.507.847l-.763.465.359-.819a1.356,1.356,0,0,0,.006-1.239,1.408,1.408,0,0,0-1.222-.623l-.65-.022.465-.46a1.73,1.73,0,0,0,.561-2.007,1.192,1.192,0,0,0-.667-.522l-.342-.123.2-.3a4.965,4.965,0,0,0-5.619-7.475l-.4.129.039-.421c.006-.073.011-.14.011-.213,0-1.065-1.738-2.052-2.888-2.237l.09-.555c1.172.191,3.236,1.228,3.353,2.664a5.518,5.518,0,0,1,6.056,8.136,1.685,1.685,0,0,1,.65.634,2.1,2.1,0,0,1-.3,2.288,1.8,1.8,0,0,1,1.15.824,1.715,1.715,0,0,1,.207,1.071,6.815,6.815,0,0,1,2.047-.594c.146-.017.292-.034.432-.039s.258-.011.387-.011h.045a.37.37,0,0,1,.078.006l-.056.073Z" transform="translate(-8.838 -42.816)" fill="#223245"/>
      <path id="Path_269" data-name="Path 269" d="M64.312,1015.474l-.185.241a3.55,3.55,0,0,0-.437-.112l.376-.494C64.144,1015.228,64.228,1015.351,64.312,1015.474Z" transform="translate(-20.873 -54.706)" fill="#223245"/>
      <path id="Path_270" data-name="Path 270" d="M72.228,1025.8c0-.2-.011-.392-.028-.589l.336-.443c.062.05.123.1.191.151.017.084.022.168.034.252l-.538.7A.272.272,0,0,0,72.228,1025.8Z" transform="translate(-24.611 -58.949)" fill="#223245"/>
      <path id="Path_271" data-name="Path 271" d="M72.61,1029.71a3.07,3.07,0,0,1,.5.039l-.4.521h-.006a2.324,2.324,0,0,0-.521.028l-.039.006Z" transform="translate(-24.589 -61.119)" fill="#223245"/>
      <path id="Path_272" data-name="Path 272" d="M75.946,1030.66a3.19,3.19,0,0,1,.348.241l-.342.443a2.89,2.89,0,0,0-.342-.241Z" transform="translate(-26.109 -61.536)" fill="#223245"/>
      <path id="Path_273" data-name="Path 273" d="M80.037,1032.871q-.16.109-.32.2a1.571,1.571,0,0,1-.813.2c-.241.011-.275.011-.342.191l-.264.69-.219.05-.039-.522-.022-.263a.507.507,0,0,1-.112-.034.435.435,0,0,1-.107-.079l.342-.449a.006.006,0,0,1,.006.006.391.391,0,0,1,.157.011.715.715,0,0,1,.471-.151l-.421.549Z" transform="translate(-27.071 -62.441)" fill="#223245"/>
      <path id="Path_274" data-name="Path 274" d="M83.8,1030.34c.151.034.3.067.46.09l-.14.185h-.006a9.908,9.908,0,0,0-1.077.718Z" transform="translate(-29.372 -61.396)" fill="#223245"/>
      <path id="Path_275" data-name="Path 275" d="M88.06,1031.274l.05.23-.129-.129-.135-.14-.157-.163.151-.2a1.179,1.179,0,0,0,.14.011l.062.3.017.084Z" transform="translate(-31.415 -61.629)" fill="#223245"/>
      <path id="Path_276" data-name="Path 276" d="M90.564,1027.057c.056.107.1.2.146.292-.039.022-.084.045-.123.067a4.006,4.006,0,0,1-.37.2h-.006c-.045-.1-.09-.191-.14-.292-.034-.067-.067-.14-.1-.213.107-.051.219-.107.336-.174a1.373,1.373,0,0,1,.157-.084C90.5,1026.917,90.531,1026.99,90.564,1027.057Z" transform="translate(-32.416 -59.863)" fill="#223245"/>
      <path id="Path_277" data-name="Path 277" d="M120.584,987.151a5.937,5.937,0,0,0,1.5,3.953l.443.5-.667-.034a5.148,5.148,0,0,0-2.742.7c-2.069,1.2-2.989,3.493-2.052,5.114a2.724,2.724,0,0,0,.74.824l.224.168-.477.634-.224-.263a2.243,2.243,0,0,0-1.811-.791,2.212,2.212,0,0,0-.819.174l-.056-.28-.056-.275a2.826,2.826,0,0,1,.819-.18,2.946,2.946,0,0,1,1.1.146c-.976-1.884.039-4.436,2.327-5.753a5.666,5.666,0,0,1,2.456-.768,6.515,6.515,0,0,1-1.273-3.869c0-3.415,2.1-7.245,5.507-7.492l.039.555C122.491,980.439,120.584,983.989,120.584,987.151Z" transform="translate(-43.231 -39.135)" fill="#223245"/>
      <path id="Path_278" data-name="Path 278" d="M80.811,952.016c.017.011.028.022.039.028l.017-.022A.191.191,0,0,1,80.811,952.016Zm-13.138-6.673-.5.656-.292.376c.163.011.325.034.488.056l.28-.37.5-.651C67.992,945.383,67.83,945.36,67.673,945.343Zm1.979.331h-.011l-.488.639-.275.353c.157.028.308.056.465.09l.269-.353.286-.37C69.815,945.915,69.73,945.8,69.652,945.674Zm13.066,6.454c-.118.006-.236,0-.348-.006l-.32.415-.23.3.325.275.224-.292.46-.594C82.79,952.19,82.757,952.157,82.717,952.129Zm2.551,2.49c-.213-.241-.432-.471-.656-.7-.286.073-.572.14-.864.2l.46-.606c-.1-.1-.2-.2-.3-.3l-.465.606-.224.286c.028.028.062.056.09.09.073.067.146.14.219.213.168.168.331.336.493.5a27.923,27.923,0,0,1,6.067,9.892v.006a27.881,27.881,0,1,1-54.174,9.275,28.21,28.21,0,0,1,.359-4.486A27.928,27.928,0,0,1,63.792,946.2c.342,0,.69.006,1.026.023q.479.008.942.05c-.067-.135-.129-.269-.185-.409l.006-.011.527-.684-.51-.034-.213.275a2.586,2.586,0,0,1-.107-.292c-.3-.017-.606-.028-.914-.028-.191-.011-.381-.011-.572-.011a29.045,29.045,0,1,0,21.477,9.538Z" transform="translate(-8.179 -23.946)" fill="#223245"/>
      <g id="Group_86" data-name="Group 86" transform="translate(38.962 890.565)">
        <path id="Path_279" data-name="Path 279" d="M91.405,1007.917l-1.262-6.034-.056-.28-.056-.28-2.394-11.5a1.611,1.611,0,0,0-1.968-1.178l-10.75,2.708L72.385,992l-.572.14-13.783,3.471a1.021,1.021,0,0,0-.224.079,1.6,1.6,0,0,0-.964,1.234,1.508,1.508,0,0,0,.028.667l1.693,5.72.084.275.079.275L62,1014.921a1.5,1.5,0,0,0,.718.908,1.425,1.425,0,0,0,.594.207c.067.006.135.011.2.011a1.727,1.727,0,0,0,.381-.045l4.968-1.183.219-.05,21.18-5.047a1.52,1.52,0,0,0,.976-.706A1.421,1.421,0,0,0,91.405,1007.917Zm-.886.667a.709.709,0,0,1-.454.32l-13.144,3.129-.566.135-1.766.426h-.006l-.1.022-.2.051-.348.078-2.075.493-.65.157-.393.1-1.682.4-.017.006-.045.011-.387.1-.2.045h-.006l-2.075.493-.645.151-2.064.493h-.011a.8.8,0,0,1-.286.017.627.627,0,0,1-.213-.067.26.26,0,0,1-.056-.028.654.654,0,0,1-.325-.415l-.269-.908-.146-.5-.471-1.593-.146-.493v-.006l-.471-1.593-.045-.14-.107-.353-.471-1.587-.146-.5v-.006l-.471-1.587-.151-.494-.325-1.1-.084-.286-.062-.2-.022-.079-.123-.415-.477-1.593v-.005l-.146-.493-.4-1.346-.084-.292-.151-.5-.219-.746-.151-.5a.71.71,0,0,1-.006-.308.576.576,0,0,1,.045-.168.79.79,0,0,1,.443-.437.761.761,0,0,1,.084-.028l13.5-3.4.572-.146,13.565-3.415a.785.785,0,0,1,.493.039h.006a.8.8,0,0,1,.1.05.757.757,0,0,1,.342.46l.028.146,2.372,11.344.056.275.056.28,1.262,6.051A.618.618,0,0,1,90.519,1008.585Z" transform="translate(-56.816 -933.626)" fill="#223245"/>
        <path id="Path_280" data-name="Path 280" d="M101.984,956.326l-.034.045.011-.051C101.967,956.32,101.978,956.326,101.984,956.326Z" transform="translate(-76.641 -919.447)" fill="#223245"/>
        <path id="Path_281" data-name="Path 281" d="M99.3,958.974a4.352,4.352,0,0,1-.1,1.049c-.213.886-.735,1.379-1.436,1.379a1.676,1.676,0,0,1-.393-.05,13.215,13.215,0,0,1-1.7-.572c-.185-.073-.37-.146-.55-.224-1.071-.454-1.963-.92-2.024-.948l-.292-.151.079-.32a5.027,5.027,0,0,1,1.772-2.585c.14-.112.275-.219.4-.308.107-.078.213-.151.308-.213a7.04,7.04,0,0,1,.628-.37l.017.034-.4.522q.252.177.5.336a6.923,6.923,0,0,0-.751.51,4.712,4.712,0,0,0-1.57,1.957c.23.112.583.28.993.471.123.056.258.118.4.174.409.185.858.37,1.3.527.14.056.28.1.415.146.236.078.46.146.673.2.185.045.606.146.813-.706a3.8,3.8,0,0,0,.067-1.161,2.9,2.9,0,0,0-.039-.308,3.151,3.151,0,0,0-.112-.538.575.575,0,0,0-.039-.14c.039.017.073.028.112.045l.533-.7a3.072,3.072,0,0,1,.174.465l-.308.4c.146.056.3.112.449.168A6.367,6.367,0,0,1,99.3,958.974Z" transform="translate(-72.622 -919.157)" fill="#223245"/>
        <path id="Path_282" data-name="Path 282" d="M95.062,929.085a.578.578,0,0,1,.039.14l.073-.1C95.135,929.114,95.1,929.1,95.062,929.085Zm-1.424-.7-.084-.05c-.219-.118-.426-.241-.634-.376a6.934,6.934,0,0,0-.751.51c.28.2.572.376.869.544.062.039.129.073.2.112s.118.062.174.1l.521-.679Zm1.424.7a.578.578,0,0,1,.039.14l.073-.1C95.135,929.114,95.1,929.1,95.062,929.085Zm-1.424-.7-.084-.05c-.219-.118-.426-.241-.634-.376a6.934,6.934,0,0,0-.751.51c.28.2.572.376.869.544.062.039.129.073.2.112s.118.062.174.1l.521-.679Zm1.424.7a.578.578,0,0,1,.039.14l.073-.1C95.135,929.114,95.1,929.1,95.062,929.085Zm-1.424-.7-.084-.05c-.219-.118-.426-.241-.634-.376a6.934,6.934,0,0,0-.751.51c.28.2.572.376.869.544.062.039.129.073.2.112s.118.062.174.1l.521-.679Zm15.3,1.082c-.022-.028-.05-.056-.073-.084-.179.062-.353.123-.533.179-.477.157-.953.292-1.436.409-.286.073-.572.14-.864.2h-.006c-.146.028-.292.056-.437.078a1.02,1.02,0,0,1-.179.034h-.006c-.667.112-1.34.191-2.013.235-.185.011-.364.017-.55.022h-.006a14.543,14.543,0,0,1-1.564-.017c-.168-.006-.342-.017-.51-.028h-.006c-.516-.039-1.032-.1-1.542-.191-.157-.022-.314-.051-.471-.079q-.723-.143-1.43-.336c-.146-.045-.292-.084-.437-.135-.286-.084-.578-.179-.858-.286-.151-.056-.3-.112-.449-.168l-.4-.168c-.039-.017-.073-.028-.112-.045-.381-.168-.763-.348-1.133-.544l-.292-.157-.084-.05c-.219-.118-.426-.241-.634-.376q-.252-.16-.5-.336a2.56,2.56,0,0,1-.247-.185.368.368,0,0,1-.1-.067,12.129,12.129,0,0,1-1.049-.886c-.107-.1-.207-.2-.3-.3a11.106,11.106,0,0,1-.908-1.015c-.1-.112-.179-.224-.269-.342a12.415,12.415,0,0,1-.791-1.183,3.927,3.927,0,0,1-.224-.393,9.037,9.037,0,0,1-.482-.925c-.067-.135-.129-.269-.185-.409-.006-.006-.006-.006-.006-.011-.067-.146-.129-.292-.185-.443a2.578,2.578,0,0,1-.107-.292c-.157-.4-.292-.8-.415-1.222v-.006c-.05-.168-.1-.331-.14-.5-.011-.039-.022-.078-.034-.123-.292-.011-.578-.017-.869-.017.011.039.017.073.028.112a17.816,17.816,0,0,0,.516,1.733c.09.241.179.477.275.712.056.14.112.28.179.421a14.281,14.281,0,0,0,4.351,5.68,1.309,1.309,0,0,0,.107.078c.112.09.224.174.342.252.084.062.174.123.264.179.28.2.572.376.869.544.062.039.129.073.2.112s.118.062.174.1c.409.219.819.415,1.239.6.129.056.264.112.4.168l.207.084c.28.112.566.219.852.308a18.729,18.729,0,0,0,6.079,1.009h.028c.174,0,.342,0,.516-.011a19.816,19.816,0,0,0,3.578-.415c.14-.022.28-.05.415-.084.28-.062.561-.135.836-.207.645-.174,1.284-.376,1.912-.611C109.294,929.859,109.12,929.663,108.941,929.467Zm0,0c-.022-.028-.05-.056-.073-.084-.179.062-.353.123-.533.179-.477.157-.953.292-1.436.409-.286.073-.572.14-.864.2h-.006c-.146.028-.292.056-.437.078a1.02,1.02,0,0,1-.179.034h-.006c-.667.112-1.34.191-2.013.235-.185.011-.364.017-.55.022h-.006a14.543,14.543,0,0,1-1.564-.017c-.168-.006-.342-.017-.51-.028h-.006c-.516-.039-1.032-.1-1.542-.191-.157-.022-.314-.051-.471-.079q-.723-.143-1.43-.336c-.146-.045-.292-.084-.437-.135-.286-.084-.578-.179-.858-.286-.151-.056-.3-.112-.449-.168l-.4-.168c-.039-.017-.073-.028-.112-.045-.381-.168-.763-.348-1.133-.544l-.292-.157-.084-.05c-.219-.118-.426-.241-.634-.376q-.252-.16-.5-.336a2.56,2.56,0,0,1-.247-.185.368.368,0,0,1-.1-.067,12.129,12.129,0,0,1-1.049-.886c-.107-.1-.207-.2-.3-.3a11.106,11.106,0,0,1-.908-1.015c-.1-.112-.179-.224-.269-.342a12.415,12.415,0,0,1-.791-1.183,3.927,3.927,0,0,1-.224-.393,9.037,9.037,0,0,1-.482-.925c-.067-.135-.129-.269-.185-.409-.006-.006-.006-.006-.006-.011-.067-.146-.129-.292-.185-.443a2.578,2.578,0,0,1-.107-.292c-.157-.4-.292-.8-.415-1.222v-.006c-.05-.168-.1-.331-.14-.5-.011-.039-.022-.078-.034-.123-.292-.011-.578-.017-.869-.017.011.039.017.073.028.112a17.816,17.816,0,0,0,.516,1.733c.09.241.179.477.275.712.056.14.112.28.179.421a14.281,14.281,0,0,0,4.351,5.68,1.309,1.309,0,0,0,.107.078c.112.09.224.174.342.252.084.062.174.123.264.179.28.2.572.376.869.544.062.039.129.073.2.112s.118.062.174.1c.409.219.819.415,1.239.6.129.056.264.112.4.168l.207.084c.28.112.566.219.852.308a18.729,18.729,0,0,0,6.079,1.009h.028c.174,0,.342,0,.516-.011a19.816,19.816,0,0,0,3.578-.415c.14-.022.28-.05.415-.084.28-.062.561-.135.836-.207.645-.174,1.284-.376,1.912-.611C109.294,929.859,109.12,929.663,108.941,929.467Zm0,0c-.022-.028-.05-.056-.073-.084-.179.062-.353.123-.533.179-.477.157-.953.292-1.436.409-.286.073-.572.14-.864.2h-.006c-.146.028-.292.056-.437.078a1.02,1.02,0,0,1-.179.034h-.006c-.667.112-1.34.191-2.013.235-.185.011-.364.017-.55.022h-.006a14.543,14.543,0,0,1-1.564-.017c-.168-.006-.342-.017-.51-.028h-.006c-.516-.039-1.032-.1-1.542-.191-.157-.022-.314-.051-.471-.079q-.723-.143-1.43-.336c-.146-.045-.292-.084-.437-.135-.286-.084-.578-.179-.858-.286-.151-.056-.3-.112-.449-.168l-.4-.168c-.039-.017-.073-.028-.112-.045-.381-.168-.763-.348-1.133-.544l-.292-.157-.084-.05c-.219-.118-.426-.241-.634-.376q-.252-.16-.5-.336a2.56,2.56,0,0,1-.247-.185.368.368,0,0,1-.1-.067,12.129,12.129,0,0,1-1.049-.886c-.107-.1-.207-.2-.3-.3a11.106,11.106,0,0,1-.908-1.015c-.1-.112-.179-.224-.269-.342a12.415,12.415,0,0,1-.791-1.183,3.927,3.927,0,0,1-.224-.393,9.037,9.037,0,0,1-.482-.925c-.067-.135-.129-.269-.185-.409-.006-.006-.006-.006-.006-.011-.067-.146-.129-.292-.185-.443a2.578,2.578,0,0,1-.107-.292c-.157-.4-.292-.8-.415-1.222v-.006c-.05-.168-.1-.331-.14-.5-.011-.039-.022-.078-.034-.123-.292-.011-.578-.017-.869-.017.011.039.017.073.028.112a17.816,17.816,0,0,0,.516,1.733c.09.241.179.477.275.712.056.14.112.28.179.421a14.281,14.281,0,0,0,4.351,5.68,1.309,1.309,0,0,0,.107.078c.112.09.224.174.342.252.084.062.174.123.264.179.28.2.572.376.869.544.062.039.129.073.2.112s.118.062.174.1c.409.219.819.415,1.239.6.129.056.264.112.4.168l.207.084c.28.112.566.219.852.308a18.729,18.729,0,0,0,6.079,1.009h.028c.174,0,.342,0,.516-.011a19.816,19.816,0,0,0,3.578-.415c.14-.022.28-.05.415-.084.28-.062.561-.135.836-.207.645-.174,1.284-.376,1.912-.611C109.294,929.859,109.12,929.663,108.941,929.467Zm0,0c-.022-.028-.05-.056-.073-.084-.179.062-.353.123-.533.179-.477.157-.953.292-1.436.409-.286.073-.572.14-.864.2h-.006c-.146.028-.292.056-.437.078a1.02,1.02,0,0,1-.179.034h-.006c-.667.112-1.34.191-2.013.235-.185.011-.364.017-.55.022h-.006a14.543,14.543,0,0,1-1.564-.017c-.168-.006-.342-.017-.51-.028h-.006c-.516-.039-1.032-.1-1.542-.191-.157-.022-.314-.051-.471-.079q-.723-.143-1.43-.336c-.146-.045-.292-.084-.437-.135-.286-.084-.578-.179-.858-.286-.151-.056-.3-.112-.449-.168l-.4-.168c-.039-.017-.073-.028-.112-.045-.381-.168-.763-.348-1.133-.544l-.292-.157-.084-.05c-.219-.118-.426-.241-.634-.376q-.252-.16-.5-.336a2.56,2.56,0,0,1-.247-.185.368.368,0,0,1-.1-.067,12.129,12.129,0,0,1-1.049-.886c-.107-.1-.207-.2-.3-.3a11.106,11.106,0,0,1-.908-1.015c-.1-.112-.179-.224-.269-.342a12.415,12.415,0,0,1-.791-1.183,3.927,3.927,0,0,1-.224-.393,9.037,9.037,0,0,1-.482-.925c-.067-.135-.129-.269-.185-.409-.006-.006-.006-.006-.006-.011-.067-.146-.129-.292-.185-.443a2.578,2.578,0,0,1-.107-.292c-.157-.4-.292-.8-.415-1.222v-.006c-.05-.168-.1-.331-.14-.5-.011-.039-.022-.078-.034-.123-.292-.011-.578-.017-.869-.017.011.039.017.073.028.112a17.816,17.816,0,0,0,.516,1.733c.09.241.179.477.275.712.056.14.112.28.179.421a14.281,14.281,0,0,0,4.351,5.68,1.309,1.309,0,0,0,.107.078c.112.09.224.174.342.252.084.062.174.123.264.179.28.2.572.376.869.544.062.039.129.073.2.112s.118.062.174.1c.409.219.819.415,1.239.6.129.056.264.112.4.168l.207.084c.28.112.566.219.852.308a18.729,18.729,0,0,0,6.079,1.009h.028c.174,0,.342,0,.516-.011a19.816,19.816,0,0,0,3.578-.415c.14-.022.28-.05.415-.084.28-.062.561-.135.836-.207.645-.174,1.284-.376,1.912-.611C109.294,929.859,109.12,929.663,108.941,929.467Zm0,0c-.022-.028-.05-.056-.073-.084-.179.062-.353.123-.533.179-.477.157-.953.292-1.436.409-.286.073-.572.14-.864.2h-.006c-.146.028-.292.056-.437.078a1.02,1.02,0,0,1-.179.034h-.006c-.667.112-1.34.191-2.013.235-.185.011-.364.017-.55.022h-.006a14.543,14.543,0,0,1-1.564-.017c-.168-.006-.342-.017-.51-.028h-.006c-.516-.039-1.032-.1-1.542-.191-.157-.022-.314-.051-.471-.079q-.723-.143-1.43-.336c-.146-.045-.292-.084-.437-.135-.286-.084-.578-.179-.858-.286-.151-.056-.3-.112-.449-.168l-.4-.168c-.039-.017-.073-.028-.112-.045-.381-.168-.763-.348-1.133-.544l-.292-.157-.084-.05c-.219-.118-.426-.241-.634-.376q-.252-.16-.5-.336a2.56,2.56,0,0,1-.247-.185.368.368,0,0,1-.1-.067,12.129,12.129,0,0,1-1.049-.886c-.107-.1-.207-.2-.3-.3a11.106,11.106,0,0,1-.908-1.015c-.1-.112-.179-.224-.269-.342a12.415,12.415,0,0,1-.791-1.183,3.927,3.927,0,0,1-.224-.393,9.037,9.037,0,0,1-.482-.925c-.067-.135-.129-.269-.185-.409-.006-.006-.006-.006-.006-.011-.067-.146-.129-.292-.185-.443a2.578,2.578,0,0,1-.107-.292c-.157-.4-.292-.8-.415-1.222v-.006c-.05-.168-.1-.331-.14-.5-.011-.039-.022-.078-.034-.123-.292-.011-.578-.017-.869-.017.011.039.017.073.028.112a17.816,17.816,0,0,0,.516,1.733c.09.241.179.477.275.712.056.14.112.28.179.421a14.281,14.281,0,0,0,4.351,5.68,1.309,1.309,0,0,0,.107.078c.112.09.224.174.342.252.084.062.174.123.264.179.28.2.572.376.869.544.062.039.129.073.2.112s.118.062.174.1c.409.219.819.415,1.239.6.129.056.264.112.4.168l.207.084c.28.112.566.219.852.308a18.729,18.729,0,0,0,6.079,1.009h.028c.174,0,.342,0,.516-.011a19.816,19.816,0,0,0,3.578-.415c.14-.022.28-.05.415-.084.28-.062.561-.135.836-.207.645-.174,1.284-.376,1.912-.611C109.294,929.859,109.12,929.663,108.941,929.467Zm0,0c-.022-.028-.05-.056-.073-.084-.179.062-.353.123-.533.179-.477.157-.953.292-1.436.409-.286.073-.572.14-.864.2h-.006c-.146.028-.292.056-.437.078a1.02,1.02,0,0,1-.179.034h-.006c-.667.112-1.34.191-2.013.235-.185.011-.364.017-.55.022h-.006a14.543,14.543,0,0,1-1.564-.017c-.168-.006-.342-.017-.51-.028h-.006c-.516-.039-1.032-.1-1.542-.191-.157-.022-.314-.051-.471-.079q-.723-.143-1.43-.336c-.146-.045-.292-.084-.437-.135-.286-.084-.578-.179-.858-.286-.151-.056-.3-.112-.449-.168l-.4-.168c-.039-.017-.073-.028-.112-.045-.381-.168-.763-.348-1.133-.544l-.292-.157-.084-.05c-.219-.118-.426-.241-.634-.376q-.252-.16-.5-.336a2.56,2.56,0,0,1-.247-.185.368.368,0,0,1-.1-.067,12.129,12.129,0,0,1-1.049-.886c-.107-.1-.207-.2-.3-.3a11.106,11.106,0,0,1-.908-1.015c-.1-.112-.179-.224-.269-.342a12.415,12.415,0,0,1-.791-1.183,3.927,3.927,0,0,1-.224-.393,9.037,9.037,0,0,1-.482-.925c-.067-.135-.129-.269-.185-.409-.006-.006-.006-.006-.006-.011-.067-.146-.129-.292-.185-.443a2.578,2.578,0,0,1-.107-.292c-.157-.4-.292-.8-.415-1.222v-.006c-.05-.168-.1-.331-.14-.5-.011-.039-.022-.078-.034-.123-.292-.011-.578-.017-.869-.017.011.039.017.073.028.112a17.816,17.816,0,0,0,.516,1.733c.09.241.179.477.275.712.056.14.112.28.179.421a14.281,14.281,0,0,0,4.351,5.68,1.309,1.309,0,0,0,.107.078c.112.09.224.174.342.252.084.062.174.123.264.179.28.2.572.376.869.544.062.039.129.073.2.112s.118.062.174.1c.409.219.819.415,1.239.6.129.056.264.112.4.168l.207.084c.28.112.566.219.852.308a18.729,18.729,0,0,0,6.079,1.009h.028c.174,0,.342,0,.516-.011a19.816,19.816,0,0,0,3.578-.415c.14-.022.28-.05.415-.084.28-.062.561-.135.836-.207.645-.174,1.284-.376,1.912-.611C109.294,929.859,109.12,929.663,108.941,929.467Zm0,0c-.022-.028-.05-.056-.073-.084-.179.062-.353.123-.533.179-.477.157-.953.292-1.436.409-.286.073-.572.14-.864.2h-.006c-.146.028-.292.056-.437.078a1.02,1.02,0,0,1-.179.034h-.006c-.667.112-1.34.191-2.013.235-.185.011-.364.017-.55.022h-.006a14.543,14.543,0,0,1-1.564-.017c-.168-.006-.342-.017-.51-.028h-.006c-.516-.039-1.032-.1-1.542-.191-.157-.022-.314-.051-.471-.079q-.723-.143-1.43-.336c-.146-.045-.292-.084-.437-.135-.286-.084-.578-.179-.858-.286-.151-.056-.3-.112-.449-.168l-.4-.168c-.039-.017-.073-.028-.112-.045-.381-.168-.763-.348-1.133-.544l-.292-.157-.084-.05c-.219-.118-.426-.241-.634-.376q-.252-.16-.5-.336a2.56,2.56,0,0,1-.247-.185.368.368,0,0,1-.1-.067,12.129,12.129,0,0,1-1.049-.886c-.107-.1-.207-.2-.3-.3a11.106,11.106,0,0,1-.908-1.015c-.1-.112-.179-.224-.269-.342a12.415,12.415,0,0,1-.791-1.183,3.927,3.927,0,0,1-.224-.393,9.037,9.037,0,0,1-.482-.925c-.067-.135-.129-.269-.185-.409-.006-.006-.006-.006-.006-.011-.067-.146-.129-.292-.185-.443a2.578,2.578,0,0,1-.107-.292c-.157-.4-.292-.8-.415-1.222v-.006c-.05-.168-.1-.331-.14-.5-.011-.039-.022-.078-.034-.123-.292-.011-.578-.017-.869-.017.011.039.017.073.028.112a17.816,17.816,0,0,0,.516,1.733c.09.241.179.477.275.712.056.14.112.28.179.421a14.281,14.281,0,0,0,4.351,5.68,1.309,1.309,0,0,0,.107.078c.112.09.224.174.342.252.084.062.174.123.264.179.28.2.572.376.869.544.062.039.129.073.2.112s.118.062.174.1c.409.219.819.415,1.239.6.129.056.264.112.4.168l.207.084c.28.112.566.219.852.308a18.729,18.729,0,0,0,6.079,1.009h.028c.174,0,.342,0,.516-.011a19.816,19.816,0,0,0,3.578-.415c.14-.022.28-.05.415-.084.28-.062.561-.135.836-.207.645-.174,1.284-.376,1.912-.611C109.294,929.859,109.12,929.663,108.941,929.467Zm0,0c-.022-.028-.05-.056-.073-.084-.179.062-.353.123-.533.179-.477.157-.953.292-1.436.409-.286.073-.572.14-.864.2h-.006c-.146.028-.292.056-.437.078a1.02,1.02,0,0,1-.179.034h-.006c-.667.112-1.34.191-2.013.235-.185.011-.364.017-.55.022h-.006a14.543,14.543,0,0,1-1.564-.017c-.168-.006-.342-.017-.51-.028h-.006c-.516-.039-1.032-.1-1.542-.191-.157-.022-.314-.051-.471-.079q-.723-.143-1.43-.336c-.146-.045-.292-.084-.437-.135-.286-.084-.578-.179-.858-.286-.151-.056-.3-.112-.449-.168l-.4-.168c-.039-.017-.073-.028-.112-.045-.381-.168-.763-.348-1.133-.544l-.292-.157-.084-.05c-.219-.118-.426-.241-.634-.376q-.252-.16-.5-.336a2.56,2.56,0,0,1-.247-.185.368.368,0,0,1-.1-.067,12.129,12.129,0,0,1-1.049-.886c-.107-.1-.207-.2-.3-.3a11.106,11.106,0,0,1-.908-1.015c-.1-.112-.179-.224-.269-.342a12.415,12.415,0,0,1-.791-1.183,3.927,3.927,0,0,1-.224-.393,9.037,9.037,0,0,1-.482-.925c-.067-.135-.129-.269-.185-.409-.006-.006-.006-.006-.006-.011-.067-.146-.129-.292-.185-.443a2.578,2.578,0,0,1-.107-.292c-.157-.4-.292-.8-.415-1.222v-.006c-.05-.168-.1-.331-.14-.5-.011-.039-.022-.078-.034-.123-.292-.011-.578-.017-.869-.017.011.039.017.073.028.112a17.816,17.816,0,0,0,.516,1.733c.09.241.179.477.275.712.056.14.112.28.179.421a14.281,14.281,0,0,0,4.351,5.68,1.309,1.309,0,0,0,.107.078c.112.09.224.174.342.252.084.062.174.123.264.179.28.2.572.376.869.544.062.039.129.073.2.112s.118.062.174.1c.409.219.819.415,1.239.6.129.056.264.112.4.168l.207.084c.28.112.566.219.852.308a18.729,18.729,0,0,0,6.079,1.009h.028c.174,0,.342,0,.516-.011a19.816,19.816,0,0,0,3.578-.415c.14-.022.28-.05.415-.084.28-.062.561-.135.836-.207.645-.174,1.284-.376,1.912-.611C109.294,929.859,109.12,929.663,108.941,929.467Zm0,0c-.022-.028-.05-.056-.073-.084-.179.062-.353.123-.533.179-.477.157-.953.292-1.436.409-.286.073-.572.14-.864.2h-.006c-.146.028-.292.056-.437.078a1.02,1.02,0,0,1-.179.034h-.006c-.667.112-1.34.191-2.013.235-.185.011-.364.017-.55.022h-.006a14.543,14.543,0,0,1-1.564-.017c-.168-.006-.342-.017-.51-.028h-.006c-.516-.039-1.032-.1-1.542-.191-.157-.022-.314-.051-.471-.079q-.723-.143-1.43-.336c-.146-.045-.292-.084-.437-.135-.286-.084-.578-.179-.858-.286-.151-.056-.3-.112-.449-.168l-.4-.168c-.039-.017-.073-.028-.112-.045-.381-.168-.763-.348-1.133-.544l-.292-.157-.084-.05c-.219-.118-.426-.241-.634-.376q-.252-.16-.5-.336a2.56,2.56,0,0,1-.247-.185.368.368,0,0,1-.1-.067,12.129,12.129,0,0,1-1.049-.886c-.107-.1-.207-.2-.3-.3a11.106,11.106,0,0,1-.908-1.015c-.1-.112-.179-.224-.269-.342a12.415,12.415,0,0,1-.791-1.183,3.927,3.927,0,0,1-.224-.393,9.037,9.037,0,0,1-.482-.925c-.067-.135-.129-.269-.185-.409-.006-.006-.006-.006-.006-.011-.067-.146-.129-.292-.185-.443a2.578,2.578,0,0,1-.107-.292c-.157-.4-.292-.8-.415-1.222v-.006c-.05-.168-.1-.331-.14-.5-.011-.039-.022-.078-.034-.123-.292-.011-.578-.017-.869-.017.011.039.017.073.028.112a17.816,17.816,0,0,0,.516,1.733c.09.241.179.477.275.712.056.14.112.28.179.421a14.281,14.281,0,0,0,4.351,5.68,1.309,1.309,0,0,0,.107.078c.112.09.224.174.342.252.084.062.174.123.264.179.28.2.572.376.869.544.062.039.129.073.2.112s.118.062.174.1c.409.219.819.415,1.239.6.129.056.264.112.4.168l.207.084c.28.112.566.219.852.308a18.729,18.729,0,0,0,6.079,1.009h.028c.174,0,.342,0,.516-.011a19.816,19.816,0,0,0,3.578-.415c.14-.022.28-.05.415-.084.28-.062.561-.135.836-.207.645-.174,1.284-.376,1.912-.611C109.294,929.859,109.12,929.663,108.941,929.467Zm0,0c-.022-.028-.05-.056-.073-.084-.179.062-.353.123-.533.179-.477.157-.953.292-1.436.409-.286.073-.572.14-.864.2h-.006c-.146.028-.292.056-.437.078a1.02,1.02,0,0,1-.179.034h-.006c-.667.112-1.34.191-2.013.235-.185.011-.364.017-.55.022h-.006a14.543,14.543,0,0,1-1.564-.017c-.168-.006-.342-.017-.51-.028h-.006c-.516-.039-1.032-.1-1.542-.191-.157-.022-.314-.051-.471-.079q-.723-.143-1.43-.336c-.146-.045-.292-.084-.437-.135-.286-.084-.578-.179-.858-.286-.151-.056-.3-.112-.449-.168l-.4-.168c-.039-.017-.073-.028-.112-.045-.381-.168-.763-.348-1.133-.544l-.292-.157-.084-.05c-.219-.118-.426-.241-.634-.376q-.252-.16-.5-.336a2.56,2.56,0,0,1-.247-.185.368.368,0,0,1-.1-.067,12.129,12.129,0,0,1-1.049-.886c-.107-.1-.207-.2-.3-.3a11.106,11.106,0,0,1-.908-1.015c-.1-.112-.179-.224-.269-.342a12.415,12.415,0,0,1-.791-1.183,3.927,3.927,0,0,1-.224-.393,9.037,9.037,0,0,1-.482-.925c-.067-.135-.129-.269-.185-.409-.006-.006-.006-.006-.006-.011-.067-.146-.129-.292-.185-.443a2.578,2.578,0,0,1-.107-.292c-.157-.4-.292-.8-.415-1.222v-.006c-.05-.168-.1-.331-.14-.5-.011-.039-.022-.078-.034-.123-.292-.011-.578-.017-.869-.017.011.039.017.073.028.112a17.816,17.816,0,0,0,.516,1.733c.09.241.179.477.275.712.056.14.112.28.179.421a14.281,14.281,0,0,0,4.351,5.68,1.309,1.309,0,0,0,.107.078c.112.09.224.174.342.252.084.062.174.123.264.179.28.2.572.376.869.544.062.039.129.073.2.112s.118.062.174.1c.409.219.819.415,1.239.6.129.056.264.112.4.168l.207.084c.28.112.566.219.852.308a18.729,18.729,0,0,0,6.079,1.009h.028c.174,0,.342,0,.516-.011a19.816,19.816,0,0,0,3.578-.415c.14-.022.28-.05.415-.084.28-.062.561-.135.836-.207.645-.174,1.284-.376,1.912-.611C109.294,929.859,109.12,929.663,108.941,929.467Zm0,0c-.022-.028-.05-.056-.073-.084-.179.062-.353.123-.533.179-.477.157-.953.292-1.436.409-.286.073-.572.14-.864.2h-.006c-.146.028-.292.056-.437.078a1.02,1.02,0,0,1-.179.034h-.006c-.667.112-1.34.191-2.013.235-.185.011-.364.017-.55.022h-.006a14.543,14.543,0,0,1-1.564-.017c-.168-.006-.342-.017-.51-.028h-.006c-.516-.039-1.032-.1-1.542-.191-.157-.022-.314-.051-.471-.079q-.723-.143-1.43-.336c-.146-.045-.292-.084-.437-.135-.286-.084-.578-.179-.858-.286-.151-.056-.3-.112-.449-.168l-.4-.168c-.039-.017-.073-.028-.112-.045-.381-.168-.763-.348-1.133-.544l-.292-.157-.084-.05c-.219-.118-.426-.241-.634-.376q-.252-.16-.5-.336a2.56,2.56,0,0,1-.247-.185.368.368,0,0,1-.1-.067,12.129,12.129,0,0,1-1.049-.886c-.107-.1-.207-.2-.3-.3a11.106,11.106,0,0,1-.908-1.015c-.1-.112-.179-.224-.269-.342a12.415,12.415,0,0,1-.791-1.183,3.927,3.927,0,0,1-.224-.393,9.037,9.037,0,0,1-.482-.925c-.067-.135-.129-.269-.185-.409-.006-.006-.006-.006-.006-.011-.067-.146-.129-.292-.185-.443a2.578,2.578,0,0,1-.107-.292c-.157-.4-.292-.8-.415-1.222v-.006c-.05-.168-.1-.331-.14-.5-.011-.039-.022-.078-.034-.123-.292-.011-.578-.017-.869-.017.011.039.017.073.028.112a17.816,17.816,0,0,0,.516,1.733c.09.241.179.477.275.712.056.14.112.28.179.421a14.281,14.281,0,0,0,4.351,5.68,1.309,1.309,0,0,0,.107.078c.112.09.224.174.342.252.084.062.174.123.264.179.28.2.572.376.869.544.062.039.129.073.2.112s.118.062.174.1c.409.219.819.415,1.239.6.129.056.264.112.4.168l.207.084c.28.112.566.219.852.308a18.729,18.729,0,0,0,6.079,1.009h.028c.174,0,.342,0,.516-.011a19.816,19.816,0,0,0,3.578-.415c.14-.022.28-.05.415-.084.28-.062.561-.135.836-.207.645-.174,1.284-.376,1.912-.611C109.294,929.859,109.12,929.663,108.941,929.467Zm0,0c-.022-.028-.05-.056-.073-.084-.179.062-.353.123-.533.179-.477.157-.953.292-1.436.409-.286.073-.572.14-.864.2h-.006c-.146.028-.292.056-.437.078a1.02,1.02,0,0,1-.179.034h-.006c-.667.112-1.34.191-2.013.235-.185.011-.364.017-.55.022h-.006a14.543,14.543,0,0,1-1.564-.017c-.168-.006-.342-.017-.51-.028h-.006c-.516-.039-1.032-.1-1.542-.191-.157-.022-.314-.051-.471-.079q-.723-.143-1.43-.336c-.146-.045-.292-.084-.437-.135-.286-.084-.578-.179-.858-.286-.151-.056-.3-.112-.449-.168l-.4-.168c-.039-.017-.073-.028-.112-.045-.381-.168-.763-.348-1.133-.544l-.292-.157-.084-.05c-.219-.118-.426-.241-.634-.376q-.252-.16-.5-.336a2.56,2.56,0,0,1-.247-.185.368.368,0,0,1-.1-.067,12.129,12.129,0,0,1-1.049-.886c-.107-.1-.207-.2-.3-.3a11.106,11.106,0,0,1-.908-1.015c-.1-.112-.179-.224-.269-.342a12.415,12.415,0,0,1-.791-1.183,3.927,3.927,0,0,1-.224-.393,9.037,9.037,0,0,1-.482-.925c-.067-.135-.129-.269-.185-.409-.006-.006-.006-.006-.006-.011-.067-.146-.129-.292-.185-.443a2.578,2.578,0,0,1-.107-.292c-.157-.4-.292-.8-.415-1.222v-.006c-.05-.168-.1-.331-.14-.5-.011-.039-.022-.078-.034-.123-.292-.011-.578-.017-.869-.017.011.039.017.073.028.112a17.816,17.816,0,0,0,.516,1.733c.09.241.179.477.275.712.056.14.112.28.179.421a14.281,14.281,0,0,0,4.351,5.68,1.309,1.309,0,0,0,.107.078c.112.09.224.174.342.252.084.062.174.123.264.179.28.2.572.376.869.544.062.039.129.073.2.112s.118.062.174.1c.409.219.819.415,1.239.6.129.056.264.112.4.168l.207.084c.28.112.566.219.852.308a18.729,18.729,0,0,0,6.079,1.009h.028c.174,0,.342,0,.516-.011a19.816,19.816,0,0,0,3.578-.415c.14-.022.28-.05.415-.084.28-.062.561-.135.836-.207.645-.174,1.284-.376,1.912-.611C109.294,929.859,109.12,929.663,108.941,929.467Zm-13.727.3a3.155,3.155,0,0,0-.112-.538.578.578,0,0,0-.039-.14c-.381-.168-.763-.348-1.133-.544l-.292-.157-.084-.05c-.219-.118-.426-.241-.634-.376a6.934,6.934,0,0,0-.751.51c.28.2.572.376.869.544.062.039.129.073.2.112s.118.062.174.1c.409.219.819.415,1.239.6.129.056.264.112.4.168l.207.084A2.9,2.9,0,0,0,95.214,929.764Zm0,0a3.155,3.155,0,0,0-.112-.538.578.578,0,0,0-.039-.14c-.381-.168-.763-.348-1.133-.544l-.292-.157-.084-.05c-.219-.118-.426-.241-.634-.376a6.934,6.934,0,0,0-.751.51c.28.2.572.376.869.544.062.039.129.073.2.112s.118.062.174.1c.409.219.819.415,1.239.6.129.056.264.112.4.168l.207.084A2.9,2.9,0,0,0,95.214,929.764Zm0,0a3.155,3.155,0,0,0-.112-.538.578.578,0,0,0-.039-.14c-.381-.168-.763-.348-1.133-.544l-.292-.157-.084-.05c-.219-.118-.426-.241-.634-.376a6.934,6.934,0,0,0-.751.51c.28.2.572.376.869.544.062.039.129.073.2.112s.118.062.174.1c.409.219.819.415,1.239.6.129.056.264.112.4.168l.207.084A2.9,2.9,0,0,0,95.214,929.764Zm0,0a3.155,3.155,0,0,0-.112-.538.578.578,0,0,0-.039-.14c-.381-.168-.763-.348-1.133-.544l-.292-.157-.084-.05c-.219-.118-.426-.241-.634-.376a6.934,6.934,0,0,0-.751.51c.28.2.572.376.869.544.062.039.129.073.2.112s.118.062.174.1c.409.219.819.415,1.239.6.129.056.264.112.4.168l.207.084A2.9,2.9,0,0,0,95.214,929.764Zm0,0a3.155,3.155,0,0,0-.112-.538.578.578,0,0,0-.039-.14c-.381-.168-.763-.348-1.133-.544l-.292-.157-.084-.05c-.219-.118-.426-.241-.634-.376a6.934,6.934,0,0,0-.751.51c.28.2.572.376.869.544.062.039.129.073.2.112s.118.062.174.1c.409.219.819.415,1.239.6.129.056.264.112.4.168l.207.084A2.9,2.9,0,0,0,95.214,929.764Zm0,0a3.155,3.155,0,0,0-.112-.538.578.578,0,0,0-.039-.14c-.381-.168-.763-.348-1.133-.544l-.292-.157-.084-.05c-.219-.118-.426-.241-.634-.376a6.934,6.934,0,0,0-.751.51c.28.2.572.376.869.544.062.039.129.073.2.112s.118.062.174.1c.409.219.819.415,1.239.6.129.056.264.112.4.168l.207.084A2.9,2.9,0,0,0,95.214,929.764Zm21.555-36.477c-8.523-5.619-20.681-2.26-27.1,7.486a25.264,25.264,0,0,0-3.578,8.467v.006c-.039.163-.073.32-.107.482v.028c-.028.129-.05.258-.073.387-.067.376-.129.751-.174,1.127-.056.415-.1.824-.135,1.239-.022.252-.034.5-.045.751s-.022.477-.022.712c-.006.185-.011.376,0,.561a20.948,20.948,0,0,0,.443,4.206c.039.185.084.376.129.561.011.039.017.073.028.112a17.816,17.816,0,0,0,.516,1.733c.09.241.179.477.275.712.056.14.112.28.179.421a14.281,14.281,0,0,0,4.351,5.68,1.309,1.309,0,0,0,.107.078c.112.09.224.174.342.252.084.062.174.123.264.179.28.2.572.376.869.544.062.039.129.073.2.112s.118.062.174.1c.409.219.819.415,1.239.6.129.056.264.112.4.168l.207.084c.28.112.566.219.852.308a18.729,18.729,0,0,0,6.079,1.009h.028c.174,0,.342,0,.516-.011a19.816,19.816,0,0,0,3.578-.415c.14-.022.28-.05.415-.084.28-.062.561-.135.836-.207.645-.174,1.284-.376,1.912-.611.185-.067.364-.14.55-.213.46-.185.92-.387,1.374-.611.123-.056.252-.118.376-.185.207-.1.415-.213.622-.325q.379-.21.757-.437c.163-.1.325-.2.488-.3a22.789,22.789,0,0,0,3.135-2.4q.421-.37.807-.774a23.1,23.1,0,0,0,3-3.673C127,911.4,125.292,898.906,116.769,893.287Zm3.107,27.393a22.447,22.447,0,0,1-2.837,3.494c-.264.269-.533.527-.807.779a22.094,22.094,0,0,1-3.118,2.372c-.011.006-.017.011-.028.017h-.006c-.151.1-.3.191-.454.28-.179.107-.348.208-.527.3l-.006.006a21.285,21.285,0,0,1-2.664,1.251c-.123.05-.247.1-.37.14l-.191.067c-.179.062-.353.123-.533.179-.477.157-.953.292-1.436.409-.286.073-.572.14-.864.2h-.006c-.146.028-.292.056-.437.078a1.02,1.02,0,0,1-.179.034h-.006c-.667.112-1.34.191-2.013.235-.185.011-.364.017-.55.022h-.006a14.543,14.543,0,0,1-1.564-.017c-.168-.006-.342-.017-.51-.028h-.006c-.516-.039-1.032-.1-1.542-.191-.157-.022-.314-.051-.471-.079q-.723-.143-1.43-.336c-.146-.045-.292-.084-.437-.135-.286-.084-.578-.179-.858-.286-.151-.056-.3-.112-.449-.168l-.4-.168c-.039-.017-.073-.028-.112-.045-.381-.168-.763-.348-1.133-.544l-.292-.157-.084-.05c-.219-.118-.426-.241-.634-.376q-.252-.16-.5-.336a2.56,2.56,0,0,1-.247-.185.368.368,0,0,1-.1-.067,12.129,12.129,0,0,1-1.049-.886c-.107-.1-.207-.2-.3-.3a11.106,11.106,0,0,1-.908-1.015c-.1-.112-.179-.224-.269-.342a12.415,12.415,0,0,1-.791-1.183,3.927,3.927,0,0,1-.224-.393,9.037,9.037,0,0,1-.482-.925c-.067-.135-.129-.269-.185-.409-.006-.006-.006-.006-.006-.011-.067-.146-.129-.292-.185-.443a2.578,2.578,0,0,1-.107-.292c-.157-.4-.292-.8-.415-1.222v-.006c-.05-.168-.1-.331-.14-.5-.011-.039-.022-.078-.034-.123s-.017-.073-.028-.106c-.039-.151-.073-.3-.107-.46-.078-.342-.14-.69-.2-1.037v-.006c-.034-.185-.062-.381-.09-.572v-.006a19.55,19.55,0,0,1-.151-2c-.011-.2-.017-.4-.017-.6v-.073c0-.163,0-.325.011-.488a19.307,19.307,0,0,1,.123-1.963c.022-.252.05-.5.09-.751a.283.283,0,0,1,.011-.067c.045-.353.107-.7.174-1.054q.143-.791.353-1.581v-.006c.09-.365.191-.718.3-1.077v-.005a24.11,24.11,0,0,1,2.916-6.23c4.15-6.3,10.783-9.836,17.153-9.836a15.852,15.852,0,0,1,8.781,2.585c4.8,3.163,7.323,8.624,7.323,14.5A22.247,22.247,0,0,1,119.875,920.68Zm-24.662,9.084a3.155,3.155,0,0,0-.112-.538.578.578,0,0,0-.039-.14c-.381-.168-.763-.348-1.133-.544l-.292-.157-.084-.05c-.219-.118-.426-.241-.634-.376a6.934,6.934,0,0,0-.751.51c.28.2.572.376.869.544.062.039.129.073.2.112s.118.062.174.1c.409.219.819.415,1.239.6.129.056.264.112.4.168l.207.084A2.9,2.9,0,0,0,95.214,929.764Zm0,0a3.155,3.155,0,0,0-.112-.538.578.578,0,0,0-.039-.14c-.381-.168-.763-.348-1.133-.544l-.292-.157-.084-.05c-.219-.118-.426-.241-.634-.376a6.934,6.934,0,0,0-.751.51c.28.2.572.376.869.544.062.039.129.073.2.112s.118.062.174.1c.409.219.819.415,1.239.6.129.056.264.112.4.168l.207.084A2.9,2.9,0,0,0,95.214,929.764Zm0,0a3.155,3.155,0,0,0-.112-.538.578.578,0,0,0-.039-.14c-.381-.168-.763-.348-1.133-.544l-.292-.157-.084-.05c-.219-.118-.426-.241-.634-.376a6.934,6.934,0,0,0-.751.51c.28.2.572.376.869.544.062.039.129.073.2.112s.118.062.174.1c.409.219.819.415,1.239.6.129.056.264.112.4.168l.207.084A2.9,2.9,0,0,0,95.214,929.764Zm0,0a3.155,3.155,0,0,0-.112-.538.578.578,0,0,0-.039-.14c-.381-.168-.763-.348-1.133-.544l-.292-.157-.084-.05c-.219-.118-.426-.241-.634-.376a6.934,6.934,0,0,0-.751.51c.28.2.572.376.869.544.062.039.129.073.2.112s.118.062.174.1c.409.219.819.415,1.239.6.129.056.264.112.4.168l.207.084A2.9,2.9,0,0,0,95.214,929.764Zm0,0a3.155,3.155,0,0,0-.112-.538.578.578,0,0,0-.039-.14c-.381-.168-.763-.348-1.133-.544l-.292-.157-.084-.05c-.219-.118-.426-.241-.634-.376a6.934,6.934,0,0,0-.751.51c.28.2.572.376.869.544.062.039.129.073.2.112s.118.062.174.1c.409.219.819.415,1.239.6.129.056.264.112.4.168l.207.084A2.9,2.9,0,0,0,95.214,929.764Zm0,0a3.155,3.155,0,0,0-.112-.538.578.578,0,0,0-.039-.14c-.381-.168-.763-.348-1.133-.544l-.292-.157-.084-.05c-.219-.118-.426-.241-.634-.376a6.934,6.934,0,0,0-.751.51c.28.2.572.376.869.544.062.039.129.073.2.112s.118.062.174.1c.409.219.819.415,1.239.6.129.056.264.112.4.168l.207.084A2.9,2.9,0,0,0,95.214,929.764Zm13.727-.3c-.022-.028-.05-.056-.073-.084-.179.062-.353.123-.533.179-.477.157-.953.292-1.436.409-.286.073-.572.14-.864.2h-.006c-.146.028-.292.056-.437.078a1.02,1.02,0,0,1-.179.034h-.006c-.667.112-1.34.191-2.013.235-.185.011-.364.017-.55.022h-.006a14.543,14.543,0,0,1-1.564-.017c-.168-.006-.342-.017-.51-.028h-.006c-.516-.039-1.032-.1-1.542-.191-.157-.022-.314-.051-.471-.079q-.723-.143-1.43-.336c-.146-.045-.292-.084-.437-.135-.286-.084-.578-.179-.858-.286-.151-.056-.3-.112-.449-.168l-.4-.168c-.039-.017-.073-.028-.112-.045-.381-.168-.763-.348-1.133-.544l-.292-.157-.084-.05c-.219-.118-.426-.241-.634-.376q-.252-.16-.5-.336a2.56,2.56,0,0,1-.247-.185.368.368,0,0,1-.1-.067,12.129,12.129,0,0,1-1.049-.886c-.107-.1-.207-.2-.3-.3a11.106,11.106,0,0,1-.908-1.015c-.1-.112-.179-.224-.269-.342a12.415,12.415,0,0,1-.791-1.183,3.927,3.927,0,0,1-.224-.393,9.037,9.037,0,0,1-.482-.925c-.067-.135-.129-.269-.185-.409-.006-.006-.006-.006-.006-.011-.067-.146-.129-.292-.185-.443a2.578,2.578,0,0,1-.107-.292c-.157-.4-.292-.8-.415-1.222v-.006c-.05-.168-.1-.331-.14-.5-.011-.039-.022-.078-.034-.123-.292-.011-.578-.017-.869-.017.011.039.017.073.028.112a17.816,17.816,0,0,0,.516,1.733c.09.241.179.477.275.712.056.14.112.28.179.421a14.281,14.281,0,0,0,4.351,5.68,1.309,1.309,0,0,0,.107.078c.112.09.224.174.342.252.084.062.174.123.264.179.28.2.572.376.869.544.062.039.129.073.2.112s.118.062.174.1c.409.219.819.415,1.239.6.129.056.264.112.4.168l.207.084c.28.112.566.219.852.308a18.729,18.729,0,0,0,6.079,1.009h.028c.174,0,.342,0,.516-.011a19.816,19.816,0,0,0,3.578-.415c.14-.022.28-.05.415-.084.28-.062.561-.135.836-.207.645-.174,1.284-.376,1.912-.611C109.294,929.859,109.12,929.663,108.941,929.467Zm0,0c-.022-.028-.05-.056-.073-.084-.179.062-.353.123-.533.179-.477.157-.953.292-1.436.409-.286.073-.572.14-.864.2h-.006c-.146.028-.292.056-.437.078a1.02,1.02,0,0,1-.179.034h-.006c-.667.112-1.34.191-2.013.235-.185.011-.364.017-.55.022h-.006a14.543,14.543,0,0,1-1.564-.017c-.168-.006-.342-.017-.51-.028h-.006c-.516-.039-1.032-.1-1.542-.191-.157-.022-.314-.051-.471-.079q-.723-.143-1.43-.336c-.146-.045-.292-.084-.437-.135-.286-.084-.578-.179-.858-.286-.151-.056-.3-.112-.449-.168l-.4-.168c-.039-.017-.073-.028-.112-.045-.381-.168-.763-.348-1.133-.544l-.292-.157-.084-.05c-.219-.118-.426-.241-.634-.376q-.252-.16-.5-.336a2.56,2.56,0,0,1-.247-.185.368.368,0,0,1-.1-.067,12.129,12.129,0,0,1-1.049-.886c-.107-.1-.207-.2-.3-.3a11.106,11.106,0,0,1-.908-1.015c-.1-.112-.179-.224-.269-.342a12.415,12.415,0,0,1-.791-1.183,3.927,3.927,0,0,1-.224-.393,9.037,9.037,0,0,1-.482-.925c-.067-.135-.129-.269-.185-.409-.006-.006-.006-.006-.006-.011-.067-.146-.129-.292-.185-.443a2.578,2.578,0,0,1-.107-.292c-.157-.4-.292-.8-.415-1.222v-.006c-.05-.168-.1-.331-.14-.5-.011-.039-.022-.078-.034-.123-.292-.011-.578-.017-.869-.017.011.039.017.073.028.112a17.816,17.816,0,0,0,.516,1.733c.09.241.179.477.275.712.056.14.112.28.179.421a14.281,14.281,0,0,0,4.351,5.68,1.309,1.309,0,0,0,.107.078c.112.09.224.174.342.252.084.062.174.123.264.179.28.2.572.376.869.544.062.039.129.073.2.112s.118.062.174.1c.409.219.819.415,1.239.6.129.056.264.112.4.168l.207.084c.28.112.566.219.852.308a18.729,18.729,0,0,0,6.079,1.009h.028c.174,0,.342,0,.516-.011a19.816,19.816,0,0,0,3.578-.415c.14-.022.28-.05.415-.084.28-.062.561-.135.836-.207.645-.174,1.284-.376,1.912-.611C109.294,929.859,109.12,929.663,108.941,929.467Zm0,0c-.022-.028-.05-.056-.073-.084-.179.062-.353.123-.533.179-.477.157-.953.292-1.436.409-.286.073-.572.14-.864.2h-.006c-.146.028-.292.056-.437.078a1.02,1.02,0,0,1-.179.034h-.006c-.667.112-1.34.191-2.013.235-.185.011-.364.017-.55.022h-.006a14.543,14.543,0,0,1-1.564-.017c-.168-.006-.342-.017-.51-.028h-.006c-.516-.039-1.032-.1-1.542-.191-.157-.022-.314-.051-.471-.079q-.723-.143-1.43-.336c-.146-.045-.292-.084-.437-.135-.286-.084-.578-.179-.858-.286-.151-.056-.3-.112-.449-.168l-.4-.168c-.039-.017-.073-.028-.112-.045-.381-.168-.763-.348-1.133-.544l-.292-.157-.084-.05c-.219-.118-.426-.241-.634-.376q-.252-.16-.5-.336a2.56,2.56,0,0,1-.247-.185.368.368,0,0,1-.1-.067,12.129,12.129,0,0,1-1.049-.886c-.107-.1-.207-.2-.3-.3a11.106,11.106,0,0,1-.908-1.015c-.1-.112-.179-.224-.269-.342a12.415,12.415,0,0,1-.791-1.183,3.927,3.927,0,0,1-.224-.393,9.037,9.037,0,0,1-.482-.925c-.067-.135-.129-.269-.185-.409-.006-.006-.006-.006-.006-.011-.067-.146-.129-.292-.185-.443a2.578,2.578,0,0,1-.107-.292c-.157-.4-.292-.8-.415-1.222v-.006c-.05-.168-.1-.331-.14-.5-.011-.039-.022-.078-.034-.123-.292-.011-.578-.017-.869-.017.011.039.017.073.028.112a17.816,17.816,0,0,0,.516,1.733c.09.241.179.477.275.712.056.14.112.28.179.421a14.281,14.281,0,0,0,4.351,5.68,1.309,1.309,0,0,0,.107.078c.112.09.224.174.342.252.084.062.174.123.264.179.28.2.572.376.869.544.062.039.129.073.2.112s.118.062.174.1c.409.219.819.415,1.239.6.129.056.264.112.4.168l.207.084c.28.112.566.219.852.308a18.729,18.729,0,0,0,6.079,1.009h.028c.174,0,.342,0,.516-.011a19.816,19.816,0,0,0,3.578-.415c.14-.022.28-.05.415-.084.28-.062.561-.135.836-.207.645-.174,1.284-.376,1.912-.611C109.294,929.859,109.12,929.663,108.941,929.467Zm0,0c-.022-.028-.05-.056-.073-.084-.179.062-.353.123-.533.179-.477.157-.953.292-1.436.409-.286.073-.572.14-.864.2h-.006c-.146.028-.292.056-.437.078a1.02,1.02,0,0,1-.179.034h-.006c-.667.112-1.34.191-2.013.235-.185.011-.364.017-.55.022h-.006a14.543,14.543,0,0,1-1.564-.017c-.168-.006-.342-.017-.51-.028h-.006c-.516-.039-1.032-.1-1.542-.191-.157-.022-.314-.051-.471-.079q-.723-.143-1.43-.336c-.146-.045-.292-.084-.437-.135-.286-.084-.578-.179-.858-.286-.151-.056-.3-.112-.449-.168l-.4-.168c-.039-.017-.073-.028-.112-.045-.381-.168-.763-.348-1.133-.544l-.292-.157-.084-.05c-.219-.118-.426-.241-.634-.376q-.252-.16-.5-.336a2.56,2.56,0,0,1-.247-.185.368.368,0,0,1-.1-.067,12.129,12.129,0,0,1-1.049-.886c-.107-.1-.207-.2-.3-.3a11.106,11.106,0,0,1-.908-1.015c-.1-.112-.179-.224-.269-.342a12.415,12.415,0,0,1-.791-1.183,3.927,3.927,0,0,1-.224-.393,9.037,9.037,0,0,1-.482-.925c-.067-.135-.129-.269-.185-.409-.006-.006-.006-.006-.006-.011-.067-.146-.129-.292-.185-.443a2.578,2.578,0,0,1-.107-.292c-.157-.4-.292-.8-.415-1.222v-.006c-.05-.168-.1-.331-.14-.5-.011-.039-.022-.078-.034-.123-.292-.011-.578-.017-.869-.017.011.039.017.073.028.112a17.816,17.816,0,0,0,.516,1.733c.09.241.179.477.275.712.056.14.112.28.179.421a14.281,14.281,0,0,0,4.351,5.68,1.309,1.309,0,0,0,.107.078c.112.09.224.174.342.252.084.062.174.123.264.179.28.2.572.376.869.544.062.039.129.073.2.112s.118.062.174.1c.409.219.819.415,1.239.6.129.056.264.112.4.168l.207.084c.28.112.566.219.852.308a18.729,18.729,0,0,0,6.079,1.009h.028c.174,0,.342,0,.516-.011a19.816,19.816,0,0,0,3.578-.415c.14-.022.28-.05.415-.084.28-.062.561-.135.836-.207.645-.174,1.284-.376,1.912-.611C109.294,929.859,109.12,929.663,108.941,929.467Zm0,0c-.022-.028-.05-.056-.073-.084-.179.062-.353.123-.533.179-.477.157-.953.292-1.436.409-.286.073-.572.14-.864.2h-.006c-.146.028-.292.056-.437.078a1.02,1.02,0,0,1-.179.034h-.006c-.667.112-1.34.191-2.013.235-.185.011-.364.017-.55.022h-.006a14.543,14.543,0,0,1-1.564-.017c-.168-.006-.342-.017-.51-.028h-.006c-.516-.039-1.032-.1-1.542-.191-.157-.022-.314-.051-.471-.079q-.723-.143-1.43-.336c-.146-.045-.292-.084-.437-.135-.286-.084-.578-.179-.858-.286-.151-.056-.3-.112-.449-.168l-.4-.168c-.039-.017-.073-.028-.112-.045-.381-.168-.763-.348-1.133-.544l-.292-.157-.084-.05c-.219-.118-.426-.241-.634-.376q-.252-.16-.5-.336a2.56,2.56,0,0,1-.247-.185.368.368,0,0,1-.1-.067,12.129,12.129,0,0,1-1.049-.886c-.107-.1-.207-.2-.3-.3a11.106,11.106,0,0,1-.908-1.015c-.1-.112-.179-.224-.269-.342a12.415,12.415,0,0,1-.791-1.183,3.927,3.927,0,0,1-.224-.393,9.037,9.037,0,0,1-.482-.925c-.067-.135-.129-.269-.185-.409-.006-.006-.006-.006-.006-.011-.067-.146-.129-.292-.185-.443a2.578,2.578,0,0,1-.107-.292c-.157-.4-.292-.8-.415-1.222v-.006c-.05-.168-.1-.331-.14-.5-.011-.039-.022-.078-.034-.123-.292-.011-.578-.017-.869-.017.011.039.017.073.028.112a17.816,17.816,0,0,0,.516,1.733c.09.241.179.477.275.712.056.14.112.28.179.421a14.281,14.281,0,0,0,4.351,5.68,1.309,1.309,0,0,0,.107.078c.112.09.224.174.342.252.084.062.174.123.264.179.28.2.572.376.869.544.062.039.129.073.2.112s.118.062.174.1c.409.219.819.415,1.239.6.129.056.264.112.4.168l.207.084c.28.112.566.219.852.308a18.729,18.729,0,0,0,6.079,1.009h.028c.174,0,.342,0,.516-.011a19.816,19.816,0,0,0,3.578-.415c.14-.022.28-.05.415-.084.28-.062.561-.135.836-.207.645-.174,1.284-.376,1.912-.611C109.294,929.859,109.12,929.663,108.941,929.467Zm0,0c-.022-.028-.05-.056-.073-.084-.179.062-.353.123-.533.179-.477.157-.953.292-1.436.409-.286.073-.572.14-.864.2h-.006c-.146.028-.292.056-.437.078a1.02,1.02,0,0,1-.179.034h-.006c-.667.112-1.34.191-2.013.235-.185.011-.364.017-.55.022h-.006a14.543,14.543,0,0,1-1.564-.017c-.168-.006-.342-.017-.51-.028h-.006c-.516-.039-1.032-.1-1.542-.191-.157-.022-.314-.051-.471-.079q-.723-.143-1.43-.336c-.146-.045-.292-.084-.437-.135-.286-.084-.578-.179-.858-.286-.151-.056-.3-.112-.449-.168l-.4-.168c-.039-.017-.073-.028-.112-.045-.381-.168-.763-.348-1.133-.544l-.292-.157-.084-.05c-.219-.118-.426-.241-.634-.376q-.252-.16-.5-.336a2.56,2.56,0,0,1-.247-.185.368.368,0,0,1-.1-.067,12.129,12.129,0,0,1-1.049-.886c-.107-.1-.207-.2-.3-.3a11.106,11.106,0,0,1-.908-1.015c-.1-.112-.179-.224-.269-.342a12.415,12.415,0,0,1-.791-1.183,3.927,3.927,0,0,1-.224-.393,9.037,9.037,0,0,1-.482-.925c-.067-.135-.129-.269-.185-.409-.006-.006-.006-.006-.006-.011-.067-.146-.129-.292-.185-.443a2.578,2.578,0,0,1-.107-.292c-.157-.4-.292-.8-.415-1.222v-.006c-.05-.168-.1-.331-.14-.5-.011-.039-.022-.078-.034-.123-.292-.011-.578-.017-.869-.017.011.039.017.073.028.112a17.816,17.816,0,0,0,.516,1.733c.09.241.179.477.275.712.056.14.112.28.179.421a14.281,14.281,0,0,0,4.351,5.68,1.309,1.309,0,0,0,.107.078c.112.09.224.174.342.252.084.062.174.123.264.179.28.2.572.376.869.544.062.039.129.073.2.112s.118.062.174.1c.409.219.819.415,1.239.6.129.056.264.112.4.168l.207.084c.28.112.566.219.852.308a18.729,18.729,0,0,0,6.079,1.009h.028c.174,0,.342,0,.516-.011a19.816,19.816,0,0,0,3.578-.415c.14-.022.28-.05.415-.084.28-.062.561-.135.836-.207.645-.174,1.284-.376,1.912-.611C109.294,929.859,109.12,929.663,108.941,929.467Zm0,0c-.022-.028-.05-.056-.073-.084-.179.062-.353.123-.533.179-.477.157-.953.292-1.436.409-.286.073-.572.14-.864.2h-.006c-.146.028-.292.056-.437.078a1.02,1.02,0,0,1-.179.034h-.006c-.667.112-1.34.191-2.013.235-.185.011-.364.017-.55.022h-.006a14.543,14.543,0,0,1-1.564-.017c-.168-.006-.342-.017-.51-.028h-.006c-.516-.039-1.032-.1-1.542-.191-.157-.022-.314-.051-.471-.079q-.723-.143-1.43-.336c-.146-.045-.292-.084-.437-.135-.286-.084-.578-.179-.858-.286-.151-.056-.3-.112-.449-.168l-.4-.168c-.039-.017-.073-.028-.112-.045-.381-.168-.763-.348-1.133-.544l-.292-.157-.084-.05c-.219-.118-.426-.241-.634-.376q-.252-.16-.5-.336a2.56,2.56,0,0,1-.247-.185.368.368,0,0,1-.1-.067,12.129,12.129,0,0,1-1.049-.886c-.107-.1-.207-.2-.3-.3a11.106,11.106,0,0,1-.908-1.015c-.1-.112-.179-.224-.269-.342a12.415,12.415,0,0,1-.791-1.183,3.927,3.927,0,0,1-.224-.393,9.037,9.037,0,0,1-.482-.925c-.067-.135-.129-.269-.185-.409-.006-.006-.006-.006-.006-.011-.067-.146-.129-.292-.185-.443a2.578,2.578,0,0,1-.107-.292c-.157-.4-.292-.8-.415-1.222v-.006c-.05-.168-.1-.331-.14-.5-.011-.039-.022-.078-.034-.123-.292-.011-.578-.017-.869-.017.011.039.017.073.028.112a17.816,17.816,0,0,0,.516,1.733c.09.241.179.477.275.712.056.14.112.28.179.421a14.281,14.281,0,0,0,4.351,5.68,1.309,1.309,0,0,0,.107.078c.112.09.224.174.342.252.084.062.174.123.264.179.28.2.572.376.869.544.062.039.129.073.2.112s.118.062.174.1c.409.219.819.415,1.239.6.129.056.264.112.4.168l.207.084c.28.112.566.219.852.308a18.729,18.729,0,0,0,6.079,1.009h.028c.174,0,.342,0,.516-.011a19.816,19.816,0,0,0,3.578-.415c.14-.022.28-.05.415-.084.28-.062.561-.135.836-.207.645-.174,1.284-.376,1.912-.611C109.294,929.859,109.12,929.663,108.941,929.467Zm0,0c-.022-.028-.05-.056-.073-.084-.179.062-.353.123-.533.179-.477.157-.953.292-1.436.409-.286.073-.572.14-.864.2h-.006c-.146.028-.292.056-.437.078a1.02,1.02,0,0,1-.179.034h-.006c-.667.112-1.34.191-2.013.235-.185.011-.364.017-.55.022h-.006a14.543,14.543,0,0,1-1.564-.017c-.168-.006-.342-.017-.51-.028h-.006c-.516-.039-1.032-.1-1.542-.191-.157-.022-.314-.051-.471-.079q-.723-.143-1.43-.336c-.146-.045-.292-.084-.437-.135-.286-.084-.578-.179-.858-.286-.151-.056-.3-.112-.449-.168l-.4-.168c-.039-.017-.073-.028-.112-.045-.381-.168-.763-.348-1.133-.544l-.292-.157-.084-.05c-.219-.118-.426-.241-.634-.376q-.252-.16-.5-.336a2.56,2.56,0,0,1-.247-.185.368.368,0,0,1-.1-.067,12.129,12.129,0,0,1-1.049-.886c-.107-.1-.207-.2-.3-.3a11.106,11.106,0,0,1-.908-1.015c-.1-.112-.179-.224-.269-.342a12.415,12.415,0,0,1-.791-1.183,3.927,3.927,0,0,1-.224-.393,9.037,9.037,0,0,1-.482-.925c-.067-.135-.129-.269-.185-.409-.006-.006-.006-.006-.006-.011-.067-.146-.129-.292-.185-.443a2.578,2.578,0,0,1-.107-.292c-.157-.4-.292-.8-.415-1.222v-.006c-.05-.168-.1-.331-.14-.5-.011-.039-.022-.078-.034-.123-.292-.011-.578-.017-.869-.017.011.039.017.073.028.112a17.816,17.816,0,0,0,.516,1.733c.09.241.179.477.275.712.056.14.112.28.179.421a14.281,14.281,0,0,0,4.351,5.68,1.309,1.309,0,0,0,.107.078c.112.09.224.174.342.252.084.062.174.123.264.179.28.2.572.376.869.544.062.039.129.073.2.112s.118.062.174.1c.409.219.819.415,1.239.6.129.056.264.112.4.168l.207.084c.28.112.566.219.852.308a18.729,18.729,0,0,0,6.079,1.009h.028c.174,0,.342,0,.516-.011a19.816,19.816,0,0,0,3.578-.415c.14-.022.28-.05.415-.084.28-.062.561-.135.836-.207.645-.174,1.284-.376,1.912-.611C109.294,929.859,109.12,929.663,108.941,929.467Zm0,0c-.022-.028-.05-.056-.073-.084-.179.062-.353.123-.533.179-.477.157-.953.292-1.436.409-.286.073-.572.14-.864.2h-.006c-.146.028-.292.056-.437.078a1.02,1.02,0,0,1-.179.034h-.006c-.667.112-1.34.191-2.013.235-.185.011-.364.017-.55.022h-.006a14.543,14.543,0,0,1-1.564-.017c-.168-.006-.342-.017-.51-.028h-.006c-.516-.039-1.032-.1-1.542-.191-.157-.022-.314-.051-.471-.079q-.723-.143-1.43-.336c-.146-.045-.292-.084-.437-.135-.286-.084-.578-.179-.858-.286-.151-.056-.3-.112-.449-.168l-.4-.168c-.039-.017-.073-.028-.112-.045-.381-.168-.763-.348-1.133-.544l-.292-.157-.084-.05c-.219-.118-.426-.241-.634-.376q-.252-.16-.5-.336a2.56,2.56,0,0,1-.247-.185.368.368,0,0,1-.1-.067,12.129,12.129,0,0,1-1.049-.886c-.107-.1-.207-.2-.3-.3a11.106,11.106,0,0,1-.908-1.015c-.1-.112-.179-.224-.269-.342a12.415,12.415,0,0,1-.791-1.183,3.927,3.927,0,0,1-.224-.393,9.037,9.037,0,0,1-.482-.925c-.067-.135-.129-.269-.185-.409-.006-.006-.006-.006-.006-.011-.067-.146-.129-.292-.185-.443a2.578,2.578,0,0,1-.107-.292c-.157-.4-.292-.8-.415-1.222v-.006c-.05-.168-.1-.331-.14-.5-.011-.039-.022-.078-.034-.123-.292-.011-.578-.017-.869-.017.011.039.017.073.028.112a17.816,17.816,0,0,0,.516,1.733c.09.241.179.477.275.712.056.14.112.28.179.421a14.281,14.281,0,0,0,4.351,5.68,1.309,1.309,0,0,0,.107.078c.112.09.224.174.342.252.084.062.174.123.264.179.28.2.572.376.869.544.062.039.129.073.2.112s.118.062.174.1c.409.219.819.415,1.239.6.129.056.264.112.4.168l.207.084c.28.112.566.219.852.308a18.729,18.729,0,0,0,6.079,1.009h.028c.174,0,.342,0,.516-.011a19.816,19.816,0,0,0,3.578-.415c.14-.022.28-.05.415-.084.28-.062.561-.135.836-.207.645-.174,1.284-.376,1.912-.611C109.294,929.859,109.12,929.663,108.941,929.467Zm0,0c-.022-.028-.05-.056-.073-.084-.179.062-.353.123-.533.179-.477.157-.953.292-1.436.409-.286.073-.572.14-.864.2h-.006c-.146.028-.292.056-.437.078a1.02,1.02,0,0,1-.179.034h-.006c-.667.112-1.34.191-2.013.235-.185.011-.364.017-.55.022h-.006a14.543,14.543,0,0,1-1.564-.017c-.168-.006-.342-.017-.51-.028h-.006c-.516-.039-1.032-.1-1.542-.191-.157-.022-.314-.051-.471-.079q-.723-.143-1.43-.336c-.146-.045-.292-.084-.437-.135-.286-.084-.578-.179-.858-.286-.151-.056-.3-.112-.449-.168l-.4-.168c-.039-.017-.073-.028-.112-.045-.381-.168-.763-.348-1.133-.544l-.292-.157-.084-.05c-.219-.118-.426-.241-.634-.376q-.252-.16-.5-.336a2.56,2.56,0,0,1-.247-.185.368.368,0,0,1-.1-.067,12.129,12.129,0,0,1-1.049-.886c-.107-.1-.207-.2-.3-.3a11.106,11.106,0,0,1-.908-1.015c-.1-.112-.179-.224-.269-.342a12.415,12.415,0,0,1-.791-1.183,3.927,3.927,0,0,1-.224-.393,9.037,9.037,0,0,1-.482-.925c-.067-.135-.129-.269-.185-.409-.006-.006-.006-.006-.006-.011-.067-.146-.129-.292-.185-.443a2.578,2.578,0,0,1-.107-.292c-.157-.4-.292-.8-.415-1.222v-.006c-.05-.168-.1-.331-.14-.5-.011-.039-.022-.078-.034-.123-.292-.011-.578-.017-.869-.017.011.039.017.073.028.112a17.816,17.816,0,0,0,.516,1.733c.09.241.179.477.275.712.056.14.112.28.179.421a14.281,14.281,0,0,0,4.351,5.68,1.309,1.309,0,0,0,.107.078c.112.09.224.174.342.252.084.062.174.123.264.179.28.2.572.376.869.544.062.039.129.073.2.112s.118.062.174.1c.409.219.819.415,1.239.6.129.056.264.112.4.168l.207.084c.28.112.566.219.852.308a18.729,18.729,0,0,0,6.079,1.009h.028c.174,0,.342,0,.516-.011a19.816,19.816,0,0,0,3.578-.415c.14-.022.28-.05.415-.084.28-.062.561-.135.836-.207.645-.174,1.284-.376,1.912-.611C109.294,929.859,109.12,929.663,108.941,929.467Zm0,0c-.022-.028-.05-.056-.073-.084-.179.062-.353.123-.533.179-.477.157-.953.292-1.436.409-.286.073-.572.14-.864.2h-.006c-.146.028-.292.056-.437.078a1.02,1.02,0,0,1-.179.034h-.006c-.667.112-1.34.191-2.013.235-.185.011-.364.017-.55.022h-.006a14.543,14.543,0,0,1-1.564-.017c-.168-.006-.342-.017-.51-.028h-.006c-.516-.039-1.032-.1-1.542-.191-.157-.022-.314-.051-.471-.079q-.723-.143-1.43-.336c-.146-.045-.292-.084-.437-.135-.286-.084-.578-.179-.858-.286-.151-.056-.3-.112-.449-.168l-.4-.168c-.039-.017-.073-.028-.112-.045-.381-.168-.763-.348-1.133-.544l-.292-.157-.084-.05c-.219-.118-.426-.241-.634-.376q-.252-.16-.5-.336a2.56,2.56,0,0,1-.247-.185.368.368,0,0,1-.1-.067,12.129,12.129,0,0,1-1.049-.886c-.107-.1-.207-.2-.3-.3a11.106,11.106,0,0,1-.908-1.015c-.1-.112-.179-.224-.269-.342a12.415,12.415,0,0,1-.791-1.183,3.927,3.927,0,0,1-.224-.393,9.037,9.037,0,0,1-.482-.925c-.067-.135-.129-.269-.185-.409-.006-.006-.006-.006-.006-.011-.067-.146-.129-.292-.185-.443a2.578,2.578,0,0,1-.107-.292c-.157-.4-.292-.8-.415-1.222v-.006c-.05-.168-.1-.331-.14-.5-.011-.039-.022-.078-.034-.123-.292-.011-.578-.017-.869-.017.011.039.017.073.028.112a17.816,17.816,0,0,0,.516,1.733c.09.241.179.477.275.712.056.14.112.28.179.421a14.281,14.281,0,0,0,4.351,5.68,1.309,1.309,0,0,0,.107.078c.112.09.224.174.342.252.084.062.174.123.264.179.28.2.572.376.869.544.062.039.129.073.2.112s.118.062.174.1c.409.219.819.415,1.239.6.129.056.264.112.4.168l.207.084c.28.112.566.219.852.308a18.729,18.729,0,0,0,6.079,1.009h.028c.174,0,.342,0,.516-.011a19.816,19.816,0,0,0,3.578-.415c.14-.022.28-.05.415-.084.28-.062.561-.135.836-.207.645-.174,1.284-.376,1.912-.611C109.294,929.859,109.12,929.663,108.941,929.467Zm0,0c-.022-.028-.05-.056-.073-.084-.179.062-.353.123-.533.179-.477.157-.953.292-1.436.409-.286.073-.572.14-.864.2h-.006c-.146.028-.292.056-.437.078a1.02,1.02,0,0,1-.179.034h-.006c-.667.112-1.34.191-2.013.235-.185.011-.364.017-.55.022h-.006a14.543,14.543,0,0,1-1.564-.017c-.168-.006-.342-.017-.51-.028h-.006c-.516-.039-1.032-.1-1.542-.191-.157-.022-.314-.051-.471-.079q-.723-.143-1.43-.336c-.146-.045-.292-.084-.437-.135-.286-.084-.578-.179-.858-.286-.151-.056-.3-.112-.449-.168l-.4-.168c-.039-.017-.073-.028-.112-.045-.381-.168-.763-.348-1.133-.544l-.292-.157-.084-.05c-.219-.118-.426-.241-.634-.376q-.252-.16-.5-.336a2.56,2.56,0,0,1-.247-.185.368.368,0,0,1-.1-.067,12.129,12.129,0,0,1-1.049-.886c-.107-.1-.207-.2-.3-.3a11.106,11.106,0,0,1-.908-1.015c-.1-.112-.179-.224-.269-.342a12.415,12.415,0,0,1-.791-1.183,3.927,3.927,0,0,1-.224-.393,9.037,9.037,0,0,1-.482-.925c-.067-.135-.129-.269-.185-.409-.006-.006-.006-.006-.006-.011-.067-.146-.129-.292-.185-.443l-.292.381.017.034c-.062-.006-.118-.011-.179-.011-.1-.006-.191-.011-.292-.011.056.14.112.28.179.421a14.281,14.281,0,0,0,4.351,5.68,1.309,1.309,0,0,0,.107.078c.112.09.224.174.342.252.084.062.174.123.264.179.28.2.572.376.869.544.062.039.129.073.2.112s.118.062.174.1c.409.219.819.415,1.239.6.129.056.264.112.4.168l.207.084c.28.112.566.219.852.308a18.729,18.729,0,0,0,6.079,1.009h.028c.174,0,.342,0,.516-.011a19.816,19.816,0,0,0,3.578-.415c.14-.022.28-.05.415-.084.28-.062.561-.135.836-.207.645-.174,1.284-.376,1.912-.611C109.294,929.859,109.12,929.663,108.941,929.467Zm-15.3-1.082-.084-.05c-.219-.118-.426-.241-.634-.376a6.934,6.934,0,0,0-.751.51c.28.2.572.376.869.544.062.039.129.073.2.112s.118.062.174.1l.521-.679Zm1.424.7a.578.578,0,0,1,.039.14l.073-.1C95.135,929.114,95.1,929.1,95.062,929.085Zm-1.424-.7-.084-.05c-.219-.118-.426-.241-.634-.376a6.934,6.934,0,0,0-.751.51c.28.2.572.376.869.544.062.039.129.073.2.112s.118.062.174.1l.521-.679Zm1.424.7a.578.578,0,0,1,.039.14l.073-.1C95.135,929.114,95.1,929.1,95.062,929.085Zm-1.424-.7-.084-.05c-.219-.118-.426-.241-.634-.376a6.934,6.934,0,0,0-.751.51c.28.2.572.376.869.544.062.039.129.073.2.112s.118.062.174.1l.521-.679Zm1.424.7a.578.578,0,0,1,.039.14l.073-.1C95.135,929.114,95.1,929.1,95.062,929.085Z" transform="translate(-69.428 -890.564)" fill="#223245"/>
        <g id="Group_85" data-name="Group 85" transform="translate(0.916 50.786)">
          <path id="Path_283" data-name="Path 283" d="M60.539,1009.684l-.5.645v.006l-.314.409-.146-.5.314-.409.426-.555Q60.43,1009.474,60.539,1009.684Z" transform="translate(-58.946 -993.496)" fill="#223245"/>
          <path id="Path_284" data-name="Path 284" d="M59.14,1006.492l-.224.292-.314.409-.151-.5.314-.409.174-.224C59,1006.194,59.067,1006.34,59.14,1006.492Z" transform="translate(-58.45 -992.082)" fill="#223245"/>
          <path id="Path_285" data-name="Path 285" d="M61.98,1012.657l-.774,1-.056.073-.157.207-.157.2-.056-.2-.084-.28-.006-.017v-.006l.314-.4.746-.97C61.823,1012.4,61.9,1012.528,61.98,1012.657Z" transform="translate(-59.434 -994.81)" fill="#223245"/>
          <path id="Path_286" data-name="Path 286" d="M87.256,981.133a.172.172,0,0,1-.039.151l-.039.051C87.2,981.267,87.227,981.2,87.256,981.133Z" transform="translate(-71.068 -981.133)" fill="#223245"/>
          <path id="Path_287" data-name="Path 287" d="M63.478,1015.474l-.185.241-1.037,1.351-.32.415-.146-.5.314-.409.751-.97.185-.247.191-.247C63.31,1015.228,63.394,1015.351,63.478,1015.474Z" transform="translate(-59.917 -996.057)" fill="#223245"/>
          <path id="Path_288" data-name="Path 288" d="M64.78,1017.79c.09.112.179.23.269.348l-2.007,2.613-.151-.5Z" transform="translate(-60.4 -997.235)" fill="#223245"/>
          <path id="Path_289" data-name="Path 289" d="M66.411,1020.31c.1.107.185.213.28.32l-2.546,3.314L64,1023.45v-.006Z" transform="translate(-60.888 -998.341)" fill="#223245"/>
          <path id="Path_290" data-name="Path 290" d="M68.117,1022.64l-3.017,3.92.146.5,3.168-4.122Z" transform="translate(-61.371 -999.365)" fill="#223245"/>
          <path id="Path_291" data-name="Path 291" d="M70.232,1025.033l-.107.14-.258.331v.006l-.28.359-2.922,3.8-.314.409-.151-.493.32-.415,3.045-3.959.241-.32.1-.123c.062.05.123.1.191.151C70.136,1024.961,70.187,1025,70.232,1025.033Z" transform="translate(-61.854 -1000.3)" fill="#223245"/>
          <path id="Path_292" data-name="Path 292" d="M72.356,1026.854l-1.183,1.542-.191.252h-.006l-.2.269h-.006l-2.282,2.972-.331.432-.426-.146.258-.336,2.221-2.888.241-.308.219-.286L72,1026.63C72.115,1026.708,72.233,1026.781,72.356,1026.854Z" transform="translate(-62.526 -1001.117)" fill="#223245"/>
          <path id="Path_293" data-name="Path 293" d="M75.841,1028.369l-1.11,1.447-.168.219-.174.224L73.1,1031.93l-.4.527h-.006l-.645.157.409-.533,1.587-2.063.174-.224.163-.219,1.065-1.385C75.577,1028.252,75.706,1028.313,75.841,1028.369Z" transform="translate(-64.424 -1001.803)" fill="#223245"/>
          <path id="Path_294" data-name="Path 294" d="M79.7,1029.57l-1.307,1.7h-.006l-.264.348-.011.011-.146.191-.034.045-.022.028-.258.337-.1.123-.645.151.4-.527h.006l.09-.123.168-.219.174-.23,1.525-1.979A4.1,4.1,0,0,0,79.7,1029.57Z" transform="translate(-66.559 -1002.347)" fill="#223245"/>
          <path id="Path_295" data-name="Path 295" d="M83.7,1030.43l-.14.185h-.006l-.735.959-.409.533-.645.151.4-.527.308-.4.561-.729.011-.011.191-.252.163.034h.006C83.508,1030.4,83.6,1030.413,83.7,1030.43Z" transform="translate(-68.693 -1002.747)" fill="#223245"/>
          <path id="Path_296" data-name="Path 296" d="M87.876,1030.9l-.2.258h-.006l-.084.107v.005l-.078.1-.241.314-.65.157.409-.533.191-.241.151-.2a1.179,1.179,0,0,0,.14.011C87.635,1030.892,87.753,1030.9,87.876,1030.9Z" transform="translate(-70.824 -1002.98)" fill="#223245"/>
        </g>
        <path id="Path_297" data-name="Path 297" d="M70.777,1022.937c-.1-.1-.2-.2-.3-.3" transform="translate(-62.818 -948.578)" fill="none"/>
        <path id="Path_298" data-name="Path 298" d="M87.4,990.484c-.039.028-.1.073-.179.14-1.469,1.267-8.731,9.011-13.256,13.907l-.151.168-.219-.034c-.056-.011-.118-.022-.185-.034-2.641-.561-12.74-5.165-15.2-6.3-.292-.135-.471-.219-.527-.247l.353-.763a.354.354,0,0,1,.062.028c.925.432,11.725,5.406,15.051,6.348.129.034.252.067.359.09.062-.067.129-.135.191-.2v-.005c9.247-10.009,12.1-12.824,13.054-13.615h.006c.37-.308.454-.308.521-.308v.841A.548.548,0,0,0,87.4,990.484Z" transform="translate(-57.195 -934.092)" fill="#223245"/>
        <path id="Path_299" data-name="Path 299" d="M91.643,964.214c-.006.006-.056.05-.146.146a28.768,28.768,0,0,0-5.68,9.264c-.028.073-.05.135-.073.191a29.944,29.944,0,0,0-1.1,3.628c-.067.308-.14.622-.2.948a27.421,27.421,0,0,0-.415,2.72c-.022.185-.034.353-.045.527l-.011.1a.992.992,0,0,0-.006.129c-.006.045-.006.09-.011.129-.017.219-.028.415-.039.617-.028.482-.039,1-.039,1.57,0,.219.006.437.011.656.017.763.056,1.43.112,2.052.017.179.039.359.056.544l.006.062c.067.578.151,1.2.264,1.845l.1.549c.107.561.23,1.133.364,1.7l.135.527c.011.045.022.078.034.118v.006c.022.1.05.191.073.286l.2.656.3,1.009c.163.493.342.992.533,1.5l.017.05c.05.135.1.269.151.409q.278.707.589,1.43c.045.112.1.219.146.325l.073.163c.163.376.336.746.5,1.093.034.067.067.14.1.208a.337.337,0,0,0,.022.045l.123.247c.022.039.039.084.062.123.213.438.443.869.684,1.307a.537.537,0,0,0,.028.056c.011.028.022.05.034.073l.034.056-.493.264-.028-.05a1.219,1.219,0,0,1-.079-.146c-.011-.023-.022-.039-.034-.062-.224-.4-.443-.83-.645-1.239-.017-.039-.039-.079-.056-.118h-.006c-.039-.084-.079-.163-.123-.252-.006-.011-.011-.028-.017-.039-.034-.067-.067-.14-.1-.213-.191-.381-.37-.774-.55-1.183l-.045-.1c-.05-.112-.107-.224-.151-.342-.207-.482-.409-.97-.594-1.441-.062-.163-.118-.314-.174-.465l-.017-.056c-.185-.493-.364-.987-.521-1.475l-.325-1.082-.179-.606c-.028-.112-.062-.219-.084-.325a.678.678,0,0,1-.028-.1l-.14-.561c-.14-.566-.264-1.138-.364-1.693l-.107-.561c-.107-.656-.2-1.29-.264-1.878l-.006-.062c-.022-.191-.039-.376-.056-.561-.062-.628-.1-1.306-.118-2.063-.006-.247-.011-.465-.011-.69,0-.583.011-1.11.039-1.6.006-.151.017-.3.028-.443.006-.1.011-.2.022-.292,0-.045.006-.107.011-.163l.006-.078q.008-.177.034-.353c0-.067.011-.135.017-.2.1-.931.236-1.862.421-2.77.062-.325.135-.645.207-.964a30.264,30.264,0,0,1,1.122-3.684,1.864,1.864,0,0,1,.079-.2,29.452,29.452,0,0,1,5.652-9.292c.191-.207.3-.32.308-.325Z" transform="translate(-68.453 -922.737)" fill="#223245"/>
      </g>
      <g id="Group_87" data-name="Group 87" transform="translate(36.698 934.921)">
        <rect id="Rectangle_89" data-name="Rectangle 89" width="0.561" height="2.098" transform="translate(3.008)" fill="#223245"/>
        <rect id="Rectangle_90" data-name="Rectangle 90" width="0.561" height="2.099" transform="translate(3.008 4.478)" fill="#223245"/>
        <rect id="Rectangle_91" data-name="Rectangle 91" width="2.099" height="0.561" transform="translate(0 3.008)" fill="#223245"/>
        <rect id="Rectangle_92" data-name="Rectangle 92" width="2.099" height="0.561" transform="translate(4.478 3.008)" fill="#223245"/>
      </g>
      <g id="Group_88" data-name="Group 88" transform="translate(69.222 937.725)">
        <rect id="Rectangle_93" data-name="Rectangle 93" width="0.561" height="2.098" transform="translate(3.008)" fill="#223245"/>
        <rect id="Rectangle_94" data-name="Rectangle 94" width="0.561" height="2.099" transform="translate(3.008 4.478)" fill="#223245"/>
        <rect id="Rectangle_95" data-name="Rectangle 95" width="2.099" height="0.561" transform="translate(0 3.008)" fill="#223245"/>
        <rect id="Rectangle_96" data-name="Rectangle 96" width="2.099" height="0.561" transform="translate(4.478 3.008)" fill="#223245"/>
      </g>
      <g id="Group_89" data-name="Group 89" transform="translate(54.94 904.373)">
        <path id="Path_300" data-name="Path 300" d="M89.243,928.072l-1.621,2.108-.421.544-.454.594-.4.521c-.017-.213-.022-.432-.034-.645l.37-.477.05-.073.376-.482,2.041-2.658.073-.1v.1C89.226,927.7,89.231,927.887,89.243,928.072Z" transform="translate(-85.749 -920.557)" fill="#223245"/>
        <path id="Path_301" data-name="Path 301" d="M88.944,921.75c-.028.263-.056.533-.084.8v.006l-1.009,1.307-.852,1.1-.572.746-.964,1.25-.118.151c-.017-.213-.022-.432-.034-.645l.2-.258.964-1.25.056-.067.8-1.043Z" transform="translate(-85.31 -918.071)" fill="#223245"/>
        <path id="Path_302" data-name="Path 302" d="M90.179,915.19c-.118.359-.219.718-.308,1.082v.006l-2.378,3.09v.006l-1.15,1.492c-.006-.1-.011-.2-.017-.292v-.028c-.006-.112-.011-.219-.017-.325l.123-.157v-.006l1.363-1.766v-.006Z" transform="translate(-85.749 -915.19)" fill="#223245"/>
        <path id="Path_303" data-name="Path 303" d="M89.7,932.667l-.179.235-2.344,3.045v.006l-.348.449c-.034-.185-.067-.376-.1-.566l.353-.46v-.006l1.929-2.507.409-.533.185-.241c.011.09.022.174.034.263C89.657,932.46,89.68,932.561,89.7,932.667Z" transform="translate(-85.934 -922.613)" fill="#223245"/>
        <path id="Path_304" data-name="Path 304" d="M90.572,936.73l-1.632,2.125-.415.538L88.06,940v.006l-.314.4c-.05-.163-.1-.331-.146-.5l.32-.415.09-.123h.006l.415-.544,2.008-2.607C90.477,936.394,90.527,936.562,90.572,936.73Z" transform="translate(-86.316 -924.427)" fill="#223245"/>
        <path id="Path_305" data-name="Path 305" d="M91.8,940.35l-.241.314-.4.516-1.312,1.71-.527.684-.006.011-.286.37c-.062-.135-.123-.275-.179-.409l-.017-.034.292-.381.213-.275,1.335-1.733.4-.516.55-.718C91.673,940.047,91.735,940.2,91.8,940.35Z" transform="translate(-86.856 -926.039)" fill="#223245"/>
        <path id="Path_306" data-name="Path 306" d="M93.323,943.6l-.751.981-.5.651-.28.37-.9,1.161-.269.353c-.079-.129-.157-.258-.23-.387l.275-.359.634-.824.292-.376.5-.656,1.015-1.323C93.177,943.33,93.25,943.465,93.323,943.6Z" transform="translate(-87.541 -927.489)" fill="#223245"/>
        <path id="Path_307" data-name="Path 307" d="M95.129,946.494l-.286.37-.269.353-1.817,2.361-.258.331c-.1-.107-.179-.219-.269-.336l.258-.336,1.621-2.109.275-.353.488-.639.006-.006a.005.005,0,0,0,.006.006C94.961,946.259,95.045,946.376,95.129,946.494Z" transform="translate(-88.35 -928.78)" fill="#223245"/>
        <path id="Path_308" data-name="Path 308" d="M97.194,949.039l-2.3,2.989-.252.331c-.107-.1-.207-.2-.3-.3l.252-.331,2.316-3.011Q97.043,948.88,97.194,949.039Z" transform="translate(-89.276 -929.918)" fill="#223245"/>
        <path id="Path_309" data-name="Path 309" d="M98.224,951.28l-1.817,2.366-.4.521-.51.667-1.447,1.884c-.118-.078-.23-.163-.342-.252l1.447-1.884.3-.387.213-.28L97.9,951C98.011,951.1,98.118,951.19,98.224,951.28Z" transform="translate(-89 -930.919)" fill="#223245"/>
        <path id="Path_310" data-name="Path 310" d="M100.636,953.124l-1.3,1.7-.034.045-.807,1.054-.521.679-1.419,1.85-.264.342c-.067-.039-.14-.073-.207-.112s-.107-.062-.163-.1l.236-.308,1.447-1.884.516-.679,2.159-2.815c.084.056.174.112.264.168C100.574,953.085,100.6,953.107,100.636,953.124Z" transform="translate(-89.97 -931.754)" fill="#223245"/>
        <path id="Path_311" data-name="Path 311" d="M103.672,954.645l-1.778,2.321-.308.4-.359.465-.168.224-1.346,1.755-.1.123h-.006l-.393-.168.078-.1,1.363-1.778.454-.594.073-.1.533-.7,1.564-2.041Q103.479,954.561,103.672,954.645Z" transform="translate(-91.42 -932.439)" fill="#223245"/>
        <path id="Path_312" data-name="Path 312" d="M108.021,955.871,106,958.507l-.275.353h-.006c-.146-.039-.28-.084-.426-.135l.269-.353,2.041-2.652Z" transform="translate(-94.086 -932.992)" fill="#223245"/>
        <path id="Path_313" data-name="Path 313" d="M111.3,956.806l-1.957,2.546-.3.387-.46-.1.286-.37,1.974-2.574C111,956.739,111.153,956.773,111.3,956.806Z" transform="translate(-95.536 -933.423)" fill="#223245"/>
        <path id="Path_314" data-name="Path 314" d="M114.843,957.416l-.017.022-1.862,2.422-.32.415-.5-.039.308-.4h.006l1.9-2.473c.146.022.286.039.432.051A.2.2,0,0,0,114.843,957.416Z" transform="translate(-97.095 -933.713)" fill="#223245"/>
        <path id="Path_315" data-name="Path 315" d="M118.19,957.651l-.067.09-.46.594-.224.292-1.037,1.351-.667.863-.09.118-.5-.039.05-.067.656-.852h.006l1.262-1.649.23-.3.32-.415c.112.006.23.011.348.006C118.067,957.651,118.129,957.651,118.19,957.651Z" transform="translate(-98.413 -933.836)" fill="#223245"/>
        <path id="Path_316" data-name="Path 316" d="M122.893,957.35l-.067.084L121.7,958.9l-.46.606h-.006l-.219.292-.37.477-.5-.039.471-.617h.006l.09-.123.224-.286.465-.606.908-1.183q.227-.017.454-.051Z" transform="translate(-100.609 -933.708)" fill="#223245"/>
        <path id="Path_317" data-name="Path 317" d="M127.938,956.24l-1.25,1.626-.23.3-.118.151-.7.908-.5-.039.594-.774.314-.409.348-.449.858-1.116C127.484,956.375,127.714,956.307,127.938,956.24Z" transform="translate(-102.805 -933.221)" fill="#223245"/>
        <path id="Path_318" data-name="Path 318" d="M134.359,953.27l-1.222,1.587-.017.028h-.006l-.331.432L131.8,956.6l-.157.2-.219-.017-.286-.022.987-1.29.006-.006.376-.488.353-.46.555-.723.006-.006C133.736,953.623,134.05,953.449,134.359,953.27Z" transform="translate(-105.441 -931.916)" fill="#223245"/>
      </g>
      <path id="Path_319" data-name="Path 319" d="M95.453,943.6c-.073-.135-.146-.269-.213-.409" transform="translate(-34.731 -23.116)" fill="none"/>
      <path id="Path_320" data-name="Path 320" d="M101.51,951.28c-.107-.09-.213-.179-.32-.28" transform="translate(-37.345 -26.546)" fill="none"/>
      <path id="Path_321" data-name="Path 321" d="M106.857,954.645q-.193-.084-.387-.185" transform="translate(-39.664 -28.066)" fill="none"/>
      <path id="Path_322" data-name="Path 322" d="M109.831,955.871l-.421-.151" transform="translate(-40.955 -28.619)" fill="none"/>
    </g>
    <g id="Group_92" data-name="Group 92" transform="translate(263.297 -806.089)">
      <path id="Path_323" data-name="Path 323" d="M-59.274,1021.637v-1.161a18.922,18.922,0,0,1,6.588.988,39.89,39.89,0,0,0,5.787,1.787,20.654,20.654,0,0,0,11.524-1.278,20.768,20.768,0,0,1,16.1.094,19.907,19.907,0,0,0,14.714.252,24.106,24.106,0,0,1,7.647-1.841c.394-.01.789,0,1.222,0v1.056a47.911,47.911,0,0,0-4.8.734c-1.818.458-3.573,1.242-5.382,1.753a20.322,20.322,0,0,1-13.495-.688,21.059,21.059,0,0,0-16.395.051,20.17,20.17,0,0,1-15.189.038,21.131,21.131,0,0,0-7.986-1.713A1.683,1.683,0,0,1-59.274,1021.637Z" transform="translate(-0.011 -18.373)" fill="#547394"/>
      <path id="Path_324" data-name="Path 324" d="M4.328,1033.9v1.073a23.041,23.041,0,0,0-3.488.376c-2.028.522-4.016,1.253-6.027,1.866a20.2,20.2,0,0,1-13.353-.239,24.934,24.934,0,0,0-9.654-1.926,25.79,25.79,0,0,0-8.057,1.873,20.388,20.388,0,0,1-15.038-.269,20.5,20.5,0,0,0-7.53-1.591,3.877,3.877,0,0,1-.437-.055v-1.193a18.914,18.914,0,0,1,5.633.732c1.879.59,3.712,1.42,5.614,1.86a18.9,18.9,0,0,0,11.861-.81,21.639,21.639,0,0,1,12.543-1.448,41.652,41.652,0,0,1,5.479,1.707,19.735,19.735,0,0,0,13.8-.262,23.005,23.005,0,0,1,7.431-1.762c.294-.012.588-.023.882-.019A1.62,1.62,0,0,1,4.328,1033.9Z" transform="translate(-0.019 -24.522)" fill="#547394"/>
      <path id="Path_325" data-name="Path 325" d="M-59.271,995V993.8a16,16,0,0,1,5.5.646c1.728.525,3.4,1.325,5.144,1.758a20.69,20.69,0,0,0,13.1-.883,20.777,20.777,0,0,1,16.112,0,20.826,20.826,0,0,0,16.482-.292A17.424,17.424,0,0,1,4.3,993.782v1.156a20.835,20.835,0,0,0-3.191.3,52.454,52.454,0,0,0-5.5,1.654,22.231,22.231,0,0,1-9.427,1.116c-2.569-.193-4.938-1.255-7.38-2.036a20.44,20.44,0,0,0-14.265.606,20.641,20.641,0,0,1-16.029-.06A20.25,20.25,0,0,0-59.271,995Z" transform="translate(-0.012 -6.114)" fill="#547394"/>
      <path id="Path_326" data-name="Path 326" d="M-59.285,1008.31v-1.223a22.558,22.558,0,0,1,3.248.269,38.113,38.113,0,0,1,5.118,1.468,19.92,19.92,0,0,0,15.027-.037,20.843,20.843,0,0,1,10.967-1.5,30.669,30.669,0,0,1,5.985,1.614,20.438,20.438,0,0,0,15.111-.18,19.817,19.817,0,0,1,7.45-1.58c.209,0,.419.022.679.036v1.042a39.719,39.719,0,0,0-4.556.664c-1.949.507-3.826,1.389-5.776,1.882a21.619,21.619,0,0,1-13.893-.949,19.934,19.934,0,0,0-14.038-.427,45.43,45.43,0,0,1-5.556,1.734,20.472,20.472,0,0,1-11.7-1.109,20.546,20.546,0,0,0-7.6-1.661C-58.95,1008.348-59.08,1008.328-59.285,1008.31Z" transform="translate(-0.006 -12.262)" fill="#547394"/>
      <path id="Path_327" data-name="Path 327" d="M-59.3,981.612v-1.23a29.151,29.151,0,0,1,3.564.321,26.794,26.794,0,0,1,4.5,1.295A20.646,20.646,0,0,0-35.29,981.9a21.519,21.519,0,0,1,9.067-1.418,28.267,28.267,0,0,1,8.112,1.964,20.016,20.016,0,0,0,14.787-.612,18.4,18.4,0,0,1,7.609-1.393v1.162a16.5,16.5,0,0,0-2.632.224,57.573,57.573,0,0,0-5.743,1.621,21.418,21.418,0,0,1-15.733-.313,20.347,20.347,0,0,0-11.446-1.231,20.949,20.949,0,0,0-3.927,1.26,21.283,21.283,0,0,1-16.415-.02,18.347,18.347,0,0,0-6.739-1.462C-58.639,981.683-58.929,981.642-59.3,981.612Z" transform="translate(0)" fill="#547394"/>
    </g>
  </g>
</svg>
