<svg xmlns="http://www.w3.org/2000/svg" xmlns:xlink="http://www.w3.org/1999/xlink" width="86.203" height="63.87" viewBox="0 0 86.203 63.87"><defs><filter id="a" x="0" y="0" width="86.203" height="63.87" filterUnits="userSpaceOnUse"><feOffset dy="3" input="SourceAlpha"/><feGaussianBlur stdDeviation="3" result="b"/><feFlood flood-color="#b49e59" flood-opacity="0.161"/><feComposite operator="in" in2="b"/><feComposite in="SourceGraphic"/></filter></defs><g transform="translate(-110.547 -673.25)"><g transform="matrix(1, 0, 0, 1, 110.55, 673.25)" filter="url(#a)"><path d="M-1560.437,43.843c2.248-.689,3.619-5.989,4.206-8.877a9.96,9.96,0,0,1-2.279-6.355V10a10,10,0,0,1,10-10h44.2a10,10,0,0,1,10,10V28.611a10,10,0,0,1-10,10h-44.2a9.978,9.978,0,0,1-3.61-.672c-2.462,5.2-6.663,6.431-8.249,6.431C-1561.109,44.37-1561.28,44.1-1560.437,43.843Z" transform="translate(1570.76 6.75)" fill="#fff89b" stroke="#547394" stroke-width="1.5" stroke-dasharray="5" opacity="0.921"/></g><path d="M-3.366-12.9v1.467H-7.533V0H-9.279V-11.43h-4.185V-12.9ZM2.664,0H1.953a.849.849,0,0,1-.378-.072.4.4,0,0,1-.189-.306l-.18-.846Q.846-.9.5-.644a4.018,4.018,0,0,1-.72.432,3.731,3.731,0,0,1-.806.265,4.62,4.62,0,0,1-.95.09A3.241,3.241,0,0,1-2.966,0,2.267,2.267,0,0,1-3.771-.45,2.121,2.121,0,0,1-4.316-1.2a2.626,2.626,0,0,1-.2-1.076,2.006,2.006,0,0,1,.3-1.039A2.61,2.61,0,0,1-3.263-4.2,6.244,6.244,0,0,1-1.53-4.838a13.2,13.2,0,0,1,2.619-.284v-.711A2.454,2.454,0,0,0,.634-7.438,1.653,1.653,0,0,0-.711-7.983a2.852,2.852,0,0,0-.985.148A3.73,3.73,0,0,0-2.39-7.5q-.292.184-.5.333a.727.727,0,0,1-.419.149A.48.48,0,0,1-3.6-7.106a.651.651,0,0,1-.194-.212l-.288-.513A5.206,5.206,0,0,1-2.448-8.919a5.03,5.03,0,0,1,1.935-.36,3.453,3.453,0,0,1,1.359.252,2.787,2.787,0,0,1,1,.7,2.973,2.973,0,0,1,.612,1.089,4.535,4.535,0,0,1,.207,1.4ZM-1.494-.981A3.27,3.27,0,0,0-.72-1.067a3.055,3.055,0,0,0,.661-.243,3.506,3.506,0,0,0,.594-.382A5.146,5.146,0,0,0,1.089-2.2V-4.1a13.239,13.239,0,0,0-1.881.175,5.276,5.276,0,0,0-1.26.365,1.755,1.755,0,0,0-.707.531,1.142,1.142,0,0,0-.22.684,1.509,1.509,0,0,0,.117.621,1.177,1.177,0,0,0,.315.428,1.243,1.243,0,0,0,.468.243A2.139,2.139,0,0,0-1.494-.981ZM5.094,3.087v-12.2h.954a.408.408,0,0,1,.432.333L6.615-7.7A4.867,4.867,0,0,1,7.951-8.847a3.414,3.414,0,0,1,1.733-.432,3.291,3.291,0,0,1,1.422.3,2.932,2.932,0,0,1,1.089.891,4.273,4.273,0,0,1,.693,1.463,7.506,7.506,0,0,1,.243,2.007,6.291,6.291,0,0,1-.27,1.876,4.57,4.57,0,0,1-.774,1.5,3.614,3.614,0,0,1-1.238,1A3.661,3.661,0,0,1,9.2.126,3.4,3.4,0,0,1,7.753-.153,3.255,3.255,0,0,1,6.7-.945V3.087ZM9.153-7.983a2.581,2.581,0,0,0-1.372.36A3.956,3.956,0,0,0,6.7-6.606V-2.2a2.576,2.576,0,0,0,.968.837,2.77,2.77,0,0,0,1.174.243,2.3,2.3,0,0,0,1.953-.909,4.246,4.246,0,0,0,.684-2.592,6.468,6.468,0,0,0-.158-1.53A2.992,2.992,0,0,0,10.863-7.2a1.768,1.768,0,0,0-.729-.6A2.425,2.425,0,0,0,9.153-7.983Z" transform="translate(154 706)" fill="#547394"/></g></svg>