<svg xmlns="http://www.w3.org/2000/svg" width="79.457" height="62.093" viewBox="0 0 79.457 62.093"><g transform="translate(-233.991 -391.536)"><path d="M9.2-11.464v1.3H5.5V0H3.944V-10.16H.224v-1.3ZM14.56,0h-.632a.754.754,0,0,1-.336-.064.354.354,0,0,1-.168-.272l-.16-.752q-.32.288-.624.516A3.571,3.571,0,0,1,12-.188a3.316,3.316,0,0,1-.716.236,4.107,4.107,0,0,1-.844.08A2.881,2.881,0,0,1,9.556,0,2.015,2.015,0,0,1,8.84-.4a1.885,1.885,0,0,1-.484-.668,2.334,2.334,0,0,1-.18-.956,1.783,1.783,0,0,1,.264-.924,2.32,2.32,0,0,1,.852-.788,5.551,5.551,0,0,1,1.54-.564,11.733,11.733,0,0,1,2.328-.252v-.632a2.181,2.181,0,0,0-.4-1.428,1.469,1.469,0,0,0-1.2-.484,2.535,2.535,0,0,0-.876.132,3.316,3.316,0,0,0-.616.3q-.26.164-.448.3a.646.646,0,0,1-.372.132A.427.427,0,0,1,9-6.316.579.579,0,0,1,8.824-6.5L8.568-6.96a4.628,4.628,0,0,1,1.448-.968,4.471,4.471,0,0,1,1.72-.32,3.069,3.069,0,0,1,1.208.224,2.477,2.477,0,0,1,.888.624,2.643,2.643,0,0,1,.544.968,4.032,4.032,0,0,1,.184,1.248Zm-3.7-.872a2.907,2.907,0,0,0,.688-.076,2.715,2.715,0,0,0,.588-.216,3.116,3.116,0,0,0,.528-.34,4.574,4.574,0,0,0,.492-.456V-3.648a11.768,11.768,0,0,0-1.672.156,4.69,4.69,0,0,0-1.12.324A1.56,1.56,0,0,0,9.74-2.7a1.015,1.015,0,0,0-.2.608,1.342,1.342,0,0,0,.1.552,1.046,1.046,0,0,0,.28.38,1.105,1.105,0,0,0,.416.216A1.9,1.9,0,0,0,10.864-.872ZM16.72,2.744V-8.1h.848a.363.363,0,0,1,.384.3l.12.96A4.327,4.327,0,0,1,19.26-7.864a3.035,3.035,0,0,1,1.54-.384,2.925,2.925,0,0,1,1.264.268,2.606,2.606,0,0,1,.968.792,3.8,3.8,0,0,1,.616,1.3A6.672,6.672,0,0,1,23.864-4.1a5.592,5.592,0,0,1-.24,1.668A4.062,4.062,0,0,1,22.936-1.1a3.213,3.213,0,0,1-1.1.888,3.254,3.254,0,0,1-1.468.324,3.021,3.021,0,0,1-1.284-.248,2.893,2.893,0,0,1-.94-.7V2.744ZM20.328-7.1a2.294,2.294,0,0,0-1.22.32,3.517,3.517,0,0,0-.964.9v3.92a2.29,2.29,0,0,0,.86.744,2.462,2.462,0,0,0,1.044.216A2.043,2.043,0,0,0,21.784-1.8a3.774,3.774,0,0,0,.608-2.3,5.749,5.749,0,0,0-.14-1.36,2.659,2.659,0,0,0-.4-.932,1.572,1.572,0,0,0-.648-.532A2.155,2.155,0,0,0,20.328-7.1ZM31.1.128A1.954,1.954,0,0,1,29.62-.408,2.139,2.139,0,0,1,29.1-1.952v-4.96h-.976a.319.319,0,0,1-.216-.076.3.3,0,0,1-.088-.236v-.568l1.328-.168.328-2.5a.3.3,0,0,1,.1-.2.33.33,0,0,1,.224-.076h.72v2.792h2.32v1.032h-2.32v4.864a1.035,1.035,0,0,0,.248.76.866.866,0,0,0,.64.248A1.13,1.13,0,0,0,31.8-1.1a1.665,1.665,0,0,0,.284-.132q.12-.072.2-.132a.267.267,0,0,1,.148-.06.245.245,0,0,1,.2.136l.416.68a2.653,2.653,0,0,1-.888.54A3.015,3.015,0,0,1,31.1.128Zm6.792-8.36a4.162,4.162,0,0,1,1.6.3,3.382,3.382,0,0,1,1.216.84,3.719,3.719,0,0,1,.768,1.316,5.233,5.233,0,0,1,.268,1.724,5.223,5.223,0,0,1-.268,1.728,3.724,3.724,0,0,1-.768,1.312,3.34,3.34,0,0,1-1.216.836,4.213,4.213,0,0,1-1.6.292,4.213,4.213,0,0,1-1.6-.292,3.378,3.378,0,0,1-1.22-.836,3.74,3.74,0,0,1-.776-1.312,5.153,5.153,0,0,1-.272-1.728,5.162,5.162,0,0,1,.272-1.724A3.734,3.734,0,0,1,35.064-7.1a3.421,3.421,0,0,1,1.22-.84A4.162,4.162,0,0,1,37.888-8.232Zm0,7.232a2.08,2.08,0,0,0,1.792-.8,3.723,3.723,0,0,0,.592-2.244A3.757,3.757,0,0,0,39.68-6.3a2.076,2.076,0,0,0-1.792-.808,2.487,2.487,0,0,0-1.056.208,1.977,1.977,0,0,0-.748.6,2.665,2.665,0,0,0-.448.964,5.167,5.167,0,0,0-.148,1.292,5.12,5.12,0,0,0,.148,1.288,2.625,2.625,0,0,0,.448.956,1.992,1.992,0,0,0,.748.6A2.487,2.487,0,0,0,37.888-1ZM49.872-8.232a4.162,4.162,0,0,1,1.6.3,3.382,3.382,0,0,1,1.216.84A3.719,3.719,0,0,1,53.46-5.78a5.233,5.233,0,0,1,.268,1.724,5.223,5.223,0,0,1-.268,1.728,3.724,3.724,0,0,1-.768,1.312,3.34,3.34,0,0,1-1.216.836,4.213,4.213,0,0,1-1.6.292,4.213,4.213,0,0,1-1.6-.292,3.378,3.378,0,0,1-1.22-.836,3.74,3.74,0,0,1-.776-1.312A5.153,5.153,0,0,1,46-4.056a5.162,5.162,0,0,1,.272-1.724A3.734,3.734,0,0,1,47.048-7.1a3.421,3.421,0,0,1,1.22-.84A4.162,4.162,0,0,1,49.872-8.232Zm0,7.232a2.08,2.08,0,0,0,1.792-.8,3.723,3.723,0,0,0,.592-2.244A3.757,3.757,0,0,0,51.664-6.3a2.076,2.076,0,0,0-1.792-.808,2.487,2.487,0,0,0-1.056.208,1.977,1.977,0,0,0-.748.6,2.665,2.665,0,0,0-.448.964,5.167,5.167,0,0,0-.148,1.292A5.12,5.12,0,0,0,47.62-2.76a2.625,2.625,0,0,0,.448.956,1.992,1.992,0,0,0,.748.6A2.487,2.487,0,0,0,49.872-1Zm5.616,3.744V-8.1h.848a.363.363,0,0,1,.384.3l.12.96a4.327,4.327,0,0,1,1.188-1.016,3.035,3.035,0,0,1,1.54-.384,2.925,2.925,0,0,1,1.264.268,2.606,2.606,0,0,1,.968.792,3.8,3.8,0,0,1,.616,1.3A6.672,6.672,0,0,1,62.632-4.1a5.592,5.592,0,0,1-.24,1.668A4.062,4.062,0,0,1,61.7-1.1a3.213,3.213,0,0,1-1.1.888,3.254,3.254,0,0,1-1.468.324,3.021,3.021,0,0,1-1.284-.248,2.893,2.893,0,0,1-.94-.7V2.744ZM59.1-7.1a2.294,2.294,0,0,0-1.22.32,3.517,3.517,0,0,0-.964.9v3.92a2.29,2.29,0,0,0,.86.744,2.462,2.462,0,0,0,1.044.216A2.043,2.043,0,0,0,60.552-1.8a3.774,3.774,0,0,0,.608-2.3,5.749,5.749,0,0,0-.14-1.36,2.659,2.659,0,0,0-.4-.932,1.572,1.572,0,0,0-.648-.532A2.155,2.155,0,0,0,59.1-7.1Zm8.432-1.136a3.618,3.618,0,0,1,1.344.244,3.017,3.017,0,0,1,1.064.7,3.21,3.21,0,0,1,.7,1.136,4.389,4.389,0,0,1,.252,1.54.929.929,0,0,1-.072.448.3.3,0,0,1-.272.112H65.152a4.474,4.474,0,0,0,.208,1.336,2.732,2.732,0,0,0,.528.948,2.116,2.116,0,0,0,.8.568,2.747,2.747,0,0,0,1.04.188,3.051,3.051,0,0,0,.924-.124A4.4,4.4,0,0,0,69.32-1.4a5.1,5.1,0,0,0,.468-.268.62.62,0,0,1,.324-.124.313.313,0,0,1,.272.136l.4.52a2.7,2.7,0,0,1-.632.556,3.935,3.935,0,0,1-.788.388A5,5,0,0,1,68.5.036a5.3,5.3,0,0,1-.888.076A4.121,4.121,0,0,1,66.06-.172,3.4,3.4,0,0,1,64.836-1a3.817,3.817,0,0,1-.8-1.356,5.514,5.514,0,0,1-.288-1.856A4.722,4.722,0,0,1,64-5.8a3.733,3.733,0,0,1,.748-1.276,3.443,3.443,0,0,1,1.192-.848A3.913,3.913,0,0,1,67.528-8.232Zm.032,1.048a2.186,2.186,0,0,0-1.624.6A2.805,2.805,0,0,0,65.2-4.936h4.408a2.883,2.883,0,0,0-.136-.908,2.023,2.023,0,0,0-.4-.712,1.79,1.79,0,0,0-.644-.464A2.172,2.172,0,0,0,67.56-7.184ZM72.7,0V-8.1h.848a.363.363,0,0,1,.384.3l.112.88a4.555,4.555,0,0,1,1.18-.944,3.069,3.069,0,0,1,1.508-.36,2.926,2.926,0,0,1,1.172.22,2.268,2.268,0,0,1,.848.624,2.756,2.756,0,0,1,.516.972,4.23,4.23,0,0,1,.176,1.256V0H78.024V-5.16a2.181,2.181,0,0,0-.42-1.428A1.57,1.57,0,0,0,76.32-7.1a2.394,2.394,0,0,0-1.18.3,3.886,3.886,0,0,0-1.012.824V0Z" transform="translate(234 403)" fill="#547394"/><g transform="translate(35.677 373.329) rotate(-16)"><path d="M-7653.75,1389.425s-4.073,30.231-39.693,18.525" transform="translate(7868.971 -1280.871)" fill="none" stroke="#547394" stroke-width="2" stroke-dasharray="6"/><path d="M-7683.851,1433.618c-1.475-.058-6.478,1.821-6.478,1.821l3.8,5.432" transform="translate(7866.449 -1308.109)" fill="none" stroke="#547394" stroke-width="2.5"/></g></g></svg>