<svg xmlns="http://www.w3.org/2000/svg" width="288.263" height="86" viewBox="0 0 288.263 86">
  <g id="Group_162" data-name="Group 162" transform="translate(-50.737 -508)">
    <text id="Tip:_As_your_stories_will_be_sent_to_real_people_try_not_to_include_foul_language_or_inappropriate_content_in_your_writing." data-name="Tip: 
As your stories will be sent to real people, try not to include foul language or inappropriate content in your writing." transform="translate(105 508)" fill="#547394" font-size="14" font-family="Lato-Regular, Lato" letter-spacing="-0.003em"><tspan x="0" y="14">Tip: </tspan><tspan letter-spacing="-0.035em"><tspan x="0" y="31">As your stories will be sent to real people,</tspan><tspan y="31" letter-spacing="-0.003em"> </tspan><tspan x="0" y="48" letter-spacing="0.046em">try not to include foul language or </tspan><tspan x="0" y="65" letter-spacing="-0.003em">inappropriate content in your writing.</tspan></tspan></text>
    <g id="Group_53" data-name="Group 53" transform="translate(-1074.669 -286.77)">
      <g id="Group_52" data-name="Group 52" transform="translate(1125.405 797.924)">
        <g id="Group_50" data-name="Group 50" transform="translate(0 43.685)">
          <path id="Path_202" data-name="Path 202" d="M1119.887,911.328l-3-14.372a1.265,1.265,0,0,0-.579-.793,1.282,1.282,0,0,0-.98-.143l-8.54,2.152-2.014.508-.455.111-10.951,2.758a.8.8,0,0,0-.178.067,1.255,1.255,0,0,0-.766.98,1.2,1.2,0,0,0,.022.53l4.077,13.771a1.2,1.2,0,0,0,.57.722,1.124,1.124,0,0,0,.472.161.983.983,0,0,0,.16.009,1.359,1.359,0,0,0,.3-.031l20.948-4.99a1.229,1.229,0,0,0,.775-.566A1.125,1.125,0,0,0,1119.887,911.328Zm-.709.53a.564.564,0,0,1-.356.258l-10.443,2.486-.445.107-10.055,2.4a.826.826,0,0,1-.236.009.516.516,0,0,1-.214-.076.522.522,0,0,1-.258-.325l-1.234-4.157-2.366-7.993-.361-1.221-.12-.4a.541.541,0,0,1,0-.24.5.5,0,0,1,.035-.134.635.635,0,0,1,.348-.348.247.247,0,0,1,.071-.022l10.723-2.7.454-.111,10.777-2.718a.62.62,0,0,1,.392.031l.076.04a.593.593,0,0,1,.276.365l.022.116,2.976,14.265A.466.466,0,0,1,1119.178,911.858Z" transform="translate(-1092.405 -895.979)" fill="#547394"/>
        </g>
        <path id="Path_203" data-name="Path 203" d="M1133.553,866.049a3.676,3.676,0,0,1-.085.829c-.165.708-.583,1.1-1.136,1.1a1.288,1.288,0,0,1-.312-.036,10.007,10.007,0,0,1-1.354-.45h0c-.147-.058-.29-.12-.432-.183-.851-.365-1.559-.731-1.608-.757l-.232-.12.062-.254a3.889,3.889,0,0,1,1.243-1.907c.058-.053.116-.1.169-.147a6.906,6.906,0,0,1,.561-.41c.192.147.392.281.6.41a5.768,5.768,0,0,0-.508.339c-.031.022-.058.044-.089.067a3.744,3.744,0,0,0-1.247,1.555,17.29,17.29,0,0,0,3,1.207c.142.036.481.116.646-.566a2.978,2.978,0,0,0,.053-.918,3.5,3.5,0,0,0-.107-.637c-.013-.053-.027-.1-.04-.151.249.111.5.209.757.3,0,.049.013.1.018.143A4.42,4.42,0,0,1,1133.553,866.049Z" transform="translate(-1112.358 -834.401)" fill="#547394"/>
        <path id="Path_204" data-name="Path 204" d="M1128.736,828.69c-.013-.054-.027-.1-.04-.152-.383-.165-.762-.352-1.136-.557-.2-.107-.383-.218-.57-.339a5.833,5.833,0,0,0-.508.339c-.031.022-.058.044-.089.067.272.187.557.361.847.521a15.459,15.459,0,0,0,1.6.757A3.517,3.517,0,0,0,1128.736,828.69Zm0,0c-.013-.054-.027-.1-.04-.152-.383-.165-.762-.352-1.136-.557-.2-.107-.383-.218-.57-.339a5.833,5.833,0,0,0-.508.339c-.031.022-.058.044-.089.067.272.187.557.361.847.521a15.459,15.459,0,0,0,1.6.757A3.517,3.517,0,0,0,1128.736,828.69Zm0,0c-.013-.054-.027-.1-.04-.152-.383-.165-.762-.352-1.136-.557-.2-.107-.383-.218-.57-.339a5.833,5.833,0,0,0-.508.339c-.031.022-.058.044-.089.067.272.187.557.361.847.521a15.459,15.459,0,0,0,1.6.757A3.517,3.517,0,0,0,1128.736,828.69Zm0,0c-.013-.054-.027-.1-.04-.152-.383-.165-.762-.352-1.136-.557-.2-.107-.383-.218-.57-.339a5.833,5.833,0,0,0-.508.339c-.031.022-.058.044-.089.067.272.187.557.361.847.521a15.459,15.459,0,0,0,1.6.757A3.517,3.517,0,0,0,1128.736,828.69Zm0,0c-.013-.054-.027-.1-.04-.152-.383-.165-.762-.352-1.136-.557-.2-.107-.383-.218-.57-.339a5.833,5.833,0,0,0-.508.339c-.031.022-.058.044-.089.067.272.187.557.361.847.521a15.459,15.459,0,0,0,1.6.757A3.517,3.517,0,0,0,1128.736,828.69Zm0,0c-.013-.054-.027-.1-.04-.152-.383-.165-.762-.352-1.136-.557-.2-.107-.383-.218-.57-.339a5.833,5.833,0,0,0-.508.339c-.031.022-.058.044-.089.067.272.187.557.361.847.521a15.459,15.459,0,0,0,1.6.757A3.517,3.517,0,0,0,1128.736,828.69Zm17.2-28.593a13.761,13.761,0,0,0-11.418-1.6,17.994,17.994,0,0,0-10.113,7.552,19.107,19.107,0,0,0-2.807,14.813,13.941,13.941,0,0,0,.98,2.722c.071.156.147.307.232.459a11.068,11.068,0,0,0,1.974,2.687h0a9.7,9.7,0,0,0,1.042.918c.111.094.232.178.347.259.072.054.143.1.214.147.272.187.557.361.847.521a15.459,15.459,0,0,0,1.6.757c.223.089.45.169.677.245a14.123,14.123,0,0,0,2.25.575,14.405,14.405,0,0,0,1.96.205c.214.013.427.018.641.018a15.544,15.544,0,0,0,2.972-.285c.182-.027.361-.067.543-.107a17.473,17.473,0,0,0,4.571-1.724,18.381,18.381,0,0,0,6.5-6.023C1154.063,814.491,1152.709,804.56,1145.937,800.1Zm2.468,21.768a17.344,17.344,0,0,1-11.129,7.556c-.192.04-.383.071-.575.1a15.251,15.251,0,0,1-4.125.071,14.376,14.376,0,0,1-3.123-.753c-.254-.094-.508-.192-.757-.3-.383-.165-.762-.352-1.136-.557-.2-.107-.383-.218-.57-.339-.205-.129-.405-.263-.6-.41-.12-.085-.236-.178-.352-.272a10.422,10.422,0,0,1-2.441-2.869c-.089-.156-.174-.312-.254-.472a13.144,13.144,0,0,1-1.1-2.927,18.7,18.7,0,0,1,2.718-14.279,17.312,17.312,0,0,1,9.739-7.275,14.42,14.42,0,0,1,3.89-.544,12.549,12.549,0,0,1,6.976,2.063,13.5,13.5,0,0,1,5.819,11.512A17.7,17.7,0,0,1,1148.405,821.864Zm-19.669,6.825c-.013-.054-.027-.1-.04-.152-.383-.165-.762-.352-1.136-.557-.2-.107-.383-.218-.57-.339a5.833,5.833,0,0,0-.508.339c-.031.022-.058.044-.089.067.272.187.557.361.847.521a15.459,15.459,0,0,0,1.6.757A3.517,3.517,0,0,0,1128.736,828.69Zm0,0c-.013-.054-.027-.1-.04-.152-.383-.165-.762-.352-1.136-.557-.2-.107-.383-.218-.57-.339a5.833,5.833,0,0,0-.508.339c-.031.022-.058.044-.089.067.272.187.557.361.847.521a15.459,15.459,0,0,0,1.6.757A3.517,3.517,0,0,0,1128.736,828.69Zm0,0c-.013-.054-.027-.1-.04-.152-.383-.165-.762-.352-1.136-.557-.2-.107-.383-.218-.57-.339a5.833,5.833,0,0,0-.508.339c-.031.022-.058.044-.089.067.272.187.557.361.847.521a15.459,15.459,0,0,0,1.6.757A3.517,3.517,0,0,0,1128.736,828.69Zm0,0c-.013-.054-.027-.1-.04-.152-.383-.165-.762-.352-1.136-.557-.2-.107-.383-.218-.57-.339a5.833,5.833,0,0,0-.508.339c-.031.022-.058.044-.089.067.272.187.557.361.847.521a15.459,15.459,0,0,0,1.6.757A3.517,3.517,0,0,0,1128.736,828.69Zm0,0c-.013-.054-.027-.1-.04-.152-.383-.165-.762-.352-1.136-.557-.2-.107-.383-.218-.57-.339a5.833,5.833,0,0,0-.508.339c-.031.022-.058.044-.089.067.272.187.557.361.847.521a15.459,15.459,0,0,0,1.6.757A3.517,3.517,0,0,0,1128.736,828.69Z" transform="translate(-1108.325 -797.924)" fill="#547394"/>
        <g id="Group_51" data-name="Group 51" transform="translate(0.385 44.157)">
          <path id="Path_205" data-name="Path 205" d="M1116.882,897.695a1.271,1.271,0,0,0-.143.111c-1.172,1.011-6.937,7.16-10.532,11.053l-.12.129-.173-.027-.147-.027c-2.1-.441-10.127-4.1-12.078-5-.227-.1-.374-.174-.419-.192l.281-.606a.293.293,0,0,1,.049.022c.73.334,9.32,4.295,11.958,5.039.107.027.2.053.285.071.049-.053.1-.107.151-.16v0c7.347-7.948,9.61-10.185,10.372-10.817.3-.245.365-.245.419-.245v.668A.433.433,0,0,0,1116.882,897.695Z" transform="translate(-1093.27 -897.04)" fill="#547394"/>
        </g>
        <path id="Path_206" data-name="Path 206" d="M1125.52,871.521a1.567,1.567,0,0,0-.116.12h0a22.873,22.873,0,0,0-4.509,7.355c-.022.053-.04.1-.058.152a23.428,23.428,0,0,0-.878,2.878c-.058.245-.111.5-.161.753a21.656,21.656,0,0,0-.33,2.161v0c-.018.142-.031.281-.04.419l0,.071a.791.791,0,0,0,0,.107.876.876,0,0,0-.009.1c-.018.174-.027.33-.036.486-.018.383-.027.793-.027,1.252,0,.169,0,.343,0,.521.018.6.049,1.132.094,1.626.013.147.031.29.045.437.058.508.125.989.214,1.51l.08.441c.08.437.178.891.29,1.35l.107.414c.009.036.018.062.027.093v0c.018.076.036.151.058.227l.156.526.24.8c.129.392.272.789.419,1.189l.018.045c.044.12.08.218.12.321.147.374.3.753.463,1.136.04.089.08.178.12.263l.058.125c.156.365.321.713.481,1.034.062.129.111.232.165.334.169.343.352.686.544,1.038a.413.413,0,0,0,.022.044c.009.022.022.045.031.062l-.174.143-.214.071a.665.665,0,0,1-.067-.125.212.212,0,0,1-.022-.045c-.182-.325-.356-.659-.517-.989-.053-.1-.1-.205-.156-.312-.183-.365-.352-.735-.521-1.118l-.031-.076c-.044-.089-.089-.183-.125-.276-.169-.383-.325-.771-.472-1.145-.045-.116-.089-.227-.129-.339l-.013-.044c-.151-.405-.294-.807-.423-1.2l-.258-.86-.143-.486c-.022-.085-.049-.174-.067-.254a.5.5,0,0,1-.022-.076l-.111-.446q-.167-.688-.294-1.35l-.08-.441c-.089-.539-.16-1.025-.209-1.5-.022-.2-.04-.343-.049-.49-.049-.5-.08-1.042-.094-1.644,0-.191-.009-.37-.009-.543,0-.468.009-.882.031-1.274,0-.116.013-.232.022-.352,0-.076.009-.156.018-.232,0-.036,0-.08.009-.134l0-.058q.007-.14.026-.281c0-.054.009-.107.014-.16.071-.735.187-1.479.33-2.2.053-.258.111-.517.169-.771a24.083,24.083,0,0,1,.891-2.927c.013-.049.04-.107.062-.165a23.371,23.371,0,0,1,4.491-7.373c.151-.165.241-.254.245-.258Z" transform="translate(-1107.096 -838.554)" fill="#547394"/>
      </g>
    </g>
  </g>
</svg>
