<svg xmlns="http://www.w3.org/2000/svg" xmlns:xlink="http://www.w3.org/1999/xlink" width="112" height="111.898" viewBox="0 0 112 111.898">
  <defs>
    <filter id="Path_1278" x="0" y="0" width="111.903" height="111.898" filterUnits="userSpaceOnUse">
      <feOffset dy="3" input="SourceAlpha"/>
      <feGaussianBlur stdDeviation="3" result="blur"/>
      <feFlood flood-opacity="0.161"/>
      <feComposite operator="in" in2="blur"/>
      <feComposite in="SourceGraphic"/>
    </filter>
  </defs>
  <g id="Group_730" data-name="Group 730" transform="translate(-132 -461.466)">
    <g id="Group_385" data-name="Group 385" transform="translate(140 436.703)">
      <g transform="matrix(1, 0, 0, 1, -8, 24.76)" filter="url(#Path_1278)">
        <path id="Path_1278-2" data-name="Path 1278" d="M2034.1,2903.9a46.735,46.735,0,0,1-26.276-8.033,47.376,47.376,0,0,1-15.015-16.554,46.965,46.965,0,1,1,82.9-.585,47.89,47.89,0,0,1-10.543,13.426,45.122,45.122,0,0,1-3.7,2.956,46.726,46.726,0,0,1-27.361,8.791Z" transform="translate(-1978.15 -2804)" fill="#f8f8f8"/>
      </g>
      <path id="Path_1289" data-name="Path 1289" d="M2011.028,2821.645" transform="translate(-1980.686 -2776.572)" fill="none" stroke="#707070" stroke-width="1"/>
      <g id="Group_372" data-name="Group 372" transform="translate(1 31.054)">
        <g id="Component_5_77" data-name="Component 5 77">
          <g id="Group_340" data-name="Group 340">
            <g id="Group_692" data-name="Group 692" transform="translate(23 27.106)">
              <g id="Union_17" data-name="Union 17" transform="translate(0 10.137)" fill="#abdaea">
                <path d="M 31 30 L 6.274109840393066 30 L 5.750490188598633 30 L 5.750490188598633 15.5 L 5.750490188598633 14.5 L 4.750490188598633 14.5 L 1.690314412117004 14.5 L 8.514959335327148 2.076923608779907 L 15.33959674835205 14.5 L 12.27941989898682 14.5 L 11.27941989898682 14.5 L 11.27941989898682 15.5 L 11.27941989898682 23.34136962890625 L 11.27941989898682 24.34136962890625 L 12.27941989898682 24.34136962890625 L 31 24.34136962890625 L 31 30 Z" stroke="none"/>
                <path d="M 30 29 L 30 25.34136962890625 L 12.27941989898682 25.34136962890625 L 10.27941989898682 25.34136962890625 L 10.27941989898682 23.34136962890625 L 10.27941989898682 15.5 L 10.27941989898682 13.5 L 12.27941989898682 13.5 L 13.64929294586182 13.5 L 8.514961242675781 4.153833866119385 L 3.380624294281006 13.5 L 4.750490188598633 13.5 L 6.750490188598633 13.5 L 6.750490188598633 15.5 L 6.750490188598633 29 L 30 29 M 32 31 L 6.274109840393066 31 L 4.750490188598633 31 L 4.750490188598633 15.5 L 0 15.5 L 8.514960289001465 -1.77635683940025e-15 L 17.02990913391113 15.5 L 12.27941989898682 15.5 L 12.27941989898682 23.34136962890625 L 32 23.34136962890625 L 32 31 Z" stroke="none" fill="#547394"/>
              </g>
              <g id="Union_18" data-name="Union 18" transform="translate(46 35.137) rotate(180)" fill="#abdaea">
                <path d="M 31 30 L 6.274109840393066 30 L 5.750490188598633 30 L 5.750490188598633 15.5 L 5.750490188598633 14.5 L 4.750490188598633 14.5 L 1.690314412117004 14.5 L 8.514959335327148 2.076923608779907 L 15.33959674835205 14.5 L 12.27941989898682 14.5 L 11.27941989898682 14.5 L 11.27941989898682 15.5 L 11.27941989898682 23.34136962890625 L 11.27941989898682 24.34136962890625 L 12.27941989898682 24.34136962890625 L 31 24.34136962890625 L 31 30 Z" stroke="none"/>
                <path d="M 30 29 L 30 25.34136962890625 L 12.27941989898682 25.34136962890625 L 10.27941989898682 25.34136962890625 L 10.27941989898682 23.34136962890625 L 10.27941989898682 15.5 L 10.27941989898682 13.5 L 12.27941989898682 13.5 L 13.64929294586182 13.5 L 8.514961242675781 4.153833866119385 L 3.380624294281006 13.5 L 4.750490188598633 13.5 L 6.750490188598633 13.5 L 6.750490188598633 15.5 L 6.750490188598633 29 L 30 29 M 32 31 L 6.274109840393066 31 L 4.750490188598633 31 L 4.750490188598633 15.5 L 0 15.5 L 8.514960289001465 -1.77635683940025e-15 L 17.02990913391113 15.5 L 12.27941989898682 15.5 L 12.27941989898682 23.34136962890625 L 32 23.34136962890625 L 32 31 Z" stroke="none" fill="#547394"/>
              </g>
              <path id="Path_1123" data-name="Path 1123" d="M1096.895,605.485l-.534.583-.541-.578c-1.766-1.889-4.617-2.951-6.365-1.045l0,0a5.141,5.141,0,0,0,.034,6.875l.539.577,6.4,6.844,6.86-7.489a5.144,5.144,0,0,0-.033-6.875h0C1101.484,602.488,1098.642,603.578,1096.895,605.485Z" transform="translate(-1045.68 -608.394)" fill="#fbacaa" stroke="#597685" stroke-width="2"/>
            </g>
          </g>
        </g>
      </g>
    </g>
    <g id="Group_636" data-name="Group 636" transform="translate(-10 -6)">
      <g id="Group_701" data-name="Group 701" transform="translate(211 525)">
        <g id="Union_35" data-name="Union 35" fill="#ff9a9a" stroke-linejoin="round">
          <path d="M 21.50010108947754 41.99930191040039 C 16.02383041381836 41.99930191040039 10.87583065032959 39.86721038818359 7.004411220550537 35.99579238891602 C 3.132411003112793 32.1237907409668 1.000001072883606 26.97579002380371 1.000001072883606 21.50010108947754 C 1.000001072883606 16.02441024780273 3.132411003112793 10.87641048431396 7.004411220550537 7.004410743713379 C 10.87641143798828 3.132411003112793 16.02441024780273 1.000000953674316 21.50010108947754 1.000000953674316 C 26.97579193115234 1.000000953674316 32.1237907409668 3.132411003112793 35.99579238891602 7.004410743713379 C 39.86779022216797 10.87641048431396 42.00020217895508 16.02441024780273 42.00020217895508 21.50010108947754 C 42.00020217895508 26.97579002380371 39.86779022216797 32.1237907409668 35.99579238891602 35.99579238891602 C 32.12437057495117 39.86721038818359 26.97637176513672 41.99930191040039 21.50010108947754 41.99930191040039 Z M 32.76491928100586 13.2271614074707 L 31.85925102233887 14.42906093597412 L 17.55566024780273 33.4110221862793 L 16.64841079711914 34.61500930786133 L 18.11044120788574 34.98263931274414 C 19.2136402130127 35.26004028320312 20.35408020019531 35.40069961547852 21.50010108947754 35.40069961547852 C 29.16492080688477 35.40069961547852 35.40069961547852 29.16492080688477 35.40069961547852 21.50010108947754 C 35.40069961547852 19.04974174499512 34.75109100341797 16.63873100280762 33.52210235595703 14.52774047851562 L 32.76491928100586 13.2271614074707 Z M 21.50010108947754 7.600400924682617 C 13.83528137207031 7.600400924682617 7.599501132965088 13.83578109741211 7.599501132965088 21.50010108947754 C 7.599501132965088 24.22985076904297 8.393911361694336 26.87437057495117 9.896841049194336 29.14778137207031 L 10.67763137817383 30.32883071899414 L 11.52967071533203 29.19811058044434 L 26.15397071838379 9.79054069519043 L 27.00671195983887 8.658881187438965 L 25.65475082397461 8.234610557556152 C 24.31377029418945 7.813780784606934 22.91594123840332 7.600400924682617 21.50010108947754 7.600400924682617 Z" stroke="none"/>
          <path d="M 21.50010108947754 40.99930191040039 C 26.70926094055176 40.99930191040039 31.60614013671875 38.97122955322266 35.28869247436523 35.28869247436523 C 38.97180938720703 31.60556030273438 41.00020217895508 26.70868110656738 41.00020217895508 21.50010108947754 C 41.00020217895508 16.2915210723877 38.97180938720703 11.39464092254639 35.28869247436523 7.711511135101318 C 31.60556030273438 4.028390884399414 26.70868110656738 2.000000953674316 21.50010108947754 2.000000953674316 C 16.2915210723877 2.000000953674316 11.39464092254639 4.028390884399414 7.711511135101318 7.711511135101318 C 4.028390884399414 11.39464092254639 2.000001192092896 16.2915210723877 2.000001192092896 21.50010108947754 C 2.000001192092896 26.70868110656738 4.028390884399414 31.60556030273438 7.711511135101318 35.28869247436523 C 11.39406108856201 38.97122955322266 16.29094123840332 40.99930191040039 21.50010108947754 40.99930191040039 M 32.65766525268555 13.03086090087891 C 32.69711303710938 13.03086090087891 32.7366943359375 13.03202724456787 32.77635955810547 13.03438091278076 C 33.44497299194336 13.07406139373779 34.04932022094727 13.44578075408936 34.38631057739258 14.02461051940918 C 35.70413970947266 16.2881908416748 36.40069961547852 18.87317085266113 36.40069961547852 21.50010108947754 C 36.40069961547852 29.7163200378418 29.71632194519043 36.40069961547852 21.50010108947754 36.40069961547852 C 20.27194023132324 36.40069961547852 19.04944038391113 36.2498893737793 17.8665714263916 35.95244979858398 C 17.21647071838379 35.78898239135742 16.69149017333984 35.3106803894043 16.46835136413574 34.67856979370117 C 16.24522018432617 34.04645156860352 16.35360145568848 33.34458160400391 16.75702095031738 32.80921936035156 L 31.06061172485352 13.82726097106934 C 31.43976783752441 13.32407569885254 32.03218460083008 13.03086090087891 32.65766525268555 13.03086090087891 M 21.50010108947754 6.600400924682617 C 23.01762199401855 6.600400924682617 24.51619148254395 6.829220771789551 25.95418167114258 7.280490875244141 C 26.57428169250488 7.475090980529785 27.0611515045166 7.958870887756348 27.25971031188965 8.57771110534668 C 27.45826148986816 9.196560859680176 27.34374046325684 9.873291015625 26.95261192321777 10.39234066009521 L 12.3283109664917 29.79991149902344 C 11.9497594833374 30.30228424072266 11.35783767700195 30.5963191986084 10.73118782043457 30.59630393981934 C 10.71064758300781 30.5963020324707 10.69001960754395 30.59598541259766 10.66941070556641 30.59535026550293 C 10.02008152008057 30.57534027099609 9.420910835266113 30.24118041992188 9.062650680541992 29.69925117492676 C 7.451241016387939 27.26177024841309 6.599501132965088 24.42654037475586 6.599501132965088 21.50010108947754 C 6.599501132965088 13.28438091278076 13.28388118743896 6.600400924682617 21.50010108947754 6.600400924682617 M 21.50010108947754 42.99930191040039 C 15.75720119476318 42.99930191040039 10.35810089111328 40.76370239257812 6.297301292419434 36.70289993286133 C 2.236500978469849 32.6421012878418 1.089477564164554e-06 27.24300003051758 1.089477564164554e-06 21.50010108947754 C 1.089477564164554e-06 15.75720119476318 2.236500978469849 10.35810089111328 6.297301292419434 6.297300815582275 C 10.35810089111328 2.236500978469849 15.75720119476318 9.552002211421495e-07 21.50010108947754 9.552002211421495e-07 C 27.24300193786621 9.552002211421495e-07 32.6421012878418 2.236500978469849 36.70289993286133 6.297300815582275 C 40.76370239257812 10.35810089111328 43.00020217895508 15.75720119476318 43.00020217895508 21.50010108947754 C 43.00020217895508 27.24300003051758 40.76370239257812 32.6421012878418 36.70289993286133 36.70289993286133 C 32.6421012878418 40.76370239257812 27.24300193786621 42.99930191040039 21.50010108947754 42.99930191040039 Z M 32.65789031982422 15.03087139129639 L 18.35430145263672 34.01283264160156 C 19.36140060424805 34.26607131958008 20.4155216217041 34.40069961547852 21.50010108947754 34.40069961547852 C 28.61280059814453 34.40069961547852 34.40069961547852 28.61370086669922 34.40069961547852 21.50010108947754 C 34.40069961547852 19.14411163330078 33.76576232910156 16.9338207244873 32.65789031982422 15.03087139129639 Z M 21.50010108947754 8.600400924682617 C 14.38650131225586 8.600400924682617 8.59950065612793 14.38740062713623 8.59950065612793 21.50010108947754 C 8.59950065612793 24.11951065063477 9.384410858154297 26.55934143066406 10.73103141784668 28.59630012512207 L 25.35533142089844 9.18873119354248 C 24.13738059997559 8.806510925292969 22.84241104125977 8.600400924682617 21.50010108947754 8.600400924682617 Z" stroke="none" fill="#547394"/>
        </g>
      </g>
    </g>
  </g>
</svg>
