<svg xmlns="http://www.w3.org/2000/svg" width="248.38" height="173.772" viewBox="0 0 248.38 173.772">
  <g id="Group_231" data-name="Group 231" transform="translate(-238.213 -171.476)">
    <path id="Path_863" data-name="Path 863" d="M408.63,274.863l3.281-9.165-8.935,3.862-.1-.093L351.736,324l5.854,5.489,51.14-54.537-3.12-2.926Z" transform="translate(89.152 -26.88) rotate(3)" fill="#bcc0cc" opacity="0.51"/>
    <path id="Path_864" data-name="Path 864" d="M395.083,296.76,381.373,235.7l-61.092-32.048a9.888,9.888,0,0,0-12.661,3.04l-38.388,54.189,10.291,42.4,3.191,16.659a6.283,6.283,0,0,0,7.849,4.874l52.872-14.65,47.957-7.927A4.544,4.544,0,0,0,395.083,296.76Z" transform="translate(3.872 3.813)" fill="#bcc0cc" opacity="0.51"/>
    <rect id="Rectangle_198" data-name="Rectangle 198" width="93.125" height="123.27" rx="3.756" transform="translate(379.171 203.043) rotate(14.065)" fill="#bcc0cc" opacity="0.51"/>
    <g id="Group_227" data-name="Group 227" transform="translate(274.711 196.628)">
      <path id="Path_865" data-name="Path 865" d="M382.8,223.391,270.661,248.572l10.291,42.4,3.191,16.66a6.283,6.283,0,0,0,7.849,4.874l52.872-14.65,47.957-7.927a4.544,4.544,0,0,0,3.692-5.479Z" transform="translate(-270.661 -190.211)" fill="#abdaea" stroke="#547394" stroke-miterlimit="10" stroke-width="1"/>
      <path id="Path_866" data-name="Path 866" d="M270.661,252.254l38.388-54.189a9.888,9.888,0,0,1,12.661-3.04L382.8,227.073Z" transform="translate(-270.661 -193.892)" fill="#a3c8d5" stroke="#547394" stroke-miterlimit="10" stroke-width="1"/>
      <path id="Path_867" data-name="Path 867" d="M339.522,266.3l43.28-42.913L270.661,248.572l56.185,20.062A11.42,11.42,0,0,0,339.522,266.3Z" transform="translate(-270.661 -190.211)" fill="#a3c8d5" stroke="#547394" stroke-miterlimit="10" stroke-width="1"/>
      <path id="Path_868" data-name="Path 868" d="M284.779,308.2l25.337-47.978,14.462,4.921a12.233,12.233,0,0,0,13.577-2.5l13.18-13.05,43.417,31.584s.714,4.75-3.692,5.479L343.1,294.582l-52.247,14.476S286.4,309.995,284.779,308.2Z" transform="translate(-268.899 -186.94)" fill="#abdaea" stroke="#547394" stroke-miterlimit="10" stroke-width="1"/>
    </g>
    <g id="Group_228" data-name="Group 228" transform="translate(344.699 195.431)">
      <rect id="Rectangle_199" data-name="Rectangle 199" width="93.125" height="123.27" rx="3.756" transform="translate(29.957 0) rotate(14.065)" fill="#f7f7f7" stroke="#547394" stroke-miterlimit="10" stroke-width="1"/>
      <circle id="Ellipse_187" data-name="Ellipse 187" cx="13.985" cy="13.985" r="13.985" transform="translate(77.601 28.948)" fill="none" stroke="#547394" stroke-linecap="round" stroke-linejoin="round" stroke-width="0.5" opacity="0.71"/>
      <circle id="Ellipse_188" data-name="Ellipse 188" cx="11.343" cy="11.343" r="11.343" transform="translate(80.242 31.589)" fill="none" stroke="#547394" stroke-linecap="round" stroke-linejoin="round" stroke-width="0.5" opacity="0.71"/>
      <path id="Path_869" data-name="Path 869" d="M367.6,242.7s2.683-2.452,4.025-1.242,1.006,2.719,2.683,2.719,5.03-1.341,6.875,0,3.522,2.012,10.9,3.187" transform="translate(-328.549 -186.801)" fill="none" stroke="#547394" stroke-linecap="round" stroke-linejoin="round" stroke-width="0.5" opacity="0.71"/>
      <path id="Path_870" data-name="Path 870" d="M369.606,253.163s39.609,4.144,39.247,8.6" transform="translate(-328.299 -185.298)" fill="none" stroke="#547394" stroke-linecap="round" stroke-linejoin="round" stroke-width="0.5" opacity="0.71"/>
      <line id="Line_30" data-name="Line 30" x1="9.076" y2="34.616" transform="translate(85.008 99.16)" fill="#ffd98b" stroke="#547394" stroke-linecap="round" stroke-linejoin="round" stroke-width="1"/>
    </g>
    <path id="Path_871" data-name="Path 871" d="M342.6,298s54.545,17.095,84.665-7.869c0,0-3.8,27.407-8.955,28.221S342.6,298,342.6,298Z" transform="translate(13.03 14.748)" fill="#547394" opacity="0.18" style="mix-blend-mode: multiply;isolation: isolate"/>
    <g id="Group_229" data-name="Group 229" transform="translate(423.731 253.452) rotate(3)">
      <rect id="Rectangle_200" data-name="Rectangle 200" width="8.025" height="74.763" transform="matrix(0.729, 0.684, -0.684, 0.729, 51.14, 3.769)" fill="#fff89b" stroke="#547394" stroke-linecap="round" stroke-linejoin="round" stroke-width="1"/>
      <path id="Path_872" data-name="Path 872" d="M406.225,261.772l-8.935,3.862,5.654,5.3Z" transform="translate(-346.05 -261.772)" fill="#fff89b" stroke="#547394" stroke-linecap="round" stroke-linejoin="round" stroke-width="1"/>
      <line id="Line_31" data-name="Line 31" y1="49.045" x2="46.612" transform="translate(5.484 10.201)" fill="none" stroke="#fff" stroke-linecap="round" stroke-linejoin="round" stroke-width="1"/>
    </g>
    <circle id="Ellipse_189" data-name="Ellipse 189" cx="10.047" cy="10.047" r="10.047" transform="translate(253.01 306.168)" fill="none" stroke="#547394" stroke-linecap="round" stroke-linejoin="round" stroke-width="1"/>
    <path id="Path_873" data-name="Path 873" d="M260.052,267.005s-25.295-15.723-21.44-31.463,9.975-1.029,9.975-1.029.983-18.075,10.023-13.309S251.756,246.087,260.052,267.005Z" transform="translate(0 6.045)" fill="#f8b67b"/>
    <path id="Path_874" data-name="Path 874" d="M431.985,315.38s26.227-5.543,27.8-20.045-8.126-3.932-8.126-3.932,4.714-15.6-4.4-14.337S445.423,300.225,431.985,315.38Z" transform="translate(24.186 13.108)" fill="#f8b67b"/>
    <g id="Group_230" data-name="Group 230" transform="translate(468.971 204.594)">
      <line id="Line_32" data-name="Line 32" y1="1.877" x2="8.708" transform="translate(6.534 16.239)" fill="none" stroke="#547394" stroke-linecap="round" stroke-linejoin="round" stroke-width="1"/>
      <line id="Line_33" data-name="Line 33" y1="4.9" x2="7.692" transform="translate(3.789 7.247)" fill="none" stroke="#547394" stroke-linecap="round" stroke-linejoin="round" stroke-width="1"/>
      <line id="Line_34" data-name="Line 34" y1="6.402" x2="2.63" fill="none" stroke="#547394" stroke-linecap="round" stroke-linejoin="round" stroke-width="1"/>
    </g>
    <circle id="Ellipse_190" data-name="Ellipse 190" cx="4.934" cy="4.934" r="4.934" transform="translate(276.648 328.073)" fill="none" stroke="#547394" stroke-linecap="round" stroke-linejoin="round" stroke-width="1"/>
    <circle id="Ellipse_191" data-name="Ellipse 191" cx="7.797" cy="7.797" r="7.797" transform="translate(350.969 175.263)" fill="none" stroke="#547394" stroke-linecap="round" stroke-linejoin="round" stroke-width="1"/>
    <circle id="Ellipse_192" data-name="Ellipse 192" cx="4.934" cy="4.934" r="4.934" transform="translate(373.194 171.976)" fill="none" stroke="#547394" stroke-linecap="round" stroke-linejoin="round" stroke-width="1"/>
    <path id="Path_875" data-name="Path 875" d="M436.569,255.587a17.262,17.262,0,0,1,8.733-15.017c-9.017-2.71-8.733-17.171-8.733-17.171h0s.284,14.462-8.734,17.171a17.262,17.262,0,0,1,8.734,15.017Z" transform="translate(23.668 -44.582)" fill="#8bd9c4"/>
    <path id="Path_876" data-name="Path 876" d="M291.615,226.159a13.5,13.5,0,0,1,6.833-11.749c-7.055-2.121-6.833-13.436-6.833-13.436h0s.222,11.315-6.834,13.436a13.505,13.505,0,0,1,6.834,11.749Z" transform="translate(10.812 23.619)" fill="#fff89b"/>
    <path id="Path_877" data-name="Path 877" d="M270.661,246.729s52.869,20.095,87.17-8.567c0,0,.751,1.39-3.06,10.441-2.489,5.914-13.031,13.822-22.828,19.889C331.943,268.492,276.154,251.02,270.661,246.729Z" transform="translate(4.05 8.261)" fill="#547394" opacity="0.18" style="mix-blend-mode: multiply;isolation: isolate"/>
    <path id="Path_878" data-name="Path 878" d="M355.284,213.459s-17.669,84.032-34.774,90.657L337,299.546l21.186-84.563Z" transform="translate(10.272 5.178)" fill="#547394" opacity="0.18" style="mix-blend-mode: multiply;isolation: isolate"/>
    <ellipse id="Ellipse_193" data-name="Ellipse 193" cx="6.006" cy="4.288" rx="6.006" ry="4.288" transform="translate(256.839 316.189)" fill="#cbe3f6"/>
    <ellipse id="Ellipse_194" data-name="Ellipse 194" cx="2.595" cy="1.853" rx="2.595" ry="1.853" transform="translate(278.987 332.81)" fill="#cbe3f6"/>
    <circle id="Ellipse_195" data-name="Ellipse 195" cx="4.288" cy="4.288" r="4.288" transform="translate(354.695 181.245)" fill="#cbe3f6"/>
    <ellipse id="Ellipse_196" data-name="Ellipse 196" cx="2.595" cy="1.853" rx="2.595" ry="1.853" transform="translate(375.533 176.91)" fill="#cbe3f6"/>
  </g>
</svg>
