<svg xmlns="http://www.w3.org/2000/svg" width="336" height="135.888" viewBox="0 0 336 135.888"><g transform="translate(-21 -638.112)"><g transform="translate(21 689)" fill="none" stroke="#547394" stroke-width="2" stroke-dasharray="6"><circle cx="42.5" cy="42.5" r="42.5" stroke="none"/><circle cx="42.5" cy="42.5" r="41.5" fill="none"/></g><g transform="translate(272 689)" fill="none" stroke="#547394" stroke-width="2" stroke-dasharray="6"><circle cx="42.5" cy="42.5" r="42.5" stroke="none"/><circle cx="42.5" cy="42.5" r="41.5" fill="none"/></g><path d="M11.336,0H9.672a.727.727,0,0,1-.46-.14.8.8,0,0,1-.26-.348l-.864-2.36H3.3L2.432-.488a.757.757,0,0,1-.252.336A.708.708,0,0,1,1.72,0H.048L4.592-11.568h2.2ZM3.848-4.368H7.536L6.128-8.216q-.1-.256-.212-.6t-.228-.756q-.112.408-.22.76T5.256-8.2ZM15.856,0V-6.72l-.712-.112a.757.757,0,0,1-.372-.16.419.419,0,0,1-.14-.336v-.808h1.224v-.608a3.55,3.55,0,0,1,.212-1.264,2.629,2.629,0,0,1,.608-.952,2.639,2.639,0,0,1,.964-.6,3.7,3.7,0,0,1,1.28-.208,3.534,3.534,0,0,1,1.056.152l-.04.992a.288.288,0,0,1-.216.288,1.728,1.728,0,0,1-.464.056,2.37,2.37,0,0,0-.628.076,1.057,1.057,0,0,0-.468.264,1.2,1.2,0,0,0-.292.5,2.5,2.5,0,0,0-.1.764v.544H19.9v1.408H17.832V0Zm5.256,0V-8.208h1.16A.622.622,0,0,1,22.7-8.1a.644.644,0,0,1,.16.384l.12.992a3.9,3.9,0,0,1,1.032-1.2,2.172,2.172,0,0,1,1.328-.44,1.716,1.716,0,0,1,1.008.28L26.088-6.6a.306.306,0,0,1-.1.2.352.352,0,0,1-.216.06,1.347,1.347,0,0,1-.328-.056,2.2,2.2,0,0,0-.552-.056,1.676,1.676,0,0,0-1.056.34,2.618,2.618,0,0,0-.744,1V0Zm8.64-8.208V0H27.776V-8.208Zm.3-2.392a1.126,1.126,0,0,1-.1.48,1.319,1.319,0,0,1-.276.392,1.319,1.319,0,0,1-.4.268,1.24,1.24,0,0,1-.5.1,1.192,1.192,0,0,1-.484-.1,1.282,1.282,0,0,1-.4-.268,1.3,1.3,0,0,1-.268-.392,1.164,1.164,0,0,1-.1-.48,1.24,1.24,0,0,1,.1-.5,1.27,1.27,0,0,1,.268-.4,1.282,1.282,0,0,1,.4-.268,1.192,1.192,0,0,1,.484-.1,1.24,1.24,0,0,1,.5.1,1.319,1.319,0,0,1,.4.268,1.29,1.29,0,0,1,.276.4A1.2,1.2,0,0,1,30.048-10.6Zm5.328,2.264a3.985,3.985,0,0,1,1.428.248,3.127,3.127,0,0,1,1.124.724A3.308,3.308,0,0,1,38.664-6.2a4.411,4.411,0,0,1,.264,1.58,2.859,2.859,0,0,1-.02.372.6.6,0,0,1-.072.232.291.291,0,0,1-.14.12.6.6,0,0,1-.224.036H33.4A2.827,2.827,0,0,0,34.08-2a2.12,2.12,0,0,0,1.568.592,2.716,2.716,0,0,0,.828-.112,3.883,3.883,0,0,0,.608-.248q.26-.136.456-.248a.765.765,0,0,1,.38-.112.428.428,0,0,1,.208.048.46.46,0,0,1,.152.136l.576.72a3.293,3.293,0,0,1-.736.644,4.128,4.128,0,0,1-.852.416,4.657,4.657,0,0,1-.9.22,6.473,6.473,0,0,1-.892.064A4.385,4.385,0,0,1,33.88-.164,3.564,3.564,0,0,1,32.6-1a3.941,3.941,0,0,1-.856-1.376,5.325,5.325,0,0,1-.312-1.9A4.544,4.544,0,0,1,31.7-5.86a3.8,3.8,0,0,1,.78-1.288,3.672,3.672,0,0,1,1.24-.868A4.084,4.084,0,0,1,35.376-8.336Zm.04,1.416a1.827,1.827,0,0,0-1.352.488,2.407,2.407,0,0,0-.624,1.384h3.712a2.462,2.462,0,0,0-.1-.724,1.67,1.67,0,0,0-.32-.6,1.514,1.514,0,0,0-.544-.4A1.853,1.853,0,0,0,35.416-6.92ZM40.536,0V-8.208h1.208a.485.485,0,0,1,.5.36l.136.648a4.5,4.5,0,0,1,.524-.464,3.659,3.659,0,0,1,.584-.36,2.975,2.975,0,0,1,.66-.232,3.465,3.465,0,0,1,.768-.08,2.943,2.943,0,0,1,1.192.228,2.355,2.355,0,0,1,.868.64,2.813,2.813,0,0,1,.528.984,4.182,4.182,0,0,1,.18,1.26V0H45.712V-5.224a1.753,1.753,0,0,0-.348-1.164A1.29,1.29,0,0,0,44.32-6.8a2.058,2.058,0,0,0-.96.232,3.44,3.44,0,0,0-.848.632V0ZM55.408,0a.485.485,0,0,1-.5-.36l-.16-.792a4.906,4.906,0,0,1-.536.52,3.389,3.389,0,0,1-.6.4,3.147,3.147,0,0,1-.7.26,3.343,3.343,0,0,1-.8.092,2.716,2.716,0,0,1-1.232-.28,2.745,2.745,0,0,1-.964-.812,3.892,3.892,0,0,1-.624-1.316,6.646,6.646,0,0,1-.22-1.792,5.6,5.6,0,0,1,.248-1.7,4.127,4.127,0,0,1,.712-1.36,3.322,3.322,0,0,1,1.112-.9,3.211,3.211,0,0,1,1.456-.324,2.848,2.848,0,0,1,1.176.22,3.081,3.081,0,0,1,.872.588v-4.336h1.976V0ZM52.776-1.448A2.021,2.021,0,0,0,53.824-1.7a3.113,3.113,0,0,0,.816-.728v-3.68a1.945,1.945,0,0,0-.732-.576,2.159,2.159,0,0,0-.852-.168,1.915,1.915,0,0,0-.812.168,1.588,1.588,0,0,0-.616.508,2.488,2.488,0,0,0-.388.864A4.96,4.96,0,0,0,51.1-4.08a5.487,5.487,0,0,0,.116,1.22,2.4,2.4,0,0,0,.332.816,1.265,1.265,0,0,0,.528.456A1.681,1.681,0,0,0,52.776-1.448Zm8.76-10.12v4.576a13.95,13.95,0,0,1-.072,1.428q-.072.7-.192,1.484H59.936q-.12-.784-.192-1.484a13.95,13.95,0,0,1-.072-1.428v-4.576ZM59.368-1.088a1.23,1.23,0,0,1,.092-.472,1.128,1.128,0,0,1,.256-.384A1.26,1.26,0,0,1,60.1-2.2a1.206,1.206,0,0,1,.48-.1,1.186,1.186,0,0,1,.472.1,1.211,1.211,0,0,1,.384.256,1.211,1.211,0,0,1,.256.384,1.186,1.186,0,0,1,.1.472,1.177,1.177,0,0,1-.1.476,1.223,1.223,0,0,1-.256.38,1.158,1.158,0,0,1-.384.252,1.23,1.23,0,0,1-.472.092A1.251,1.251,0,0,1,60.1.02a1.2,1.2,0,0,1-.388-.252,1.137,1.137,0,0,1-.256-.38A1.221,1.221,0,0,1,59.368-1.088Z" transform="translate(94 650)" fill="#547394"/><path d="M7.368-9.464a.594.594,0,0,1-.2.248.513.513,0,0,1-.276.072.7.7,0,0,1-.36-.124q-.2-.124-.472-.276A3.854,3.854,0,0,0,5.42-9.82a2.673,2.673,0,0,0-.86-.124,2.528,2.528,0,0,0-.78.108,1.651,1.651,0,0,0-.56.3,1.2,1.2,0,0,0-.34.46,1.51,1.51,0,0,0-.112.588A1.022,1.022,0,0,0,3-7.808a1.9,1.9,0,0,0,.6.464A5.605,5.605,0,0,0,4.456-7q.48.152.98.324a9.437,9.437,0,0,1,.98.4,3.4,3.4,0,0,1,.856.576,2.611,2.611,0,0,1,.6.852A2.959,2.959,0,0,1,8.1-3.624a3.988,3.988,0,0,1-.268,1.468A3.387,3.387,0,0,1,7.052-.964a3.693,3.693,0,0,1-1.26.8,4.639,4.639,0,0,1-1.7.292A5.494,5.494,0,0,1,3,.02,5.727,5.727,0,0,1,1.972-.288a5.368,5.368,0,0,1-.92-.48,4.527,4.527,0,0,1-.764-.624L.912-2.424a.8.8,0,0,1,.212-.188A.518.518,0,0,1,1.4-2.688a.763.763,0,0,1,.432.164q.232.164.548.364a4.205,4.205,0,0,0,.744.364,2.876,2.876,0,0,0,1.028.164,2.11,2.11,0,0,0,1.424-.436,1.566,1.566,0,0,0,.5-1.252,1.163,1.163,0,0,0-.228-.744,1.841,1.841,0,0,0-.6-.484,4.51,4.51,0,0,0-.856-.332q-.48-.136-.976-.3A8.416,8.416,0,0,1,2.44-5.56a3.162,3.162,0,0,1-.856-.584,2.657,2.657,0,0,1-.6-.9A3.43,3.43,0,0,1,.752-8.376,3.153,3.153,0,0,1,1-9.608a3.154,3.154,0,0,1,.736-1.064,3.633,3.633,0,0,1,1.188-.744,4.325,4.325,0,0,1,1.608-.28,5.4,5.4,0,0,1,1.888.32,4.262,4.262,0,0,1,1.472.9ZM9.64,0V-11.888h1.976V-7.32a4.182,4.182,0,0,1,1.056-.736,3.06,3.06,0,0,1,1.352-.28,2.943,2.943,0,0,1,1.192.228,2.355,2.355,0,0,1,.868.64,2.813,2.813,0,0,1,.528.984,4.182,4.182,0,0,1,.18,1.26V0H14.816V-5.224a1.753,1.753,0,0,0-.348-1.164A1.29,1.29,0,0,0,13.424-6.8a2.058,2.058,0,0,0-.96.232,3.44,3.44,0,0,0-.848.632V0ZM25.168,0H24.28a.956.956,0,0,1-.44-.084.541.541,0,0,1-.24-.34l-.176-.584a6.778,6.778,0,0,1-.612.492,3.716,3.716,0,0,1-.62.356,3.163,3.163,0,0,1-.68.216,4.091,4.091,0,0,1-.8.072,3.152,3.152,0,0,1-.96-.14A2.07,2.07,0,0,1,19-.432a1.907,1.907,0,0,1-.492-.7,2.469,2.469,0,0,1-.176-.968,1.909,1.909,0,0,1,.244-.916,2.3,2.3,0,0,1,.812-.816,5.193,5.193,0,0,1,1.512-.6A10.687,10.687,0,0,1,23.24-4.7v-.48a1.811,1.811,0,0,0-.348-1.22,1.275,1.275,0,0,0-1.012-.4,2.449,2.449,0,0,0-.8.112,3.1,3.1,0,0,0-.556.252q-.236.14-.436.252a.885.885,0,0,1-.44.112.572.572,0,0,1-.344-.1.819.819,0,0,1-.232-.256l-.36-.632a4.881,4.881,0,0,1,3.416-1.3,3.3,3.3,0,0,1,1.284.236,2.729,2.729,0,0,1,.956.656,2.807,2.807,0,0,1,.6,1,3.858,3.858,0,0,1,.2,1.28Zm-3.84-1.232a2.622,2.622,0,0,0,.56-.056,2.121,2.121,0,0,0,.484-.168,2.573,2.573,0,0,0,.44-.276,4,4,0,0,0,.428-.388V-3.5a10.82,10.82,0,0,0-1.444.148,3.838,3.838,0,0,0-.932.276,1.2,1.2,0,0,0-.5.392.868.868,0,0,0-.148.488.858.858,0,0,0,.308.744A1.335,1.335,0,0,0,21.328-1.232ZM27.112,0V-8.208h1.16A.622.622,0,0,1,28.7-8.1a.644.644,0,0,1,.16.384l.12.992a3.9,3.9,0,0,1,1.032-1.2,2.172,2.172,0,0,1,1.328-.44,1.716,1.716,0,0,1,1.008.28L32.088-6.6a.306.306,0,0,1-.1.2.352.352,0,0,1-.216.06,1.347,1.347,0,0,1-.328-.056,2.2,2.2,0,0,0-.552-.056,1.676,1.676,0,0,0-1.056.34,2.618,2.618,0,0,0-.744,1V0ZM37.04-8.336a3.985,3.985,0,0,1,1.428.248,3.127,3.127,0,0,1,1.124.724A3.308,3.308,0,0,1,40.328-6.2a4.411,4.411,0,0,1,.264,1.58,2.859,2.859,0,0,1-.02.372.6.6,0,0,1-.072.232.291.291,0,0,1-.14.12.6.6,0,0,1-.224.036H35.064A2.827,2.827,0,0,0,35.744-2a2.12,2.12,0,0,0,1.568.592,2.716,2.716,0,0,0,.828-.112,3.883,3.883,0,0,0,.608-.248q.26-.136.456-.248a.765.765,0,0,1,.38-.112.428.428,0,0,1,.208.048.46.46,0,0,1,.152.136l.576.72a3.293,3.293,0,0,1-.736.644,4.128,4.128,0,0,1-.852.416,4.657,4.657,0,0,1-.9.22,6.473,6.473,0,0,1-.892.064,4.385,4.385,0,0,1-1.592-.284A3.564,3.564,0,0,1,34.264-1a3.941,3.941,0,0,1-.856-1.376,5.325,5.325,0,0,1-.312-1.9,4.544,4.544,0,0,1,.272-1.58,3.8,3.8,0,0,1,.78-1.288,3.672,3.672,0,0,1,1.24-.868A4.084,4.084,0,0,1,37.04-8.336Zm.04,1.416a1.827,1.827,0,0,0-1.352.488A2.407,2.407,0,0,0,35.1-5.048h3.712a2.462,2.462,0,0,0-.1-.724,1.67,1.67,0,0,0-.32-.6,1.514,1.514,0,0,0-.544-.4A1.853,1.853,0,0,0,37.08-6.92ZM48.2,2.256a.764.764,0,0,1-.228.316.7.7,0,0,1-.428.108H46.072L47.608-.608l-3.32-7.6h1.728a.542.542,0,0,1,.368.112.736.736,0,0,1,.192.256l1.752,4.256a3.755,3.755,0,0,1,.152.432q.064.224.112.448.064-.232.14-.448t.164-.44L50.544-7.84a.582.582,0,0,1,.212-.264.564.564,0,0,1,.332-.1h1.584ZM57.064-8.336a4.5,4.5,0,0,1,1.668.3,3.6,3.6,0,0,1,1.276.84,3.718,3.718,0,0,1,.816,1.328,5.052,5.052,0,0,1,.288,1.752,5.076,5.076,0,0,1-.288,1.76,3.8,3.8,0,0,1-.816,1.336,3.545,3.545,0,0,1-1.276.848,4.5,4.5,0,0,1-1.668.3,4.53,4.53,0,0,1-1.672-.3,3.577,3.577,0,0,1-1.284-.848,3.817,3.817,0,0,1-.824-1.336,5.013,5.013,0,0,1-.292-1.76,4.989,4.989,0,0,1,.292-1.752A3.735,3.735,0,0,1,54.108-7.2a3.629,3.629,0,0,1,1.284-.84A4.53,4.53,0,0,1,57.064-8.336Zm0,6.936a1.738,1.738,0,0,0,1.516-.688A3.45,3.45,0,0,0,59.072-4.1a3.489,3.489,0,0,0-.492-2.024,1.73,1.73,0,0,0-1.516-.7,1.754,1.754,0,0,0-1.536.7,3.471,3.471,0,0,0-.5,2.02,3.431,3.431,0,0,0,.5,2.012A1.762,1.762,0,0,0,57.064-1.4Zm7.4-6.808v5.216a1.753,1.753,0,0,0,.348,1.164,1.29,1.29,0,0,0,1.044.412,2.087,2.087,0,0,0,.96-.228,3.356,3.356,0,0,0,.848-.628V-8.208H69.64V0H68.432a.485.485,0,0,1-.5-.36l-.136-.656a5.722,5.722,0,0,1-.528.468,3.185,3.185,0,0,1-.58.36,3.253,3.253,0,0,1-.664.232,3.321,3.321,0,0,1-.764.084A2.914,2.914,0,0,1,64.068-.1,2.379,2.379,0,0,1,63.2-.744a2.82,2.82,0,0,1-.532-.988,4.182,4.182,0,0,1-.18-1.26V-8.208ZM71.752,0V-8.208h1.16a.622.622,0,0,1,.424.112.644.644,0,0,1,.16.384l.12.992a3.9,3.9,0,0,1,1.032-1.2,2.172,2.172,0,0,1,1.328-.44,1.716,1.716,0,0,1,1.008.28L76.728-6.6a.306.306,0,0,1-.1.2.352.352,0,0,1-.216.06,1.347,1.347,0,0,1-.328-.056,2.2,2.2,0,0,0-.552-.056,1.676,1.676,0,0,0-1.056.34,2.618,2.618,0,0,0-.744,1V0Zm14.5-6.608a.527.527,0,0,1-.168.18.435.435,0,0,1-.224.052.706.706,0,0,1-.308-.08q-.164-.08-.38-.18a3.481,3.481,0,0,0-.492-.18,2.356,2.356,0,0,0-.652-.08,1.519,1.519,0,0,0-.92.248A.769.769,0,0,0,82.768-6a.618.618,0,0,0,.172.444,1.547,1.547,0,0,0,.456.316A4.463,4.463,0,0,0,84.04-5q.36.108.736.236t.736.292a2.566,2.566,0,0,1,.644.416,1.932,1.932,0,0,1,.456.6,1.916,1.916,0,0,1,.172.848,2.724,2.724,0,0,1-.216,1.092,2.4,2.4,0,0,1-.632.864,2.962,2.962,0,0,1-1.028.568,4.435,4.435,0,0,1-1.4.2,4.469,4.469,0,0,1-.828-.076A4.887,4.887,0,0,1,81.9-.16a4.294,4.294,0,0,1-.688-.32,3.339,3.339,0,0,1-.556-.4l.456-.752a.645.645,0,0,1,.208-.208.583.583,0,0,1,.3-.072.639.639,0,0,1,.348.1q.164.1.38.224a3.4,3.4,0,0,0,.508.224,2.235,2.235,0,0,0,.74.1,1.92,1.92,0,0,0,.6-.084,1.278,1.278,0,0,0,.416-.22.826.826,0,0,0,.24-.316.947.947,0,0,0,.076-.372.664.664,0,0,0-.172-.472,1.505,1.505,0,0,0-.456-.32,4.4,4.4,0,0,0-.648-.244q-.364-.108-.744-.236a6.883,6.883,0,0,1-.744-.3,2.536,2.536,0,0,1-.648-.436,1.973,1.973,0,0,1-.456-.648,2.261,2.261,0,0,1-.172-.928,2.364,2.364,0,0,1,.2-.96,2.252,2.252,0,0,1,.588-.8,2.92,2.92,0,0,1,.968-.544,4.032,4.032,0,0,1,1.34-.2,4.1,4.1,0,0,1,1.544.28,3.487,3.487,0,0,1,1.16.736ZM91.064.128a2.159,2.159,0,0,1-1.64-.6,2.318,2.318,0,0,1-.576-1.668V-6.728h-.832a.4.4,0,0,1-.276-.1.4.4,0,0,1-.116-.312v-.784l1.32-.216.416-2.24a.4.4,0,0,1,.148-.248.469.469,0,0,1,.292-.088h1.024v2.584h2.16v1.408h-2.16V-2.28a.872.872,0,0,0,.192.6.651.651,0,0,0,.512.216.93.93,0,0,0,.308-.044,1.7,1.7,0,0,0,.216-.092q.092-.048.164-.092a.274.274,0,0,1,.144-.044.226.226,0,0,1,.144.044.667.667,0,0,1,.12.132l.592.96a2.991,2.991,0,0,1-.992.544A3.692,3.692,0,0,1,91.064.128Zm7-8.464a4.5,4.5,0,0,1,1.668.3,3.6,3.6,0,0,1,1.276.84,3.719,3.719,0,0,1,.816,1.328,5.051,5.051,0,0,1,.288,1.752,5.076,5.076,0,0,1-.288,1.76,3.8,3.8,0,0,1-.816,1.336,3.545,3.545,0,0,1-1.276.848,4.5,4.5,0,0,1-1.668.3,4.53,4.53,0,0,1-1.672-.3,3.577,3.577,0,0,1-1.284-.848,3.817,3.817,0,0,1-.824-1.336,5.013,5.013,0,0,1-.292-1.76,4.989,4.989,0,0,1,.292-1.752A3.735,3.735,0,0,1,95.108-7.2a3.629,3.629,0,0,1,1.284-.84A4.53,4.53,0,0,1,98.064-8.336Zm0,6.936a1.738,1.738,0,0,0,1.516-.688,3.45,3.45,0,0,0,.492-2.016,3.489,3.489,0,0,0-.492-2.024,1.73,1.73,0,0,0-1.516-.7,1.754,1.754,0,0,0-1.536.7,3.471,3.471,0,0,0-.5,2.02,3.431,3.431,0,0,0,.5,2.012A1.762,1.762,0,0,0,98.064-1.4ZM103.656,0V-8.208h1.16a.622.622,0,0,1,.424.112.644.644,0,0,1,.16.384l.12.992a3.9,3.9,0,0,1,1.032-1.2,2.172,2.172,0,0,1,1.328-.44,1.716,1.716,0,0,1,1.008.28l-.256,1.48a.306.306,0,0,1-.1.2.352.352,0,0,1-.216.06,1.347,1.347,0,0,1-.328-.056,2.2,2.2,0,0,0-.552-.056,1.676,1.676,0,0,0-1.056.34,2.618,2.618,0,0,0-.744,1V0Zm8.64-8.208V0H110.32V-8.208Zm.3-2.392a1.126,1.126,0,0,1-.1.48,1.319,1.319,0,0,1-.276.392,1.319,1.319,0,0,1-.4.268,1.24,1.24,0,0,1-.5.1,1.192,1.192,0,0,1-.484-.1,1.282,1.282,0,0,1-.4-.268,1.3,1.3,0,0,1-.268-.392,1.164,1.164,0,0,1-.1-.48,1.24,1.24,0,0,1,.1-.5,1.27,1.27,0,0,1,.268-.4,1.282,1.282,0,0,1,.4-.268,1.192,1.192,0,0,1,.484-.1,1.24,1.24,0,0,1,.5.1,1.319,1.319,0,0,1,.4.268,1.29,1.29,0,0,1,.276.4A1.2,1.2,0,0,1,112.592-10.6Zm5.328,2.264a3.985,3.985,0,0,1,1.428.248,3.127,3.127,0,0,1,1.124.724,3.308,3.308,0,0,1,.736,1.168,4.411,4.411,0,0,1,.264,1.58,2.86,2.86,0,0,1-.02.372.6.6,0,0,1-.072.232.291.291,0,0,1-.14.12.6.6,0,0,1-.224.036h-5.072A2.826,2.826,0,0,0,116.624-2a2.12,2.12,0,0,0,1.568.592,2.716,2.716,0,0,0,.828-.112,3.882,3.882,0,0,0,.608-.248q.26-.136.456-.248a.765.765,0,0,1,.38-.112.428.428,0,0,1,.208.048.459.459,0,0,1,.152.136l.576.72a3.293,3.293,0,0,1-.736.644,4.128,4.128,0,0,1-.852.416,4.657,4.657,0,0,1-.9.22,6.473,6.473,0,0,1-.892.064,4.385,4.385,0,0,1-1.592-.284,3.564,3.564,0,0,1-1.28-.84,3.941,3.941,0,0,1-.856-1.376,5.325,5.325,0,0,1-.312-1.9,4.543,4.543,0,0,1,.272-1.58,3.8,3.8,0,0,1,.78-1.288,3.672,3.672,0,0,1,1.24-.868A4.084,4.084,0,0,1,117.92-8.336Zm.04,1.416a1.827,1.827,0,0,0-1.352.488,2.407,2.407,0,0,0-.624,1.384H119.7a2.462,2.462,0,0,0-.1-.724,1.67,1.67,0,0,0-.32-.6,1.515,1.515,0,0,0-.544-.4A1.853,1.853,0,0,0,117.96-6.92Zm9.992.312a.527.527,0,0,1-.168.18.435.435,0,0,1-.224.052.706.706,0,0,1-.308-.08q-.164-.08-.38-.18a3.48,3.48,0,0,0-.492-.18,2.356,2.356,0,0,0-.652-.08,1.519,1.519,0,0,0-.92.248.769.769,0,0,0-.336.648.618.618,0,0,0,.172.444,1.547,1.547,0,0,0,.456.316,4.463,4.463,0,0,0,.644.244q.36.108.736.236t.736.292a2.566,2.566,0,0,1,.644.416,1.932,1.932,0,0,1,.456.6,1.916,1.916,0,0,1,.172.848,2.724,2.724,0,0,1-.216,1.092,2.4,2.4,0,0,1-.632.864,2.962,2.962,0,0,1-1.028.568,4.435,4.435,0,0,1-1.4.2,4.469,4.469,0,0,1-.828-.076A4.887,4.887,0,0,1,123.6-.16a4.294,4.294,0,0,1-.688-.32,3.339,3.339,0,0,1-.556-.4l.456-.752a.645.645,0,0,1,.208-.208.583.583,0,0,1,.3-.072.639.639,0,0,1,.348.1q.164.1.38.224a3.4,3.4,0,0,0,.508.224,2.235,2.235,0,0,0,.74.1,1.92,1.92,0,0,0,.6-.084,1.278,1.278,0,0,0,.416-.22.826.826,0,0,0,.24-.316.947.947,0,0,0,.076-.372.664.664,0,0,0-.172-.472,1.505,1.505,0,0,0-.456-.32,4.4,4.4,0,0,0-.648-.244q-.364-.108-.744-.236a6.883,6.883,0,0,1-.744-.3,2.536,2.536,0,0,1-.648-.436,1.973,1.973,0,0,1-.456-.648,2.261,2.261,0,0,1-.172-.928,2.364,2.364,0,0,1,.2-.96,2.252,2.252,0,0,1,.588-.8,2.92,2.92,0,0,1,.968-.544,4.032,4.032,0,0,1,1.34-.2,4.1,4.1,0,0,1,1.544.28,3.487,3.487,0,0,1,1.16.736Zm4.9-4.96v4.576a13.953,13.953,0,0,1-.072,1.428q-.072.7-.192,1.484h-1.336q-.12-.784-.192-1.484a13.949,13.949,0,0,1-.072-1.428v-4.576Zm-2.168,10.48a1.23,1.23,0,0,1,.092-.472,1.128,1.128,0,0,1,.256-.384,1.26,1.26,0,0,1,.388-.256,1.206,1.206,0,0,1,.48-.1,1.186,1.186,0,0,1,.472.1,1.211,1.211,0,0,1,.384.256,1.21,1.21,0,0,1,.256.384,1.186,1.186,0,0,1,.1.472,1.177,1.177,0,0,1-.1.476,1.222,1.222,0,0,1-.256.38,1.158,1.158,0,0,1-.384.252,1.23,1.23,0,0,1-.472.092,1.251,1.251,0,0,1-.48-.092,1.2,1.2,0,0,1-.388-.252,1.137,1.137,0,0,1-.256-.38A1.221,1.221,0,0,1,130.688-1.088Z" transform="translate(197 650)" fill="#547394"/><g transform="translate(-96.952 746.47) rotate(-45)"><path d="M-7645.232,1389.425s-4.947,36.718-48.21,22.5" transform="translate(7868.976 -1280.871)" fill="none" stroke="#547394" stroke-width="2" stroke-dasharray="6"/><path d="M-7686.517,1433.069c-1.207-.048-4.978,1.878-4.978,1.878l2.435,4.142" transform="translate(7867 -1304.006)" fill="none" stroke="#547394" stroke-width="2"/></g><g transform="translate(256.019 716.887) rotate(-135)"><path d="M48.21,25.772S43.263-10.946,0,3.273" transform="translate(0.028 0.756)" fill="none" stroke="#547394" stroke-width="2" stroke-dasharray="6"/><path d="M4.978,6.02C3.771,6.067,0,4.142,0,4.142L2.435,0" transform="translate(0 0)" fill="none" stroke="#547394" stroke-width="2"/></g></g></svg>