<svg xmlns="http://www.w3.org/2000/svg" width="342" height="342" viewBox="0 0 342 342"><g transform="translate(-23 -221)"><g transform="translate(23 221)" fill="none" stroke="#547394" stroke-width="2" stroke-dasharray="6"><circle cx="171" cy="171" r="171" stroke="none"/><circle cx="171" cy="171" r="170" fill="none"/></g><path d="M-101.648-6.72h.5a1.309,1.309,0,0,0,.5-.084.853.853,0,0,0,.344-.268l3.192-4.04a1.159,1.159,0,0,1,.42-.356,1.347,1.347,0,0,1,.556-.1h1.856l-3.9,4.808a3.525,3.525,0,0,1-.352.376,1.607,1.607,0,0,1-.36.248,1.589,1.589,0,0,1,.476.272,2.512,2.512,0,0,1,.412.448L-93.976,0h-1.9a1.182,1.182,0,0,1-.572-.108.9.9,0,0,1-.316-.316L-100.04-4.7a.969.969,0,0,0-.36-.3,1.4,1.4,0,0,0-.568-.092h-.68V0H-103.8V-11.576h2.152Zm10.936-1.488V0h-1.976V-8.208Zm.3-2.392a1.126,1.126,0,0,1-.1.48,1.319,1.319,0,0,1-.276.392,1.319,1.319,0,0,1-.4.268,1.24,1.24,0,0,1-.5.1,1.192,1.192,0,0,1-.484-.1,1.282,1.282,0,0,1-.4-.268,1.3,1.3,0,0,1-.268-.392,1.164,1.164,0,0,1-.1-.48,1.24,1.24,0,0,1,.1-.5,1.27,1.27,0,0,1,.268-.4,1.282,1.282,0,0,1,.4-.268,1.192,1.192,0,0,1,.484-.1,1.24,1.24,0,0,1,.5.1,1.319,1.319,0,0,1,.4.268,1.29,1.29,0,0,1,.276.4A1.2,1.2,0,0,1-90.416-10.6ZM-88.48,0V-8.208h1.208a.485.485,0,0,1,.5.36l.136.648a4.5,4.5,0,0,1,.524-.464,3.659,3.659,0,0,1,.584-.36,2.975,2.975,0,0,1,.66-.232,3.465,3.465,0,0,1,.768-.08,2.943,2.943,0,0,1,1.192.228,2.355,2.355,0,0,1,.868.64,2.813,2.813,0,0,1,.528.984,4.182,4.182,0,0,1,.18,1.26V0H-83.3V-5.224a1.753,1.753,0,0,0-.348-1.164A1.29,1.29,0,0,0-84.7-6.8a2.058,2.058,0,0,0-.96.232,3.44,3.44,0,0,0-.848.632V0Zm14.872,0a.485.485,0,0,1-.5-.36l-.16-.792a4.906,4.906,0,0,1-.536.52,3.389,3.389,0,0,1-.6.4,3.147,3.147,0,0,1-.7.26,3.343,3.343,0,0,1-.8.092,2.716,2.716,0,0,1-1.232-.28,2.745,2.745,0,0,1-.964-.812,3.892,3.892,0,0,1-.624-1.316,6.646,6.646,0,0,1-.22-1.792,5.6,5.6,0,0,1,.248-1.7,4.127,4.127,0,0,1,.712-1.36,3.322,3.322,0,0,1,1.112-.9,3.211,3.211,0,0,1,1.456-.324,2.848,2.848,0,0,1,1.176.22,3.081,3.081,0,0,1,.872.588v-4.336H-72.4V0ZM-76.24-1.448A2.021,2.021,0,0,0-75.192-1.7a3.113,3.113,0,0,0,.816-.728v-3.68a1.945,1.945,0,0,0-.732-.576,2.159,2.159,0,0,0-.852-.168,1.915,1.915,0,0,0-.812.168,1.588,1.588,0,0,0-.616.508,2.488,2.488,0,0,0-.388.864,4.96,4.96,0,0,0-.136,1.236A5.487,5.487,0,0,0-77.8-2.86a2.4,2.4,0,0,0,.332.816,1.265,1.265,0,0,0,.528.456A1.681,1.681,0,0,0-76.24-1.448ZM-62.3-6.608a.527.527,0,0,1-.168.18.435.435,0,0,1-.224.052A.706.706,0,0,1-63-6.456q-.164-.08-.38-.18a3.48,3.48,0,0,0-.492-.18,2.356,2.356,0,0,0-.652-.08,1.519,1.519,0,0,0-.92.248A.769.769,0,0,0-65.784-6a.618.618,0,0,0,.172.444,1.547,1.547,0,0,0,.456.316A4.463,4.463,0,0,0-64.512-5q.36.108.736.236t.736.292a2.566,2.566,0,0,1,.644.416,1.932,1.932,0,0,1,.456.6,1.916,1.916,0,0,1,.172.848,2.724,2.724,0,0,1-.216,1.092,2.4,2.4,0,0,1-.632.864,2.962,2.962,0,0,1-1.028.568,4.435,4.435,0,0,1-1.4.2,4.469,4.469,0,0,1-.828-.076,4.887,4.887,0,0,1-.776-.212,4.294,4.294,0,0,1-.688-.32,3.339,3.339,0,0,1-.556-.4l.456-.752a.645.645,0,0,1,.208-.208.583.583,0,0,1,.3-.072.639.639,0,0,1,.348.1q.164.1.38.224a3.4,3.4,0,0,0,.508.224,2.235,2.235,0,0,0,.74.1,1.92,1.92,0,0,0,.6-.084,1.278,1.278,0,0,0,.416-.22.826.826,0,0,0,.24-.316.947.947,0,0,0,.076-.372.664.664,0,0,0-.172-.472,1.505,1.505,0,0,0-.456-.32,4.4,4.4,0,0,0-.648-.244q-.364-.108-.744-.236a6.883,6.883,0,0,1-.744-.3,2.536,2.536,0,0,1-.648-.436,1.973,1.973,0,0,1-.456-.648,2.261,2.261,0,0,1-.172-.928,2.364,2.364,0,0,1,.2-.96,2.252,2.252,0,0,1,.588-.8,2.92,2.92,0,0,1,.968-.544,4.032,4.032,0,0,1,1.34-.2,4.1,4.1,0,0,1,1.544.28,3.487,3.487,0,0,1,1.16.736ZM-57.488.128a2.159,2.159,0,0,1-1.64-.6A2.318,2.318,0,0,1-59.7-2.144V-6.728h-.832a.4.4,0,0,1-.276-.1.4.4,0,0,1-.116-.312v-.784l1.32-.216.416-2.24a.4.4,0,0,1,.148-.248.469.469,0,0,1,.292-.088h1.024v2.584h2.16v1.408h-2.16V-2.28a.872.872,0,0,0,.192.6.651.651,0,0,0,.512.216.93.93,0,0,0,.308-.044A1.7,1.7,0,0,0-56.5-1.6q.092-.048.164-.092a.274.274,0,0,1,.144-.044.226.226,0,0,1,.144.044.667.667,0,0,1,.12.132l.592.96a2.991,2.991,0,0,1-.992.544A3.692,3.692,0,0,1-57.488.128Zm7-8.464a4.5,4.5,0,0,1,1.668.3,3.6,3.6,0,0,1,1.276.84,3.718,3.718,0,0,1,.816,1.328A5.052,5.052,0,0,1-46.44-4.12a5.076,5.076,0,0,1-.288,1.76,3.8,3.8,0,0,1-.816,1.336,3.545,3.545,0,0,1-1.276.848,4.5,4.5,0,0,1-1.668.3,4.53,4.53,0,0,1-1.672-.3,3.577,3.577,0,0,1-1.284-.848,3.817,3.817,0,0,1-.824-1.336,5.013,5.013,0,0,1-.292-1.76,4.989,4.989,0,0,1,.292-1.752A3.735,3.735,0,0,1-53.444-7.2a3.629,3.629,0,0,1,1.284-.84A4.53,4.53,0,0,1-50.488-8.336Zm0,6.936a1.738,1.738,0,0,0,1.516-.688A3.45,3.45,0,0,0-48.48-4.1a3.489,3.489,0,0,0-.492-2.024,1.73,1.73,0,0,0-1.516-.7,1.754,1.754,0,0,0-1.536.7,3.471,3.471,0,0,0-.5,2.02,3.431,3.431,0,0,0,.5,2.012A1.762,1.762,0,0,0-50.488-1.4ZM-44.9,0V-8.208h1.16a.622.622,0,0,1,.424.112.644.644,0,0,1,.16.384l.12.992A3.9,3.9,0,0,1-42-7.92a2.172,2.172,0,0,1,1.328-.44,1.716,1.716,0,0,1,1.008.28L-39.92-6.6a.306.306,0,0,1-.1.2.352.352,0,0,1-.216.06,1.347,1.347,0,0,1-.328-.056,2.2,2.2,0,0,0-.552-.056,1.676,1.676,0,0,0-1.056.34,2.618,2.618,0,0,0-.744,1V0Zm8.64-8.208V0h-1.976V-8.208Zm.3-2.392a1.126,1.126,0,0,1-.1.48,1.319,1.319,0,0,1-.276.392,1.319,1.319,0,0,1-.4.268,1.24,1.24,0,0,1-.5.1,1.192,1.192,0,0,1-.484-.1,1.282,1.282,0,0,1-.4-.268,1.3,1.3,0,0,1-.268-.392,1.164,1.164,0,0,1-.1-.48,1.24,1.24,0,0,1,.1-.5,1.269,1.269,0,0,1,.268-.4,1.282,1.282,0,0,1,.4-.268,1.192,1.192,0,0,1,.484-.1,1.24,1.24,0,0,1,.5.1,1.319,1.319,0,0,1,.4.268,1.29,1.29,0,0,1,.276.4A1.2,1.2,0,0,1-35.96-10.6Zm5.328,2.264a3.985,3.985,0,0,1,1.428.248,3.127,3.127,0,0,1,1.124.724A3.308,3.308,0,0,1-27.344-6.2a4.411,4.411,0,0,1,.264,1.58,2.859,2.859,0,0,1-.02.372.6.6,0,0,1-.072.232.291.291,0,0,1-.14.12.6.6,0,0,1-.224.036h-5.072A2.827,2.827,0,0,0-31.928-2a2.12,2.12,0,0,0,1.568.592,2.716,2.716,0,0,0,.828-.112,3.882,3.882,0,0,0,.608-.248q.26-.136.456-.248a.765.765,0,0,1,.38-.112.428.428,0,0,1,.208.048.46.46,0,0,1,.152.136l.576.72a3.293,3.293,0,0,1-.736.644,4.128,4.128,0,0,1-.852.416,4.657,4.657,0,0,1-.9.22,6.473,6.473,0,0,1-.892.064,4.385,4.385,0,0,1-1.592-.284A3.564,3.564,0,0,1-33.408-1a3.941,3.941,0,0,1-.856-1.376,5.325,5.325,0,0,1-.312-1.9A4.544,4.544,0,0,1-34.3-5.86a3.8,3.8,0,0,1,.78-1.288,3.672,3.672,0,0,1,1.24-.868A4.084,4.084,0,0,1-30.632-8.336Zm.04,1.416a1.827,1.827,0,0,0-1.352.488,2.407,2.407,0,0,0-.624,1.384h3.712a2.462,2.462,0,0,0-.1-.724,1.67,1.67,0,0,0-.32-.6,1.514,1.514,0,0,0-.544-.4A1.853,1.853,0,0,0-30.592-6.92Zm9.992.312a.527.527,0,0,1-.168.18.435.435,0,0,1-.224.052.706.706,0,0,1-.308-.08q-.164-.08-.38-.18a3.48,3.48,0,0,0-.492-.18,2.356,2.356,0,0,0-.652-.08,1.519,1.519,0,0,0-.92.248A.769.769,0,0,0-24.08-6a.618.618,0,0,0,.172.444,1.547,1.547,0,0,0,.456.316A4.463,4.463,0,0,0-22.808-5q.36.108.736.236t.736.292a2.566,2.566,0,0,1,.644.416,1.932,1.932,0,0,1,.456.6,1.916,1.916,0,0,1,.172.848,2.724,2.724,0,0,1-.216,1.092,2.4,2.4,0,0,1-.632.864,2.962,2.962,0,0,1-1.028.568,4.435,4.435,0,0,1-1.4.2,4.469,4.469,0,0,1-.828-.076,4.887,4.887,0,0,1-.776-.212,4.294,4.294,0,0,1-.688-.32,3.339,3.339,0,0,1-.556-.4l.456-.752a.645.645,0,0,1,.208-.208.583.583,0,0,1,.3-.072.639.639,0,0,1,.348.1q.164.1.38.224a3.4,3.4,0,0,0,.508.224,2.235,2.235,0,0,0,.74.1,1.92,1.92,0,0,0,.6-.084,1.278,1.278,0,0,0,.416-.22.826.826,0,0,0,.24-.316.947.947,0,0,0,.076-.372.664.664,0,0,0-.172-.472,1.505,1.505,0,0,0-.456-.32,4.4,4.4,0,0,0-.648-.244q-.364-.108-.744-.236a6.882,6.882,0,0,1-.744-.3,2.536,2.536,0,0,1-.648-.436A1.973,1.973,0,0,1-25.78-4.9a2.261,2.261,0,0,1-.172-.928,2.364,2.364,0,0,1,.2-.96,2.252,2.252,0,0,1,.588-.8,2.92,2.92,0,0,1,.968-.544,4.032,4.032,0,0,1,1.34-.2,4.1,4.1,0,0,1,1.544.28,3.487,3.487,0,0,1,1.16.736ZM-12.7.128a2.159,2.159,0,0,1-1.64-.6,2.318,2.318,0,0,1-.576-1.668V-6.728h-.832a.4.4,0,0,1-.276-.1.4.4,0,0,1-.116-.312v-.784l1.32-.216.416-2.24a.4.4,0,0,1,.148-.248.469.469,0,0,1,.292-.088h1.024v2.584h2.16v1.408h-2.16V-2.28a.872.872,0,0,0,.192.6.651.651,0,0,0,.512.216.93.93,0,0,0,.308-.044,1.7,1.7,0,0,0,.216-.092q.092-.048.164-.092a.274.274,0,0,1,.144-.044.226.226,0,0,1,.144.044.667.667,0,0,1,.12.132l.592.96a2.991,2.991,0,0,1-.992.544A3.692,3.692,0,0,1-12.7.128ZM-9.2,0V-11.888h1.976V-7.32a4.182,4.182,0,0,1,1.056-.736,3.06,3.06,0,0,1,1.352-.28,2.943,2.943,0,0,1,1.192.228,2.355,2.355,0,0,1,.868.64,2.813,2.813,0,0,1,.528.984,4.182,4.182,0,0,1,.18,1.26V0H-4.024V-5.224a1.753,1.753,0,0,0-.348-1.164A1.29,1.29,0,0,0-5.416-6.8a2.058,2.058,0,0,0-.96.232,3.44,3.44,0,0,0-.848.632V0ZM6.328,0H5.44A.956.956,0,0,1,5-.084a.541.541,0,0,1-.24-.34l-.176-.584a6.777,6.777,0,0,1-.612.492,3.716,3.716,0,0,1-.62.356,3.162,3.162,0,0,1-.68.216,4.091,4.091,0,0,1-.8.072,3.152,3.152,0,0,1-.96-.14,2.07,2.07,0,0,1-.756-.42,1.907,1.907,0,0,1-.492-.7A2.469,2.469,0,0,1-.512-2.1a1.909,1.909,0,0,1,.244-.916,2.3,2.3,0,0,1,.812-.816,5.193,5.193,0,0,1,1.512-.6A10.687,10.687,0,0,1,4.4-4.7v-.48A1.811,1.811,0,0,0,4.052-6.4,1.275,1.275,0,0,0,3.04-6.8a2.449,2.449,0,0,0-.8.112,3.1,3.1,0,0,0-.556.252q-.236.14-.436.252a.885.885,0,0,1-.44.112.572.572,0,0,1-.344-.1.819.819,0,0,1-.232-.256l-.36-.632a4.881,4.881,0,0,1,3.416-1.3,3.3,3.3,0,0,1,1.284.236,2.729,2.729,0,0,1,.956.656,2.808,2.808,0,0,1,.6,1,3.858,3.858,0,0,1,.2,1.28ZM2.488-1.232a2.622,2.622,0,0,0,.56-.056,2.121,2.121,0,0,0,.484-.168,2.573,2.573,0,0,0,.44-.276A4,4,0,0,0,4.4-2.12V-3.5a10.82,10.82,0,0,0-1.444.148,3.838,3.838,0,0,0-.932.276,1.2,1.2,0,0,0-.5.392.868.868,0,0,0-.148.488.858.858,0,0,0,.308.744A1.335,1.335,0,0,0,2.488-1.232Zm8.48,1.36a2.159,2.159,0,0,1-1.64-.6,2.318,2.318,0,0,1-.576-1.668V-6.728H7.92a.4.4,0,0,1-.276-.1.4.4,0,0,1-.116-.312v-.784l1.32-.216.416-2.24a.4.4,0,0,1,.148-.248A.469.469,0,0,1,9.7-10.72h1.024v2.584h2.16v1.408h-2.16V-2.28a.872.872,0,0,0,.192.6.651.651,0,0,0,.512.216.93.93,0,0,0,.308-.044,1.7,1.7,0,0,0,.216-.092q.092-.048.164-.092a.274.274,0,0,1,.144-.044.226.226,0,0,1,.144.044.667.667,0,0,1,.12.132l.592.96a2.991,2.991,0,0,1-.992.544A3.692,3.692,0,0,1,10.968.128ZM17.552,0V-11.888h1.976V-7.32a4.182,4.182,0,0,1,1.056-.736,3.06,3.06,0,0,1,1.352-.28,2.943,2.943,0,0,1,1.192.228,2.355,2.355,0,0,1,.868.64,2.813,2.813,0,0,1,.528.984,4.182,4.182,0,0,1,.18,1.26V0H22.728V-5.224a1.753,1.753,0,0,0-.348-1.164A1.29,1.29,0,0,0,21.336-6.8a2.058,2.058,0,0,0-.96.232,3.44,3.44,0,0,0-.848.632V0ZM33.08,0h-.888a.956.956,0,0,1-.44-.084.541.541,0,0,1-.24-.34l-.176-.584a6.778,6.778,0,0,1-.612.492,3.716,3.716,0,0,1-.62.356,3.163,3.163,0,0,1-.68.216,4.091,4.091,0,0,1-.8.072,3.152,3.152,0,0,1-.96-.14,2.07,2.07,0,0,1-.756-.42,1.907,1.907,0,0,1-.492-.7A2.469,2.469,0,0,1,26.24-2.1a1.909,1.909,0,0,1,.244-.916,2.3,2.3,0,0,1,.812-.816,5.193,5.193,0,0,1,1.512-.6A10.687,10.687,0,0,1,31.152-4.7v-.48A1.811,1.811,0,0,0,30.8-6.4a1.275,1.275,0,0,0-1.012-.4,2.449,2.449,0,0,0-.8.112,3.1,3.1,0,0,0-.556.252Q28.2-6.3,28-6.184a.885.885,0,0,1-.44.112.572.572,0,0,1-.344-.1.819.819,0,0,1-.232-.256l-.36-.632a4.881,4.881,0,0,1,3.416-1.3,3.3,3.3,0,0,1,1.284.236,2.729,2.729,0,0,1,.956.656,2.807,2.807,0,0,1,.6,1,3.858,3.858,0,0,1,.2,1.28ZM29.24-1.232a2.622,2.622,0,0,0,.56-.056,2.121,2.121,0,0,0,.484-.168,2.573,2.573,0,0,0,.44-.276,4,4,0,0,0,.428-.388V-3.5a10.82,10.82,0,0,0-1.444.148,3.838,3.838,0,0,0-.932.276,1.2,1.2,0,0,0-.5.392.868.868,0,0,0-.148.488.858.858,0,0,0,.308.744A1.335,1.335,0,0,0,29.24-1.232ZM35.024,2.68V-8.208h1.208a.591.591,0,0,1,.328.088.411.411,0,0,1,.176.272l.16.76a4.143,4.143,0,0,1,1.14-.92,3.1,3.1,0,0,1,1.508-.352,2.691,2.691,0,0,1,1.228.28,2.756,2.756,0,0,1,.96.812,3.9,3.9,0,0,1,.624,1.312,6.6,6.6,0,0,1,.22,1.788,5.623,5.623,0,0,1-.248,1.7A4.17,4.17,0,0,1,41.62-1.1a3.271,3.271,0,0,1-1.112.9,3.236,3.236,0,0,1-1.46.324,2.936,2.936,0,0,1-1.18-.212A2.888,2.888,0,0,1,37-.68V2.68Zm3.84-9.48a2.018,2.018,0,0,0-1.052.26A3.042,3.042,0,0,0,37-5.808v3.68a1.881,1.881,0,0,0,.732.58,2.2,2.2,0,0,0,.852.164,1.915,1.915,0,0,0,.812-.168,1.576,1.576,0,0,0,.616-.512,2.533,2.533,0,0,0,.388-.868,4.96,4.96,0,0,0,.136-1.236,5.487,5.487,0,0,0-.116-1.22,2.357,2.357,0,0,0-.332-.812,1.312,1.312,0,0,0-.524-.456A1.634,1.634,0,0,0,38.864-6.8Zm5.208,9.48V-8.208H45.28a.591.591,0,0,1,.328.088.411.411,0,0,1,.176.272l.16.76a4.143,4.143,0,0,1,1.14-.92,3.1,3.1,0,0,1,1.508-.352,2.691,2.691,0,0,1,1.228.28,2.756,2.756,0,0,1,.96.812A3.9,3.9,0,0,1,51.4-5.956a6.6,6.6,0,0,1,.22,1.788,5.623,5.623,0,0,1-.248,1.7,4.17,4.17,0,0,1-.708,1.36,3.271,3.271,0,0,1-1.112.9A3.236,3.236,0,0,1,48.1.12a2.936,2.936,0,0,1-1.18-.212,2.888,2.888,0,0,1-.868-.588V2.68Zm3.84-9.48a2.018,2.018,0,0,0-1.052.26,3.042,3.042,0,0,0-.812.732v3.68a1.881,1.881,0,0,0,.732.58,2.2,2.2,0,0,0,.852.164,1.915,1.915,0,0,0,.812-.168,1.576,1.576,0,0,0,.616-.512,2.533,2.533,0,0,0,.388-.868,4.96,4.96,0,0,0,.136-1.236,5.487,5.487,0,0,0-.116-1.22,2.357,2.357,0,0,0-.332-.812,1.312,1.312,0,0,0-.524-.456A1.634,1.634,0,0,0,47.912-6.8Zm8.6-1.536a3.985,3.985,0,0,1,1.428.248,3.127,3.127,0,0,1,1.124.724A3.308,3.308,0,0,1,59.8-6.2a4.411,4.411,0,0,1,.264,1.58,2.859,2.859,0,0,1-.02.372.6.6,0,0,1-.072.232.291.291,0,0,1-.14.12.6.6,0,0,1-.224.036H54.536A2.827,2.827,0,0,0,55.216-2a2.12,2.12,0,0,0,1.568.592,2.716,2.716,0,0,0,.828-.112,3.882,3.882,0,0,0,.608-.248q.26-.136.456-.248a.765.765,0,0,1,.38-.112.428.428,0,0,1,.208.048.46.46,0,0,1,.152.136l.576.72a3.293,3.293,0,0,1-.736.644,4.128,4.128,0,0,1-.852.416,4.657,4.657,0,0,1-.9.22,6.473,6.473,0,0,1-.892.064,4.385,4.385,0,0,1-1.592-.284A3.564,3.564,0,0,1,53.736-1,3.941,3.941,0,0,1,52.88-2.38a5.325,5.325,0,0,1-.312-1.9,4.544,4.544,0,0,1,.272-1.58,3.8,3.8,0,0,1,.78-1.288,3.672,3.672,0,0,1,1.24-.868A4.084,4.084,0,0,1,56.512-8.336Zm.04,1.416a1.827,1.827,0,0,0-1.352.488,2.407,2.407,0,0,0-.624,1.384h3.712a2.462,2.462,0,0,0-.1-.724,1.67,1.67,0,0,0-.32-.6,1.514,1.514,0,0,0-.544-.4A1.853,1.853,0,0,0,56.552-6.92ZM61.672,0V-8.208H62.88a.485.485,0,0,1,.5.36l.136.648a4.5,4.5,0,0,1,.524-.464,3.659,3.659,0,0,1,.584-.36,2.975,2.975,0,0,1,.66-.232,3.465,3.465,0,0,1,.768-.08,2.943,2.943,0,0,1,1.192.228,2.355,2.355,0,0,1,.868.64,2.813,2.813,0,0,1,.528.984,4.182,4.182,0,0,1,.18,1.26V0H66.848V-5.224A1.753,1.753,0,0,0,66.5-6.388,1.29,1.29,0,0,0,65.456-6.8a2.058,2.058,0,0,0-.96.232,3.44,3.44,0,0,0-.848.632V0ZM74.16-8.336a3.985,3.985,0,0,1,1.428.248,3.127,3.127,0,0,1,1.124.724A3.308,3.308,0,0,1,77.448-6.2a4.411,4.411,0,0,1,.264,1.58,2.86,2.86,0,0,1-.02.372.6.6,0,0,1-.072.232.291.291,0,0,1-.14.12.6.6,0,0,1-.224.036H72.184A2.826,2.826,0,0,0,72.864-2a2.12,2.12,0,0,0,1.568.592,2.716,2.716,0,0,0,.828-.112,3.882,3.882,0,0,0,.608-.248q.26-.136.456-.248a.765.765,0,0,1,.38-.112.428.428,0,0,1,.208.048.459.459,0,0,1,.152.136l.576.72A3.293,3.293,0,0,1,76.9-.58a4.128,4.128,0,0,1-.852.416,4.657,4.657,0,0,1-.9.22,6.473,6.473,0,0,1-.892.064,4.385,4.385,0,0,1-1.592-.284A3.564,3.564,0,0,1,71.384-1a3.941,3.941,0,0,1-.856-1.376,5.325,5.325,0,0,1-.312-1.9,4.543,4.543,0,0,1,.272-1.58,3.8,3.8,0,0,1,.78-1.288,3.672,3.672,0,0,1,1.24-.868A4.084,4.084,0,0,1,74.16-8.336ZM74.2-6.92a1.827,1.827,0,0,0-1.352.488,2.407,2.407,0,0,0-.624,1.384h3.712a2.462,2.462,0,0,0-.1-.724,1.67,1.67,0,0,0-.32-.6,1.515,1.515,0,0,0-.544-.4A1.853,1.853,0,0,0,74.2-6.92ZM85.1,0a.485.485,0,0,1-.5-.36l-.16-.792a4.906,4.906,0,0,1-.536.52,3.389,3.389,0,0,1-.6.4,3.147,3.147,0,0,1-.7.26,3.343,3.343,0,0,1-.8.092A2.716,2.716,0,0,1,80.56-.16,2.745,2.745,0,0,1,79.6-.972a3.892,3.892,0,0,1-.624-1.316,6.646,6.646,0,0,1-.22-1.792A5.6,5.6,0,0,1,79-5.776a4.127,4.127,0,0,1,.712-1.36,3.322,3.322,0,0,1,1.112-.9A3.211,3.211,0,0,1,82.28-8.36a2.848,2.848,0,0,1,1.176.22,3.081,3.081,0,0,1,.872.588v-4.336H86.3V0ZM82.464-1.448A2.021,2.021,0,0,0,83.512-1.7a3.113,3.113,0,0,0,.816-.728v-3.68a1.945,1.945,0,0,0-.732-.576,2.159,2.159,0,0,0-.852-.168,1.915,1.915,0,0,0-.812.168,1.588,1.588,0,0,0-.616.508,2.488,2.488,0,0,0-.388.864,4.96,4.96,0,0,0-.136,1.236,5.487,5.487,0,0,0,.116,1.22,2.4,2.4,0,0,0,.332.816,1.265,1.265,0,0,0,.528.456A1.681,1.681,0,0,0,82.464-1.448ZM97.96,0h-.888a.956.956,0,0,1-.44-.084.541.541,0,0,1-.24-.34l-.176-.584a6.777,6.777,0,0,1-.612.492,3.716,3.716,0,0,1-.62.356,3.163,3.163,0,0,1-.68.216,4.091,4.091,0,0,1-.8.072,3.152,3.152,0,0,1-.96-.14,2.07,2.07,0,0,1-.756-.42,1.907,1.907,0,0,1-.492-.7A2.469,2.469,0,0,1,91.12-2.1a1.909,1.909,0,0,1,.244-.916,2.3,2.3,0,0,1,.812-.816,5.193,5.193,0,0,1,1.512-.6A10.686,10.686,0,0,1,96.032-4.7v-.48a1.811,1.811,0,0,0-.348-1.22,1.275,1.275,0,0,0-1.012-.4,2.449,2.449,0,0,0-.8.112,3.1,3.1,0,0,0-.556.252q-.236.14-.436.252a.885.885,0,0,1-.44.112.572.572,0,0,1-.344-.1.819.819,0,0,1-.232-.256l-.36-.632a4.881,4.881,0,0,1,3.416-1.3,3.3,3.3,0,0,1,1.284.236,2.729,2.729,0,0,1,.956.656,2.807,2.807,0,0,1,.6,1,3.858,3.858,0,0,1,.2,1.28ZM94.12-1.232a2.622,2.622,0,0,0,.56-.056,2.122,2.122,0,0,0,.484-.168,2.573,2.573,0,0,0,.44-.276,3.994,3.994,0,0,0,.428-.388V-3.5a10.82,10.82,0,0,0-1.444.148,3.838,3.838,0,0,0-.932.276,1.2,1.2,0,0,0-.5.392.868.868,0,0,0-.148.488.858.858,0,0,0,.308.744A1.335,1.335,0,0,0,94.12-1.232ZM102.6.128a2.159,2.159,0,0,1-1.64-.6,2.318,2.318,0,0,1-.576-1.668V-6.728h-.832a.4.4,0,0,1-.276-.1.4.4,0,0,1-.116-.312v-.784l1.32-.216.416-2.24a.4.4,0,0,1,.148-.248.469.469,0,0,1,.292-.088h1.024v2.584h2.16v1.408h-2.16V-2.28a.872.872,0,0,0,.192.6.651.651,0,0,0,.512.216.93.93,0,0,0,.308-.044,1.7,1.7,0,0,0,.216-.092q.092-.048.164-.092a.274.274,0,0,1,.144-.044.226.226,0,0,1,.144.044.667.667,0,0,1,.12.132l.592.96a2.991,2.991,0,0,1-.992.544A3.692,3.692,0,0,1,102.6.128ZM-71.52,24.256a.764.764,0,0,1-.228.316.7.7,0,0,1-.428.108h-1.472l1.536-3.288-3.32-7.6H-73.7a.542.542,0,0,1,.368.112.736.736,0,0,1,.192.256l1.752,4.256a3.757,3.757,0,0,1,.152.432q.064.224.112.448.064-.232.14-.448t.164-.44l1.648-4.248a.582.582,0,0,1,.212-.264.564.564,0,0,1,.332-.1h1.584Zm8.864-10.592a4.5,4.5,0,0,1,1.668.3,3.6,3.6,0,0,1,1.276.84,3.719,3.719,0,0,1,.816,1.328,5.051,5.051,0,0,1,.288,1.752,5.076,5.076,0,0,1-.288,1.76,3.8,3.8,0,0,1-.816,1.336,3.545,3.545,0,0,1-1.276.848,4.5,4.5,0,0,1-1.668.3,4.53,4.53,0,0,1-1.672-.3,3.577,3.577,0,0,1-1.284-.848,3.817,3.817,0,0,1-.824-1.336,5.013,5.013,0,0,1-.292-1.76,4.989,4.989,0,0,1,.292-1.752,3.735,3.735,0,0,1,.824-1.328,3.629,3.629,0,0,1,1.284-.84A4.53,4.53,0,0,1-62.656,13.664Zm0,6.936a1.738,1.738,0,0,0,1.516-.688,3.45,3.45,0,0,0,.492-2.016,3.489,3.489,0,0,0-.492-2.024,1.73,1.73,0,0,0-1.516-.7,1.754,1.754,0,0,0-1.536.7,3.471,3.471,0,0,0-.5,2.02,3.431,3.431,0,0,0,.5,2.012A1.762,1.762,0,0,0-62.656,20.6Zm7.4-6.808v5.216a1.753,1.753,0,0,0,.348,1.164,1.29,1.29,0,0,0,1.044.412,2.087,2.087,0,0,0,.96-.228,3.356,3.356,0,0,0,.848-.628V13.792h1.976V22h-1.208a.485.485,0,0,1-.5-.36l-.136-.656a5.721,5.721,0,0,1-.528.468,3.185,3.185,0,0,1-.58.36,3.253,3.253,0,0,1-.664.232,3.321,3.321,0,0,1-.764.084,2.914,2.914,0,0,1-1.188-.228,2.379,2.379,0,0,1-.868-.644,2.82,2.82,0,0,1-.532-.988,4.182,4.182,0,0,1-.18-1.26V13.792ZM-47.968,22V13.792h1.16a.622.622,0,0,1,.424.112.644.644,0,0,1,.16.384l.12.992a3.9,3.9,0,0,1,1.032-1.2,2.172,2.172,0,0,1,1.328-.44,1.716,1.716,0,0,1,1.008.28l-.256,1.48a.306.306,0,0,1-.1.2.352.352,0,0,1-.216.06,1.347,1.347,0,0,1-.328-.056,2.2,2.2,0,0,0-.552-.056,1.676,1.676,0,0,0-1.056.34,2.618,2.618,0,0,0-.744,1V22Zm15.392-6.472a.985.985,0,0,1-.172.176.4.4,0,0,1-.244.064.543.543,0,0,1-.3-.092q-.144-.092-.344-.208a2.572,2.572,0,0,0-.476-.208,2.187,2.187,0,0,0-.684-.092,2.087,2.087,0,0,0-.912.188,1.729,1.729,0,0,0-.652.54,2.433,2.433,0,0,0-.388.852,4.575,4.575,0,0,0-.128,1.132,4.438,4.438,0,0,0,.14,1.168,2.5,2.5,0,0,0,.4.86,1.738,1.738,0,0,0,.64.528,1.94,1.94,0,0,0,.848.18,2.1,2.1,0,0,0,.764-.116,2.41,2.41,0,0,0,.492-.256q.2-.14.348-.256a.525.525,0,0,1,.332-.116.4.4,0,0,1,.36.184l.568.72a3.572,3.572,0,0,1-.712.644,3.849,3.849,0,0,1-.8.416,4.041,4.041,0,0,1-.852.22,6.051,6.051,0,0,1-.872.064,3.64,3.64,0,0,1-1.432-.284,3.343,3.343,0,0,1-1.172-.828,3.99,3.99,0,0,1-.792-1.332,5.146,5.146,0,0,1-.292-1.8,5.22,5.22,0,0,1,.26-1.676,3.8,3.8,0,0,1,.764-1.336,3.5,3.5,0,0,1,1.248-.884,4.3,4.3,0,0,1,1.712-.32,4.072,4.072,0,0,1,1.612.3,3.939,3.939,0,0,1,1.244.848Zm3.672-1.736v5.216a1.753,1.753,0,0,0,.348,1.164,1.29,1.29,0,0,0,1.044.412,2.087,2.087,0,0,0,.96-.228,3.356,3.356,0,0,0,.848-.628V13.792h1.976V22h-1.208a.485.485,0,0,1-.5-.36l-.136-.656a5.721,5.721,0,0,1-.528.468,3.185,3.185,0,0,1-.58.36,3.253,3.253,0,0,1-.664.232,3.321,3.321,0,0,1-.764.084A2.914,2.914,0,0,1-29.3,21.9a2.379,2.379,0,0,1-.868-.644,2.82,2.82,0,0,1-.532-.988,4.182,4.182,0,0,1-.18-1.26V13.792ZM-21.616,22V13.792h1.16a.622.622,0,0,1,.424.112.644.644,0,0,1,.16.384l.12.992a3.9,3.9,0,0,1,1.032-1.2,2.172,2.172,0,0,1,1.328-.44,1.716,1.716,0,0,1,1.008.28l-.256,1.48a.306.306,0,0,1-.1.2.352.352,0,0,1-.216.06,1.347,1.347,0,0,1-.328-.056,2.2,2.2,0,0,0-.552-.056,1.676,1.676,0,0,0-1.056.34,2.618,2.618,0,0,0-.744,1V22Zm6.536,0V13.792h1.16a.622.622,0,0,1,.424.112.644.644,0,0,1,.16.384l.12.992a3.9,3.9,0,0,1,1.032-1.2,2.172,2.172,0,0,1,1.328-.44,1.716,1.716,0,0,1,1.008.28L-10.1,15.4a.306.306,0,0,1-.1.2.352.352,0,0,1-.216.06,1.347,1.347,0,0,1-.328-.056,2.2,2.2,0,0,0-.552-.056,1.676,1.676,0,0,0-1.056.34,2.618,2.618,0,0,0-.744,1V22Zm9.928-8.336a3.985,3.985,0,0,1,1.428.248,3.127,3.127,0,0,1,1.124.724A3.308,3.308,0,0,1-1.864,15.8a4.411,4.411,0,0,1,.264,1.58,2.859,2.859,0,0,1-.02.372.6.6,0,0,1-.072.232.291.291,0,0,1-.14.12.6.6,0,0,1-.224.036H-7.128A2.827,2.827,0,0,0-6.448,20a2.12,2.12,0,0,0,1.568.592,2.716,2.716,0,0,0,.828-.112,3.883,3.883,0,0,0,.608-.248q.26-.136.456-.248a.765.765,0,0,1,.38-.112.428.428,0,0,1,.208.048.46.46,0,0,1,.152.136l.576.72a3.293,3.293,0,0,1-.736.644,4.128,4.128,0,0,1-.852.416,4.657,4.657,0,0,1-.9.22,6.473,6.473,0,0,1-.892.064,4.385,4.385,0,0,1-1.592-.284A3.564,3.564,0,0,1-7.928,21a3.941,3.941,0,0,1-.856-1.376,5.325,5.325,0,0,1-.312-1.9,4.544,4.544,0,0,1,.272-1.58,3.8,3.8,0,0,1,.78-1.288,3.672,3.672,0,0,1,1.24-.868A4.084,4.084,0,0,1-5.152,13.664Zm.04,1.416a1.827,1.827,0,0,0-1.352.488,2.407,2.407,0,0,0-.624,1.384h3.712a2.462,2.462,0,0,0-.1-.724,1.67,1.67,0,0,0-.32-.6,1.514,1.514,0,0,0-.544-.4A1.853,1.853,0,0,0-5.112,15.08ZM.008,22V13.792H1.216a.485.485,0,0,1,.5.36l.136.648a4.5,4.5,0,0,1,.524-.464,3.659,3.659,0,0,1,.584-.36,2.975,2.975,0,0,1,.66-.232,3.465,3.465,0,0,1,.768-.08,2.943,2.943,0,0,1,1.192.228,2.355,2.355,0,0,1,.868.64,2.813,2.813,0,0,1,.528.984,4.182,4.182,0,0,1,.18,1.26V22H5.184V16.776a1.753,1.753,0,0,0-.348-1.164A1.29,1.29,0,0,0,3.792,15.2a2.058,2.058,0,0,0-.96.232,3.44,3.44,0,0,0-.848.632V22Zm11.792.128a2.159,2.159,0,0,1-1.64-.6,2.318,2.318,0,0,1-.576-1.668V15.272H8.752a.379.379,0,0,1-.392-.416v-.784l1.32-.216.416-2.24a.4.4,0,0,1,.148-.248.469.469,0,0,1,.292-.088H11.56v2.584h2.16v1.408H11.56V19.72a.872.872,0,0,0,.192.6.651.651,0,0,0,.512.216.93.93,0,0,0,.308-.044,1.7,1.7,0,0,0,.216-.092q.092-.048.164-.092a.274.274,0,0,1,.144-.044.226.226,0,0,1,.144.044.667.667,0,0,1,.12.132l.592.96a2.991,2.991,0,0,1-.992.544A3.692,3.692,0,0,1,11.8,22.128Zm8.688-12.016V22H18.512V10.112Zm5.736,3.552a4.5,4.5,0,0,1,1.668.3,3.6,3.6,0,0,1,1.276.84,3.718,3.718,0,0,1,.816,1.328,5.5,5.5,0,0,1,0,3.512,3.8,3.8,0,0,1-.816,1.336,3.545,3.545,0,0,1-1.276.848,4.859,4.859,0,0,1-3.34,0,3.577,3.577,0,0,1-1.284-.848,3.817,3.817,0,0,1-.824-1.336,5.426,5.426,0,0,1,0-3.512,3.735,3.735,0,0,1,.824-1.328,3.629,3.629,0,0,1,1.284-.84A4.53,4.53,0,0,1,26.224,13.664Zm0,6.936a1.738,1.738,0,0,0,1.516-.688,3.45,3.45,0,0,0,.492-2.016,3.489,3.489,0,0,0-.492-2.024,1.73,1.73,0,0,0-1.516-.7,1.754,1.754,0,0,0-1.536.7,3.471,3.471,0,0,0-.5,2.02,3.431,3.431,0,0,0,.5,2.012A1.762,1.762,0,0,0,26.224,20.6Zm11.36-5.072a.985.985,0,0,1-.172.176.4.4,0,0,1-.244.064.543.543,0,0,1-.3-.092q-.144-.092-.344-.208a2.572,2.572,0,0,0-.476-.208,2.187,2.187,0,0,0-.684-.092,2.087,2.087,0,0,0-.912.188,1.729,1.729,0,0,0-.652.54,2.433,2.433,0,0,0-.388.852,4.575,4.575,0,0,0-.128,1.132,4.438,4.438,0,0,0,.14,1.168,2.5,2.5,0,0,0,.4.86,1.738,1.738,0,0,0,.64.528,1.94,1.94,0,0,0,.848.18,2.1,2.1,0,0,0,.764-.116,2.411,2.411,0,0,0,.492-.256q.2-.14.348-.256a.525.525,0,0,1,.332-.116.4.4,0,0,1,.36.184l.568.72a3.572,3.572,0,0,1-.712.644,3.849,3.849,0,0,1-.8.416,4.041,4.041,0,0,1-.852.22,6.051,6.051,0,0,1-.872.064,3.64,3.64,0,0,1-1.432-.284,3.343,3.343,0,0,1-1.172-.828,3.99,3.99,0,0,1-.792-1.332,5.146,5.146,0,0,1-.292-1.8,5.22,5.22,0,0,1,.26-1.676,3.8,3.8,0,0,1,.764-1.336,3.5,3.5,0,0,1,1.248-.884,4.3,4.3,0,0,1,1.712-.32,4.072,4.072,0,0,1,1.612.3,3.939,3.939,0,0,1,1.244.848ZM45.88,22h-.888a.956.956,0,0,1-.44-.084.541.541,0,0,1-.24-.34l-.176-.584a6.777,6.777,0,0,1-.612.492,3.716,3.716,0,0,1-.62.356,3.163,3.163,0,0,1-.68.216,4.091,4.091,0,0,1-.8.072,3.152,3.152,0,0,1-.96-.14,2.07,2.07,0,0,1-.756-.42,1.907,1.907,0,0,1-.492-.7,2.469,2.469,0,0,1-.176-.968,1.909,1.909,0,0,1,.244-.916,2.3,2.3,0,0,1,.812-.816,5.193,5.193,0,0,1,1.512-.6,10.686,10.686,0,0,1,2.344-.272v-.48A1.811,1.811,0,0,0,43.6,15.6a1.275,1.275,0,0,0-1.012-.4,2.449,2.449,0,0,0-.8.112,3.1,3.1,0,0,0-.556.252q-.236.14-.436.252a.885.885,0,0,1-.44.112.572.572,0,0,1-.344-.1.819.819,0,0,1-.232-.256l-.36-.632a4.881,4.881,0,0,1,3.416-1.3,3.3,3.3,0,0,1,1.284.236,2.729,2.729,0,0,1,.956.656,2.807,2.807,0,0,1,.6,1,3.858,3.858,0,0,1,.2,1.28Zm-3.84-1.232a2.622,2.622,0,0,0,.56-.056,2.121,2.121,0,0,0,.484-.168,2.573,2.573,0,0,0,.44-.276,4,4,0,0,0,.428-.388V18.5a10.82,10.82,0,0,0-1.444.148,3.838,3.838,0,0,0-.932.276,1.2,1.2,0,0,0-.5.392.868.868,0,0,0-.148.488.858.858,0,0,0,.308.744A1.335,1.335,0,0,0,42.04,20.768Zm8.48,1.36a2.159,2.159,0,0,1-1.64-.6,2.318,2.318,0,0,1-.576-1.668V15.272h-.832a.379.379,0,0,1-.392-.416v-.784l1.32-.216.416-2.24a.4.4,0,0,1,.148-.248.469.469,0,0,1,.292-.088H50.28v2.584h2.16v1.408H50.28V19.72a.872.872,0,0,0,.192.6.651.651,0,0,0,.512.216.93.93,0,0,0,.308-.044,1.7,1.7,0,0,0,.216-.092q.092-.048.164-.092a.274.274,0,0,1,.144-.044.226.226,0,0,1,.144.044.667.667,0,0,1,.12.132l.592.96a2.991,2.991,0,0,1-.992.544A3.692,3.692,0,0,1,50.52,22.128Zm5.6-8.336V22H54.144V13.792Zm.3-2.392a1.126,1.126,0,0,1-.1.48,1.3,1.3,0,0,1-.68.66,1.24,1.24,0,0,1-.5.1,1.192,1.192,0,0,1-.484-.1,1.282,1.282,0,0,1-.4-.268,1.3,1.3,0,0,1-.268-.392,1.164,1.164,0,0,1-.1-.48,1.24,1.24,0,0,1,.1-.5,1.252,1.252,0,0,1,.664-.668,1.192,1.192,0,0,1,.484-.1,1.24,1.24,0,0,1,.5.1,1.319,1.319,0,0,1,.4.268,1.29,1.29,0,0,1,.276.4A1.2,1.2,0,0,1,56.416,11.4Zm5.44,2.264a4.5,4.5,0,0,1,1.668.3,3.6,3.6,0,0,1,1.276.84,3.719,3.719,0,0,1,.816,1.328,5.5,5.5,0,0,1,0,3.512,3.8,3.8,0,0,1-.816,1.336,3.545,3.545,0,0,1-1.276.848,4.859,4.859,0,0,1-3.34,0,3.577,3.577,0,0,1-1.284-.848,3.817,3.817,0,0,1-.824-1.336,5.426,5.426,0,0,1,0-3.512A3.735,3.735,0,0,1,58.9,14.8a3.629,3.629,0,0,1,1.284-.84A4.53,4.53,0,0,1,61.856,13.664Zm0,6.936a1.738,1.738,0,0,0,1.516-.688,3.45,3.45,0,0,0,.492-2.016,3.489,3.489,0,0,0-.492-2.024,1.73,1.73,0,0,0-1.516-.7,1.754,1.754,0,0,0-1.536.7,3.471,3.471,0,0,0-.5,2.02,3.431,3.431,0,0,0,.5,2.012A1.762,1.762,0,0,0,61.856,20.6ZM67.448,22V13.792h1.208a.485.485,0,0,1,.5.36l.136.648a4.5,4.5,0,0,1,.524-.464,3.659,3.659,0,0,1,.584-.36,2.975,2.975,0,0,1,.66-.232,3.465,3.465,0,0,1,.768-.08,2.943,2.943,0,0,1,1.192.228,2.355,2.355,0,0,1,.868.64,2.813,2.813,0,0,1,.528.984,4.182,4.182,0,0,1,.18,1.26V22H72.624V16.776a1.753,1.753,0,0,0-.348-1.164,1.29,1.29,0,0,0-1.044-.412,2.058,2.058,0,0,0-.96.232,3.44,3.44,0,0,0-.848.632V22Z" transform="translate(197 395)" fill="#547394"/></g></svg>