<svg xmlns="http://www.w3.org/2000/svg" width="304.976" height="169" viewBox="0 0 304.976 169"><g transform="translate(-15 -9)"><g transform="translate(15 9)" fill="none" stroke="#547394" stroke-width="2" stroke-dasharray="6"><circle cx="84.5" cy="84.5" r="84.5" stroke="none"/><circle cx="84.5" cy="84.5" r="83.5" fill="none"/></g><path d="M9.32-11.568V-9.8H5.84V0H3.688V-9.8H.192v-1.768ZM15.056,0h-.888a.956.956,0,0,1-.44-.084.541.541,0,0,1-.24-.34l-.176-.584a6.777,6.777,0,0,1-.612.492,3.716,3.716,0,0,1-.62.356,3.162,3.162,0,0,1-.68.216,4.091,4.091,0,0,1-.8.072,3.152,3.152,0,0,1-.96-.14,2.07,2.07,0,0,1-.756-.42,1.907,1.907,0,0,1-.492-.7A2.469,2.469,0,0,1,8.216-2.1a1.909,1.909,0,0,1,.244-.916,2.3,2.3,0,0,1,.812-.816,5.193,5.193,0,0,1,1.512-.6A10.687,10.687,0,0,1,13.128-4.7v-.48A1.811,1.811,0,0,0,12.78-6.4a1.275,1.275,0,0,0-1.012-.4,2.449,2.449,0,0,0-.8.112,3.1,3.1,0,0,0-.556.252q-.236.14-.436.252a.885.885,0,0,1-.44.112.572.572,0,0,1-.344-.1.819.819,0,0,1-.232-.256L8.6-7.064a4.881,4.881,0,0,1,3.416-1.3,3.3,3.3,0,0,1,1.284.236,2.729,2.729,0,0,1,.956.656,2.807,2.807,0,0,1,.6,1,3.858,3.858,0,0,1,.2,1.28Zm-3.84-1.232a2.622,2.622,0,0,0,.56-.056,2.122,2.122,0,0,0,.484-.168,2.573,2.573,0,0,0,.44-.276,4,4,0,0,0,.428-.388V-3.5a10.82,10.82,0,0,0-1.444.148,3.838,3.838,0,0,0-.932.276,1.2,1.2,0,0,0-.5.392A.868.868,0,0,0,10.1-2.2a.858.858,0,0,0,.308.744A1.335,1.335,0,0,0,11.216-1.232ZM17,2.68V-8.208h1.208a.591.591,0,0,1,.328.088.411.411,0,0,1,.176.272l.16.76a4.143,4.143,0,0,1,1.14-.92A3.1,3.1,0,0,1,21.52-8.36a2.691,2.691,0,0,1,1.228.28,2.756,2.756,0,0,1,.96.812,3.9,3.9,0,0,1,.624,1.312,6.6,6.6,0,0,1,.22,1.788,5.623,5.623,0,0,1-.248,1.7A4.17,4.17,0,0,1,23.6-1.1a3.271,3.271,0,0,1-1.112.9,3.236,3.236,0,0,1-1.46.324,2.936,2.936,0,0,1-1.18-.212,2.888,2.888,0,0,1-.868-.588V2.68ZM20.84-6.8a2.018,2.018,0,0,0-1.052.26,3.042,3.042,0,0,0-.812.732v3.68a1.881,1.881,0,0,0,.732.58,2.2,2.2,0,0,0,.852.164,1.915,1.915,0,0,0,.812-.168,1.576,1.576,0,0,0,.616-.512,2.533,2.533,0,0,0,.388-.868,4.96,4.96,0,0,0,.136-1.236,5.487,5.487,0,0,0-.116-1.22,2.357,2.357,0,0,0-.332-.812,1.312,1.312,0,0,0-.524-.456A1.634,1.634,0,0,0,20.84-6.8ZM29.488,0V-6.72l-.712-.112a.757.757,0,0,1-.372-.16.419.419,0,0,1-.14-.336v-.808h1.224v-.608a3.55,3.55,0,0,1,.212-1.264,2.629,2.629,0,0,1,.608-.952,2.639,2.639,0,0,1,.964-.6,3.7,3.7,0,0,1,1.28-.208,3.534,3.534,0,0,1,1.056.152l-.04.992a.288.288,0,0,1-.216.288,1.728,1.728,0,0,1-.464.056,2.37,2.37,0,0,0-.628.076,1.057,1.057,0,0,0-.468.264,1.2,1.2,0,0,0-.292.5,2.5,2.5,0,0,0-.1.764v.544h2.136v1.408H31.464V0Zm8.76-8.336a4.5,4.5,0,0,1,1.668.3,3.6,3.6,0,0,1,1.276.84,3.718,3.718,0,0,1,.816,1.328A5.052,5.052,0,0,1,42.3-4.12a5.076,5.076,0,0,1-.288,1.76,3.8,3.8,0,0,1-.816,1.336,3.545,3.545,0,0,1-1.276.848,4.5,4.5,0,0,1-1.668.3,4.53,4.53,0,0,1-1.672-.3,3.577,3.577,0,0,1-1.284-.848,3.817,3.817,0,0,1-.824-1.336,5.013,5.013,0,0,1-.292-1.76,4.989,4.989,0,0,1,.292-1.752A3.735,3.735,0,0,1,35.292-7.2a3.629,3.629,0,0,1,1.284-.84A4.53,4.53,0,0,1,38.248-8.336Zm0,6.936a1.738,1.738,0,0,0,1.516-.688A3.45,3.45,0,0,0,40.256-4.1a3.489,3.489,0,0,0-.492-2.024,1.73,1.73,0,0,0-1.516-.7,1.754,1.754,0,0,0-1.536.7,3.471,3.471,0,0,0-.5,2.02,3.431,3.431,0,0,0,.5,2.012A1.762,1.762,0,0,0,38.248-1.4ZM43.84,0V-8.208H45a.622.622,0,0,1,.424.112.644.644,0,0,1,.16.384l.12.992a3.9,3.9,0,0,1,1.032-1.2,2.172,2.172,0,0,1,1.328-.44,1.716,1.716,0,0,1,1.008.28L48.816-6.6a.306.306,0,0,1-.1.2.352.352,0,0,1-.216.06,1.347,1.347,0,0,1-.328-.056,2.2,2.2,0,0,0-.552-.056,1.676,1.676,0,0,0-1.056.34,2.618,2.618,0,0,0-.744,1V0ZM59.384-4.8q.136.256.252.532t.228.556Q59.976-4,60.1-4.28t.256-.536l3.424-6.408a.888.888,0,0,1,.132-.192.408.408,0,0,1,.152-.1.671.671,0,0,1,.188-.04q.1-.008.248-.008H66.12V0h-1.9V-7.472q0-.208.012-.456t.036-.5l-3.5,6.56a.922.922,0,0,1-.312.348.807.807,0,0,1-.448.124h-.3a.807.807,0,0,1-.448-.124.922.922,0,0,1-.312-.348L55.416-8.456q.032.264.044.516t.012.468V0h-1.9V-11.568H55.2q.144,0,.248.008a.671.671,0,0,1,.188.04.445.445,0,0,1,.156.1.808.808,0,0,1,.136.192ZM71.736-8.336a3.985,3.985,0,0,1,1.428.248,3.127,3.127,0,0,1,1.124.724A3.308,3.308,0,0,1,75.024-6.2a4.411,4.411,0,0,1,.264,1.58,2.86,2.86,0,0,1-.02.372.6.6,0,0,1-.072.232.291.291,0,0,1-.14.12.6.6,0,0,1-.224.036H69.76A2.826,2.826,0,0,0,70.44-2a2.12,2.12,0,0,0,1.568.592,2.716,2.716,0,0,0,.828-.112,3.882,3.882,0,0,0,.608-.248q.26-.136.456-.248a.765.765,0,0,1,.38-.112.428.428,0,0,1,.208.048.459.459,0,0,1,.152.136l.576.72a3.293,3.293,0,0,1-.736.644,4.128,4.128,0,0,1-.852.416,4.657,4.657,0,0,1-.9.22,6.473,6.473,0,0,1-.892.064A4.385,4.385,0,0,1,70.24-.164,3.564,3.564,0,0,1,68.96-1,3.941,3.941,0,0,1,68.1-2.38a5.325,5.325,0,0,1-.312-1.9,4.543,4.543,0,0,1,.272-1.58,3.8,3.8,0,0,1,.78-1.288,3.672,3.672,0,0,1,1.24-.868A4.084,4.084,0,0,1,71.736-8.336Zm.04,1.416a1.827,1.827,0,0,0-1.352.488A2.407,2.407,0,0,0,69.8-5.048h3.712a2.462,2.462,0,0,0-.1-.724,1.67,1.67,0,0,0-.32-.6,1.515,1.515,0,0,0-.544-.4A1.853,1.853,0,0,0,71.776-6.92ZM76.9,0V-8.208H78.1a.485.485,0,0,1,.5.36l.136.648a4.5,4.5,0,0,1,.524-.464,3.659,3.659,0,0,1,.584-.36,2.975,2.975,0,0,1,.66-.232,3.465,3.465,0,0,1,.768-.08,2.943,2.943,0,0,1,1.192.228,2.355,2.355,0,0,1,.868.64,2.813,2.813,0,0,1,.528.984,4.182,4.182,0,0,1,.18,1.26V0H82.072V-5.224a1.753,1.753,0,0,0-.348-1.164A1.29,1.29,0,0,0,80.68-6.8a2.058,2.058,0,0,0-.96.232,3.44,3.44,0,0,0-.848.632V0ZM87.8-8.208v5.216a1.753,1.753,0,0,0,.348,1.164,1.29,1.29,0,0,0,1.044.412,2.087,2.087,0,0,0,.96-.228A3.356,3.356,0,0,0,91-2.272V-8.208h1.976V0H91.768a.485.485,0,0,1-.5-.36l-.136-.656a5.722,5.722,0,0,1-.528.468,3.185,3.185,0,0,1-.58.36,3.253,3.253,0,0,1-.664.232,3.321,3.321,0,0,1-.764.084A2.914,2.914,0,0,1,87.4-.1a2.379,2.379,0,0,1-.868-.644A2.82,2.82,0,0,1,86-1.732a4.182,4.182,0,0,1-.18-1.26V-8.208Z" transform="translate(227 100)" fill="#547394"/><g transform="translate(-26.562 6.694) rotate(-26)"><path d="M-7657.472,1463.058s8.291-32.317-35.971-40.572" transform="translate(7868.979 -1281.574)" fill="none" stroke="#547394" stroke-width="2" stroke-dasharray="6"/><path d="M-7685.937,1433.069c-1.347-.054-5.558,2.1-5.558,2.1l2.719,4.624" transform="translate(7867 -1294.379)" fill="none" stroke="#547394" stroke-width="2"/></g></g></svg>