<svg xmlns="http://www.w3.org/2000/svg" viewBox="0 0 54 54"><g id="Layer_2" data-name="Layer 2"><g id="Layer_4" data-name="Layer 4"><g id="Group_627" data-name="Group 627"><g id="Path_1858" data-name="Path 1858"><path d="M6,0H48a6,6,0,0,1,6,6V48a6,6,0,0,1-6,6H6a6,6,0,0,1-6-6V6A6,6,0,0,1,6,0Z" fill="#f1f1f1"/></g><rect id="Rectangle_495" data-name="Rectangle 495" x="2" y="14" width="50" height="4" fill="#e0e3eb"/><path id="Path_1596" data-name="Path 1596" d="M35.09,20.33,31.38,34.39s11-1.51,14,.52L42,19.48Z" fill="#fdfc8c" stroke="#4f7196" stroke-miterlimit="10" stroke-width="2"/><path id="Path_1595" data-name="Path 1595" d="M37.7,9.11A7.64,7.64,0,1,1,31,17.63,7.64,7.64,0,0,1,37.7,9.11Z" fill="#8bd9c4" stroke="#496d99" stroke-width="2"/></g></g></g></svg>