<svg xmlns="http://www.w3.org/2000/svg" viewBox="0 0 54 54"><defs><style>.cls-1{fill:#f1f1f1;}.cls-2{fill:#4f7196;}.cls-3{fill:#e0e3eb;}.cls-4{fill:#fdfc8c;stroke:#4f7196;stroke-miterlimit:10;}.cls-4,.cls-5{stroke-width:2px;}.cls-5{fill:#8bd9c4;stroke:#496d99;stroke-miterlimit:4;}</style></defs><g id="Layer_2" data-name="Layer 2"><g id="Layer_4" data-name="Layer 4"><g id="Group_627" data-name="Group 627"><g id="Path_1858" data-name="Path 1858"><path class="cls-1" d="M6,0H48a6,6,0,0,1,6,6V48a6,6,0,0,1-6,6H6a6,6,0,0,1-6-6V6A6,6,0,0,1,6,0Z"/><path class="cls-2" d="M6,0h6V2H6V0ZM18,0h6V2H18ZM30,0h6V2H30ZM42,0h6V2H42Zm11,2.76a6.17,6.17,0,0,1,.56,1.12h0l0,.09h0V4h0v0h0v0h.15v0H54v0h0V8.57H52V6a4,4,0,0,0-.63-2.16ZM52,14.57h2v6H52Zm0,12h2v6H52Zm0,12h2v6H52Zm-.36,11.09,1.82.84-.12.23h0l-.06.13h0v0h0v0h0v0h0v0h0v0h0v0h0v0h0v0h0v0h0v0h-.08v0h0v0h0v0h0l0,0h0l0,0h0l0,0h0v0h0l0,0h0v0h0v0h0l0,0h0v0h0v0h0v0h0l-.09.11h0a3.07,3.07,0,0,1-.25.26h0a5.88,5.88,0,0,1-1.07.85h0l-.15.1h0l0,0h0l0,0H49.67a5.71,5.71,0,0,1-.82.18l-.28-2A4,4,0,0,0,51.64,49.66ZM36.85,52h6v2h-6Zm-12,0h6v2h-6Zm-12,0h6v2h-6ZM3,50.62A4,4,0,0,0,6,52h.85v2H3.26l0,0H3.17a5.81,5.81,0,0,1-1.71-1.37ZM0,40.28H2v6H0Zm0-12H2v6H0Zm0-12H2v6H0Zm.24-12,1.92.57A3.86,3.86,0,0,0,2,6v4.28H0V6H.1v0h0v0h0A5.25,5.25,0,0,1,.24,4.3ZM6,0V2a3.84,3.84,0,0,0-1.12.16L4.32.24A5.65,5.65,0,0,1,5.56,0H6Z"/></g><rect id="Rectangle_495" data-name="Rectangle 495" class="cls-3" x="2" y="14" width="50" height="4"/><path id="Path_1596" data-name="Path 1596" class="cls-4" d="M35.09,20.33,31.38,34.39s11-1.51,14,.52L42,19.48Z"/><path id="Path_1595" data-name="Path 1595" class="cls-5" d="M37.7,9.11A7.64,7.64,0,1,1,31,17.63,7.64,7.64,0,0,1,37.7,9.11Z"/></g></g></g></svg>