<svg xmlns="http://www.w3.org/2000/svg" xmlns:xlink="http://www.w3.org/1999/xlink" width="267" height="179" viewBox="0 0 267 179"><defs><filter id="a" x="90.132" y="89.552" width="69.531" height="82.667" filterUnits="userSpaceOnUse"><feOffset dy="3" input="SourceAlpha"/><feGaussianBlur stdDeviation="3" result="b"/><feFlood flood-opacity="0.161"/><feComposite operator="in" in2="b"/><feComposite in="SourceGraphic"/></filter><filter id="c" x="61.943" y="20.728" width="130.459" height="130.458" filterUnits="userSpaceOnUse"><feOffset dy="3" input="SourceAlpha"/><feGaussianBlur stdDeviation="3" result="d"/><feFlood flood-opacity="0.161"/><feComposite operator="in" in2="d"/><feComposite in="SourceGraphic"/></filter><radialGradient id="e" cx="0.5" cy="0.5" r="0.5" gradientUnits="objectBoundingBox"><stop offset="0" stop-color="#fff" stop-opacity="0"/><stop offset="0.887" stop-color="#fff" stop-opacity="0"/><stop offset="1" stop-color="#906a03"/></radialGradient><filter id="f" x="98.068" y="42.148" width="37.896" height="38.299" filterUnits="userSpaceOnUse"><feOffset dy="3" input="SourceAlpha"/><feGaussianBlur stdDeviation="3" result="g"/><feFlood flood-opacity="0.161"/><feComposite operator="in" in2="g"/><feComposite in="SourceGraphic"/></filter><filter id="h" x="121.114" y="43.298" width="38.017" height="38.252" filterUnits="userSpaceOnUse"><feOffset dy="3" input="SourceAlpha"/><feGaussianBlur stdDeviation="3" result="i"/><feFlood flood-opacity="0.161"/><feComposite operator="in" in2="i"/><feComposite in="SourceGraphic"/></filter><filter id="j" x="99.337" y="69.35" width="55.435" height="43.896" filterUnits="userSpaceOnUse"><feOffset dy="3" input="SourceAlpha"/><feGaussianBlur stdDeviation="3" result="k"/><feFlood flood-opacity="0.161"/><feComposite operator="in" in2="k"/><feComposite in="SourceGraphic"/></filter></defs><g transform="translate(-62 -418)"><path d="M-12419.252-2103.706a29.8,29.8,0,0,1-15.667,4.423,29.789,29.789,0,0,1-17.906-5.945,36.14,36.14,0,0,1-12,2.036,36.165,36.165,0,0,1-36.177-36.152,35.962,35.962,0,0,1,6.618-20.846,29.879,29.879,0,0,1-1.062-7.92,29.858,29.858,0,0,1,13.338-24.887,6.39,6.39,0,0,1-3.336-5.611,6.4,6.4,0,0,1,6.413-6.394c.1,0,.191,0,.287.007a20.192,20.192,0,0,1-.6-4.9,20.167,20.167,0,0,1,20.174-20.161,20.1,20.1,0,0,1,9.934,2.609,36.179,36.179,0,0,1,33.1-21.549,36.146,36.146,0,0,1,30.135,16.141,29.79,29.79,0,0,1,15.087-4.075,29.9,29.9,0,0,1,29.915,29.892,29.745,29.745,0,0,1-4.635,15.991,29.739,29.739,0,0,1,4.635,15.988,29.745,29.745,0,0,1-6.087,18.077,29.738,29.738,0,0,1,6.087,18.074,29.907,29.907,0,0,1-29.915,29.9,29.9,29.9,0,0,1-9.046-1.392c0,.082,0,.164,0,.247a20.168,20.168,0,0,1-20.176,20.16A20.182,20.182,0,0,1-12419.252-2103.706Zm14.243-26.022a20.212,20.212,0,0,1,4.874-.593c.188,0,.375,0,.563.008a29.709,29.709,0,0,1-.961-4.382,29.887,29.887,0,0,1-4.625,2.461Q-12405.032-2130.995-12405.009-2129.729Zm-33.315-50.83a30.028,30.028,0,0,1,2.267-2.111,36.349,36.349,0,0,1-10.872-11.2q-.792.6-1.644,1.131A30.032,30.032,0,0,1-12438.324-2180.559Z" transform="translate(12604 2682)" fill="#fff"/><g transform="matrix(0.999, 0.052, -0.052, 0.999, 20.295, 43.133)"><g transform="translate(139.104 394.856)"><g transform="matrix(1, -0.05, 0.05, 1, -77.84, -22.68)" filter="url(#a)"><path d="M88.732,147.9l-24.17,13.88s.957,42.6,7.658,48.342l16.512-7.354,16.513,7.354c6.7-5.744,7.658-48.342,7.658-48.342Z" transform="matrix(1, 0.05, -0.05, 1, 45.66, -55.53)" fill="#f8b67b"/></g><path d="M101.977,147.9l-12.506,7.054-.547,18.863A84.493,84.493,0,0,0,89.5,186.39l2.393,19.829,10.086-4.428,10.838,4.6,2.393-13.7a84.485,84.485,0,0,0,1.1-19.743l-1.084-17.569Z" transform="translate(-48.395 -80.525)" fill="#ffe59c"/><g transform="matrix(1, -0.05, 0.05, 1, -77.84, -22.68)" filter="url(#c)"><path d="M107,53.5A53.5,53.5,0,1,1,53.5,0,53.5,53.5,0,0,1,107,53.5" transform="matrix(1, 0.05, -0.05, 1, 76.54, 26.73)" fill="#fff89b"/></g><path d="M108.73,64.065A44.664,44.664,0,1,1,64.065,19.4,44.664,44.664,0,0,1,108.73,64.065" transform="translate(-10.562 -10.563)" fill="#fcf051"/><path d="M109.426,68.333A41.093,41.093,0,1,1,68.332,27.239a41.094,41.094,0,0,1,41.094,41.094" transform="translate(-14.83 -14.83)" fill="#f2d17c"/><path d="M109.426,68.333A41.093,41.093,0,1,1,68.332,27.239a41.094,41.094,0,0,1,41.094,41.094" transform="translate(-14.83 -14.83)" opacity="0.26" fill="url(#e)" style="mix-blend-mode:multiply;isolation:isolate"/><g transform="matrix(1, -0.05, 0.05, 1, -77.84, -22.68)" filter="url(#f)"><path d="M80.786,44.721l3.254,3.9a.761.761,0,0,0,.656.271l5.054-.471a.763.763,0,0,1,.717,1.166l-2.7,4.3a.764.764,0,0,0-.055.708l2.01,4.661a.763.763,0,0,1-.887,1.042l-4.922-1.24a.763.763,0,0,0-.69.167l-3.812,3.352a.763.763,0,0,1-1.265-.522L77.8,56.985a.765.765,0,0,0-.372-.6l-4.366-2.589a.763.763,0,0,1,.105-1.364l4.71-1.891A.764.764,0,0,0,78.342,50l1.113-4.952a.763.763,0,0,1,1.33-.322" transform="matrix(1, 0.05, -0.05, 1, 38.29, 0.49)" fill="#fff89b" stroke="#fff89b" stroke-width="1"/></g><g transform="matrix(1, -0.05, 0.05, 1, -77.84, -22.68)" filter="url(#h)"><path d="M134.355,44.889l1.279,4.912a.764.764,0,0,0,.478.525l4.771,1.731a.763.763,0,0,1,.151,1.36l-4.277,2.734a.764.764,0,0,0-.352.617l-.172,5.073a.763.763,0,0,1-1.247.564l-3.922-3.223a.764.764,0,0,0-.7-.144l-4.878,1.4a.763.763,0,0,1-.921-1.012l1.853-4.725a.764.764,0,0,0-.078-.706L123.5,49.8a.763.763,0,0,1,.678-1.189l5.067.3a.763.763,0,0,0,.647-.292l3.121-4a.763.763,0,0,1,1.34.277" transform="matrix(1, 0.05, -0.05, 1, 10.73, -0.88)" fill="#fff89b" stroke="#fff89b" stroke-width="1"/></g><g transform="matrix(1, -0.05, 0.05, 1, -77.84, -22.68)" filter="url(#j)"><path d="M111.213,126.92H82.286a3.15,3.15,0,0,1-3.15-3.15V107.037a3.15,3.15,0,0,1,3.15-3.15h28.927a3.15,3.15,0,0,1,3.15,3.15V123.77a3.15,3.15,0,0,1-3.15,3.15" transform="matrix(1, 0.05, -0.05, 1, 36.48, -32.01)" fill="#fff89b" stroke="#fff89b" stroke-width="1"/></g><path d="M114.667,111.008,99.382,121.284l-15.41-10.276" transform="translate(-45.718 -60.438)" fill="none" stroke="#dec676" stroke-linecap="round" stroke-miterlimit="10" stroke-width="2.5"/><rect width="107.005" height="129.599" transform="translate(0.001 0)" fill="none"/><text transform="translate(52.001 85.338)" fill="#fff89b" font-size="10" font-family="Lato-Black, Lato" font-weight="800"><tspan x="-10.325" y="0">LV. 2</tspan></text></g><path d="M739.31,539.34s16.255.032,19.02-8.368-4.321-3.36-4.321-3.36,4.769-8.651-.793-9.058S749.2,532.055,739.31,539.34Z" transform="translate(-562.751 22.242) rotate(-10)" fill="#f8b67b"/><path d="M-2.174,2.055S13.988.324,17.616,8.39s-3.946,3.794-3.946,3.794,5.647,8.105.158,9.092S8.421,8.267-2.174,2.055Z" transform="matrix(-0.985, -0.174, 0.174, -0.985, 122.749, 454.692)" fill="#fff89b"/><path d="M1093.675,604.851l-.337.406-.342-.4c-1.115-1.316-2.917-2.056-4.021-.728h0a3.861,3.861,0,0,0,.021,4.79l.34.4,4.041,4.768,4.334-5.218a3.863,3.863,0,0,0-.021-4.79h0C1096.574,602.763,1094.779,603.522,1093.675,604.851Z" transform="translate(-1094.601 714.039) rotate(-39)" fill="#8bd9c4"/><path d="M1095.213,605.083l-.431.471-.437-.467c-1.426-1.526-3.73-2.384-5.141-.844v0a4.153,4.153,0,0,0,.027,5.553l.435.466,5.166,5.527,5.541-6.049a4.155,4.155,0,0,0-.026-5.553h0C1098.92,602.662,1096.625,603.542,1095.213,605.083Z" transform="matrix(0.94, 0.342, -0.342, 0.94, -556.123, -477.844)" fill="#abdaea"/><circle cx="4.5" cy="4.5" r="4.5" transform="translate(117.849 477.354) rotate(-3)" fill="#abdaea"/><circle cx="3" cy="3" r="3" transform="translate(273.003 476.232) rotate(-3)" fill="#fff"/><circle cx="3" cy="3" r="3" transform="translate(247.244 500.614) rotate(-3)" fill="#fff89b"/><circle cx="4.5" cy="4.5" r="4.5" transform="translate(276.745 432.977) rotate(-3)" fill="#fff"/><path d="M-9899.027,4010.559h4.176l1.8-23.929h-10.007Z" transform="matrix(0.799, -0.602, 0.602, 0.799, 5618.895, -8761.293)" fill="#fff"/><path d="M-9899.594,4007.205H-9896l1.547-20.575h-8.605Z" transform="translate(1785.51 -10143.363) rotate(-59)" fill="#fff"/><path d="M-9899.027,4010.559h4.176l1.8-23.929h-10.007Z" transform="matrix(0.961, -0.276, 0.276, 0.961, 8544.269, -6189.915)" fill="#fff"/><rect width="267" height="179" transform="translate(61.267 372.171) rotate(-3)" fill="none"/></g></g></svg>