<svg xmlns="http://www.w3.org/2000/svg" viewBox="0 0 846.59 860.12"><defs><style>.cls-1{fill:#fffdf4;}.cls-2{fill:#f6b57a;}.cls-3{fill:#567595;}</style></defs><g id="Layer_2" data-name="Layer 2"><g id="Layer_1-2" data-name="Layer 1"><rect class="cls-1" x="13.55" y="13.55" width="819.49" height="833.02" rx="10.05"/><path class="cls-2" d="M778.58,860.12H68a68.1,68.1,0,0,1-68-68V68A68.09,68.09,0,0,1,68,0H778.58a68.09,68.09,0,0,1,68,68V792.1A68.1,68.1,0,0,1,778.58,860.12ZM68,27.1A41,41,0,0,0,27.1,68V792.1A41,41,0,0,0,68,833H778.58a41,41,0,0,0,40.91-40.92V68A41,41,0,0,0,778.58,27.1Z"/><rect class="cls-3" x="339.65" y="127.41" width="21.29" height="21.29"/><rect class="cls-3" x="461.32" y="127.41" width="21.29" height="21.29"/><rect class="cls-3" x="509.98" y="127.41" width="21.29" height="21.29"/><rect class="cls-3" x="315.32" y="151.74" width="21.29" height="21.29"/><rect class="cls-3" x="339.65" y="151.74" width="21.29" height="21.29"/><rect class="cls-3" x="388.32" y="151.74" width="21.29" height="21.29"/><rect class="cls-3" x="412.65" y="151.74" width="21.29" height="21.29"/><rect class="cls-3" x="436.98" y="151.74" width="21.29" height="21.29"/><rect class="cls-3" x="461.32" y="151.74" width="21.29" height="21.29"/><rect class="cls-3" x="339.65" y="176.08" width="21.29" height="21.29"/><rect class="cls-3" x="363.98" y="176.08" width="21.29" height="21.29"/><rect class="cls-3" x="388.32" y="176.08" width="21.29" height="21.29"/><rect class="cls-3" x="315.32" y="200.41" width="21.29" height="21.29"/><rect class="cls-3" x="339.65" y="200.41" width="21.29" height="21.29"/><rect class="cls-3" x="388.32" y="200.41" width="21.29" height="21.29"/><rect class="cls-3" x="436.98" y="200.41" width="21.29" height="21.29"/><rect class="cls-3" x="485.65" y="200.41" width="21.29" height="21.29"/><rect class="cls-3" x="509.98" y="200.41" width="21.29" height="21.29"/><rect class="cls-3" x="363.98" y="224.74" width="21.29" height="21.29"/><rect class="cls-3" x="412.65" y="224.74" width="21.29" height="21.29"/><rect class="cls-3" x="485.65" y="224.74" width="21.29" height="21.29"/><rect class="cls-3" x="509.98" y="224.74" width="21.29" height="21.29"/><rect class="cls-3" x="315.32" y="249.08" width="21.29" height="21.29"/><rect class="cls-3" x="363.98" y="249.08" width="21.29" height="21.29"/><rect class="cls-3" x="436.98" y="249.08" width="21.29" height="21.29"/><rect class="cls-3" x="461.32" y="249.08" width="21.29" height="21.29"/><rect class="cls-3" x="485.65" y="249.08" width="21.29" height="21.29"/><rect class="cls-3" x="315.32" y="273.41" width="21.29" height="21.29"/><rect class="cls-3" x="363.98" y="273.41" width="21.29" height="21.29"/><rect class="cls-3" x="412.65" y="273.41" width="21.29" height="21.29"/><rect class="cls-3" x="461.32" y="273.41" width="21.29" height="21.29"/><rect class="cls-3" x="509.98" y="273.41" width="21.29" height="21.29"/><rect class="cls-3" x="412.65" y="297.74" width="21.29" height="21.29"/><rect class="cls-3" x="509.98" y="297.74" width="21.29" height="21.29"/><rect class="cls-3" x="120.65" y="322.08" width="21.29" height="21.29"/><rect class="cls-3" x="144.98" y="322.08" width="21.29" height="21.29"/><rect class="cls-3" x="169.32" y="322.08" width="21.29" height="21.29"/><rect class="cls-3" x="193.65" y="322.08" width="21.29" height="21.29"/><rect class="cls-3" x="217.98" y="322.08" width="21.29" height="21.29"/><rect class="cls-3" x="266.65" y="322.08" width="21.29" height="21.29"/><rect class="cls-3" x="290.98" y="322.08" width="21.29" height="21.29"/><rect class="cls-3" x="315.32" y="322.08" width="21.29" height="21.29"/><rect class="cls-3" x="339.65" y="322.08" width="21.29" height="21.29"/><rect class="cls-3" x="363.98" y="322.08" width="21.29" height="21.29"/><rect class="cls-3" x="412.65" y="322.08" width="21.29" height="21.29"/><rect class="cls-3" x="436.98" y="322.08" width="21.29" height="21.29"/><rect class="cls-3" x="485.65" y="322.08" width="21.29" height="21.29"/><rect class="cls-3" x="534.32" y="322.08" width="21.29" height="21.29"/><rect class="cls-3" x="582.98" y="322.08" width="21.29" height="21.29"/><rect class="cls-3" x="631.65" y="322.08" width="21.29" height="21.29"/><rect class="cls-3" x="680.32" y="322.08" width="21.29" height="21.29"/><rect class="cls-3" x="144.98" y="346.41" width="21.29" height="21.29"/><rect class="cls-3" x="242.32" y="346.41" width="21.29" height="21.29"/><rect class="cls-3" x="315.32" y="346.41" width="21.29" height="21.29"/><rect class="cls-3" x="339.65" y="346.41" width="21.29" height="21.29"/><rect class="cls-3" x="485.65" y="346.41" width="21.29" height="21.29"/><rect class="cls-3" x="509.98" y="346.41" width="21.29" height="21.29"/><rect class="cls-3" x="534.32" y="346.41" width="21.29" height="21.29"/><rect class="cls-3" x="582.98" y="346.41" width="21.29" height="21.29"/><rect class="cls-3" x="607.32" y="346.41" width="21.29" height="21.29"/><rect class="cls-3" x="704.65" y="346.41" width="21.29" height="21.29"/><rect class="cls-3" x="120.65" y="370.74" width="21.29" height="21.29"/><rect class="cls-3" x="144.98" y="370.74" width="21.29" height="21.29"/><rect class="cls-3" x="193.65" y="370.74" width="21.29" height="21.29"/><rect class="cls-3" x="217.98" y="370.74" width="21.29" height="21.29"/><rect class="cls-3" x="242.32" y="370.74" width="21.29" height="21.29"/><rect class="cls-3" x="266.65" y="370.74" width="21.29" height="21.29"/><rect class="cls-3" x="290.98" y="370.74" width="21.29" height="21.29"/><rect class="cls-3" x="339.65" y="370.74" width="21.29" height="21.29"/><rect class="cls-3" x="388.32" y="370.74" width="21.29" height="21.29"/><rect class="cls-3" x="412.65" y="370.74" width="21.29" height="21.29"/><rect class="cls-3" x="436.98" y="370.74" width="21.29" height="21.29"/><rect class="cls-3" x="461.32" y="370.74" width="21.29" height="21.29"/><rect class="cls-3" x="485.65" y="370.74" width="21.29" height="21.29"/><rect class="cls-3" x="534.32" y="370.74" width="21.29" height="21.29"/><rect class="cls-3" x="558.65" y="370.74" width="21.29" height="21.29"/><rect class="cls-3" x="607.32" y="370.74" width="21.29" height="21.29"/><rect class="cls-3" x="655.98" y="370.74" width="21.29" height="21.29"/><rect class="cls-3" x="144.98" y="395.08" width="21.29" height="21.29"/><rect class="cls-3" x="193.65" y="395.08" width="21.29" height="21.29"/><rect class="cls-3" x="217.98" y="395.08" width="21.29" height="21.29"/><rect class="cls-3" x="339.65" y="395.08" width="21.29" height="21.29"/><rect class="cls-3" x="363.98" y="395.08" width="21.29" height="21.29"/><rect class="cls-3" x="388.32" y="395.08" width="21.29" height="21.29"/><rect class="cls-3" x="461.32" y="395.08" width="21.29" height="21.29"/><rect class="cls-3" x="509.98" y="395.08" width="21.29" height="21.29"/><rect class="cls-3" x="534.32" y="395.08" width="21.29" height="21.29"/><rect class="cls-3" x="144.98" y="419.41" width="21.29" height="21.29"/><rect class="cls-3" x="169.32" y="419.41" width="21.29" height="21.29"/><rect class="cls-3" x="217.98" y="419.41" width="21.29" height="21.29"/><rect class="cls-3" x="266.65" y="419.41" width="21.29" height="21.29"/><rect class="cls-3" x="290.98" y="419.41" width="21.29" height="21.29"/><rect class="cls-3" x="315.32" y="419.41" width="21.29" height="21.29"/><rect class="cls-3" x="339.65" y="419.41" width="21.29" height="21.29"/><rect class="cls-3" x="388.32" y="419.41" width="21.29" height="21.29"/><rect class="cls-3" x="436.98" y="419.41" width="21.29" height="21.29"/><rect class="cls-3" x="461.32" y="419.41" width="21.29" height="21.29"/><rect class="cls-3" x="485.65" y="419.41" width="21.29" height="21.29"/><rect class="cls-3" x="558.65" y="419.41" width="21.29" height="21.29"/><rect class="cls-3" x="582.98" y="419.41" width="21.29" height="21.29"/><rect class="cls-3" x="607.32" y="419.41" width="21.29" height="21.29"/><rect class="cls-3" x="631.65" y="419.41" width="21.29" height="21.29"/><rect class="cls-3" x="680.32" y="419.41" width="21.29" height="21.29"/><rect class="cls-3" x="704.65" y="419.41" width="21.29" height="21.29"/><rect class="cls-3" x="120.65" y="443.74" width="21.29" height="21.29"/><rect class="cls-3" x="169.32" y="443.74" width="21.29" height="21.29"/><rect class="cls-3" x="217.98" y="443.74" width="21.29" height="21.29"/><rect class="cls-3" x="242.32" y="443.74" width="21.29" height="21.29"/><rect class="cls-3" x="315.32" y="443.74" width="21.29" height="21.29"/><rect class="cls-3" x="339.65" y="443.74" width="21.29" height="21.29"/><rect class="cls-3" x="363.98" y="443.74" width="21.29" height="21.29"/><rect class="cls-3" x="412.65" y="443.74" width="21.29" height="21.29"/><rect class="cls-3" x="509.98" y="443.74" width="21.29" height="21.29"/><rect class="cls-3" x="534.32" y="443.74" width="21.29" height="21.29"/><rect class="cls-3" x="558.65" y="443.74" width="21.29" height="21.29"/><rect class="cls-3" x="582.98" y="443.74" width="21.29" height="21.29"/><rect class="cls-3" x="607.32" y="443.74" width="21.29" height="21.29"/><rect class="cls-3" x="120.65" y="468.08" width="21.29" height="21.29"/><rect class="cls-3" x="169.32" y="468.08" width="21.29" height="21.29"/><rect class="cls-3" x="217.98" y="468.08" width="21.29" height="21.29"/><rect class="cls-3" x="242.32" y="468.08" width="21.29" height="21.29"/><rect class="cls-3" x="266.65" y="468.08" width="21.29" height="21.29"/><rect class="cls-3" x="290.98" y="468.08" width="21.29" height="21.29"/><rect class="cls-3" x="315.32" y="468.08" width="21.29" height="21.29"/><rect class="cls-3" x="363.98" y="468.08" width="21.29" height="21.29"/><rect class="cls-3" x="461.32" y="468.08" width="21.29" height="21.29"/><rect class="cls-3" x="534.32" y="468.08" width="21.29" height="21.29"/><rect class="cls-3" x="558.65" y="468.08" width="21.29" height="21.29"/><rect class="cls-3" x="607.32" y="468.08" width="21.29" height="21.29"/><rect class="cls-3" x="655.98" y="468.08" width="21.29" height="21.29"/><rect class="cls-3" x="680.32" y="468.08" width="21.29" height="21.29"/><rect class="cls-3" x="704.65" y="468.08" width="21.29" height="21.29"/><rect class="cls-3" x="120.65" y="492.41" width="21.29" height="21.29"/><rect class="cls-3" x="242.32" y="492.41" width="21.29" height="21.29"/><rect class="cls-3" x="290.98" y="492.41" width="21.29" height="21.29"/><rect class="cls-3" x="412.65" y="492.41" width="21.29" height="21.29"/><rect class="cls-3" x="461.32" y="492.41" width="21.29" height="21.29"/><rect class="cls-3" x="534.32" y="492.41" width="21.29" height="21.29"/><rect class="cls-3" x="680.32" y="492.41" width="21.29" height="21.29"/><rect class="cls-3" x="704.65" y="492.41" width="21.29" height="21.29"/><rect class="cls-3" x="120.65" y="516.74" width="21.29" height="21.29"/><rect class="cls-3" x="193.65" y="516.74" width="21.29" height="21.29"/><rect class="cls-3" x="217.98" y="516.74" width="21.29" height="21.29"/><rect class="cls-3" x="242.32" y="516.74" width="21.29" height="21.29"/><rect class="cls-3" x="266.65" y="516.74" width="21.29" height="21.29"/><rect class="cls-3" x="363.98" y="516.74" width="21.29" height="21.29"/><rect class="cls-3" x="412.65" y="516.74" width="21.29" height="21.29"/><rect class="cls-3" x="461.32" y="516.74" width="21.29" height="21.29"/><rect class="cls-3" x="485.65" y="516.74" width="21.29" height="21.29"/><rect class="cls-3" x="509.98" y="516.74" width="21.29" height="21.29"/><rect class="cls-3" x="534.32" y="516.74" width="21.29" height="21.29"/><rect class="cls-3" x="558.65" y="516.74" width="21.29" height="21.29"/><rect class="cls-3" x="582.98" y="516.74" width="21.29" height="21.29"/><rect class="cls-3" x="607.32" y="516.74" width="21.29" height="21.29"/><rect class="cls-3" x="631.65" y="516.74" width="21.29" height="21.29"/><rect class="cls-3" x="704.65" y="516.74" width="21.29" height="21.29"/><rect class="cls-3" x="315.32" y="541.08" width="21.29" height="21.29"/><rect class="cls-3" x="363.98" y="541.08" width="21.29" height="21.29"/><rect class="cls-3" x="509.98" y="541.08" width="21.29" height="21.29"/><rect class="cls-3" x="607.32" y="541.08" width="21.29" height="21.29"/><rect class="cls-3" x="704.65" y="541.08" width="21.29" height="21.29"/><rect class="cls-3" x="315.32" y="565.41" width="21.29" height="21.29"/><rect class="cls-3" x="339.65" y="565.41" width="21.29" height="21.29"/><rect class="cls-3" x="388.32" y="565.41" width="21.29" height="21.29"/><rect class="cls-3" x="412.65" y="565.41" width="21.29" height="21.29"/><rect class="cls-3" x="436.98" y="565.41" width="21.29" height="21.29"/><rect class="cls-3" x="461.32" y="565.41" width="21.29" height="21.29"/><rect class="cls-3" x="509.98" y="565.41" width="21.29" height="21.29"/><rect class="cls-3" x="558.65" y="565.41" width="21.29" height="21.29"/><rect class="cls-3" x="607.32" y="565.41" width="21.29" height="21.29"/><rect class="cls-3" x="655.98" y="565.41" width="21.29" height="21.29"/><rect class="cls-3" x="680.32" y="565.41" width="21.29" height="21.29"/><rect class="cls-3" x="704.65" y="565.41" width="21.29" height="21.29"/><rect class="cls-3" x="388.32" y="589.74" width="21.29" height="21.29"/><rect class="cls-3" x="436.98" y="589.74" width="21.29" height="21.29"/><rect class="cls-3" x="509.98" y="589.74" width="21.29" height="21.29"/><rect class="cls-3" x="607.32" y="589.74" width="21.29" height="21.29"/><rect class="cls-3" x="631.65" y="589.74" width="21.29" height="21.29"/><rect class="cls-3" x="315.32" y="614.08" width="21.29" height="21.29"/><rect class="cls-3" x="339.65" y="614.08" width="21.29" height="21.29"/><rect class="cls-3" x="363.98" y="614.08" width="21.29" height="21.29"/><rect class="cls-3" x="388.32" y="614.08" width="21.29" height="21.29"/><rect class="cls-3" x="412.65" y="614.08" width="21.29" height="21.29"/><rect class="cls-3" x="461.32" y="614.08" width="21.29" height="21.29"/><rect class="cls-3" x="509.98" y="614.08" width="21.29" height="21.29"/><rect class="cls-3" x="534.32" y="614.08" width="21.29" height="21.29"/><rect class="cls-3" x="558.65" y="614.08" width="21.29" height="21.29"/><rect class="cls-3" x="582.98" y="614.08" width="21.29" height="21.29"/><rect class="cls-3" x="607.32" y="614.08" width="21.29" height="21.29"/><rect class="cls-3" x="631.65" y="614.08" width="21.29" height="21.29"/><rect class="cls-3" x="315.32" y="638.41" width="21.29" height="21.29"/><rect class="cls-3" x="339.65" y="638.41" width="21.29" height="21.29"/><rect class="cls-3" x="363.98" y="638.41" width="21.29" height="21.29"/><rect class="cls-3" x="412.65" y="638.41" width="21.29" height="21.29"/><rect class="cls-3" x="461.32" y="638.41" width="21.29" height="21.29"/><rect class="cls-3" x="485.65" y="638.41" width="21.29" height="21.29"/><rect class="cls-3" x="509.98" y="638.41" width="21.29" height="21.29"/><rect class="cls-3" x="558.65" y="638.41" width="21.29" height="21.29"/><rect class="cls-3" x="607.32" y="638.41" width="21.29" height="21.29"/><rect class="cls-3" x="680.32" y="638.41" width="21.29" height="21.29"/><rect class="cls-3" x="704.65" y="638.41" width="21.29" height="21.29"/><rect class="cls-3" x="315.32" y="662.74" width="21.29" height="21.29"/><rect class="cls-3" x="412.65" y="662.74" width="21.29" height="21.29"/><rect class="cls-3" x="436.98" y="662.74" width="21.29" height="21.29"/><rect class="cls-3" x="607.32" y="662.74" width="21.29" height="21.29"/><rect class="cls-3" x="655.98" y="662.74" width="21.29" height="21.29"/><rect class="cls-3" x="704.65" y="662.74" width="21.29" height="21.29"/><rect class="cls-3" x="315.32" y="687.08" width="21.29" height="21.29"/><rect class="cls-3" x="412.65" y="687.08" width="21.29" height="21.29"/><rect class="cls-3" x="461.32" y="687.08" width="21.29" height="21.29"/><rect class="cls-3" x="509.98" y="687.08" width="21.29" height="21.29"/><rect class="cls-3" x="534.32" y="687.08" width="21.29" height="21.29"/><rect class="cls-3" x="558.65" y="687.08" width="21.29" height="21.29"/><rect class="cls-3" x="582.98" y="687.08" width="21.29" height="21.29"/><rect class="cls-3" x="607.32" y="687.08" width="21.29" height="21.29"/><rect class="cls-3" x="631.65" y="687.08" width="21.29" height="21.29"/><rect class="cls-3" x="680.32" y="687.08" width="21.29" height="21.29"/><rect class="cls-3" x="315.32" y="711.41" width="21.29" height="21.29"/><rect class="cls-3" x="339.65" y="711.41" width="21.29" height="21.29"/><rect class="cls-3" x="485.65" y="711.41" width="21.29" height="21.29"/><rect class="cls-3" x="655.98" y="711.41" width="21.29" height="21.29"/><rect class="cls-3" x="680.32" y="711.41" width="21.29" height="21.29"/><rect class="cls-3" x="704.65" y="711.41" width="21.29" height="21.29"/><path class="cls-3" d="M238,125.89H170.63a51.5,51.5,0,0,0-51.5,51.5v67.34a51.49,51.49,0,0,0,51.5,51.49H238a51.49,51.49,0,0,0,51.49-51.49V177.39A51.49,51.49,0,0,0,238,125.89Zm27.16,109.22a36.78,36.78,0,0,1-36.78,36.78h-48.1a36.79,36.79,0,0,1-36.79-36.78V187a36.79,36.79,0,0,1,36.79-36.79h48.1A36.79,36.79,0,0,1,265.13,187Z"/><path class="cls-3" d="M240.8,225.49a22.07,22.07,0,0,1-22.07,22.07H189.87a22.07,22.07,0,0,1-22.07-22.07V196.63a22.07,22.07,0,0,1,22.07-22.07h28.86a22.07,22.07,0,0,1,22.07,22.07v28.86Z"/><path class="cls-3" d="M676,125.89H608.62a51.49,51.49,0,0,0-51.49,51.5v67.34a51.49,51.49,0,0,0,51.49,51.49H676a51.49,51.49,0,0,0,51.49-51.49V177.39A51.49,51.49,0,0,0,676,125.89Zm27.16,109.22a36.78,36.78,0,0,1-36.78,36.78H618.24a36.78,36.78,0,0,1-36.78-36.78V187a36.79,36.79,0,0,1,36.78-36.79h48.11A36.79,36.79,0,0,1,703.13,187Z"/><path class="cls-3" d="M678.79,225.49a22.07,22.07,0,0,1-22.06,22.07H627.86a22.07,22.07,0,0,1-22.06-22.07V196.63a22.07,22.07,0,0,1,22.06-22.07h28.87a22.07,22.07,0,0,1,22.06,22.07v28.86Z"/><path class="cls-3" d="M238,563.89H170.63a51.49,51.49,0,0,0-51.5,51.49v67.35a51.49,51.49,0,0,0,51.5,51.49H238a51.49,51.49,0,0,0,51.49-51.49V615.38A51.49,51.49,0,0,0,238,563.89Zm27.16,109.22a36.78,36.78,0,0,1-36.78,36.78h-48.1a36.79,36.79,0,0,1-36.79-36.78V625a36.79,36.79,0,0,1,36.79-36.78h48.1A36.78,36.78,0,0,1,265.13,625Z"/><path class="cls-3" d="M240.8,663.49a22.07,22.07,0,0,1-22.07,22.06H189.87a22.07,22.07,0,0,1-22.07-22.06V634.62a22.07,22.07,0,0,1,22.07-22.06h28.86a22.07,22.07,0,0,1,22.07,22.06v28.87Z"/></g></g></svg>