<svg xmlns="http://www.w3.org/2000/svg" width="27.353" height="26.318" viewBox="0 0 27.353 26.318"><g transform="translate(-19 -10)"><g transform="translate(19 10)" fill="none"><path d="M6.565,0H20.788a6.444,6.444,0,0,1,6.565,6.316V20a6.444,6.444,0,0,1-6.565,6.316H6.565A6.444,6.444,0,0,1,0,20V6.316A6.444,6.444,0,0,1,6.565,0Z" stroke="none"/><path d="M 6.564723968505859 2 C 4.047723770141602 2 2.000003814697266 3.936328887939453 2.000003814697266 6.316410064697266 L 2.000003814697266 20.00194931030273 C 2.000003814697266 22.38203048706055 4.047723770141602 24.318359375 6.564723968505859 24.318359375 L 20.78830337524414 24.318359375 C 23.3053035736084 24.318359375 25.35302352905273 22.38203048706055 25.35302352905273 20.00194931030273 L 25.35302352905273 6.316410064697266 C 25.35302352905273 3.936328887939453 23.3053035736084 2 20.78830337524414 2 L 6.564723968505859 2 M 6.564723968505859 0 L 20.78830337524414 0 C 24.41390419006348 0 27.35302352905273 2.827949523925781 27.35302352905273 6.316410064697266 L 27.35302352905273 20.00194931030273 C 27.35302352905273 23.49040985107422 24.41390419006348 26.318359375 20.78830337524414 26.318359375 L 6.564723968505859 26.318359375 C 2.939123153686523 26.318359375 3.814697265625e-06 23.49040985107422 3.814697265625e-06 20.00194931030273 L 3.814697265625e-06 6.316410064697266 C 3.814697265625e-06 2.827949523925781 2.939123153686523 0 6.564723968505859 0 Z" stroke="none" fill="#fff"/></g><g transform="translate(1)"><g transform="translate(24 16)" fill="none" stroke="#fff" stroke-width="2"><circle cx="7.5" cy="7.5" r="7.5" stroke="none"/><circle cx="7.5" cy="7.5" r="6.5" fill="none"/></g><circle cx="2" cy="2" r="2" transform="translate(38 15)" fill="#fff"/></g></g></svg>