<svg xmlns="http://www.w3.org/2000/svg" width="20.078" height="20.077" viewBox="0 0 20.078 20.077"><path d="M3106.988-4247.289l.547-4.459-3.97-.488-.547,4.459-2.978-.366.547-4.459-4.588-.563.366-2.977,4.587.563.488-3.971-4.587-.563.366-2.977,4.587.563.549-4.474,2.978.366-.549,4.473,3.97.487.549-4.473,2.978.365-.55,4.474,4.346.534-.366,2.978-4.345-.534-.488,3.97,4.346.534-.365,2.978-4.346-.534-.548,4.458Zm.913-7.437.487-3.97-3.97-.488-.487,3.97Z" transform="translate(-3096 4267)" fill="#f8b67b"/></svg>