<svg xmlns="http://www.w3.org/2000/svg" width="28.611" height="28.656" viewBox="0 0 28.611 28.656"><g transform="translate(-0.405)"><g transform="translate(0.405 0)"><circle cx="8.5" cy="8.5" r="8.5" transform="translate(11 0.656)" fill="#8bd9c4"/><circle cx="6" cy="6" r="6" transform="translate(1 15.656)" fill="#abdaea"/><circle cx="0.561" cy="0.561" r="0.561" transform="translate(23.934 8.456)" fill="#547394"/><path d="M198.15,18.215h-3.745a.56.56,0,0,1-.56-.56v-.683a8.141,8.141,0,0,1-1.391-.579l-.48.482a.56.56,0,0,1-.793,0l-2.648-2.657a.56.56,0,0,1,0-.79l.482-.484a8.194,8.194,0,0,1-.578-1.4h-.678a.56.56,0,0,1-.56-.56V7.229a.56.56,0,0,1,.56-.56h.678a8.193,8.193,0,0,1,.578-1.4l-.482-.484a.56.56,0,0,1,0-.79l2.648-2.657a.56.56,0,0,1,.793,0l.48.482a8.136,8.136,0,0,1,1.391-.579V.56a.56.56,0,0,1,.56-.56h3.745a.56.56,0,0,1,.56.56v.683a8.134,8.134,0,0,1,1.391.579l.48-.482a.56.56,0,0,1,.793,0L204.022,4a.56.56,0,0,1,0,.79l-.482.484a8.193,8.193,0,0,1,.578,1.4h.678a.56.56,0,0,1,.56.56v3.758a.56.56,0,0,1-.56.56h-.678a8.2,8.2,0,0,1-.578,1.4l.482.484a.56.56,0,0,1,0,.79l-2.648,2.657a.56.56,0,0,1-.793,0l-.48-.482a8.13,8.13,0,0,1-1.391.579v.683A.56.56,0,0,1,198.15,18.215ZM194.965,17.1h2.625v-.547a.56.56,0,0,1,.423-.543,7.023,7.023,0,0,0,1.9-.789.56.56,0,0,1,.684.085l.384.385,1.858-1.864-.387-.388a.56.56,0,0,1-.084-.682,7.082,7.082,0,0,0,.786-1.9.56.56,0,0,1,.543-.424h.543V7.789h-.543a.56.56,0,0,1-.543-.424,7.083,7.083,0,0,0-.786-1.9.56.56,0,0,1,.084-.682l.387-.388-1.858-1.864-.384.385a.56.56,0,0,1-.684.085,7.024,7.024,0,0,0-1.9-.789.56.56,0,0,1-.423-.543V1.119h-2.625v.547a.56.56,0,0,1-.423.543,7.023,7.023,0,0,0-1.9.789.56.56,0,0,1-.685-.085l-.384-.385-1.858,1.864.387.388a.56.56,0,0,1,.084.682,7.082,7.082,0,0,0-.786,1.9.56.56,0,0,1-.543.424h-.543v2.638h.543a.56.56,0,0,1,.543.424,7.081,7.081,0,0,0,.786,1.9.56.56,0,0,1-.084.682l-.387.388,1.858,1.864.384-.385a.56.56,0,0,1,.685-.085,7.023,7.023,0,0,0,1.9.789.56.56,0,0,1,.423.543Zm1.313-2.448a5.54,5.54,0,1,1,4.7-8.448.56.56,0,0,1-.953.587A4.421,4.421,0,1,0,200.1,11.3l.018-.032a.56.56,0,0,1,.978.544l-.023.041A5.536,5.536,0,0,1,196.278,14.648Z" transform="translate(-176.745 0)" fill="#547394"/><path d="M9.036,269.122H6.127a.56.56,0,0,1-.56-.56v-.439a6.44,6.44,0,0,1-.932-.388l-.308.309a.56.56,0,0,1-.793,0l-2.057-2.064a.56.56,0,0,1,0-.79l.31-.311a6.49,6.49,0,0,1-.388-.938H.965a.56.56,0,0,1-.56-.56v-2.919a.56.56,0,0,1,.56-.56H1.4a6.485,6.485,0,0,1,.388-.938l-.31-.311a.559.559,0,0,1,0-.79L3.535,255.8a.56.56,0,0,1,.793,0l.308.309a6.446,6.446,0,0,1,.932-.388v-.439a.56.56,0,0,1,.56-.56H9.036a.56.56,0,0,1,.56.56v.439a6.443,6.443,0,0,1,.932.388l.308-.309a.56.56,0,0,1,.793,0l2.057,2.064a.559.559,0,0,1,0,.79l-.31.311a6.485,6.485,0,0,1,.388.938H14.2a.56.56,0,0,1,.56.56v2.919a.56.56,0,0,1-.56.56h-.435a6.493,6.493,0,0,1-.388.938l.31.311a.56.56,0,0,1,0,.79l-2.057,2.064a.56.56,0,0,1-.793,0l-.308-.309a6.443,6.443,0,0,1-.932.388v.439A.56.56,0,0,1,9.036,269.122ZM6.687,268H8.476v-.3a.56.56,0,0,1,.423-.543,5.331,5.331,0,0,0,1.439-.6.56.56,0,0,1,.684.085l.21.211,1.267-1.271-.212-.213a.56.56,0,0,1-.084-.682,5.373,5.373,0,0,0,.6-1.445.56.56,0,0,1,.543-.424h.3v-1.8h-.3a.56.56,0,0,1-.543-.424,5.373,5.373,0,0,0-.6-1.445.56.56,0,0,1,.084-.682l.212-.213-1.267-1.271-.21.211a.56.56,0,0,1-.684.085,5.331,5.331,0,0,0-1.439-.6.56.56,0,0,1-.423-.543v-.3H6.687v.3a.56.56,0,0,1-.423.543,5.332,5.332,0,0,0-1.439.6.56.56,0,0,1-.684-.085l-.21-.211L2.664,258.26l.212.213a.56.56,0,0,1,.084.682,5.373,5.373,0,0,0-.6,1.445.56.56,0,0,1-.543.424h-.3v1.8h.3a.56.56,0,0,1,.543.424,5.373,5.373,0,0,0,.6,1.445.56.56,0,0,1-.084.682l-.212.213,1.267,1.271.21-.211a.56.56,0,0,1,.684-.085,5.328,5.328,0,0,0,1.439.6.56.56,0,0,1,.423.543Zm.895-2.145a3.936,3.936,0,1,1,3.924-3.935A3.934,3.934,0,0,1,7.582,265.858Zm0-6.752a2.816,2.816,0,1,0,2.8,2.816A2.813,2.813,0,0,0,7.582,259.107Z" transform="translate(-0.405 -240.467)" fill="#547394"/></g></g></svg>