<svg xmlns="http://www.w3.org/2000/svg" width="39.366" height="30.643" viewBox="0 0 39.366 30.643">
  <g id="Group_500" data-name="Group 500" transform="translate(0 5.507)">
    <g id="Union_17" data-name="Union 17" transform="translate(0 5.137)" fill="#abdaea">
      <path d="M 20.5 19.5 L 4.117380142211914 19.5 L 3.617510080337524 19.5 L 3.617510080337524 10 L 3.617510080337524 9.5 L 3.117510080337524 9.5 L 0.8521668314933777 9.5 L 5.587940216064453 1.025010704994202 L 10.3237133026123 9.5 L 8.058369636535645 9.5 L 7.558370113372803 9.5 L 7.558370113372803 10 L 7.558370113372803 15.05895042419434 L 7.558370113372803 15.55895042419434 L 8.058369636535645 15.55895042419434 L 20.5 15.55895042419434 L 20.5 19.5 Z" stroke="none"/>
      <path d="M 20 19 L 20 16.05895042419434 L 8.058369636535645 16.05895042419434 L 7.058370113372803 16.05895042419434 L 7.058370113372803 15.05895042419434 L 7.058370113372803 10 L 7.058370113372803 9 L 8.058369636535645 9 L 9.471556663513184 9 L 5.587940216064453 2.050003528594971 L 1.704323768615723 9 L 3.117510080337524 9 L 4.117509841918945 9 L 4.117509841918945 10 L 4.117380142211914 19 L 20 19 M 21 20 L 4.117380142211914 20 L 3.117510080337524 20 L 3.117510080337524 10 L 0 10 L 5.587940216064453 0 L 11.17588043212891 10 L 8.058369636535645 10 L 8.058369636535645 15.05895042419434 L 21 15.05895042419434 L 21 20 Z" stroke="none" fill="#547394"/>
    </g>
    <g id="Union_18" data-name="Union 18" transform="translate(30 21.137) rotate(180)" fill="#abdaea">
      <path d="M 20.5 19.5 L 4.117380142211914 19.5 L 3.617510080337524 19.5 L 3.617510080337524 10 L 3.617510080337524 9.5 L 3.117510080337524 9.5 L 0.8521668314933777 9.5 L 5.587940216064453 1.025010704994202 L 10.3237133026123 9.5 L 8.058369636535645 9.5 L 7.558370113372803 9.5 L 7.558370113372803 10 L 7.558370113372803 15.05895042419434 L 7.558370113372803 15.55895042419434 L 8.058369636535645 15.55895042419434 L 20.5 15.55895042419434 L 20.5 19.5 Z" stroke="none"/>
      <path d="M 20 19 L 20 16.05895042419434 L 8.058369636535645 16.05895042419434 L 7.058370113372803 16.05895042419434 L 7.058370113372803 15.05895042419434 L 7.058370113372803 10 L 7.058370113372803 9 L 8.058369636535645 9 L 9.471556663513184 9 L 5.587940216064453 2.050003528594971 L 1.704323768615723 9 L 3.117510080337524 9 L 4.117509841918945 9 L 4.117509841918945 10 L 4.117380142211914 19 L 20 19 M 21 20 L 4.117380142211914 20 L 3.117510080337524 20 L 3.117510080337524 10 L 0 10 L 5.587940216064453 0 L 11.17588043212891 10 L 8.058369636535645 10 L 8.058369636535645 15.05895042419434 L 21 15.05895042419434 L 21 20 Z" stroke="none" fill="#547394"/>
    </g>
    <path id="Path_1123" data-name="Path 1123" d="M1093.891,604.766l-.35.383-.355-.38c-1.159-1.24-3.031-1.937-4.178-.686h0a3.375,3.375,0,0,0,.022,4.513l.354.379,4.2,4.492,4.5-4.916a3.376,3.376,0,0,0-.021-4.513h0C1096.9,602.8,1095.037,603.514,1093.891,604.766Z" transform="translate(-1060.274 -608.394)" fill="#fbacaa" stroke="#597685" stroke-width="1"/>
  </g>
</svg>
