<svg xmlns="http://www.w3.org/2000/svg" width="36.206" height="27.159" viewBox="0 0 36.206 27.159">
  <g id="send" transform="translate(0.5 0.5)">
    <g id="Group_419" data-name="Group 419">
      <g id="Group_408" data-name="Group 408">
        <ellipse id="Ellipse_284-2" data-name="Ellipse 284-2" cx="13.079" cy="13.079" rx="13.079" ry="13.079" fill="#fff89b" stroke="#547394" stroke-miterlimit="10" stroke-width="1"/>
      </g>
      <g id="Group_409" data-name="Group 409" transform="translate(5.383 9.57)">
        <path id="Path_1317" data-name="Path 1317" d="M3102.363,419.157s.106-3.055,2.212-3.055,2.213,3.055,2.213,3.055" transform="translate(-3102.363 -416.102)" fill="none" stroke="#597685" stroke-linecap="round" stroke-miterlimit="10" stroke-width="1"/>
        <path id="Path_1318" data-name="Path 1318" d="M3134.047,419.157s-.107-3.055-2.213-3.055-2.213,3.055-2.213,3.055" transform="translate(-3118.303 -416.102)" fill="none" stroke="#597685" stroke-linecap="round" stroke-miterlimit="10" stroke-width="1"/>
        <path id="Path_1319" data-name="Path 1319" d="M3111.479,431.031a.56.56,0,0,0-.56.629,4.246,4.246,0,0,0,8.428,0,.56.56,0,0,0-.56-.629Z" transform="translate(-3107.363 -424.832)" fill="#fbacaa" stroke="#597685" stroke-miterlimit="10" stroke-width="1"/>
      </g>
    </g>
    <g id="Group_420" data-name="Group 420" transform="translate(20.535 11.479)">
      <path id="Path_1329" data-name="Path 1329" d="M7.991,8.992l-5.9-2.178,14.249-4.69L11.494,15.242Z" transform="translate(-2.025 -2.041)" fill="#d5e5ff"/>
      <line id="Line_45" data-name="Line 45" x1="8" y2="7" transform="translate(6.465 0.332)" fill="none" stroke="#547394" stroke-linecap="round" stroke-linejoin="round" stroke-width="1"/>
      <path id="Path_1328" data-name="Path 1328" d="M16.428,2l-5.05,13.332-2.886-6L2,6.666Z" transform="translate(-2 -2)" fill="rgba(255,175,175,0)" stroke="#547394" stroke-linecap="round" stroke-linejoin="round" stroke-width="1"/>
    </g>
  </g>
</svg>
