<svg xmlns="http://www.w3.org/2000/svg" width="25" height="20" viewBox="0 0 25 20">
  <g id="Group_634" data-name="Group 634" transform="translate(-10 -7)">
    <g id="Union_19" data-name="Union 19" transform="translate(10 10)" fill="#8bd9c4">
      <path d="M 16.5 16.5 L 3.333120107650757 16.5 L 3.023699998855591 16.5 L 3.023699998855591 8.5 L 3.023699998855591 8 L 2.523699998855591 8 L 0.8324925303459167 8 L 4.52357006072998 1.064292550086975 L 8.21464729309082 8 L 6.523439884185791 8 L 6.023439884185791 8 L 6.023439884185791 8.5 L 6.023439884185791 12.80010986328125 L 6.023439884185791 13.30010986328125 L 6.523439884185791 13.30010986328125 L 16.5 13.30010986328125 L 16.5 16.5 Z" stroke="none"/>
      <path d="M 16 16 L 16 13.80010986328125 L 6.523439884185791 13.80010986328125 L 5.523439884185791 13.80010986328125 L 5.523439884185791 12.80010986328125 L 5.523439884185791 8.5 L 5.523439884185791 7.5 L 6.523439884185791 7.5 L 7.38216495513916 7.5 L 4.52357006072998 2.128566265106201 L 1.664975047111511 7.5 L 2.523699998855591 7.5 L 3.523699998855591 7.5 L 3.523699998855591 8.5 L 3.523699998855591 16 L 16 16 M 17 17 L 3.333120107650757 17 L 2.523699998855591 17 L 2.523699998855591 8.5 L 0 8.5 L 4.52357006072998 0 L 9.047140121459961 8.5 L 6.523439884185791 8.5 L 6.523439884185791 12.80010986328125 L 17 12.80010986328125 L 17 17 Z" stroke="none" fill="#547394"/>
    </g>
    <g id="Union_20" data-name="Union 20" transform="translate(35 24) rotate(180)" fill="#8bd9c4">
      <path d="M 16.5 16.5 L 3.333120107650757 16.5 L 3.023699998855591 16.5 L 3.023699998855591 8.5 L 3.023699998855591 8 L 2.523699998855591 8 L 0.8324925303459167 8 L 4.52357006072998 1.064292550086975 L 8.21464729309082 8 L 6.523439884185791 8 L 6.023439884185791 8 L 6.023439884185791 8.5 L 6.023439884185791 12.80010986328125 L 6.023439884185791 13.30010986328125 L 6.523439884185791 13.30010986328125 L 16.5 13.30010986328125 L 16.5 16.5 Z" stroke="none"/>
      <path d="M 16 16 L 16 13.80010986328125 L 6.523439884185791 13.80010986328125 L 5.523439884185791 13.80010986328125 L 5.523439884185791 12.80010986328125 L 5.523439884185791 8.5 L 5.523439884185791 7.5 L 6.523439884185791 7.5 L 7.38216495513916 7.5 L 4.52357006072998 2.128566265106201 L 1.664975047111511 7.5 L 2.523699998855591 7.5 L 3.523699998855591 7.5 L 3.523699998855591 8.5 L 3.523699998855591 16 L 16 16 M 17 17 L 3.333120107650757 17 L 2.523699998855591 17 L 2.523699998855591 8.5 L 0 8.5 L 4.52357006072998 0 L 9.047140121459961 8.5 L 6.523439884185791 8.5 L 6.523439884185791 12.80010986328125 L 17 12.80010986328125 L 17 17 Z" stroke="none" fill="#547394"/>
    </g>
  </g>
</svg>
