<svg xmlns="http://www.w3.org/2000/svg" width="39" height="40.265" viewBox="0 0 39 40.265"><g transform="translate(-237.499 -454.499)"><path d="M-14613.085-878.405c2.074-.472,3.316-3.566,3.886-5.426a18.62,18.62,0,0,1-5.3-13.047A18.562,18.562,0,0,1-14596-915.5a18.561,18.561,0,0,1,18.5,18.623,18.56,18.56,0,0,1-18.5,18.62,18.364,18.364,0,0,1-6.765-1.284,11.476,11.476,0,0,1-7.165,2.306C-14612.681-877.236-14614.512-878.08-14613.085-878.405Z" transform="translate(14853 1371)" fill="#fff" stroke="#547394" stroke-width="2"/><g transform="translate(14861.809 1379.807)" fill="#f8b67b"><path d="M -14610.3486328125 -896.8433837890625 C -14610.7490234375 -896.8433837890625 -14611.1259765625 -896.9994506835938 -14611.4091796875 -897.2828369140625 L -14613.3310546875 -899.2047729492188 C -14613.916015625 -899.7894287109375 -14613.916015625 -900.7407836914062 -14613.3310546875 -901.325439453125 L -14609.203125 -905.4534912109375 L -14608.849609375 -905.8070678710938 L -14609.203125 -906.16064453125 L -14613.3310546875 -910.2886962890625 C -14613.6142578125 -910.5720825195312 -14613.7705078125 -910.9486694335938 -14613.7705078125 -911.3490600585938 C -14613.7705078125 -911.7494506835938 -14613.6142578125 -912.1259765625 -14613.3310546875 -912.4093627929688 L -14611.4091796875 -914.331298828125 C -14611.1259765625 -914.6146850585938 -14610.7490234375 -914.770751953125 -14610.3486328125 -914.770751953125 C -14609.9482421875 -914.770751953125 -14609.5712890625 -914.6146850585938 -14609.2880859375 -914.331298828125 L -14605.16015625 -910.2033081054688 L -14604.806640625 -909.8497314453125 L -14604.453125 -910.2033081054688 L -14600.3251953125 -914.331298828125 C -14600.0419921875 -914.6146850585938 -14599.6650390625 -914.770751953125 -14599.2646484375 -914.770751953125 C -14598.8642578125 -914.770751953125 -14598.4873046875 -914.6146850585938 -14598.2041015625 -914.331298828125 L -14596.2822265625 -912.4093627929688 C -14595.701171875 -911.8251342773438 -14595.701171875 -910.8729858398438 -14596.283203125 -910.2877807617188 L -14600.4111328125 -906.16064453125 L -14600.7646484375 -905.8070678710938 L -14600.4111328125 -905.4534912109375 L -14596.2822265625 -901.325439453125 C -14595.697265625 -900.7407836914062 -14595.697265625 -899.7894287109375 -14596.2822265625 -899.2047729492188 L -14598.2041015625 -897.2828369140625 C -14598.4873046875 -896.9994506835938 -14598.8642578125 -896.8433837890625 -14599.2646484375 -896.8433837890625 C -14599.6650390625 -896.8433837890625 -14600.0419921875 -896.9994506835938 -14600.3251953125 -897.2828369140625 L -14604.453125 -901.4108276367188 L -14604.806640625 -901.764404296875 L -14605.16015625 -901.4108276367188 L -14609.2880859375 -897.2828369140625 C -14609.5712890625 -896.9994506835938 -14609.9482421875 -896.8433837890625 -14610.3486328125 -896.8433837890625 Z" stroke="none"/><path d="M -14610.3486328125 -897.3433837890625 C -14610.08203125 -897.3433837890625 -14609.8310546875 -897.4474487304688 -14609.6416015625 -897.6363525390625 L -14605.513671875 -901.764404296875 L -14604.806640625 -902.4715576171875 L -14604.099609375 -901.764404296875 L -14599.9716796875 -897.6364135742188 C -14599.7822265625 -897.4474487304688 -14599.53125 -897.3433837890625 -14599.2646484375 -897.3433837890625 C -14598.998046875 -897.3433837890625 -14598.7470703125 -897.4474487304688 -14598.5576171875 -897.6363525390625 L -14596.6357421875 -899.5582885742188 C -14596.24609375 -899.9480590820312 -14596.24609375 -900.5821533203125 -14596.6357421875 -900.9718627929688 L -14600.7646484375 -905.0999145507812 L -14601.4716796875 -905.8070678710938 L -14600.7646484375 -906.5142211914062 L -14596.6376953125 -910.6404418945312 C -14596.2490234375 -911.0311889648438 -14596.2490234375 -911.6668701171875 -14596.6357421875 -912.0558471679688 L -14598.5576171875 -913.9777221679688 C -14598.7470703125 -914.1666870117188 -14598.998046875 -914.270751953125 -14599.2646484375 -914.270751953125 C -14599.53125 -914.270751953125 -14599.7822265625 -914.1666870117188 -14599.9716796875 -913.977783203125 L -14604.099609375 -909.8497314453125 L -14604.806640625 -909.142578125 L -14605.513671875 -909.8497314453125 L -14609.6416015625 -913.9777221679688 C -14609.8310546875 -914.1666870117188 -14610.08203125 -914.270751953125 -14610.3486328125 -914.270751953125 C -14610.615234375 -914.270751953125 -14610.8662109375 -914.1666870117188 -14611.0556640625 -913.977783203125 L -14612.9775390625 -912.0557861328125 C -14613.166015625 -911.8668823242188 -14613.2705078125 -911.6158447265625 -14613.2705078125 -911.3490600585938 C -14613.2705078125 -911.0822143554688 -14613.166015625 -910.8311767578125 -14612.9775390625 -910.6422119140625 L -14608.849609375 -906.51416015625 L -14608.142578125 -905.8070678710938 L -14608.849609375 -905.0999755859375 L -14612.9775390625 -900.971923828125 C -14613.3671875 -900.5821533203125 -14613.3671875 -899.9480590820312 -14612.9775390625 -899.5582885742188 L -14611.0556640625 -897.6364135742188 C -14610.8662109375 -897.4474487304688 -14610.615234375 -897.3433837890625 -14610.3486328125 -897.3433837890625 M -14610.3486328125 -896.3433837890625 C -14610.8603515625 -896.3433837890625 -14611.3720703125 -896.5386352539062 -14611.7626953125 -896.9292602539062 L -14613.6845703125 -898.8511962890625 C -14614.4658203125 -899.6324462890625 -14614.4658203125 -900.8977661132812 -14613.6845703125 -901.6790161132812 L -14609.556640625 -905.8070678710938 L -14613.6845703125 -909.9351196289062 C -14614.4658203125 -910.7163696289062 -14614.4658203125 -911.9817504882812 -14613.6845703125 -912.762939453125 L -14611.7626953125 -914.6848754882812 C -14611.3720703125 -915.0755004882812 -14610.8603515625 -915.270751953125 -14610.3486328125 -915.270751953125 C -14609.8369140625 -915.270751953125 -14609.3251953125 -915.0755004882812 -14608.9345703125 -914.6848754882812 L -14604.806640625 -910.5568237304688 L -14600.6787109375 -914.6848754882812 C -14600.2880859375 -915.0755004882812 -14599.7763671875 -915.270751953125 -14599.2646484375 -915.270751953125 C -14598.7529296875 -915.270751953125 -14598.2412109375 -915.0755004882812 -14597.8505859375 -914.6848754882812 L -14595.9287109375 -912.762939453125 C -14595.1513671875 -911.9817504882812 -14595.1513671875 -910.7163696289062 -14595.9287109375 -909.9351196289062 L -14600.0576171875 -905.8070678710938 L -14595.9287109375 -901.6790161132812 C -14595.1474609375 -900.8977661132812 -14595.1474609375 -899.6324462890625 -14595.9287109375 -898.8511962890625 L -14597.8505859375 -896.9292602539062 C -14598.2412109375 -896.5386962890625 -14598.7529296875 -896.3433837890625 -14599.2646484375 -896.3433837890625 C -14599.7763671875 -896.3433837890625 -14600.2880859375 -896.5386962890625 -14600.6787109375 -896.9292602539062 L -14604.806640625 -901.0573120117188 L -14608.9345703125 -896.9292602539062 C -14609.3251953125 -896.5386352539062 -14609.8369140625 -896.3433837890625 -14610.3486328125 -896.3433837890625 Z" stroke="none" fill="#ed7205"/></g></g></svg>