<svg xmlns="http://www.w3.org/2000/svg" xmlns:xlink="http://www.w3.org/1999/xlink" width="111.903" height="111.898" viewBox="0 0 111.903 111.898"><defs><filter id="a" x="0" y="0" width="111.903" height="111.898" filterUnits="userSpaceOnUse"><feOffset dy="3" input="SourceAlpha"/><feGaussianBlur stdDeviation="3" result="b"/><feFlood flood-opacity="0.161"/><feComposite operator="in" in2="b"/><feComposite in="SourceGraphic"/></filter></defs><g transform="translate(8 -24.763)"><g transform="matrix(1, 0, 0, 1, -8, 24.76)" filter="url(#a)"><path d="M2034.1,2903.9a46.735,46.735,0,0,1-26.276-8.033,47.376,47.376,0,0,1-15.015-16.554,46.965,46.965,0,1,1,82.9-.585,47.89,47.89,0,0,1-10.543,13.426,45.122,45.122,0,0,1-3.7,2.956,46.726,46.726,0,0,1-27.361,8.791Z" transform="translate(-1978.15 -2804)" fill="#fff89b"/></g><path d="M2011.028,2821.645" transform="translate(-1980.686 -2776.572)" fill="none" stroke="#707070" stroke-width="1"/><g transform="translate(1 31.054)"><path d="M5356.7-293.072a46.734,46.734,0,0,1-26.277-8.033,47.368,47.368,0,0,1-15.014-16.554,46.964,46.964,0,0,1,18.918-63.667,46.965,46.965,0,0,1,63.667,18.919,46.969,46.969,0,0,1,.312,44.162,47.9,47.9,0,0,1-10.543,13.426,45.343,45.343,0,0,1-3.7,2.956,46.737,46.737,0,0,1-27.361,8.791Z" transform="translate(-5309.728 387.008)" fill="#fff89b"/><path d="M5381.058-315.5a52.3,52.3,0,0,1-55.035.707c2.2-8.109,13.736-14.29,27.624-14.29C5367.136-329.086,5378.392-323.261,5381.058-315.5Z" transform="translate(-5306.001 400.253)" fill="#9fd7e8" stroke="#507297" stroke-width="1.5"/><path d="M5348.966-319.609s7.232,5.7,8.435,4.711,7.754-6.378,12.59-7.954l-5.745-3.545Z" transform="translate(-5300.755 400.868)" fill="#9fd7e8" stroke="#547394" stroke-linecap="round" stroke-linejoin="round" stroke-width="1"/><path d="M5351.489-319.609s-7.23,5.7-8.435,4.711-7.754-5.676-12.591-7.249l5.747-4.246Z" transform="translate(-5304.986 400.868)" fill="#9fd7e8" stroke="#547394" stroke-linecap="round" stroke-linejoin="round" stroke-width="1"/><path d="M5350.025-314.949h-.882a3.186,3.186,0,0,1-3.062-2.3l-.915-3.179H5354l-.917,3.179A3.185,3.185,0,0,1,5350.025-314.949Z" transform="translate(-5301.624 402.232)" fill="#547394"/><path d="M5349.14-315.95h.882a3.178,3.178,0,0,1,3.062,2.366l.916,3.258h-8.839l.915-3.258A3.178,3.178,0,0,1,5349.14-315.95Z" transform="translate(-5301.626 403.257)" fill="#547394"/><path d="M5329.917-322.157s4.846-4.858,10.129-3.457-10.378,2.826,11.735,16.7C5352.913-307.988,5334.277-308.482,5329.917-322.157Z" transform="translate(-5305.11 400.989)" fill="#f8b67b" stroke="#507297" stroke-width="1"/><path d="M5320.89-336.4c-3.59-5.529-.478-12.15-.478-16.361,0-10.487,16.843-26.387,33.013-26.387a33.759,33.759,0,0,1,17.555,5.587c3.743.512,8.317,2.663,13.976,6.573,7.649,5.283,3.6,15.892,1.709,19.873a15.874,15.874,0,0,1-3.732,11.206c-6.7,7.747-21.451,14.491-31.822,14.491C5340.205-321.418,5326.233-328.157,5320.89-336.4Z" transform="translate(-5307.57 388.805)" fill="#abdaea"/><circle cx="8.324" cy="8.324" r="8.324" transform="translate(6.379 50.738)" fill="#fff" stroke="#547394" stroke-width="1.5"/><circle cx="8.324" cy="8.324" r="8.324" transform="translate(66.732 50.738)" fill="#fff" stroke="#547394" stroke-width="1.5"/><path d="M5384.6-337.513c0,15.653-14.319,28.349-31.983,28.349a36.708,36.708,0,0,1-8.072-.91c-13.593-2.991-23.919-14.148-23.919-27.438a25.209,25.209,0,0,1,.687-5.861c3.044-12.843,15.9-22.485,31.3-22.485,12.287,0,22.949,6.143,28.31,15.145A25.719,25.719,0,0,1,5384.6-337.513Z" transform="translate(-5307.237 391.844)" fill="#fff" stroke="rgba(0,0,0,0)" stroke-width="1"/><path d="M5353.994-337.735s0-2.07-4.834-2.044c-4.567.291-4.565,1.938-4.565,1.938" transform="translate(5396.833 -279.708) rotate(180)" fill="none" stroke="#547394" stroke-miterlimit="9.996" stroke-width="1"/><ellipse cx="3.661" cy="1.709" rx="3.661" ry="1.709" transform="translate(20.415 55.143)" fill="#f8b67b"/><ellipse cx="3.661" cy="1.709" rx="3.661" ry="1.709" transform="translate(66.272 55.143)" fill="#f8b67b"/><g transform="translate(26.925 46.823)"><ellipse cx="6.111" cy="5.477" rx="6.111" ry="5.477" fill="#fff" stroke="#547394" stroke-miterlimit="10" stroke-width="1"/></g><g transform="translate(55.04 46.823)"><ellipse cx="6.111" cy="5.477" rx="6.111" ry="5.477" fill="#fff" stroke="#547394" stroke-miterlimit="10" stroke-width="1"/></g><ellipse cx="4.893" cy="4.384" rx="4.893" ry="4.384" transform="translate(29.37 46.818)" fill="#547394" opacity="0.991" style="isolation:isolate"/><ellipse cx="4.893" cy="4.384" rx="4.893" ry="4.384" transform="translate(55.032 46.818)" fill="#547394" stroke="#547394" stroke-width="1" opacity="0.991" style="isolation:isolate"/><path d="M5384.136-338.243s5.111-9.907,4.188-19.391c-.641-6.578-4.186-12.954-14.356-15.679-24.832-6.653-47.727,21.657-47.727,21.657s-4.928,6.3-5.62,12.4" transform="translate(-5307.236 389.908)" fill="none" stroke="#547394" stroke-linecap="round" stroke-linejoin="round" stroke-width="1.5"/><path d="M5386.687-344.869a6.043,6.043,0,0,1-2.539,4.13c-5.353,4.1-13.639-8.493-17.325-13.412a71.2,71.2,0,0,1-5.222-7.741c.508,9.971-10.32,15.515-15.663,14.147-4.43-1.13-1.944-7.405-1.083-9.4-12.665,27.657-19.313,13.546-19.313,13.546l-.383,2.048c-.354,2.334-3.194,2.762-4.59.86,3.247-14.681,18.475-28.1,34.895-28.1C5367.915-368.927,5380.506-355.681,5386.687-344.869Z" transform="translate(-5307.248 391.172)" fill="#75879a" stroke="#547394" stroke-width="1.5"/><path d="M5323.676-344.395a5.883,5.883,0,0,0-2.848-1.318" transform="translate(-5307.19 396.451)" fill="none" stroke="#597685" stroke-miterlimit="10" stroke-width="1"/><path d="M5323.182-339.3a7.6,7.6,0,0,0-5.284.446" transform="translate(-5307.86 397.854)" fill="none" stroke="#547394" stroke-miterlimit="10" stroke-width="1"/><path d="M5376.12-339.295a3.838,3.838,0,0,0-3.687.446" transform="translate(-5295.388 397.854)" fill="none" stroke="#547394" stroke-miterlimit="10" stroke-width="1"/><path d="M5327.1-333.365a6.349,6.349,0,0,1-3.683,1.477" transform="translate(-5308.978 399.274)" fill="none" stroke="#597685" stroke-miterlimit="10" stroke-width="1"/><path d="M5371.532-345.508a5.792,5.792,0,0,1,4.708,1.912" transform="translate(-5295.594 396.495)" fill="#597685" stroke="#507297" stroke-miterlimit="10" stroke-width="1"/><path d="M5372.642-340.737a16.6,16.6,0,0,1-1.1,5.038" transform="translate(-5295.594 397.588)" fill="none" stroke="#547394" stroke-miterlimit="10" stroke-width="1"/><path d="M5322.247-341.18s.9,3.084-.26,4.358" transform="translate(-5306.924 397.487)" fill="none" stroke="#547394" stroke-miterlimit="10" stroke-width="1"/><path d="M5323.415-331.32s7.935,13.351,21.961,14.592,31.35-1.876,35.895-19.108" transform="translate(-5306.598 398.709)" fill="none" stroke="#547394" stroke-width="1.5"/><path d="M5333.63-375.325" transform="translate(-5304.262 389.679)" fill="none" stroke="#707070" stroke-width="1"/><path d="M5319.234-338.27s-3.141-13.995,8.212-28.176,34.084-14.253,41.942-7.288" transform="translate(-5307.646 389.007)" fill="none" stroke="#547394" stroke-width="1.5"/><path d="M5358.521-350.9s4.756,4.754,9.783,4.637" transform="translate(-5298.569 395.263)" fill="none" stroke="#597685" stroke-linecap="round" stroke-miterlimit="10" stroke-width="1.5"/><path d="M5339.107-350.9s-4.757,4.754-9.784,4.637" transform="translate(-5305.247 395.263)" fill="none" stroke="#597685" stroke-linecap="round" stroke-miterlimit="10" stroke-width="1.5"/><circle cx="1.779" cy="1.779" r="1.779" transform="translate(33.454 47.663)" fill="#fff"/><circle cx="1.779" cy="1.779" r="1.779" transform="translate(57.003 47.663)" fill="#fff"/><circle cx="0.889" cy="0.889" r="0.889" transform="translate(31.191 50.832)" fill="#fff"/><circle cx="0.889" cy="0.889" r="0.889" transform="translate(61.826 50.832)" fill="#fff"/></g></g></svg>