<svg xmlns="http://www.w3.org/2000/svg" width="24.612" height="37.369" viewBox="0 0 24.612 37.369"><g transform="translate(-87.395)"><rect width="23" height="6" rx="2" transform="translate(88.395 30.214)" fill="#abdaea"/><rect width="23" height="29" transform="translate(88.395 1.214)" fill="#f7f7f7"/><g transform="translate(93.438 10.987)"><path d="M170.186,156.812l6.263,8.322,6.263-8.322h-3.488v-6.278h-5.552v6.278Z" transform="translate(-170.186 -150.534)" fill="#8bd9c4"/></g><g transform="translate(87.395 0)"><path d="M108.483,0H90.919A3.521,3.521,0,0,0,87.4,3.511V33.852a3.521,3.521,0,0,0,3.517,3.517H108.49a3.521,3.521,0,0,0,3.517-3.517V3.511A3.522,3.522,0,0,0,108.483,0ZM88.855,3.511A2.06,2.06,0,0,1,90.919,1.46h17.564a2.06,2.06,0,0,1,2.064,2.051V30.083H88.855Zm21.692,30.341a2.06,2.06,0,0,1-2.058,2.058H90.912a2.06,2.06,0,0,1-2.058-2.058V31.543h21.693v2.309Z" transform="translate(-87.395 0)" fill="#547394"/><path d="M240.063,453.544h.973a.73.73,0,0,0,0-1.46h-.973a.73.73,0,0,0,0,1.46Z" transform="translate(-228.243 -419.088)" fill="#547394"/><path d="M206.172,39.553H199.24a.73.73,0,0,0,0,1.46h6.932a.73.73,0,1,0,0-1.46Z" transform="translate(-190.4 -36.666)" fill="#547394"/></g></g></svg>