<svg xmlns="http://www.w3.org/2000/svg" width="36.364" height="36.507" viewBox="0 0 36.364 36.507"><g transform="translate(-1)"><g transform="translate(1.537 16.946)"><path d="M19.521,247.315a10.785,10.785,0,0,1,2.694.758.143.143,0,0,0,.193-.134v-4.06a1.074,1.074,0,0,0-1.074-1.074H17.34a.143.143,0,0,1-.134-.192,10.059,10.059,0,0,0,.7-2.526,2.429,2.429,0,0,0-4.857,0,10.056,10.056,0,0,0,.7,2.526.143.143,0,0,1-.134.192h-4a1.074,1.074,0,0,0-1.074,1.074v11.729A1.074,1.074,0,0,0,9.6,256.682H21.333a1.074,1.074,0,0,0,1.074-1.074v-4.06a.143.143,0,0,0-.193-.134,10.781,10.781,0,0,1-2.694.758,2.429,2.429,0,1,1,0-4.857Z" transform="translate(-8.53 -237.658)" fill="#fff89b"/></g><g transform="translate(1.54 0.537)"><path d="M25.163,12.045a10.056,10.056,0,0,0-2.526.7.143.143,0,0,1-.192-.134v-4A1.074,1.074,0,0,0,21.37,7.531H9.641A1.074,1.074,0,0,0,8.567,8.6V20.334a1.074,1.074,0,0,0,1.074,1.074H13.7a.143.143,0,0,0,.134-.193,10.782,10.782,0,0,1-.758-2.694,2.429,2.429,0,1,1,4.857,0,10.785,10.785,0,0,1-.758,2.694.143.143,0,0,0,.134.193h4.06a1.074,1.074,0,0,0,1.074-1.074V16.341a.143.143,0,0,1,.192-.134,10.059,10.059,0,0,0,2.526.7,2.429,2.429,0,1,0,0-4.857Z" transform="translate(-8.567 -7.531)" fill="#8bd9c4"/></g><g transform="translate(22.95 0.537)"><path d="M321.647,7.531H309.918A1.074,1.074,0,0,0,308.844,8.6v4.06a.143.143,0,0,0,.193.134,10.781,10.781,0,0,1,2.694-.758,2.429,2.429,0,1,1,0,4.857,10.784,10.784,0,0,1-2.694-.758.143.143,0,0,0-.193.134v4.06a1.074,1.074,0,0,0,1.074,1.074h3.993a.143.143,0,0,1,.134.192,10.06,10.06,0,0,0-.7,2.526,2.429,2.429,0,0,0,4.857,0,10.056,10.056,0,0,0-.7-2.526.143.143,0,0,1,.134-.192h4a1.074,1.074,0,0,0,1.074-1.074V8.6a1.074,1.074,0,0,0-1.074-1.074Z" transform="translate(-308.844 -7.531)" fill="#f8b67b"/></g><g transform="translate(17.8 22.093)"><path d="M250.511,309.844a.143.143,0,0,0-.134.193,10.781,10.781,0,0,1,.758,2.694,2.429,2.429,0,1,1-4.857,0,10.784,10.784,0,0,1,.758-2.694.143.143,0,0,0-.134-.193h-4.06a1.074,1.074,0,0,0-1.074,1.074v3.993a.143.143,0,0,1-.192.134,10.059,10.059,0,0,0-2.526-.7,2.429,2.429,0,1,0,0,4.857,10.055,10.055,0,0,0,2.526-.7.143.143,0,0,1,.192.134v4a1.074,1.074,0,0,0,1.074,1.074H254.57a1.074,1.074,0,0,0,1.074-1.074V310.918a1.074,1.074,0,0,0-1.074-1.074h-4.06Z" transform="translate(-236.62 -309.844)" fill="#abdaea"/></g><g transform="translate(1.537 22.093)"><g transform="translate(0 8.6)"><path d="M22.215,430.472c-.552.205-1.086.39-1.546.525v1.929A1.074,1.074,0,0,1,19.6,434H8.531v.665A1.074,1.074,0,0,0,9.6,435.74H21.334a1.074,1.074,0,0,0,1.074-1.074v-4.06A.143.143,0,0,0,22.215,430.472Z" transform="translate(-8.531 -430.463)" fill="#bc95e2"/></g><g transform="translate(12.138)"><path d="M179.428,309.845h-.665v4.742c.461.136.994.32,1.546.525a.143.143,0,0,0,.193-.134v-4.06A1.074,1.074,0,0,0,179.428,309.845Z" transform="translate(-178.763 -309.845)" fill="#bc95e2"/></g></g><g transform="translate(10.14 5.129)"><path d="M137.792,71.932a2.43,2.43,0,0,1-2.351,3.04,10.056,10.056,0,0,1-2.526-.7.143.143,0,0,0-.192.134V78.4a1.074,1.074,0,0,1-1.074,1.074h-1.929c-.136.461-.32.994-.525,1.546a.143.143,0,0,0,.134.193h4.06a1.074,1.074,0,0,0,1.074-1.074V76.15a.143.143,0,0,1,.192-.134,10.06,10.06,0,0,0,2.526.7,2.429,2.429,0,0,0,.612-4.78Z" transform="translate(-129.185 -71.932)" fill="#80cb8e"/></g><g transform="translate(27.534 0.537)"><path d="M381.346,7.531h-.665V18.6a1.074,1.074,0,0,1-1.074,1.074h-4a.143.143,0,0,0-.134.192,10.06,10.06,0,0,1,.7,2.526,2.43,2.43,0,0,1-3.04,2.351,2.429,2.429,0,0,0,4.78-.612,10.053,10.053,0,0,0-.7-2.526.143.143,0,0,1,.135-.192h4a1.074,1.074,0,0,0,1.074-1.074V8.6a1.074,1.074,0,0,0-1.074-1.074Z" transform="translate(-373.126 -7.531)" fill="#f8b67b" opacity="0.506" style="mix-blend-mode:multiply;isolation:isolate"/></g><g transform="translate(22.948 22.093)"><path d="M321.611,309.845h-.665v11.064a1.074,1.074,0,0,1-1.074,1.074H308.808v.665a1.074,1.074,0,0,0,1.074,1.074h11.729a1.074,1.074,0,0,0,1.074-1.074V310.919A1.074,1.074,0,0,0,321.611,309.845Z" transform="translate(-308.808 -309.845)" fill="#80b4fb"/></g><g transform="translate(1 16.409)"><path d="M14.34,250.227H2.611A1.613,1.613,0,0,1,1,248.616V236.887a1.613,1.613,0,0,1,1.611-1.611H6.054a7.14,7.14,0,0,1-.54-2.181,2.966,2.966,0,0,1,5.931,0,7.137,7.137,0,0,1-.539,2.181H14.34a1.613,1.613,0,0,1,1.611,1.611v4.06a.68.68,0,0,1-.917.638,9.327,9.327,0,0,0-2.507-.724,1.892,1.892,0,0,0,0,3.783,9.326,9.326,0,0,0,2.507-.724.68.68,0,0,1,.917.638v4.06A1.613,1.613,0,0,1,14.34,250.227ZM2.611,236.35a.538.538,0,0,0-.537.537v11.729a.538.538,0,0,0,.537.537H14.34a.538.538,0,0,0,.537-.537v-3.5a7.637,7.637,0,0,1-2.35.6,2.966,2.966,0,0,1,0-5.931,7.637,7.637,0,0,1,2.35.6v-3.5a.538.538,0,0,0-.537-.537H10.347a.68.68,0,0,1-.639-.914,8.715,8.715,0,0,0,.663-2.341,1.892,1.892,0,0,0-3.783,0,8.717,8.717,0,0,0,.663,2.341.68.68,0,0,1-.639.914h-4Z" transform="translate(-1 -230.129)" fill="#547394"/></g><g transform="translate(1.003 0)"><path d="M14.376,14.951h-4.06a.68.68,0,0,1-.638-.917,9.324,9.324,0,0,0,.724-2.507,1.892,1.892,0,1,0-3.783,0,9.325,9.325,0,0,0,.724,2.507.68.68,0,0,1-.638.917H2.647A1.613,1.613,0,0,1,1.036,13.34V1.611A1.613,1.613,0,0,1,2.647,0h2.6a.537.537,0,1,1,0,1.074h-2.6a.538.538,0,0,0-.537.537V13.34a.538.538,0,0,0,.537.537h3.5a7.637,7.637,0,0,1-.6-2.35,2.966,2.966,0,0,1,5.931,0,7.637,7.637,0,0,1-.6,2.35h3.5a.538.538,0,0,0,.537-.537V9.347a.68.68,0,0,1,.914-.639,8.721,8.721,0,0,0,2.341.663,1.892,1.892,0,1,0,0-3.783,8.72,8.72,0,0,0-2.341.663.68.68,0,0,1-.914-.639v-4a.538.538,0,0,0-.537-.537h-6.6A.537.537,0,1,1,7.775,0h6.6a1.613,1.613,0,0,1,1.611,1.611V5.054a7.138,7.138,0,0,1,2.181-.54,2.966,2.966,0,1,1,0,5.931,7.138,7.138,0,0,1-2.181-.54V13.34a1.613,1.613,0,0,1-1.611,1.611Z" transform="translate(-1.036 0)" fill="#547394"/></g><g transform="translate(22.413 0)"><path d="M308.785,20.1a2.969,2.969,0,0,1-2.966-2.966,7.137,7.137,0,0,1,.54-2.181h-3.434a1.613,1.613,0,0,1-1.611-1.611V9.281a.68.68,0,0,1,.917-.638,9.326,9.326,0,0,0,2.507.724,1.892,1.892,0,1,0,0-3.783,9.325,9.325,0,0,0-2.507.724.68.68,0,0,1-.917-.638V1.611A1.613,1.613,0,0,1,302.925,0h11.729a1.613,1.613,0,0,1,1.611,1.611V9.62a.537.537,0,0,1-1.074,0V1.611a.538.538,0,0,0-.537-.537H302.925a.538.538,0,0,0-.537.537v3.5a7.637,7.637,0,0,1,2.35-.6,2.966,2.966,0,0,1,0,5.931,7.637,7.637,0,0,1-2.35-.6v3.5a.538.538,0,0,0,.537.537h3.993a.68.68,0,0,1,.639.914,8.718,8.718,0,0,0-.663,2.341,1.892,1.892,0,0,0,3.783,0,8.717,8.717,0,0,0-.663-2.341.68.68,0,0,1,.639-.914h4a.538.538,0,0,0,.537-.537V12.172a.537.537,0,0,1,1.074,0V13.34a1.613,1.613,0,0,1-1.611,1.611h-3.443a7.142,7.142,0,0,1,.54,2.181,2.969,2.969,0,0,1-2.966,2.966Z" transform="translate(-301.314 0)" fill="#547394"/></g><g transform="translate(17.264 21.556)"><path d="M247.579,317.265h-3.463a.537.537,0,0,1,0-1.074h3.463a.538.538,0,0,0,.537-.537V303.925a.538.538,0,0,0-.537-.537h-3.5a7.64,7.64,0,0,1,.6,2.35,2.966,2.966,0,1,1-5.931,0,7.636,7.636,0,0,1,.6-2.35h-3.5a.538.538,0,0,0-.537.537v3.993a.68.68,0,0,1-.914.639,8.721,8.721,0,0,0-2.341-.663,1.892,1.892,0,1,0,0,3.783,8.72,8.72,0,0,0,2.341-.663.68.68,0,0,1,.914.639v4a.538.538,0,0,0,.537.537h5.613a.537.537,0,1,1,0,1.074H235.85a1.613,1.613,0,0,1-1.611-1.611v-3.443a7.139,7.139,0,0,1-2.181.54,2.966,2.966,0,0,1,0-5.931,7.139,7.139,0,0,1,2.181.54v-3.434a1.613,1.613,0,0,1,1.611-1.611h4.06a.68.68,0,0,1,.638.917,9.325,9.325,0,0,0-.724,2.507,1.892,1.892,0,1,0,3.783,0,9.323,9.323,0,0,0-.724-2.507.68.68,0,0,1,.638-.917h4.06a1.613,1.613,0,0,1,1.611,1.611v11.729A1.613,1.613,0,0,1,247.579,317.265Z" transform="translate(-229.092 -302.314)" fill="#547394"/></g></g></svg>