<svg xmlns="http://www.w3.org/2000/svg" xmlns:xlink="http://www.w3.org/1999/xlink" width="26.519" height="43.069" viewBox="0 0 26.519 43.069"><defs><filter id="a" x="4.435" y="12.223" width="21.416" height="20.603" filterUnits="userSpaceOnUse"><feOffset dy="3" input="SourceAlpha"/><feGaussianBlur stdDeviation="3" result="b"/><feFlood flood-opacity="0.161"/><feComposite operator="in" in2="b"/><feComposite in="SourceGraphic"/></filter></defs><g transform="matrix(0.999, 0.035, -0.035, 0.999, -114.947, -457.094)"><g transform="translate(36.068 138.953)"><g transform="matrix(0.999, -0.035, 0.035, 0.999, -47.878, -195.199)"><g transform="translate(128 243.33)"><path d="M116.132,182.543l-1.182-.287-.431-.1-1.581-.379h0l-.426-.105-1.478-.355-.431-.1-1.476-.358-.431-.1-1.265-.305h0l-.427-.1h0l-1.359-.328-.428-.1h0l-1.359-.328-.423-.1h0l-1.364-.326-.423-.1-1.362-.329h0l-.425-.1-1.023-.249a.834.834,0,0,1-.263-.117.693.693,0,0,1-.206-.213.721.721,0,0,1-.111-.545l.079-.414.059-.335.2-1.073.064-.336.2-1.073.062-.332v0l.2-1.07.062-.341.2-1.07.063-.336.2-1.073.062-.333v0l.194-1.072.064-.336.206-1.1.06-.337.179-.952.017-.1a.719.719,0,0,1,.129-.277.774.774,0,0,1,.693-.329.606.606,0,0,1,.12.015l.33.076,1.242.281.433.1,1.427.325.434.1,1.385.317.433.1,1.39.315.433.1,1.39.315h0l.3.068.137.032h0l1.379.313h0l.437.1,7.105,1.621a.781.781,0,0,1,.594.931l0,.011-3.185,11.713a.711.711,0,0,1-.861.519Z" transform="translate(-100.685 130.134)" fill="#f2f2f2" stroke="#4e6f96" stroke-miterlimit="10" stroke-width="1.5"/><path d="M137.7,54.455a10.028,10.028,0,0,1-2.5,4.335,8.587,8.587,0,0,1-7.752,2.542c-4.334-.859-6.524-6.371-5.141-11.243a9.862,9.862,0,0,1,4.021-5.6,7.51,7.51,0,0,1,6.179-1.043C136.756,44.652,139.081,49.581,137.7,54.455Z" transform="translate(-115.565 227.977)" fill="#abdaea" stroke="#547394" stroke-miterlimit="10" stroke-width="1.5"/><path d="M127.963,123.059s-1.111,2.812-2.375,6.533c-1.579,4.649-3.4,10.778-3.268,13.961" transform="translate(-115.881 167.646)" fill="none" stroke="#4e6f96" stroke-miterlimit="10" stroke-width="1"/><path d="M.3,295.327,6.934,303.8l11.983-3.237" fill="none" stroke="#547394" stroke-width="1"/><g transform="matrix(1, 0, 0, 1, -3.21, 270.39)" filter="url(#a)"><path d="M140.354,116.741a2.2,2.2,0,0,0-.5,1.39,10.657,10.657,0,0,0,1.992.164c.531-.038.492-.673.26-1.208Z" transform="translate(-125.92 -97.97)" fill="#b9d7ea" stroke="#547394" stroke-miterlimit="10" stroke-width="1"/></g></g></g></g></g></svg>