<svg xmlns="http://www.w3.org/2000/svg" xmlns:xlink="http://www.w3.org/1999/xlink" width="94.426" height="94.422" viewBox="0 0 94.426 94.422"><defs><filter id="a" x="0" y="0" width="94.426" height="94.422" filterUnits="userSpaceOnUse"><feOffset dy="3" input="SourceAlpha"/><feGaussianBlur stdDeviation="3" result="b"/><feFlood flood-opacity="0.161"/><feComposite operator="in" in2="b"/><feComposite in="SourceGraphic"/></filter></defs><g transform="translate(8 -24.762)"><g transform="matrix(1, 0, 0, 1, -8, 24.76)" filter="url(#a)"><path d="M2025.358,2886.42a38.039,38.039,0,0,1-21.386-6.538,38.558,38.558,0,0,1-12.22-13.473,38.224,38.224,0,1,1,67.469-.477,38.969,38.969,0,0,1-8.581,10.927,36.664,36.664,0,0,1-3.013,2.406,38.034,38.034,0,0,1-22.269,7.155Z" transform="translate(-1978.15 -2804)" fill="#fff89b"/></g><path d="M2086.583,3015.437a42.571,42.571,0,0,1-44.792.575c1.791-6.6,11.18-11.63,22.484-11.63C2075.253,3004.382,2084.413,3009.123,2086.583,3015.437Z" transform="translate(-2024.518 -2915.733)" fill="#aad7e6" stroke="#557495" stroke-width="1.5"/><path d="M2118.838,3018.933s5.885,4.636,6.864,3.834,6.311-5.191,10.247-6.474l-4.676-2.885Z" transform="translate(-2078.621 -2922.07)" fill="#aad7e6" stroke="#547394" stroke-linecap="round" stroke-linejoin="round" stroke-width="1"/><path d="M2073.819,3018.933s-5.884,4.636-6.865,3.834-6.31-4.62-10.247-5.9l4.676-3.456Z" transform="translate(-2034.993 -2922.07)" fill="#aad7e6" stroke="#547394" stroke-linecap="round" stroke-linejoin="round" stroke-width="1"/><path d="M2110.029,3037.907h-.718a2.594,2.594,0,0,1-2.492-1.875l-.745-2.587h7.194l-.745,2.587A2.593,2.593,0,0,1,2110.029,3037.907Z" transform="translate(-2069.658 -2936.141)" fill="#557495"/><path d="M2109.292,3048.493h.718a2.585,2.585,0,0,1,2.492,1.926l.745,2.652h-7.194l.745-2.652A2.586,2.586,0,0,1,2109.292,3048.493Z" transform="translate(-2069.643 -2946.708)" fill="#557495"/><path d="M2054.871,3018.2s3.944-3.954,8.243-2.814-8.445,2.3,9.552,13.591C2073.587,3029.732,2058.42,3029.33,2054.871,3018.2Z" transform="translate(-2033.703 -2923.313)" fill="#f8b67b" stroke="#557495" stroke-width="1"/><path d="M-5656.592,4506.792c-2.922-4.5-.389-9.889-.389-13.316,0-8.535,13.708-21.476,26.869-21.476a27.482,27.482,0,0,1,14.288,4.547c3.046.417,6.769,2.167,11.375,5.35,6.225,4.3,2.932,12.934,1.391,16.174a12.922,12.922,0,0,1-3.038,9.12c-5.45,6.305-17.459,11.794-25.9,11.794C-5640.872,4518.985-5652.242,4513.5-5656.592,4506.792Z" transform="translate(5668.41 -4433.411)" fill="#aad7e6" stroke="rgba(0,0,0,0)" stroke-miterlimit="10" stroke-width="1"/><circle cx="6.775" cy="6.775" r="6.775" transform="translate(6.171 72.022)" fill="#fff" stroke="#547394" stroke-width="1.5" style="isolation:isolate"/><circle cx="6.775" cy="6.775" r="6.775" transform="translate(55.29 72.022)" fill="#fff" stroke="#547394" stroke-width="1.5" style="isolation:isolate"/><path d="M2075.719,2903.96c0,12.74-11.654,23.073-26.031,23.073a29.87,29.87,0,0,1-6.57-.741c-11.063-2.434-19.467-11.515-19.467-22.331a20.512,20.512,0,0,1,.559-4.77c2.478-10.453,12.943-18.3,25.477-18.3,10,0,18.678,5,23.041,12.326A20.937,20.937,0,0,1,2075.719,2903.96Z" transform="translate(-2011.78 -2829.013)" fill="#fff" style="isolation:isolate"/><ellipse cx="2.98" cy="1.391" rx="2.98" ry="1.391" transform="translate(17.594 75.607)" fill="#f8b67b"/><ellipse cx="2.98" cy="1.391" rx="2.98" ry="1.391" transform="translate(54.917 75.607)" fill="#f8b67b"/><g transform="translate(22.892 68.803)"><circle cx="4.974" cy="4.974" r="4.974" transform="translate(0 0)" fill="#fff" stroke="#547394" stroke-miterlimit="10" stroke-width="1"/></g><g transform="translate(45.774 68.803)"><circle cx="4.974" cy="4.974" r="4.974" transform="translate(0 0)" fill="#fff" stroke="#547394" stroke-miterlimit="10" stroke-width="1"/></g><circle cx="3.982" cy="3.982" r="3.982" transform="translate(24.882 68.798)" fill="#537294" opacity="0.991"/><circle cx="3.982" cy="3.982" r="3.982" transform="translate(45.769 68.798)" fill="#547395" opacity="0.991"/><path d="M2086.132,2878.474s4.161-8.063,3.409-15.782c-.521-5.354-3.407-10.543-11.684-12.761-20.21-5.415-38.844,17.626-38.844,17.626s-4.011,5.129-4.574,10.095" transform="translate(-2022.567 -2805.698)" fill="rgba(158,188,173,0)" stroke="#547394" stroke-linecap="round" stroke-linejoin="round" stroke-width="1.5"/><path d="M2077.286,2890.5a4.927,4.927,0,0,1-2.067,3.361c-4.355,3.334-11.1-6.912-14.1-10.916a57.923,57.923,0,0,1-4.25-6.3c.413,8.115-8.4,12.627-12.748,11.514-3.605-.92-1.582-6.027-.881-7.654-10.308,22.51-15.719,11.025-15.719,11.025l-.312,1.667c-.288,1.9-2.6,2.248-3.735.7,2.642-11.949,15.036-22.871,28.4-22.871C2062.007,2870.919,2072.255,2881.7,2077.286,2890.5Z" transform="translate(-2011.653 -2822.087)" fill="#75879a" stroke="#547394" stroke-width="1.5" style="isolation:isolate"/><path d="M2026.667,2949.618a4.783,4.783,0,0,0-2.318-1.073" transform="translate(-2012.271 -2876.523)" fill="none" stroke="#547394" stroke-miterlimit="10" stroke-width="1"/><path d="M2018.817,2969.375a6.191,6.191,0,0,0-4.3.363" transform="translate(-2005.368 -2890.987)" fill="none" stroke="#547394" stroke-miterlimit="10" stroke-width="1"/><path d="M2200.646,2969.375a3.123,3.123,0,0,0-3,.363" transform="translate(-2133.962 -2890.987)" fill="none" stroke="#547394" stroke-miterlimit="10" stroke-width="1"/><path d="M2034.093,2990.014a1.679,1.679,0,0,1-1.06.981" transform="translate(-2018.368 -2905.644)" fill="none" stroke="#547394" stroke-miterlimit="10" stroke-width="1"/><path d="M2194.616,2949.2a4.717,4.717,0,0,1,3.832,1.556" transform="translate(-2131.833 -2876.975)" fill="#547394" stroke="#557495" stroke-miterlimit="10" stroke-width="1"/><path d="M2195.519,2965.255a13.486,13.486,0,0,1-.9,4.1" transform="translate(-2131.833 -2888.257)" fill="none" stroke="#547394" stroke-miterlimit="10" stroke-width="1"/><path d="M2028.452,2963.769s.733,2.51-.211,3.547" transform="translate(-2015.003 -2887.214)" fill="none" stroke="#547394" stroke-miterlimit="10" stroke-width="1"/><path d="M2000.812,2864.809s6.458,10.866,17.874,11.876,25.515-1.527,29.214-15.552" transform="translate(-1986.147 -2779.235)" fill="none" stroke="#547394" stroke-width="1.5"/><path d="M2011.028,2821.645" transform="translate(-1986.147 -2779.235)" fill="none" stroke="#707070" stroke-width="1"/><path d="M3348.41-1421.979s-2.556-11.39,6.684-22.932,27.74-11.6,34.136-5.932" transform="translate(-3338 1494)" fill="none" stroke="#547394" stroke-width="1.5"/><path d="M2104.155,2968.469s0,4.79,3.934,4.731a4.588,4.588,0,0,0,3.715-4.483Z" transform="translate(-2068.311 -2890.515)" fill="#f4b5b3" stroke="#547394" stroke-miterlimit="9.996" stroke-width="1"/></g></svg>