<svg xmlns="http://www.w3.org/2000/svg" xmlns:xlink="http://www.w3.org/1999/xlink" width="94.426" height="94.422" viewBox="0 0 94.426 94.422"><defs><filter id="a" x="0" y="0" width="94.426" height="94.422" filterUnits="userSpaceOnUse"><feOffset dy="3" input="SourceAlpha"/><feGaussianBlur stdDeviation="3" result="b"/><feFlood flood-opacity="0.161"/><feComposite operator="in" in2="b"/><feComposite in="SourceGraphic"/></filter></defs><g transform="translate(8 -24.762)"><g transform="matrix(1, 0, 0, 1, -8, 24.76)" filter="url(#a)"><path d="M2025.358,2886.42a38.039,38.039,0,0,1-21.386-6.538,38.558,38.558,0,0,1-12.22-13.473,38.224,38.224,0,1,1,67.469-.477,38.969,38.969,0,0,1-8.581,10.927,36.664,36.664,0,0,1-3.013,2.406,38.034,38.034,0,0,1-22.269,7.155Z" transform="translate(-1978.15 -2804)" fill="#fff89b"/></g><path d="M2011.028,2821.645" transform="translate(-1986.147 -2779.235)" fill="none" stroke="#707070" stroke-width="1"/><g transform="translate(-5308.728 418.008)"><path d="M5347.958-310.555a38.035,38.035,0,0,1-21.386-6.538,38.548,38.548,0,0,1-12.22-13.473,38.224,38.224,0,0,1,15.4-51.818,38.225,38.225,0,0,1,51.818,15.4,38.226,38.226,0,0,1,.254,35.943,38.985,38.985,0,0,1-8.581,10.927,36.973,36.973,0,0,1-3.013,2.406,38.039,38.039,0,0,1-22.269,7.155Z" fill="#fff89b"/><path d="M5370.815-318.031a42.569,42.569,0,0,1-44.792.575c1.791-6.6,11.179-11.63,22.483-11.63C5359.484-329.086,5368.645-324.345,5370.815-318.031Z" fill="#9fd7e8" stroke="#507297" stroke-width="1.5"/><path d="M5348.966-320.872s5.885,4.636,6.864,3.834,6.311-5.191,10.247-6.474L5361.4-326.4Z" fill="#9fd7e8" stroke="#547394" stroke-linecap="round" stroke-linejoin="round" stroke-width="1"/><path d="M5347.576-320.872s-5.884,4.636-6.865,3.834-6.311-4.62-10.248-5.9l4.677-3.456Z" fill="#9fd7e8" stroke="#547394" stroke-linecap="round" stroke-linejoin="round" stroke-width="1"/><path d="M5349.121-315.969h-.718a2.593,2.593,0,0,1-2.492-1.875l-.745-2.587h7.194l-.746,2.587A2.592,2.592,0,0,1,5349.121-315.969Z" fill="#547394"/><path d="M5348.4-315.95h.718a2.586,2.586,0,0,1,2.492,1.926l.745,2.652h-7.194l.745-2.652A2.586,2.586,0,0,1,5348.4-315.95Z" fill="#547394"/><path d="M5329.918-322.848s3.944-3.954,8.243-2.814-8.446,2.3,9.552,13.591C5348.633-311.316,5333.466-311.718,5329.918-322.848Z" fill="#f8b67b" stroke="#507297" stroke-width="1"/><path d="M5320.568-344.355c-2.922-4.5-.389-9.889-.389-13.316,0-8.535,13.708-21.476,26.869-21.476a27.479,27.479,0,0,1,14.288,4.547c3.046.417,6.769,2.167,11.375,5.35,6.225,4.3,2.932,12.934,1.391,16.174a12.922,12.922,0,0,1-3.038,9.12c-5.45,6.3-17.459,11.794-25.9,11.794C5336.288-332.162,5324.917-337.647,5320.568-344.355Z" fill="#abdaea"/><circle cx="6.775" cy="6.775" r="6.775" transform="translate(5314.919 -345.713)" fill="#fff" stroke="#547394" stroke-width="1.5"/><circle cx="6.775" cy="6.775" r="6.775" transform="translate(5364.04 -345.713)" fill="#fff" stroke="#547394" stroke-width="1.5"/><path d="M5372.688-342.788c0,12.74-11.654,23.073-26.031,23.073a29.877,29.877,0,0,1-6.569-.741c-11.063-2.434-19.468-11.515-19.468-22.331a20.545,20.545,0,0,1,.559-4.77c2.478-10.453,12.943-18.3,25.477-18.3,10,0,18.678,5,23.041,12.326A20.927,20.927,0,0,1,5372.688-342.788Z" fill="#fff" stroke="rgba(0,0,0,0)" stroke-width="1"/><path d="M5352.244-338.116s0-1.685-3.934-1.664c-3.717.237-3.716,1.577-3.716,1.577" fill="none" stroke="#547394" stroke-miterlimit="9.996" stroke-width="1"/><ellipse cx="2.98" cy="1.391" rx="2.98" ry="1.391" transform="translate(5326.343 -342.128)" fill="#f8b67b"/><ellipse cx="2.98" cy="1.391" rx="2.98" ry="1.391" transform="translate(5363.666 -342.128)" fill="#f8b67b"/><ellipse cx="4.974" cy="4.457" rx="4.974" ry="4.457" transform="translate(5331.642 -348.899)" fill="#fff" stroke="#547394" stroke-miterlimit="10" stroke-width="1"/><ellipse cx="4.974" cy="4.457" rx="4.974" ry="4.457" transform="translate(5354.523 -348.899)" fill="#fff" stroke="#547394" stroke-miterlimit="10" stroke-width="1"/><ellipse cx="3.982" cy="3.568" rx="3.982" ry="3.568" transform="translate(5333.631 -348.903)" fill="#547394" opacity="0.991" style="isolation:isolate"/><ellipse cx="3.982" cy="3.568" rx="3.982" ry="3.568" transform="translate(5354.518 -348.903)" fill="#547394" stroke="#547394" stroke-width="1" opacity="0.991" style="isolation:isolate"/><path d="M5372.315-344.959s4.16-8.063,3.408-15.782c-.521-5.354-3.406-10.543-11.684-12.761-20.21-5.415-38.844,17.626-38.844,17.626s-4.011,5.129-4.574,10.1" fill="none" stroke="#547394" stroke-linecap="round" stroke-linejoin="round" stroke-width="1.5"/><path d="M5374.381-349.322a4.919,4.919,0,0,1-2.067,3.361c-4.355,3.334-11.1-6.912-14.1-10.916a58.033,58.033,0,0,1-4.25-6.3c.413,8.115-8.4,12.627-12.748,11.514-3.6-.92-1.582-6.027-.881-7.654-10.308,22.51-15.719,11.025-15.719,11.025l-.312,1.667a2.022,2.022,0,0,1-3.735.7c2.642-11.949,15.036-22.871,28.4-22.871C5359.1-368.9,5369.35-358.122,5374.381-349.322Z" fill="#75879a" stroke="#547394" stroke-width="1.5"/><path d="M5323.145-344.64a4.784,4.784,0,0,0-2.318-1.073" fill="none" stroke="#597685" stroke-miterlimit="10" stroke-width="1"/><path d="M5322.2-339.347a6.189,6.189,0,0,0-4.3.363" fill="none" stroke="#547394" stroke-miterlimit="10" stroke-width="1"/><path d="M5375.434-339.347a3.123,3.123,0,0,0-3,.363" fill="none" stroke="#547394" stroke-miterlimit="10" stroke-width="1"/><path d="M5326.412-333.365a5.166,5.166,0,0,1-3,1.2" transform="translate(-1.938)" fill="none" stroke="#597685" stroke-miterlimit="10" stroke-width="1"/><path d="M5371.532-345.51a4.714,4.714,0,0,1,3.832,1.556" fill="#597685" stroke="#507297" stroke-miterlimit="10" stroke-width="1"/><path d="M5372.436-340.737a13.522,13.522,0,0,1-.9,4.1" fill="none" stroke="#547394" stroke-miterlimit="10" stroke-width="1"/><path d="M5322.2-341.18s.733,2.51-.211,3.547" fill="none" stroke="#547394" stroke-miterlimit="10" stroke-width="1"/><path d="M5323.415-332.161s6.458,10.866,17.874,11.876,25.515-1.527,29.214-15.552" fill="none" stroke="#547394" stroke-width="1.5"/><path d="M5333.63-375.325" fill="none" stroke="#707070" stroke-width="1"/><path d="M5319.159-345.714s-2.556-11.39,6.684-22.932,27.74-11.6,34.136-5.932" fill="none" stroke="#547394" stroke-width="1.5"/><path d="M5358.522-350.9s3.871,3.869,7.962,3.774" fill="none" stroke="#597685" stroke-linecap="round" stroke-miterlimit="10" stroke-width="1.5"/><path d="M5337.286-350.9s-3.871,3.869-7.963,3.774" fill="none" stroke="#597685" stroke-linecap="round" stroke-miterlimit="10" stroke-width="1.5"/><circle cx="1.448" cy="1.448" r="1.448" transform="translate(5336.956 -348.216)" fill="#fff"/><circle cx="1.448" cy="1.448" r="1.448" transform="translate(5356.121 -348.216)" fill="#fff"/><circle cx="0.724" cy="0.724" r="0.724" transform="translate(5335.114 -345.637)" fill="#fff"/><circle cx="0.724" cy="0.724" r="0.724" transform="translate(5360.047 -345.637)" fill="#fff"/><ellipse cx="1.956" cy="1.243" rx="1.956" ry="1.243" transform="translate(5362.166 -341.766)" fill="#9fd7e8" stroke="#547394" stroke-linecap="round" stroke-linejoin="round" stroke-width="1"/><ellipse cx="1.956" cy="1.243" rx="1.956" ry="1.243" transform="translate(5330.348 -341.766)" fill="#cbe4f4" stroke="#547394" stroke-linecap="round" stroke-linejoin="round" stroke-width="1"/></g></g></svg>