<svg xmlns="http://www.w3.org/2000/svg" xmlns:xlink="http://www.w3.org/1999/xlink" width="94.426" height="94.422" viewBox="0 0 94.426 94.422"><defs><filter id="a" x="0" y="0" width="94.426" height="94.422" filterUnits="userSpaceOnUse"><feOffset dy="3" input="SourceAlpha"/><feGaussianBlur stdDeviation="3" result="b"/><feFlood flood-opacity="0.161"/><feComposite operator="in" in2="b"/><feComposite in="SourceGraphic"/></filter></defs><g transform="translate(8 -24.762)"><g transform="matrix(1, 0, 0, 1, -8, 24.76)" filter="url(#a)"><path d="M2025.358,2886.42a38.039,38.039,0,0,1-21.386-6.538,38.558,38.558,0,0,1-12.22-13.473,38.224,38.224,0,1,1,67.469-.477,38.969,38.969,0,0,1-8.581,10.927,36.664,36.664,0,0,1-3.013,2.406,38.034,38.034,0,0,1-22.269,7.155Z" transform="translate(-1978.15 -2804)" fill="#fff89b"/></g><path d="M2011.028,2821.645" transform="translate(-1985.14 -2777.843)" fill="none" stroke="#707070" stroke-width="1"/><path d="M2084.061,3016.863a40.312,40.312,0,0,1-42.416.545c1.7-6.248,10.733-13.026,21.438-13.026C2073.478,3004.382,2082.006,3010.884,2084.061,3016.863Z" transform="translate(-2023.106 -2916.793)" fill="#aad7e6" stroke="#557495" stroke-width="1.5"/><path d="M2118.838,3018.348s5.573,4.146,6.5,3.428,5.976-4.642,9.7-5.789l-4.428-2.58Z" transform="translate(-2078.428 -2922.774)" fill="#aad7e6" stroke="#547394" stroke-linecap="round" stroke-linejoin="round" stroke-width="1"/><path d="M2073.167,3019.18s-5.66,4.844-6.6,4.006-6.07-4.827-9.856-6.168l4.5-3.61Z" transform="translate(-2034.074 -2923.273)" fill="#aad7e6" stroke="#547394" stroke-linecap="round" stroke-linejoin="round" stroke-width="1"/><path d="M2109.82,3037.67h-.68a2.455,2.455,0,0,1-2.36-1.775l-.706-2.45h6.812l-.706,2.45A2.455,2.455,0,0,1,2109.82,3037.67Z" transform="translate(-2069.264 -2937.66)" fill="#557495"/><path d="M2109.12,3048.493h.68a2.918,2.918,0,0,1,2.36,2.743l.706,3.778h-6.812l.706-3.778A2.918,2.918,0,0,1,2109.12,3048.493Z" transform="translate(-2069.248 -2949.022)" fill="#557495"/><path d="M2054.871,3018.483s3.735-4.326,7.805-3.079-8,2.511,9.045,14.87C2072.594,3031.1,2058.232,3030.662,2054.871,3018.483Z" transform="translate(-2032.498 -2924.544)" fill="#f8b67b" stroke="#557495" stroke-width="1"/><path d="M1.333,32.946C-1.433,28.681.964,23.582.964,20.336.964,12.254,13.945,0,26.407,0A26.024,26.024,0,0,1,39.939,4.307c2.884.4,6.409,2.053,10.771,5.065,5.894,4.071,2.777,12.248,1.317,15.316a12.238,12.238,0,0,1-2.877,8.636c-5.162,5.971-16.533,11.169-24.523,11.169C16.219,44.492,5.453,39.3,1.333,32.946Z" transform="translate(12.186 40.184)" fill="#aad7e6" stroke="rgba(0,0,0,0)" stroke-miterlimit="10" stroke-width="1"/><ellipse cx="6.416" cy="6.416" rx="6.416" ry="6.416" transform="translate(8.17 71.844)" fill="#fff" stroke="#547394" stroke-width="1.5" style="isolation:isolate"/><ellipse cx="6.416" cy="6.416" rx="6.416" ry="6.416" transform="translate(54.684 71.844)" fill="#fff" stroke="#547394" stroke-width="1.5" style="isolation:isolate"/><path d="M2072.957,2902.736c0,12.064-11.036,21.848-24.651,21.848a28.287,28.287,0,0,1-6.221-.7c-10.476-2.3-18.434-10.9-18.434-21.146a19.426,19.426,0,0,1,.53-4.517c2.347-9.9,12.256-17.334,24.125-17.334,9.469,0,17.688,4.731,21.819,11.672A19.831,19.831,0,0,1,2072.957,2902.736Z" transform="translate(-2010.083 -2828.122)" fill="#fff" style="isolation:isolate"/><g transform="translate(24.005 68.795)"><ellipse cx="4.71" cy="4.71" rx="4.71" ry="4.71" transform="translate(0 0)" fill="#fff" stroke="#547394" stroke-miterlimit="10" stroke-width="1"/></g><g transform="translate(45.673 68.795)"><ellipse cx="4.71" cy="4.71" rx="4.71" ry="4.71" transform="translate(0 0)" fill="#fff" stroke="#547394" stroke-miterlimit="10" stroke-width="1"/></g><ellipse cx="3.771" cy="3.771" rx="3.771" ry="3.771" transform="translate(25.889 68.791)" fill="#537294" opacity="0.991"/><ellipse cx="3.771" cy="3.771" rx="3.771" ry="3.771" transform="translate(45.668 68.791)" fill="#547395" opacity="0.991"/><path d="M2083.39,2876.916s3.94-7.635,3.228-14.945c-.493-5.07-3.226-9.984-11.064-12.084-19.138-5.128-36.784,16.691-36.784,16.691s-3.8,4.857-4.332,9.56" transform="translate(-2020.87 -2804.358)" fill="rgba(158,188,173,0)" stroke="#547394" stroke-linecap="round" stroke-linejoin="round" stroke-width="1.5"/><path d="M2074.431,2889.469a4.664,4.664,0,0,1-1.958,3.182c-4.124,3.157-10.508-6.545-13.354-10.337a54.811,54.811,0,0,1-4.025-5.968c.391,7.684-7.95,11.957-12.072,10.9-3.414-.871-1.5-5.707-.834-7.247-9.761,21.315-14.885,10.44-14.885,10.44l-.3,1.579a1.913,1.913,0,0,1-3.537.659c2.5-11.315,14.239-21.658,26.894-21.658C2059.963,2870.924,2069.667,2881.135,2074.431,2889.469Z" transform="translate(-2009.952 -2821.04)" fill="#75879a" stroke="#547394" stroke-width="1.5" style="isolation:isolate"/><path d="M2026.544,2949.561a4.53,4.53,0,0,0-2.195-1.016" transform="translate(-2010.583 -2876.701)" fill="none" stroke="#547394" stroke-miterlimit="10" stroke-width="1"/><path d="M2018.589,2969.363a5.864,5.864,0,0,0-4.07.344" transform="translate(-2003.526 -2891.491)" fill="none" stroke="#547394" stroke-miterlimit="10" stroke-width="1"/><path d="M2200.486,2969.363a2.958,2.958,0,0,0-2.837.344" transform="translate(-2135.016 -2891.491)" fill="none" stroke="#547394" stroke-miterlimit="10" stroke-width="1"/><path d="M2034.036,2990.014a1.589,1.589,0,0,1-1,.929" transform="translate(-2016.818 -2906.477)" fill="none" stroke="#547394" stroke-miterlimit="10" stroke-width="1"/><path d="M2194.616,2949.2a4.468,4.468,0,0,1,3.629,1.473" transform="translate(-2132.836 -2877.163)" fill="#547394" stroke="#557495" stroke-miterlimit="10" stroke-width="1"/><path d="M2195.471,2965.255a12.778,12.778,0,0,1-.855,3.882" transform="translate(-2132.836 -2888.7)" fill="none" stroke="#547394" stroke-miterlimit="10" stroke-width="1"/><path d="M2028.441,2963.769s.694,2.377-.2,3.359" transform="translate(-2013.378 -2887.633)" fill="none" stroke="#547394" stroke-miterlimit="10" stroke-width="1"/><path d="M2000.812,2864.613s6.115,10.29,16.926,11.246,24.162-1.446,27.664-14.727" transform="translate(-1984.597 -2779.937)" fill="none" stroke="#547394" stroke-width="1.5"/><path d="M2011.028,2821.645" transform="translate(-1985.14 -2777.843)" fill="none" stroke="#707070" stroke-width="1"/><path d="M3348.392-1423.705s-2.421-10.786,6.329-21.716,26.268-10.981,32.325-5.617" transform="translate(-3336.207 1495.549)" fill="none" stroke="#547394" stroke-width="1.5"/><path d="M5349.668-338.164s0-1.636-2.609-1.616c-2.465.23-2.464,1.531-2.464,1.531" transform="translate(-5307.314 417.359)" fill="none" stroke="#547394" stroke-miterlimit="9.996" stroke-width="1"/><ellipse cx="3.661" cy="1.709" rx="3.661" ry="1.709" transform="translate(16.415 76.161)" fill="#f8b67b"/><ellipse cx="3.661" cy="1.709" rx="3.661" ry="1.709" transform="translate(55.085 76.161)" fill="#f8b67b"/><path d="M5358.521-350.9s3.284,3.282,6.755,3.2" transform="translate(-5308.11 417.254)" fill="none" stroke="#547394" stroke-linecap="round" stroke-miterlimit="10" stroke-width="1.5"/><path d="M5365.276-350.9s-3.284,3.283-6.755,3.2" transform="translate(-5336.111 417.254)" fill="none" stroke="#547394" stroke-linecap="round" stroke-miterlimit="10" stroke-width="1.5"/><circle cx="1.279" cy="1.279" r="1.279" transform="translate(28.566 69.966)" fill="#fff"/><circle cx="1.279" cy="1.279" r="1.279" transform="translate(47.704 69.966)" fill="#fff"/><circle cx="0.889" cy="0.889" r="0.889" transform="translate(26.685 72.726)" fill="#fff"/><circle cx="0.889" cy="0.889" r="0.889" transform="translate(50.639 72.726)" fill="#fff"/><ellipse cx="2.403" cy="1.528" rx="2.403" ry="1.528" transform="translate(52.243 75.584)" fill="#9fd7e8" stroke="#547394" stroke-linecap="round" stroke-linejoin="round" stroke-width="1"/><ellipse cx="2.403" cy="1.528" rx="2.403" ry="1.528" transform="translate(21.604 75.584)" fill="#cbe4f4" stroke="#547394" stroke-linecap="round" stroke-linejoin="round" stroke-width="1"/></g></svg>