<svg xmlns="http://www.w3.org/2000/svg" xmlns:xlink="http://www.w3.org/1999/xlink" width="282.41" height="263.143" viewBox="0 0 282.41 263.143"><defs><linearGradient id="a" x1="0.5" x2="0.5" y2="1" gradientUnits="objectBoundingBox"><stop offset="0" stop-color="#fff"/><stop offset="1" stop-color="#fff"/></linearGradient><clipPath id="b"><path d="M322.716,622.778a10.485,10.485,0,0,0,1.295-5.186c0-4.472-2.495-8.1-5.572-8.1-2.855,0-5.205,3.121-5.531,7.141a17.344,17.344,0,0,0-21.156,16.951c0,.255.027.5.038.755a8.082,8.082,0,0,0-13.6,2.4,18.111,18.111,0,0,0-21.361,17.9c0,.442.035.876.066,1.31a8.09,8.09,0,0,0-9.641,6.886,10.335,10.335,0,0,0-18.8,5.406,10.258,10.258,0,0,0-7.945-.19c-4.72-5.031-13.018-8.371-22.474-8.371-10.509,0-19.592,4.124-23.918,10.11a10.336,10.336,0,0,0-16.614,5.037,25.909,25.909,0,0,0-29.974.069,10.332,10.332,0,0,0-8.731-4.809c-.078,0-.154.01-.233.012a15.4,15.4,0,0,0-19.486-12.256,10.356,10.356,0,0,0-7.09-5.482A20.456,20.456,0,0,0,63.382,629.3a9.824,9.824,0,0,0-15.953,11.452,9.361,9.361,0,0,0,4.494,3.419,20.435,20.435,0,0,0,16.318,23.756c15.677,20.127,49.5,46.928,117.219,42.846C256.926,706.465,292.98,672.756,309,650.959c.042,0,.083.005.125.005a17.363,17.363,0,0,0,13.589-28.187Z" transform="translate(-45.713 -609.496)" fill="none"/></clipPath></defs><g transform="translate(-45.197 -420.629)"><path d="M136.247,0c75.247,0,136.247,52.4,136.247,117.032s-61,117.032-136.247,117.032S0,181.667,0,117.032,61,0,136.247,0Z" transform="translate(48.535 443.422)" opacity="0.186" fill="url(#a)"/><path d="M322.716,622.778a10.485,10.485,0,0,0,1.295-5.186c0-4.472-2.495-8.1-5.572-8.1-2.855,0-5.205,3.121-5.531,7.141a17.344,17.344,0,0,0-21.156,16.951c0,.255.027.5.038.755a8.082,8.082,0,0,0-13.6,2.4,18.111,18.111,0,0,0-21.361,17.9c0,.442.035.876.066,1.31a8.09,8.09,0,0,0-9.641,6.886,10.335,10.335,0,0,0-18.8,5.406,10.258,10.258,0,0,0-7.945-.19c-4.72-5.031-13.018-8.371-22.474-8.371-10.509,0-19.592,4.124-23.918,10.11a10.336,10.336,0,0,0-16.614,5.037,25.909,25.909,0,0,0-29.974.069,10.332,10.332,0,0,0-8.731-4.809c-.078,0-.154.01-.233.012a15.4,15.4,0,0,0-19.486-12.256,10.356,10.356,0,0,0-7.09-5.482A20.456,20.456,0,0,0,63.382,629.3a9.824,9.824,0,0,0-15.953,11.452,9.361,9.361,0,0,0,4.494,3.419,20.435,20.435,0,0,0,16.318,23.756c15.677,20.127,49.5,46.928,117.219,42.846C256.926,706.465,292.98,672.756,309,650.959c.042,0,.083.005.125.005a17.363,17.363,0,0,0,13.589-28.187Z" transform="translate(0 -27.921)" fill="#fff" stroke="#547394" stroke-linecap="round" stroke-linejoin="round" stroke-width="1"/><path d="M202.96,677.124c-18.844,0-34.121,4.12-34.121,9.2,0,4.33,11.093,7.961,26.031,8.941,0-.045-.016-.087-.016-.133a2.485,2.485,0,0,1,4.9,0,1.731,1.731,0,0,1-.043.353q1.606.041,3.252.043a116.5,116.5,0,0,0,14.39-.859,2.976,2.976,0,0,1,2.92-1.6c.124,0,.243.014.364.025,0-.009,0-.016,0-.025,0-1.138,1.344-2.06,3-2.06,1.6,0,2.892.86,2.984,1.941,6.448-1.675,10.466-4.025,10.466-6.629C237.081,681.244,221.8,677.124,202.96,677.124Z" transform="translate(-18.251 -37.945)" fill="#9fcefc" opacity="0.43" style="mix-blend-mode:multiply;isolation:isolate"/><g transform="translate(86.86 421.139)"><path d="M219.157,634.931s3.639-42.3,10.433-50.8" transform="translate(-112.57 -445.3)" fill="none" stroke="#547394" stroke-linecap="round" stroke-linejoin="round" stroke-width="1" opacity="0.48"/><path d="M233.771,643.645s-22.413.753-29.621.8c-3.712.024-11.154,1.036-25.362,2.516-9.518.992,5.425,5.82,23.449,5.123A81.367,81.367,0,0,0,233.771,643.645Z" transform="translate(-106.147 -454.122)" fill="#b8d1dd" stroke="#547394" stroke-miterlimit="10" stroke-width="1" opacity="0.45"/><path d="M242.127,635.346s3.331-36.058,11.32-47.509" transform="translate(-115.975 -445.849)" fill="none" stroke="#547394" stroke-linecap="round" stroke-linejoin="round" stroke-width="1"/><path d="M255.378,486.241c-.24-37.17-32.061-66.907-70.409-65.014-34.383,1.7-59.768,29.364-63.486,62.846-2.453,22.1,9.985,44.464,25.053,62.452a70.222,70.222,0,0,1,14.9,31.539l.278.048c2.088,6.958,15.632,12.258,32.005,12.152,16.3-.106,29.742-5.532,31.83-12.474.567-1.888,1.074-3.786,1.791-5.622,5.384-13.78,15.855-45.377,20.992-56.252q.838-1.64,1.587-3.329l.138-.285-.011.005A64.088,64.088,0,0,0,255.378,486.241Z" transform="translate(-98.046 -421.139)" fill="#bbd6eb" stroke="#547394" stroke-miterlimit="10" stroke-width="1"/><path d="M235.218,667.974c-.293-9.091-1.159-8.976-.679-22.36,0,0-20.252,4.954-31.213,5.955-11.046,1.009-24.49-2.383-24.49-2.383l2.776,24.861s7.644,14.279,26.566,12.065,26.657-11.807,27.04-18.137" transform="translate(-106.593 -454.414)" fill="#abdaea" stroke="#547394" stroke-miterlimit="10" stroke-width="1"/><path d="M200.838,421.487s44.78,22.039,38.507,73.118c-6.45,52.515-18.712,91.237-18.712,91.237h0a71,71,0,0,1-39.2,2.466l-3.028-1.3s-20.742-36.557-29.582-87.729c-8.76-50.712,34.829-77.678,34.829-77.678l8.6-.46Z" transform="translate(-101.972 -421.139)" fill="#f8f8f8" stroke="#547394" stroke-miterlimit="10" stroke-width="1"/><path d="M220.918,520.962l-15.117.8-4.69.246q-1.771.093-3.543.06l-22.229-.416-.428-28.471,21.607.423q1.768.035,3.535-.057l20.437-1.053Z" transform="translate(-106.011 -431.716)" fill="#fff89b" stroke="#547394" stroke-linecap="round" stroke-linejoin="round" stroke-width="1"/><path d="M198.562,510.6,174.91,493.177s22.287.77,45.579-.687Z" transform="translate(-106.011 -431.716)" fill="#fff89b" stroke="#547394" stroke-linecap="round" stroke-linejoin="round" stroke-width="1"/><path d="M205.563,642.239s-5.1-34.4-8.854-47.735" transform="translate(-109.243 -446.838)" fill="none" stroke="#547394" stroke-linecap="round" stroke-linejoin="round" stroke-width="1"/><path d="M176.592,640.2s-9.133-31.469-17.317-48.1" transform="translate(-103.694 -446.481)" fill="none" stroke="#547394" stroke-linecap="round" stroke-linejoin="round" stroke-width="1"/><path d="M128.282,534.8s40.269,65.435,100.56,46.049c0,0-1.9,15.852-10.267,19.149-5.887,2.32-22.563,5.074-37.723,3.8-9.968-.836-14.912-8.526-18.422-17.893C158.867,576.408,150.477,561.5,128.282,534.8Z" transform="translate(-99.099 -437.988)" fill="#dae0ea" opacity="0.799" style="mix-blend-mode:multiply;isolation:isolate"/><path d="M36.637,0C56.87,0,73.273,7.084,73.273,15.824S56.87,31.647,36.637,31.647,0,24.563,0,15.824,16.4,0,36.637,0Z" transform="translate(53.584 3.213) rotate(-0.371)" fill="#fff" opacity="0.372"/><g transform="translate(150.451 46.833)"><path d="M296.769,486.4c4.542-3.347,4.783-9.407,3.611-10.219s-8.575,6.582-15.6,10a38.674,38.674,0,0,1-9.467,3.308,4.916,4.916,0,0,0-1.074.17h0a4.877,4.877,0,1,0,4.477,8.4h0c15.862,5.031,11.978-3.427,11.978-3.427C304.233,490.306,296.769,486.4,296.769,486.4Z" transform="translate(-270.655 -476.122)" fill="#fff" stroke="#547394" stroke-miterlimit="10" stroke-width="1"/><path d="M280.118,501.142a3.681,3.681,0,0,0,.991-4.141" transform="translate(-272.058 -479.217)" fill="#fff" stroke="#547394" stroke-miterlimit="10" stroke-width="1"/></g><g transform="translate(0 46.852)"><path d="M97.939,486.54c-4.42-3.507-4.444-9.572-3.243-10.341s8.334,6.885,15.236,10.556a38.718,38.718,0,0,0,9.342,3.645,4.845,4.845,0,0,1,1.067.208h0a4.877,4.877,0,1,1-4.774,8.233h0c-16.032,4.459-11.847-3.853-11.847-3.853C90.34,490.173,97.939,486.54,97.939,486.54Z" transform="translate(-94.021 -476.145)" fill="#fff" stroke="#547394" stroke-miterlimit="10" stroke-width="1"/><path d="M119.114,502.043a3.679,3.679,0,0,1-.842-4.174" transform="translate(-97.57 -479.365)" fill="#fff" stroke="#547394" stroke-miterlimit="10" stroke-width="1"/></g><path d="M238.038,577.26c5.76,1.325,6.773,2.967,6.824,4.484h0c.071,2.072-1.638,4.5-14.841,6.806a250.916,250.916,0,0,1-32.913,3.029c-2.736.092-5.439.151-8.082.175a226.21,226.21,0,0,1-24.961-.976c-13.328-1.408-15.2-3.716-15.266-5.789-.053-1.549,2.548-3.451,8.53-5.2l1.693,3.11a40.676,40.676,0,0,0-4.06,1.275.746.746,0,0,0,.044,1.406c5.261,1.719,20,3.265,41.985,2.528,22.137-.749,37.465-3.4,42.653-5.5a.74.74,0,0,0-.071-1.388c-.646-.21-1.441-.419-2.378-.622Z" transform="translate(-102.141 -444.281)" fill="#f4f2cb" stroke="#547394" stroke-miterlimit="10" stroke-width="1"/><path d="M177.265,647.221a101.617,101.617,0,0,0,25.11,2.329c10.187-.347,21.687-3.391,31.446-5.915,1.733-.448,3.017,1.836,2.637,3.585-.1.458-1.057.97-1.548,1.174a138.413,138.413,0,0,1-31.992,6c-8.478.479-17.458-1.867-23.663-2.584-1.577-.182-2.651-.567-3.008-2.115A2.088,2.088,0,0,1,177.265,647.221Z" transform="translate(-106.198 -454.112)" fill="#abdaea" stroke="#547394" stroke-miterlimit="10" stroke-width="1"/><g transform="translate(64.909 197.668)"><path d="M181.668,653.875s12.347,24.638,2.044,31.128-21.164-7.691-5.948-29.856l.652-1.508,1-.158c-3.339,9.13-2.778,9.447-2.968,12.739l4-.152s1.888-10.142-.651-12.425Z" transform="translate(-170.226 -653.248)" fill="#fff89b" stroke="#547394" stroke-linecap="round" stroke-linejoin="round" stroke-width="1"/><ellipse cx="6.014" cy="3.243" rx="6.014" ry="3.243" transform="translate(2.989 27.023) rotate(-1.886)" fill="#e2cd9f" opacity="0.53" style="mix-blend-mode:multiply;isolation:isolate"/><path d="M178.6,666.383s4.9-1.227,4.677,3.72.176,5.291-3.894,5.112-6.151-.11-6.151-.11a8.229,8.229,0,0,1-.2-6.119C174.176,665.258,178.6,666.383,178.6,666.383Z" transform="translate(-170.574 -655.137)" fill="#fff89b" stroke="#547394" stroke-linecap="round" stroke-linejoin="round" stroke-width="1"/><path d="M0,0H4.188V2.72H0Z" transform="translate(4.047 18.792) rotate(1.025)" fill="#abdaea" stroke="#547394" stroke-linecap="round" stroke-width="1"/><path d="M184.321,658.476l-2.062,1.348s.012-6.065-1.628-6.221-2.533,5.739-2.533,5.739l-2.255.177s3.538-8.031,6.415-5.976Z" transform="translate(-171.059 -653.207)" fill="#e2cd9f" opacity="0.53" style="mix-blend-mode:multiply;isolation:isolate"/><ellipse cx="3.072" cy="1.14" rx="3.072" ry="1.14" transform="translate(1.953 11.834) rotate(-1.886)" fill="#e2cd9f" opacity="0.53"/></g><g transform="translate(119.061 194.854)"><path d="M239.949,650.571S227.6,675.209,237.9,681.7s21.164-7.691,5.948-29.856l-.652-1.508-1-.158c3.339,9.13,2.778,9.447,2.968,12.74l-4-.152s-1.888-10.142.651-12.425Z" transform="translate(-233.802 -649.944)" fill="#fff89b" stroke="#547394" stroke-linecap="round" stroke-linejoin="round" stroke-width="1"/><ellipse cx="3.243" cy="6.014" rx="3.243" ry="6.014" transform="translate(2.364 33.11) rotate(-88.114)" fill="#e2cd9f" opacity="0.53" style="mix-blend-mode:multiply;isolation:isolate"/><path d="M244.213,663.079s-4.9-1.227-4.677,3.721-.177,5.29,3.893,5.111,6.151-.11,6.151-.11a8.223,8.223,0,0,0,.2-6.118C248.638,661.955,244.213,663.079,244.213,663.079Z" transform="translate(-234.651 -651.833)" fill="#fff89b" stroke="#547394" stroke-linecap="round" stroke-linejoin="round" stroke-width="1"/><rect width="4.188" height="2.72" transform="translate(13.591 21.511) rotate(178.975)" fill="#d8d4ce" stroke="#547394" stroke-linecap="round" stroke-linejoin="round" stroke-width="1"/><path d="M238.882,655.172l2.063,1.348s-.013-6.065,1.627-6.221,2.533,5.739,2.533,5.739l2.255.177s-3.539-8.031-6.415-5.975Z" transform="translate(-234.555 -649.904)" fill="#e2cd9f" opacity="0.53" style="mix-blend-mode:multiply;isolation:isolate"/><ellipse cx="1.14" cy="3.072" rx="1.14" ry="3.072" transform="translate(9.421 13.909) rotate(-88.114)" fill="#e2cd9f" opacity="0.53"/></g><path d="M239.416,643.672a87.531,87.531,0,0,0-11.92,39.438s6.812-1.276,7.8-4.1c0,0,5.479,3.828,8.711,3.295s10.829-5.862,6.482-15.865a140.462,140.462,0,0,0-9.333-17.775l3.37-1.49S244.64,641.788,239.416,643.672Z" transform="translate(-115.881 -454.066)" fill="#abdaea" opacity="0.604" style="mix-blend-mode:multiply;isolation:isolate"/><path d="M170.512,675.134a29.532,29.532,0,0,1,5.669,1.084c.37.1,1.1.318,1.875.577a35.424,35.424,0,0,1,17.475,12.948s-7.769-3.2-9.042-4.507c0,0-4.522,8.055-12.616,2.746C173.873,687.982,169.729,685.526,170.512,675.134Z" transform="translate(-105.345 -458.789)" fill="#a9a2ba" opacity="0.421" style="mix-blend-mode:multiply;isolation:isolate"/><path d="M116.739,501.884s-11.419-1.382-10.9,1C105.839,502.88,112.846,504.985,116.739,501.884Z" transform="translate(-95.77 -433.049)" fill="#d2d7e8" opacity="0.5"/><path d="M105.363,497.257s-6.324-3.728-6.63-2.2C98.733,495.052,102.294,498.074,105.363,497.257Z" transform="translate(-94.719 -432.041)" fill="#d2d7e8" opacity="0.5"/><path d="M98.963,487.532s-2.967-6.715-4.1-5.655C94.861,481.877,95.993,486.409,98.963,487.532Z" transform="translate(-94.145 -430.126)" fill="#d2d7e8" opacity="0.5"/><path d="M281.2,501.287s11.419-1.382,10.9,1C292.105,502.283,285.1,504.388,281.2,501.287Z" transform="translate(-121.768 -432.96)" fill="#d2d7e8" opacity="0.5"/><path d="M293.041,496.514s8-5.768,8.6-3.767C301.638,492.747,297.247,497.229,293.041,496.514Z" transform="translate(-123.522 -431.691)" fill="#d2d7e8" opacity="0.5"/><path d="M299.609,487.416s4.12-7.281,5.289-5.95C304.9,481.466,303.1,486.477,299.609,487.416Z" transform="translate(-124.496 -430.057)" fill="#d2d7e8" opacity="0.5"/></g><ellipse cx="14.295" cy="2.099" rx="14.295" ry="2.099" transform="translate(120.936 654.018)" fill="#9fcefc" opacity="0.43" style="mix-blend-mode:multiply;isolation:isolate"/><ellipse cx="14.295" cy="2.099" rx="14.295" ry="2.099" transform="translate(214.752 654.018)" fill="#9fcefc" opacity="0.43" style="mix-blend-mode:multiply;isolation:isolate"/><path d="M84.026,531.252l-.152.59-.559-.246c-1.824-.8-4.083-.667-4.58,1.264v0a4.4,4.4,0,0,0,2.4,4.955l.556.246,6.611,2.912,1.953-7.584a4.4,4.4,0,0,0-2.4-4.954h0C86.029,527.632,84.523,529.321,84.026,531.252Z" transform="translate(-4.877 -15.875)" fill="#abdaea"/><path d="M271.513,588.032l-.314.214-.16-.346c-.523-1.129-1.638-1.994-2.666-1.295h0a2.744,2.744,0,0,0-.916,3.311l.16.344,1.9,4.088,4.038-2.749a2.744,2.744,0,0,0,.915-3.31h0C273.943,587.161,272.542,587.332,271.513,588.032Z" transform="translate(-32.836 -24.49)" fill="#cbe3f6"/><path d="M334.956,656.359l-.314.214-.16-.346c-.523-1.128-1.638-1.993-2.666-1.294h0a2.744,2.744,0,0,0-.915,3.311l.159.345,1.9,4.087,4.038-2.748a2.745,2.745,0,0,0,.915-3.311h0C337.387,655.489,335.985,655.659,334.956,656.359Z" transform="translate(-42.24 -34.619)" fill="#bbd7ea"/><path d="M133.5,690.843l-.151.1-.077-.165c-.25-.539-.783-.953-1.274-.618h0a1.314,1.314,0,0,0-.438,1.583l.077.164.907,1.954,1.931-1.313a1.313,1.313,0,0,0,.437-1.583h0C134.666,690.428,134,690.509,133.5,690.843Z" transform="translate(-12.71 -39.86)" fill="#bbd7ea"/><path d="M174.041,712.652l-.136.235-.21-.173c-.687-.565-1.673-.779-2.119-.009h0a1.962,1.962,0,0,0,.434,2.416l.21.173,2.487,2.047,1.752-3.021a1.962,1.962,0,0,0-.434-2.416h0C175.338,711.34,174.487,711.883,174.041,712.652Z" transform="translate(-18.621 -43.067)" fill="#bbd7ea"/><path d="M248.09,712.3l-.167.114-.086-.185c-.279-.6-.872-1.062-1.42-.689h0a1.462,1.462,0,0,0-.487,1.764l.085.183,1.01,2.178,2.152-1.464a1.463,1.463,0,0,0,.487-1.764h0C249.384,711.837,248.638,711.927,248.09,712.3Z" transform="translate(-29.661 -43.027)" fill="#bbd7ea"/><path d="M85.536,670.209l-.135.356-.33-.191c-1.077-.623-2.486-.691-2.926.473h0a2.744,2.744,0,0,0,1.154,3.235l.329.191,3.9,2.255,1.726-4.571a2.744,2.744,0,0,0-1.154-3.234h0C87.024,668.1,85.975,669.046,85.536,670.209Z" transform="translate(-5.377 -36.671)" fill="#bbd7ea"/><path d="M367.5,555.53l-.5.342-.256-.554c-.839-1.809-2.626-3.2-4.275-2.076l0,0A4.4,4.4,0,0,0,361,558.552l.256.553,3.041,6.553,6.474-4.406a4.4,4.4,0,0,0,1.467-5.307h0C371.395,554.135,369.149,554.408,367.5,555.53Z" transform="translate(-46.681 -19.522)" fill="#f8b67b"/><path d="M64.537,588.423a10.225,10.225,0,0,1,5.174-8.9c-5.342-1.606-5.174-10.174-5.174-10.174h0s.169,8.568-5.174,10.174a10.225,10.225,0,0,1,5.174,8.9Z" transform="translate(-2.023 -21.97)" fill="#fff89b"/><path d="M347.5,612.276a10.229,10.229,0,0,1,5.175-8.9c-5.343-1.606-5.175-10.174-5.175-10.174h0s.168,8.568-5.174,10.174a10.227,10.227,0,0,1,5.174,8.9Z" transform="translate(-43.968 -25.506)" fill="#8bd9c4"/><path d="M113.544,480.642a10.227,10.227,0,0,1,5.174-8.9c-5.342-1.606-5.174-10.173-5.174-10.173h0s.168,8.568-5.175,10.173a10.228,10.228,0,0,1,5.175,8.9Z" transform="translate(-9.288 -5.994)" fill="#fff89b"/><g transform="translate(45.713 581.575)"><g clip-path="url(#b)"><g transform="translate(-3.584 20.72)"><path d="M294.313,665.285a13.858,13.858,0,0,0-12.762,18.4,13.88,13.88,0,0,0-9.586,8.224,11.971,11.971,0,0,0-21.165,6.957,92.73,92.73,0,0,0-13.226-.612c-12.542.3-23.706,2.965-31.141,6.916a17.414,17.414,0,0,0-29.834,3.772,11.949,11.949,0,0,0-14.323-2.87,17.4,17.4,0,0,0-25.989-8.02,17.385,17.385,0,0,0-20.848-14,17.44,17.44,0,0,0-15.574-8.8c-.158,0-.308.027-.464.035a17.44,17.44,0,1,0-16.464,21.792c.158,0,.308-.026.464-.035a17.388,17.388,0,0,0,20.571,12.693,17.423,17.423,0,0,0,24.937,5.789,17.42,17.42,0,0,0,29.615,9.156,11.969,11.969,0,0,0,18.678-.76,17.4,17.4,0,0,0,28.639,3.239c7.6,3.926,19.389,6.29,32.569,5.973,22.66-.543,40.842-8.793,40.611-18.425-.079-3.287-2.295-6.31-6.076-8.845.163-.262.319-.528.462-.8a13.859,13.859,0,0,0,24.478-12.447,13.86,13.86,0,0,0-3.571-27.333Z" transform="translate(-44.999 -638.028)" fill="#9fcefc" opacity="0.347" style="mix-blend-mode:multiply;isolation:isolate"/><path d="M366.93,633.822a12.454,12.454,0,1,0,12.454,12.454A12.454,12.454,0,0,0,366.93,633.822Z" transform="translate(-87.898 -633.822)" fill="#9fcefc" opacity="0.18" style="mix-blend-mode:multiply;isolation:isolate"/><path d="M66.412,649.893a12.453,12.453,0,1,0-12.453,12.454A12.454,12.454,0,0,0,66.412,649.893Z" transform="translate(-41.505 -634.358)" fill="#9fcefc" opacity="0.18" style="mix-blend-mode:multiply;isolation:isolate"/></g></g></g><path d="M82.864,696.593s-22.335-3.127-24.5-15.207,6.591-3.773,6.591-3.773S60.1,664.8,67.817,665.324,70.7,684.656,82.864,696.593Z" transform="translate(-1.825 -36.194)" fill="#8bd9c4" stroke="#547394" stroke-miterlimit="10" stroke-width="1"/><path d="M83.112,695.771s-7.692-5.8-8.594-21.277" transform="translate(-4.27 -37.556)" fill="none" stroke="#fff" stroke-linecap="round" stroke-linejoin="round" stroke-width="1"/><path d="M345.182,683.43s26.587-9.22,26.314-24.53-8.979-3.027-8.979-3.027,2.86-16.862-6.464-14.354S357.187,665.88,345.182,683.43Z" transform="translate(-44.391 -32.63)" fill="#f8b67b" stroke="#547394" stroke-miterlimit="10" stroke-width="1"/><path d="M353.576,651.645s2.346,19.514-4.709,29.693" transform="translate(-44.937 -34.169)" fill="none" stroke="#fff" stroke-linecap="round" stroke-linejoin="round" stroke-width="1"/><path d="M327.312,519.776s13.088-12.642,8.764-21.549-6.091.667-6.091.667-2.91-10.669-7.7-6.662S329.581,506.215,327.312,519.776Z" transform="translate(-40.83 -10.405)" fill="#abdaea"/><path d="M345.182,685.206s24.482-11.134,24.206-31.962C369.387,653.244,383,669.976,345.182,685.206Z" transform="translate(-44.391 -34.406)" fill="#f7bdba" opacity="0.8" style="mix-blend-mode:multiply;isolation:isolate"/><path d="M58.741,677.124s3.278,15.448,24.146,21.22C82.886,698.344,53.8,694.713,58.741,677.124Z" transform="translate(-1.847 -37.945)" fill="#f7bdba" opacity="0.8" style="mix-blend-mode:multiply;isolation:isolate"/><g transform="translate(63.822 545.872)"><path d="M141.3,650.2s-25.4,15.741-41.572-14.249" transform="translate(-71.828 -577.715)" fill="none" stroke="#547394" stroke-linecap="round" stroke-linejoin="round" stroke-width="1"/><path d="M139.723,646.66s-33.365-.345-24.046-41.366" transform="translate(-73.949 -573.17)" fill="none" stroke="#547394" stroke-linecap="round" stroke-linejoin="round" stroke-width="1"/><path d="M126.629,569.486c-3.751-3.8-9.557-1.393-13.057,2.641l-1.07,1.234-3.294-3.34a7.413,7.413,0,0,0-11.054.378h0a11.221,11.221,0,0,0-2.059,3.783,14.171,14.171,0,0,0,4.811,15.437l11.609,9.274-1.223,2,3.559.092-1.042-1.917,10.456-10.157a16,16,0,0,0,4.778-14.161A9.934,9.934,0,0,0,126.629,569.486Z" transform="translate(-71.188 -567.58)" fill="#ffdabf" stroke="#547394" stroke-miterlimit="10" stroke-width="1"/><path d="M96.793,611.137a14.872,14.872,0,0,0-1.568-4.782c-.053-.123-.085-.193-.085-.193l-.014,0A14.984,14.984,0,1,0,70.01,622.356c.008.013.013.025.02.037,4.919,8.53,22.466,8.082,24.621,7.995l.11,3.323,3.022-1.881-2.87-1.533C98.816,623.572,98,615.98,96.793,611.137Z" transform="translate(-66.973 -572.138)" fill="#fff89b" stroke="#547394" stroke-linecap="round" stroke-linejoin="round" stroke-width="1"/><path d="M70.168,615.769s-.681,15.138,22.9,14.57" transform="translate(-67.446 -574.723)" fill="none" stroke="#efe8ab" stroke-linecap="round" stroke-linejoin="round" stroke-width="2" style="mix-blend-mode:multiply;isolation:isolate"/><path d="M80.1,601.264s12.025-3.055,15.5,10.394" transform="translate(-68.919 -572.529)" fill="none" stroke="#fff" stroke-linecap="round" stroke-linejoin="round" stroke-width="2"/><path d="M98.744,578.045s-4.119,7.817,13.86,18.369" transform="translate(-71.622 -569.131)" fill="none" stroke="#fcdef9" stroke-linecap="round" stroke-miterlimit="10" stroke-width="3" style="mix-blend-mode:multiply;isolation:isolate"/><path d="M124.526,569.965s5.988-1.826,7.091,5.9" transform="translate(-75.505 -567.905)" fill="none" stroke="#fff" stroke-linecap="round" stroke-linejoin="round" stroke-width="2"/><path d="M160.759,660.728a3.841,3.841,0,0,1-1.032-1.359c-.7-1.526-.368-3.181.751-3.7a1.793,1.793,0,0,1,1.2-.084l0-.01.027.016a2.873,2.873,0,0,1,1.275.764c2.1,1.251,6.148,3.636,7.725,4.354a2.181,2.181,0,0,1,.258.108c.031.013.073.032.1.043l.014.008.018.01a.825.825,0,0,1,.28.189,3.022,3.022,0,0,1,.9,1.143c.561,1.215.293,2.535-.6,2.946a1.532,1.532,0,0,1-1.311-.061h0a73.975,73.975,0,0,1-8.592-3.83,2.746,2.746,0,0,1-1.013-.535l-.005,0Z" transform="translate(-80.668 -580.616)" fill="#abdaea" stroke="#547394" stroke-miterlimit="10" stroke-width="1"/><path d="M166.267,640.976a2.767,2.767,0,0,0,.308-1.227,2.781,2.781,0,0,0-3.783-2.634,13.653,13.653,0,0,0-16.373-14.24,13.841,13.841,0,0,0-2.351.71,13.678,13.678,0,0,0-11.627,20.459,2.791,2.791,0,0,0-1.132,5.049,4.167,4.167,0,1,0,7.014.466,13.52,13.52,0,0,0,11.08.426,13.769,13.769,0,0,0,2.441-.259,13.631,13.631,0,0,0,7.813-4.671,4.157,4.157,0,1,0,6.609-4.079Z" transform="translate(-76.332 -575.736)" fill="#8e8a87" stroke="#547394" stroke-miterlimit="10" stroke-width="1"/><circle cx="2.424" cy="2.424" r="2.424" transform="translate(52.928 86.762)" fill="#fff" stroke="#547394" stroke-miterlimit="10" stroke-width="1"/><path d="M145.015,661.74a3.03,3.03,0,0,0-4.036-4.317l-.009-.008-.024.026a3.035,3.035,0,0,0-1.152,1.219c-1.9,2-5.578,5.831-7.13,7.131a2.305,2.305,0,0,0-.258.2c-.032.024-.074.06-.1.08-.006,0-.008.008-.013.013l-.017.017a.81.81,0,0,0-.24.286,2.414,2.414,0,0,0,3.52,3.265h0a88.031,88.031,0,0,0,8.5-7.008,3.041,3.041,0,0,0,.955-.9l.005,0Z" transform="translate(-76.547 -580.836)" fill="#abdaea" stroke="#547394" stroke-miterlimit="10" stroke-width="1"/><path d="M148.327,674.837l-.2,0a3.574,3.574,0,0,0-6.8.144l-.2,0s.027.15.079.418a3.6,3.6,0,0,0-.055.7,27.8,27.8,0,0,0,1.122,5.345c.77,3.58,3.807,6.8,5.4,10.038.107.735,2.985.761,3.618-.267C151.569,690.815,148.327,674.837,148.327,674.837Z" transform="translate(-77.966 -583.123)" fill="#fff" stroke="#547394" stroke-miterlimit="10" stroke-width="1"/><path d="M159.525,673.169l-.2,0a3.574,3.574,0,0,0-6.8.145l-.2,0s.027.149.079.418a3.591,3.591,0,0,0-.055.7,27.8,27.8,0,0,0,1.122,5.345c.77,3.58,3.807,6.8,5.4,10.039.107.734,2.767,1.167,3.4.139C162.55,689.555,159.525,673.169,159.525,673.169Z" transform="translate(-79.626 -582.876)" fill="#fff" stroke="#547394" stroke-miterlimit="10" stroke-width="1"/><path d="M156.457,655.759l-5.614,2.909h0l-8.766-1.326s-5.257,22.39-8.968,22.75c0,0,10.18,3.057,17.53,2.884h0c5.39.279,12.9-2.628,12.9-2.628C160.824,679.934,156.457,655.759,156.457,655.759Z" transform="translate(-76.777 -580.651)" fill="#abdaea" stroke="#547394" stroke-miterlimit="10" stroke-width="1"/><ellipse cx="1.779" cy="2.424" rx="1.779" ry="2.424" transform="translate(89.751 81.916) rotate(-24.784)" fill="#fff" stroke="#547394" stroke-miterlimit="10" stroke-width="1"/><path d="M151.84,658.92l-2.1,23.336a23.673,23.673,0,0,0,16.272-1.917s-5.3-8.058-6.955-24.642C159.052,655.7,153.842,659.555,151.84,658.92Z" transform="translate(-79.241 -580.642)" fill="#abdaea" stroke="#547394" stroke-miterlimit="10" stroke-width="1"/><path d="M154.434,656.657s-7.52,11.3-12.943,13.953c0,0-2.882-.385-2.861-2.783,0,0-4.209-1.092-6.029,5.819s7.219,4.388,14.348-2.99c0,0,9.335-11.845,9.346-13.132S154.434,656.657,154.434,656.657Z" transform="translate(-76.666 -580.774)" fill="#fff89b" stroke="#547394" stroke-miterlimit="10" stroke-width="1"/><rect width="10.044" height="5.754" rx="2.094" transform="translate(72.998 42.204) rotate(16.94)" fill="#abdaea" stroke="#547394" stroke-miterlimit="10" stroke-width="1"/><rect width="13.261" height="2.724" rx="1.362" transform="translate(70.321 45.472) rotate(16.94)" fill="#abdaea" stroke="#547394" stroke-miterlimit="10" stroke-width="1"/><path d="M157.073,634.407a12.2,12.2,0,1,1-18.689,2.319" transform="translate(-77.277 -577.486)" fill="#fff" stroke="#547394" stroke-miterlimit="10" stroke-width="1"/><path d="M135.2,636.7a5.368,5.368,0,0,0,5.019,5.668,4.884,4.884,0,0,0,3.946-2.043,4.716,4.716,0,0,0,3.049,1.175,5.047,5.047,0,0,0,4.58-3.133,4.585,4.585,0,0,0,1.613.311,5.368,5.368,0,0,0,5.114-5.582" transform="translate(-77.087 -577.291)" fill="#8e8a87" stroke="#547394" stroke-miterlimit="10" stroke-width="1"/><path d="M146.486,649.447a3.488,3.488,0,0,0-3.772,1.308" transform="translate(-78.201 -579.696)" fill="none" stroke="#547394" stroke-linecap="round" stroke-linejoin="round" stroke-width="1"/><path d="M160.527,645.988a3.488,3.488,0,0,0-3.869.987" transform="translate(-80.268 -579.169)" fill="none" stroke="#547394" stroke-linecap="round" stroke-linejoin="round" stroke-width="1"/><path d="M150.933,653.021s2.642,1.553,4.845-1.531" transform="translate(-79.419 -580.018)" fill="none" stroke="#547394" stroke-linecap="round" stroke-linejoin="round" stroke-width="1"/><path d="M144.279,657.415a11.69,11.69,0,0,0,4.157,4.066l2.6-2.56,3.047,2.315s3.913-2.661,4.166-5.538C158.244,655.7,150.912,661.13,144.279,657.415Z" transform="translate(-78.433 -580.642)" fill="#abdaea" stroke="#547394" stroke-miterlimit="10" stroke-width="1"/><ellipse cx="1.259" cy="2.019" rx="1.259" ry="2.019" transform="translate(69.816 110.183) rotate(-89.517)" fill="#bf93bc" stroke="#547394" stroke-miterlimit="10" stroke-width="1"/><ellipse cx="1.259" cy="2.019" rx="1.259" ry="2.019" transform="translate(79.62 109.414) rotate(-89.517)" fill="#bf93bc" stroke="#547394" stroke-miterlimit="10" stroke-width="1"/><path d="M135.7,638.279s4.278,3.356,7.929,2.35c0,0,5.77.071,7.882-2.044,0,0,3.3.6,4.485-.135a7.99,7.99,0,0,1-4.122.684s-2.78,4.61-7.629,1.958C144.242,641.092,136.69,646.273,135.7,638.279Z" transform="translate(-77.16 -578.06)" fill="#a9a2ba" opacity="0.32" style="mix-blend-mode:multiply;isolation:isolate"/><path d="M138.611,652.362c-1.649-4.159-3.384-3.512-2.766-10.852,0,0-2.426,4.354-.777,7.586a16.251,16.251,0,0,1,1.58,4.567,3.48,3.48,0,0,0-1.615-.4,2.446,2.446,0,1,0-.041,4.779,3.441,3.441,0,0,0,1.75-.451h0S140.259,656.521,138.611,652.362Z" transform="translate(-76.619 -578.539)" fill="#a9a2ba" opacity="0.32" style="mix-blend-mode:multiply;isolation:isolate"/><path d="M164.787,646.853c-.347-4.06,1.641-4.382-1.847-10.114,0,0,3.747,2.564,3.716,5.868a14.841,14.841,0,0,0,.568,4.365,3.182,3.182,0,0,1,1.153-.986,2.228,2.228,0,1,1,1.975,3.879,3.128,3.128,0,0,1-1.61.343h0S165.133,650.912,164.787,646.853Z" transform="translate(-81.199 -577.831)" fill="#a9a2ba" opacity="0.32" style="mix-blend-mode:multiply;isolation:isolate"/><path d="M135.765,629.917s8.926,4.863,17.026-1.435" transform="translate(-77.171 -576.607)" fill="none" stroke="#fff" stroke-linecap="round" stroke-linejoin="round" stroke-width="2" opacity="0.2"/><path d="M137.454,669.81s-3.866.4-4.463,3.522,7.318-.963,7.318-.963A2.72,2.72,0,0,0,137.454,669.81Z" transform="translate(-76.754 -582.734)" fill="#fff89b" stroke="#547394" stroke-miterlimit="10" stroke-width="1"/><circle cx="0.866" cy="0.866" r="0.866" transform="translate(54.97 91.066)" fill="#fff89b" stroke="#547394" stroke-miterlimit="10" stroke-width="1"/></g><g transform="translate(207.427 529.561)"><path d="M330.8,576.947a3.062,3.062,0,0,0,.058-.534,3.031,3.031,0,0,0-5.993-.668l-.063-.013s-2.1,13.137-.123,14.526l2.565-1.008s3.9-9.076,3.559-12.3Z" transform="translate(-248.654 -552.125)" fill="#fff89b" stroke="#547394" stroke-linecap="round" stroke-linejoin="round" stroke-width="1"/><path d="M346.822,580.693h0a3.024,3.024,0,0,0-5.794-1.672l-.007,0,0,.035a2.981,2.981,0,0,0-.194,1.009c0,.021.005.041.005.061a127,127,0,0,1-4.221,12.029s-3.565,2.257,1.588,1.628c4.817-.589,8.168-11.512,8.584-12.932.013-.049.032-.1.042-.145Z" transform="translate(-250.369 -552.673)" fill="#fff89b" stroke="#547394" stroke-linecap="round" stroke-linejoin="round" stroke-width="1"/><path d="M270.666,650.753s25.778-16.44,25.585-54.383" transform="translate(-240.773 -555.536)" fill="none" stroke="#547394" stroke-linecap="round" stroke-linejoin="round" stroke-width="1"/><path d="M274.2,651.292s26.449-1.872,43.315-35.861" transform="translate(-241.296 -558.362)" fill="none" stroke="#547394" stroke-linecap="round" stroke-linejoin="round" stroke-width="1"/><circle cx="2.775" cy="2.775" r="2.775" transform="translate(40.277 85.116)" fill="#fff" stroke="#547394" stroke-miterlimit="10" stroke-width="1"/><circle cx="2.775" cy="2.775" r="2.775" transform="translate(0 82.408)" fill="#fff" stroke="#547394" stroke-miterlimit="10" stroke-width="1"/><path d="M285.612,653.308l-3.207-4.487a34.144,34.144,0,0,1-10.018,7.163l-.011.005-.015.007h0a2.772,2.772,0,1,0,2.186,5.1v0C277.949,659.753,285.612,653.308,285.612,653.308Z" transform="translate(-240.773 -563.311)" fill="#abdaea" stroke="#547394" stroke-miterlimit="10" stroke-width="1"/><path d="M250.747,655.2h0a2.759,2.759,0,0,0-1.092-.573,33.964,33.964,0,0,1-9.444-8.676l-4.1,3.651c1.4,4.97,11.18,9.917,11.18,9.917l0,0a2.764,2.764,0,0,0,3.45-4.317Z" transform="translate(-235.651 -562.886)" fill="#abdaea" stroke="#547394" stroke-miterlimit="10" stroke-width="1"/><ellipse cx="11.844" cy="12.699" rx="11.844" ry="12.699" transform="translate(14.448 89.105) rotate(-89.517)" fill="#abdaea" stroke="#547394" stroke-miterlimit="10" stroke-width="1"/><path d="M249.483,638.23s-4.881-6.171,1.353-11.408S274.6,630.5,272.6,640.338Z" transform="translate(-237.363 -559.82)" fill="#abdaea" stroke="#547394" stroke-miterlimit="10" stroke-width="1"/><circle cx="3.247" cy="3.247" r="3.247" transform="translate(6.545 77.673)" fill="#fff" stroke="#547394" stroke-miterlimit="10" stroke-width="1"/><circle cx="3.247" cy="3.247" r="3.247" transform="translate(33.938 79.683)" fill="#fff" stroke="#547394" stroke-miterlimit="10" stroke-width="1"/><path d="M251.818,656.813s-13.758,8.848-6.216,30.1l3.631-.534s-4.049-7.989,8.4-7.933,6.134,8.53,6.134,8.53l3.586.12s13.584-9.3-.154-29.47Z" transform="translate(-236.722 -564.496)" fill="#abdaea" stroke="#547394" stroke-miterlimit="10" stroke-width="1"/><path d="M12.206,0c6.741,0,12.206,6.316,12.206,14.107S18.946,28.213,12.206,28.213,0,21.9,0,14.107,5.465,0,12.206,0Z" transform="translate(9.129 95.312) rotate(-89.517)" fill="#fff" stroke="#547394" stroke-width="1"/><path d="M268.241,642.606a3.488,3.488,0,0,1,3.871-.978" transform="translate(-240.413 -562.211)" fill="#d2d7e8" stroke="#547394" stroke-linecap="round" stroke-linejoin="round" stroke-width="1"/><path d="M250.749,642.231a3.489,3.489,0,0,1,3.853,1.052" transform="translate(-237.82 -562.304)" fill="#d2d7e8" stroke="#547394" stroke-linecap="round" stroke-linejoin="round" stroke-width="1"/><path d="M258.9,646s4.045.9,6.118-.593c0,0,1.833,6.472-2.72,6.845S258.9,646,258.9,646Z" transform="translate(-239.008 -562.805)" fill="#ffc5c5" stroke="#547394" stroke-linecap="round" stroke-linejoin="round" stroke-width="1"/><path d="M268.01,633.213s-1.593,1.5-4.361,4.016-8.4,2.882-5.954-2.523c0,0-4.426,3.466-6.588,3.941-1.382.3-4.585-.464-.626-4.757S261.186,627.868,268.01,633.213Z" transform="translate(-237.497 -560.504)" fill="#6a8096" stroke="#547394" stroke-miterlimit="10" stroke-width="1"/><path d="M277.735,640.481a6.714,6.714,0,0,0-6.126-6.275S271.751,644.353,277.735,640.481Z" transform="translate(-240.912 -561.145)" fill="#6a8096" stroke="#547394" stroke-miterlimit="10" stroke-width="1"/><ellipse cx="2.293" cy="2.663" rx="2.293" ry="2.663" transform="translate(8.72 126.056) rotate(-89.517)" fill="#a9a2ba" stroke="#547394" stroke-miterlimit="10" stroke-width="1"/><ellipse cx="2.293" cy="2.663" rx="2.293" ry="2.663" transform="translate(25.918 126.201) rotate(-89.517)" fill="#a9a2ba" stroke="#547394" stroke-miterlimit="10" stroke-width="1"/><path d="M243.3,676.055s10.361-4.571,30.286.256c0,0-.652,10.436-6.289,13.344l-4.571-.039a7.563,7.563,0,0,0,.873-7.726s-16.381-3.715-14.42,7.048l-3.631.534S241.94,684.6,243.3,676.055Z" transform="translate(-236.671 -567.058)" fill="#6d899b" stroke="#547394" stroke-miterlimit="10" stroke-width="1"/><path d="M260.171,660.543l-4.161,2.289a20.615,20.615,0,0,1-3.659-5.72S254.547,660.433,260.171,660.543Z" transform="translate(-238.058 -564.54)" fill="#abdaea" stroke="#547394" stroke-miterlimit="10" stroke-width="1"/><path d="M256.726,659.725s7.979,12.244,13.118,11.157,2.749-8.1,2.749-8.1l1.2-.646s12.8,12.747,4.219,15.782-19.458-.8-23.559-19.356Z" transform="translate(-238.369 -564.755)" fill="#fff89b" stroke="#547394" stroke-miterlimit="10" stroke-width="1"/><path d="M315.437,565.8c0-.014-.006-.025-.008-.038a16.822,16.822,0,1,0-33.514,1.514l-.016.006s.017.085.049.233a16.683,16.683,0,0,0,1.675,5.4c2,5.1,6.059,12.352,13.664,16.053l-1.348,2.291,3.9.033-1.359-2.4C301.6,586.8,316.437,576.3,315.437,565.8Z" transform="translate(-242.422 -548.43)" fill="#abeabe" stroke="#547394" stroke-miterlimit="10" stroke-width="1"/><path d="M328.976,590.2c-8.022-1.486-15.611,3.17-16.95,10.4-1.11,5.995,2.434,11.867,8.249,14.547l-2.775,2.062,4.243,1.835-.4-3.441a16.4,16.4,0,0,0,2.784.778c8.022,1.485,15.611-3.17,16.95-10.4S337,591.685,328.976,590.2Z" transform="translate(-246.873 -554.581)" fill="#fff89b" stroke="#547394" stroke-linecap="round" stroke-linejoin="round" stroke-width="1"/><path d="M301.76,587.149s13.374-9.575,13.123-20.644" transform="translate(-243.307 -550.072)" fill="none" stroke="#8bd9c4" stroke-linecap="round" stroke-linejoin="round" stroke-width="3" opacity="0.756" style="mix-blend-mode:multiply;isolation:isolate"/><path d="M295.29,553.087s-10.415.945-9.141,15.663" transform="translate(-243.052 -549.12)" fill="none" stroke="#fff" stroke-linecap="round" stroke-linejoin="round" stroke-width="1.5"/><path d="M314.44,601.9s1.072-7.586,9.924-8.689" transform="translate(-247.261 -555.068)" fill="none" stroke="#fff" stroke-linecap="round" stroke-linejoin="round" stroke-width="2"/><line y1="8.837" x2="0.803" transform="translate(76.407 25.411)" fill="none" stroke="#fff" stroke-linecap="round" stroke-linejoin="round" stroke-width="2"/><line y1="9.039" x2="3.435" transform="translate(88.581 27.886)" fill="none" stroke="#fff" stroke-linecap="round" stroke-linejoin="round" stroke-width="2"/><path d="M325.89,616.152a13.229,13.229,0,0,0,14.193-5.556" transform="translate(-248.959 -557.645)" fill="none" stroke="#fff89b" stroke-linecap="round" stroke-linejoin="round" stroke-width="3" style="mix-blend-mode:multiply;isolation:isolate"/><path d="M261.483,660.648l2,2.792s6.046-2.347,7.446-5.612A17.331,17.331,0,0,1,261.483,660.648Z" transform="translate(-239.411 -564.646)" fill="#abdaea" stroke="#547394" stroke-miterlimit="10" stroke-width="1"/><path d="M268.134,670.794s5.416-5.668,7.538-4.624,4.484,4.855,1.968,6.879S269.482,674.663,268.134,670.794Z" transform="translate(-240.397 -565.864)" fill="#fff89b" stroke="#547394" stroke-miterlimit="10" stroke-width="1"/><ellipse cx="1.284" cy="1.005" rx="1.284" ry="1.005" transform="matrix(0.815, -0.58, 0.58, 0.815, 35.394, 107.454)" fill="#abdaea" stroke="#547394" stroke-miterlimit="10" stroke-width="1"/><path d="M251.949,632.971s-2.418,4.959,5.383,1.909c0,0,1.985,4.908,8.142.859,0,0-9.087,7.784-8.216.555C257.258,636.294,241.743,643.888,251.949,632.971Z" transform="translate(-237.483 -560.962)" fill="#a9a2ba" opacity="0.32" style="mix-blend-mode:multiply;isolation:isolate"/><path d="M272.073,637.909s3.5,4.7,4.763.04c0,0,1.154,2.175.667,3.266C276.877,642.617,273.633,642.129,272.073,637.909Z" transform="translate(-240.981 -561.694)" fill="#a9a2ba" opacity="0.32" style="mix-blend-mode:multiply;isolation:isolate"/></g></g></svg>