<svg xmlns="http://www.w3.org/2000/svg" xmlns:xlink="http://www.w3.org/1999/xlink" width="287.497" height="250.822" viewBox="0 0 287.497 250.822"><defs><linearGradient id="a" x1="0.5" x2="0.5" y2="1" gradientUnits="objectBoundingBox"><stop offset="0" stop-color="#fff"/><stop offset="1" stop-color="#fff"/></linearGradient></defs><g transform="translate(-422.442 -392.261)"><g transform="translate(426.624 392.275)"><path d="M130.289,0c71.957,0,130.289,50.106,130.289,111.914S202.246,223.828,130.289,223.828,0,173.723,0,111.914,58.333,0,130.289,0Z" transform="translate(0 26.979)" opacity="0.186" fill="url(#a)"/><path d="M604.091,515.16s2.093-.22,3.9,2.26l-3.9-.359Z" transform="translate(-460.316 -415.067)" fill="#bbd6eb" stroke="#547394" stroke-width="1"/><g transform="translate(154.509 87.415)"><path d="M636.8,517.607a18.476,18.476,0,0,0-4.5,6.3l-15.025-5.4S635.384,514.774,636.8,517.607Z" transform="translate(-617.27 -502.74)" fill="#adc8d9" stroke="#547394" stroke-width="1"/><rect width="8.445" height="1.837" rx="0.919" transform="translate(20.59 12.905) rotate(-24.651)" fill="#fff89b" stroke="#547394" stroke-width="1"/><path d="M646.15,503.1l-2.446,9.151c-.4.6-1.754.794-1.845.083l-.709-9.789a4.982,4.982,0,0,1,1.153-2.31,2.256,2.256,0,0,1,3.13-.016A3.556,3.556,0,0,1,646.15,503.1Z" transform="translate(-621.699 -499.596)" fill="#f9f9f9" stroke="#547394" stroke-width="1"/><path d="M653.586,518.922l-9.087-2.678c-.717.027-1.592,1.083-1.031,1.531l7.986,5.7a5,5,0,0,0,2.573.218,2.257,2.257,0,0,0,1.645-2.664A3.56,3.56,0,0,0,653.586,518.922Z" transform="translate(-622.096 -502.684)" fill="#f9f9f9" stroke="#547394" stroke-width="1"/><circle cx="1.585" cy="1.585" r="1.585" transform="translate(18.073 12.67)" fill="#f8b67b" stroke="#547394" stroke-width="1"/><line x1="0.079" y2="10.429" transform="translate(24.426 3.346)" fill="#d2d7e8" stroke="#547394" stroke-miterlimit="10" stroke-width="0.5"/><line x1="8.637" y1="5.072" transform="translate(22.471 11.054)" fill="#d2d7e8" stroke="#547394" stroke-miterlimit="10" stroke-width="0.5"/></g><g transform="translate(50.812 27.554)"><path d="M498.921,438.486c-5.272.523-9.252-3.553-8.945-4.856s10.12-.8,17.175-2.837a36.349,36.349,0,0,0,8.684-3.647,4.582,4.582,0,0,1,.855-.557h0a4.581,4.581,0,1,1,2.161,8.674h0c-7.9,13.485-10.509,5.143-10.509,5.143C496.171,445.9,498.921,438.486,498.921,438.486Z" transform="translate(-489.96 -426.104)" fill="#fff" stroke="#547394" stroke-width="1"/><path d="M524.662,436.819a3.456,3.456,0,0,1-3.3-2.264" transform="translate(-495.785 -427.672)" fill="#fff" stroke="#547394" stroke-width="1"/></g><path d="M529.24,406.327s68.308,21.046,117.8,17.6l3.126-4.669S593.785,368.4,529.24,406.327Z" transform="translate(-446.433 -392.275)" fill="#fff" opacity="0.25"/><ellipse cx="67.319" cy="13.954" rx="67.319" ry="13.954" transform="translate(62.976 220.669)" fill="#d8f2a6" opacity="0.69"/><path d="M538.341,472.377S566.93,499.6,574.4,516.8" transform="translate(-448.121 -407.132)" fill="none" stroke="#547394" stroke-width="1"/><path d="M584.309,521.43,571.5,518.416l-1.462,4.449s9.774,5.579,17.353,0Z" transform="translate(-454.001 -415.672)" fill="#abdaea" stroke="#547394" stroke-width="1"/><path d="M591.509,648.005l-23.5,7.932a2.456,2.456,0,0,1-3.046-1.667l-4.508-15.4a2.454,2.454,0,0,1,1.667-3.045l23.5-7.932a2.455,2.455,0,0,1,3.045,1.667l4.508,15.4A2.455,2.455,0,0,1,591.509,648.005Z" transform="translate(-452.204 -435.958)" fill="#fae5b5" stroke="#547394" stroke-width="1"/><ellipse cx="10.58" cy="7.681" rx="10.58" ry="7.681" transform="translate(121.374 78.835)" fill="#abdaea" stroke="#547394" stroke-width="1"/><path d="M541.03,589.068c0-17.3-14.353-30.229-31.648-30.229-11.844,0-21.818,5.489-27.14,15.188a27.971,27.971,0,0,0-13.623,24.021c0,15.458,10.61,35.158,26.067,35.158,6.494,0,13.705-1.035,18.454-4.746C528.492,626.446,541.03,604.969,541.03,589.068Z" transform="translate(-435.189 -423.169)" fill="#a9a2ba" stroke="#547394" stroke-width="1"/><path d="M508.341,647.405s-11.172,5.707-16.1,16.933c0,0,8.472,18.179,40.285,17.494,0,0-5.293-12.7-3.927-31.7" transform="translate(-439.57 -439.596)" fill="#91cbde" stroke="#547394" stroke-width="1"/><path d="M511.206,635a22.3,22.3,0,0,1-1.471-7.631l-2.046-16.313,17.151-15.123,8.962-9.39,8.531-6.035c9.824,5.337,14.05,14.116,14.05,26.083A31.515,31.515,0,0,1,524.868,638.1c-5.549,0-9.133-.589-13.662-3.107" transform="translate(-442.436 -427.188)" fill="#fff" stroke="#547394" stroke-width="1"/><path d="M506.416,610.281a6.787,6.787,0,0,0,6.748-6.07,7.407,7.407,0,0,0,10.076-10.016,8.2,8.2,0,0,0,9.839-8.026c0-.175-.015-.347-.027-.519a8.211,8.211,0,0,0,2.068.274c4.525,0,9.763-5.333,8.192-9.576" transform="translate(-442.2 -426.417)" fill="#a9a2ba" stroke="#547394" stroke-width="1"/><path d="M560.476,641.389s24.769,9.212,32.821,7.129c0,0-22.833,11.813-28,8.871Z" transform="translate(-452.227 -438.481)" fill="#a9a2ba" opacity="0.441" style="mix-blend-mode:multiply;isolation:isolate"/><path d="M513.8,632.673c-7.636,5.32-12.339-3.219-12.339-7.1,0-5.711,4.036-8.321,7.66-6.944" transform="translate(-441.281 -434.193)" fill="#fff" stroke="#547394" stroke-width="1"/><path d="M562.814,615.593c-15.468,8.552-17.43-6.849-17.43-6.849,7.339-3.1,15.158-11.77,15.158-11.77a28.558,28.558,0,0,1,2.833,11.471Z" transform="translate(-449.428 -430.242)" fill="#ffc5c5" stroke="#547394" stroke-width="1"/><circle cx="4.869" cy="4.869" r="4.869" transform="translate(111.24 205.951)" fill="#fff" stroke="#547394" stroke-width="1"/><path d="M557.286,645.333a49.214,49.214,0,0,1-17.884,4.794c-6.17.317-13.9-1.226-18.623-2.365a8.771,8.771,0,1,0-4.968,16.382v.033c30.075,4.684,44.979-9.826,44.979-9.826Z" transform="translate(-442.436 -439.212)" fill="#abdaea" stroke="#547394" stroke-width="1"/><path d="M649.339,641.421s-4.73,25.123-2.075,36.995c0,0,25.558.607,42.272-24.866,0,0-3.706-13.867-15.517-15.873Z" transform="translate(-468.174 -437.792)" fill="#faf5ac" stroke="#547394" stroke-width="1"/><path d="M538.483,586.93a6.008,6.008,0,0,0-2.79-3.686" transform="translate(-447.63 -427.696)" fill="#f2f2f2" stroke="#547394" stroke-width="1"/><path d="M526.463,597.586c-.811-.123-2.671-2.953-2.671-2.953" transform="translate(-445.423 -429.808)" fill="#f2f2f2" stroke="#547394" stroke-width="1"/><path d="M678.3,636.461s-7.519,20.255-31.95,16.091l2.141-12.077S665.6,645.053,678.3,636.461Z" transform="translate(-468.155 -437.567)" fill="#a9a2ba" opacity="0.14" style="mix-blend-mode:multiply;isolation:isolate"/><path d="M514.4,609.995a3.921,3.921,0,0,0-1.329-2.465" transform="translate(-443.434 -432.2)" fill="#f2f2f2" stroke="#547394" stroke-width="1"/><path d="M674.52,658l-22.7,7.543a2.243,2.243,0,0,1-2.86-1.346l-3.849-13.148a2.244,2.244,0,0,1,1.683-2.676l22.7-7.542a2.244,2.244,0,0,1,2.861,1.346l3.848,13.148A2.244,2.244,0,0,1,674.52,658Z" transform="translate(-467.911 -438.358)" fill="#fae5b5" stroke="#547394" stroke-width="1"/><circle cx="5.585" cy="5.585" r="5.585" transform="translate(160.527 177.14)" fill="#fff" stroke="#547394" stroke-width="1"/><path d="M713.063,597.35a3.627,3.627,0,0,0-4.8-3.09c-7.992,2.524-1.1-11.457-13.905-24.524-13.151-13.416-22.245-7.866-22.245-7.866l-.037.073a13.871,13.871,0,0,0-9.658,19.661l-.009.017c13.052,51.18,32.74,39.415,32.74,39.415,2.637-1.1,1.658-4.776,1.658-4.776,7.236,2.715,7.458-.8,7.458-.8a7.5,7.5,0,0,0,2.966-13.949s1.8.044,2.507-.032A3.75,3.75,0,0,0,713.063,597.35Z" transform="translate(-470.874 -423.52)" fill="#aa9d8f" stroke="#547394" stroke-width="1"/><path d="M680.183,614.344c0,12.428-11.268,18.43-25.169,18.43s-25.168-6-25.168-18.43,11.268-26.575,25.168-26.575S680.183,601.916,680.183,614.344Z" transform="translate(-465.094 -428.535)" fill="#fff" stroke="#547394" stroke-width="1"/><path d="M684.506,608.46c10.991-20.3-6.45-39.14-20.393-41.654a36.6,36.6,0,0,0-24.843,4.812c-16.855,3.549-22.917,31.725-10.886,31.577s12.808-13.9,10.59-10.5,0,12.863,13.306,6.357,8.132-19.812,8.132-19.812,4.961,19.593,12.123,20.4,9.513-3.252,8.453-6.653" transform="translate(-463.654 -424.55)" fill="#aa9d8f" stroke="#547394" stroke-width="1"/><ellipse cx="10.678" cy="6.436" rx="10.678" ry="6.436" transform="translate(117.501 83.108)" fill="#abdaea" stroke="#547394" stroke-width="1"/><path d="M687.118,610.334c.99-1.732,4.3-1.8,4.3-1.8a5.585,5.585,0,0,1,0,11.17s-1.253-.3-1.995-.385" transform="translate(-475.716 -432.388)" fill="#fff" stroke="#547394" stroke-width="1"/><path d="M651.365,621.08s8.97,1.709,15.2-.768c0,0,1.623,11.86-7.584,11.788C649.76,632.028,651.365,621.08,651.365,621.08Z" transform="translate(-471.035 -434.571)" fill="#ffc5c5" stroke="#547394" stroke-width="1"/><circle cx="5.684" cy="5.684" r="5.684" transform="translate(172.511 214.986)" fill="#fff" stroke="#547394" stroke-width="1"/><circle cx="5.356" cy="5.356" r="5.356" transform="translate(201.095 206.121)" fill="#fff" stroke="#547394" stroke-width="1"/><path d="M600.23,508.26c0,5.892-8.082,10.251-13.974,10.251s-8.011-4.936-8.011-10.828a10.669,10.669,0,0,1,10.669-10.669A11.744,11.744,0,0,1,600.23,508.26Z" transform="translate(-455.523 -411.702)" fill="#fff" stroke="#547394" stroke-width="1"/><path d="M603.229,507.711a3.075,3.075,0,0,0,0-6.15,2.619,2.619,0,0,0-2.6,1.509" transform="translate(-459.675 -412.544)" fill="#fff" stroke="#547394" stroke-width="1"/><path d="M588.157,496.358a9.991,9.991,0,0,1,.959,4.719s-1.36,5.922-5.04,1.8c0,0-1.641,8.96-6.8,6.16S579.756,494.2,588.157,496.358Z" transform="translate(-455.032 -411.533)" fill="#6a8096" stroke="#547394" stroke-width="1"/><path d="M590.94,496.181s3.806,6.446,8.889,4.732S598.534,493.377,590.94,496.181Z" transform="translate(-457.877 -411.408)" fill="#6a8096" stroke="#547394" stroke-width="1"/><path d="M554.113,480.975l23.9-18.689,38.182,1.14,29.455-43.988s-71.561-60.407-140.76,2.268Z" transform="translate(-441.918 -392.456)" fill="#abdaea" stroke="#547394" stroke-width="1"/><circle cx="2.467" cy="2.467" r="2.467" transform="translate(115.034 102.744)" fill="#fff" stroke="#547394" stroke-width="1"/><ellipse cx="1.108" cy="1.343" rx="1.108" ry="1.343" transform="matrix(0.846, -0.533, 0.533, 0.846, 125.804, 97.597)" fill="#547394"/><ellipse cx="1.108" cy="1.343" rx="1.108" ry="1.343" transform="translate(133.437 93.471) rotate(-25.898)" fill="#547394"/><path d="M588.08,514.94a9.994,9.994,0,0,0,4.2-2.6c1.334-1.71,2.474,3.2.6,4.082S588.894,516.975,588.08,514.94Z" transform="translate(-457.347 -414.477)" fill="#ffc5c5" stroke="#547394" stroke-width="1"/><path d="M483.235,470.051a2.734,2.734,0,0,0-3.367-1.895c-27.2,7.617-41.115,32.252-41.694,33.3a2.726,2.726,0,0,0,2.288,4.051,43.606,43.606,0,0,0-3,7.785,2.732,2.732,0,0,0,5.3,1.336c.038-.151,4-15.218,16.835-22.789a2.727,2.727,0,0,0-2.166-4.963,61.212,61.212,0,0,1,23.91-13.454A2.732,2.732,0,0,0,483.235,470.051Z" transform="translate(-429.395 -406.331)" fill="#f4f4f4" stroke="#547394" stroke-width="1"/><path d="M739.851,487.794a3.124,3.124,0,0,1-2.939-2.244c-3.589-12.246-15.3-18.739-15.416-18.8a3.122,3.122,0,0,1,2.968-5.494c.574.31,14.1,7.74,18.44,22.541a3.125,3.125,0,0,1-3.054,4Z" transform="translate(-481.79 -405)" fill="#f4f4f4" stroke="#547394" stroke-width="1"/><path d="M688.485,488.4c-1.082-2.142-3.7-1.63-5.571-.129l-.573.459-.95-1.881a2.844,2.844,0,0,0-4.507-.967h0a5.561,5.561,0,0,0-1.261,1.534,7.36,7.36,0,0,0,.187,7.621l3.632,5.478-.721.8,1.426.41-.2-.992,5.377-3.609a8.217,8.217,0,0,0,3.54-6.042A5.08,5.08,0,0,0,688.485,488.4Z" transform="translate(-473.404 -409.502)" fill="#8bd9c4" stroke="#547394" stroke-width="1"/><path d="M489.882,453.3a14.191,14.191,0,0,0-1.348-4.619c-.046-.12-.075-.188-.075-.188l-.014,0a14.328,14.328,0,1,0-24.515,14.683c.007.012.011.024.018.037,4.432,8.307,21.217,8.433,23.279,8.416v3.18l2.949-1.7-2.7-1.556C491.424,465.245,490.882,457.963,489.882,453.3Z" transform="translate(-433.833 -401.235)" fill="#fff89b" stroke="#547394" stroke-width="1"/><path d="M0,0H21.456V16.041H0Z" transform="translate(55.603 96.606) rotate(-25.898)" fill="#fae5b5" stroke="#547394" stroke-width="1"/><path d="M0,0H12.471V8.011H0Z" transform="translate(197.639 100.528)" fill="#fae5b5" stroke="#547394" stroke-width="1"/><path d="M680.1,504.556s-3.156,10.8-2.223,17.083" transform="translate(-473.971 -413.101)" fill="none" stroke="#547394" stroke-width="1"/><path d="M561.7,636.158l16.063,7.179,8.112-15.424" transform="translate(-452.453 -435.981)" fill="none" stroke="#af9c90" stroke-width="1"/><path d="M645.589,649.386l13.8,4.07,11.524-12.119" transform="translate(-468.014 -438.471)" fill="none" stroke="#af9c90" stroke-width="1"/><path d="M495.841,508.746,509,512.091l6.147-12.717" transform="translate(-440.239 -412.14)" fill="none" stroke="#af9c90" stroke-width="1"/><path d="M495.087,481.472s15.233,17.811,15.976,34" transform="translate(-440.098 -408.819)" fill="none" stroke="#547394" stroke-width="1"/><g transform="translate(231.919 112.856)"><path d="M728.093,532.682a4.493,4.493,0,0,0-6.247-1.015,4.435,4.435,0,0,0-1.613,2.158l-.006.011c-1.3,2.623,1.73,6.875,2.11,7.392l-.806.577.969.434-.1-.961a7.754,7.754,0,0,0,5.064-2.7,4.41,4.41,0,0,0,.924-1.177l.034-.053,0,0A4.425,4.425,0,0,0,728.093,532.682Z" transform="translate(-713.716 -530.83)" fill="#d3d7e0"/><path d="M717.333,550.509l-2.646-1.421-2.38,4.381,5.893,3.165,2.38-4.38-2.492-1.338a27.8,27.8,0,0,0,2.557-6.324Z" transform="translate(-712.307 -533.382)" fill="#d3d7e0"/></g><path d="M739.31,552.972s26.91.054,31.489-13.854-7.153-5.563-7.153-5.563,7.9-14.323-1.313-15S755.679,540.911,739.31,552.972Z" transform="translate(-489.041 -415.695)" fill="#fff89b" stroke="#547394" stroke-width="1"/><path d="M739.31,555.978s25.613-2.338,31.926-21.228C771.236,534.75,778.255,554.146,739.31,555.978Z" transform="translate(-489.041 -418.701)" fill="#f7bdba" opacity="0.8" style="mix-blend-mode:multiply;isolation:isolate"/><path d="M463.933,655.024s-26.723,3.172-32.881-10.112,6.46-6.354,6.46-6.354-9.5-13.312-.433-15.047S446.277,644.941,463.933,655.024Z" transform="translate(-427.907 -435.147)" fill="#f8b67b" stroke="#547394" stroke-width="1"/><path d="M463.847,657.781s-25.711.645-34.171-17.387C429.676,640.394,424.952,660.473,463.847,657.781Z" transform="translate(-427.933 -438.296)" fill="#c7d0ea" opacity="0.751" style="mix-blend-mode:multiply;isolation:isolate"/><path d="M567.327,473.33l-43.535-63.654s36.952-32.145,96.382-7.274l-16.321,60.5-22.33-.666Z" transform="translate(-445.423 -392.403)" fill="#f9f9f9" stroke="#547394" stroke-width="1"/><path d="M590.35,462.03l-18.515-67.3s24.34-5.966,56.74,7.746l-15.811,60.515Z" transform="translate(-454.334 -392.49)" fill="#d9dfe8" opacity="0.68"/><path d="M693.526,469.617q-1.866-1.968-3.8-3.763a4.044,4.044,0,0,0,.42-6.27c-30.663-28.856-72.825-27.658-74.607-27.593a4.073,4.073,0,0,0,.294,8.14,80.971,80.971,0,0,1,8.781.386,3.76,3.76,0,0,0,1.385,7.221c.377.007,37.517,1.144,62.068,27.056a3.764,3.764,0,1,0,5.464-5.178Z" transform="translate(-461.712 -399.637)" fill="#f4f4f4" stroke="#547394" stroke-width="1" opacity="0.8"/><path d="M602.57,464.3s40.631-31.865,37.784-57.55l23.417,15.193-29.455,43.988Z" transform="translate(-460.034 -394.959)" fill="#d2d7e8" opacity="0.672" style="mix-blend-mode:multiply;isolation:isolate"/><path d="M628.653,461.278a1.926,1.926,0,0,0,.035-.345,1.954,1.954,0,0,0-3.867-.4l-.041-.008s-1.28,8.48,0,9.365l1.649-.664s2.464-5.872,2.227-7.95Z" transform="translate(-464.048 -404.647)" fill="#f8b67b" stroke="#547394" stroke-width="1"/><path d="M639.347,463.706h0a1.95,1.95,0,0,0-3.744-1.047h0l0,.022a1.947,1.947,0,0,0-.119.652c0,.014,0,.026,0,.039a81.774,81.774,0,0,1-2.656,7.777s-2.286,1.475,1.033,1.041c3.1-.406,5.2-7.465,5.463-8.383.008-.032.02-.062.026-.094Z" transform="translate(-465.503 -405.092)" fill="#f8b67b" stroke="#547394" stroke-width="1"/><path d="M627.2,470.309c-5.179-.915-10.046,2.128-10.871,6.8a8.769,8.769,0,0,0,5.4,9.334l-1.777,1.344,2.745,1.16-.276-2.215a10.63,10.63,0,0,0,1.8.485c5.179.914,10.046-2.128,10.87-6.8S632.378,471.224,627.2,470.309Z" transform="translate(-462.564 -406.719)" fill="#f8b67b" stroke="#547394" stroke-width="1"/><path d="M617.964,478.032a6.993,6.993,0,0,1,6.351-5.655" transform="translate(-462.89 -407.132)" fill="none" stroke="#fff" stroke-width="1"/><line y1="5.701" x2="0.47" transform="translate(160.955 57.037)" fill="none" stroke="#fff" stroke-linecap="round" stroke-linejoin="round" stroke-width="1"/><line y1="5.845" x2="2.165" transform="translate(168.817 58.552)" fill="none" stroke="#fff" stroke-linecap="round" stroke-linejoin="round" stroke-width="1"/><path d="M625.761,487.662A8.53,8.53,0,0,0,634.88,484" transform="translate(-464.336 -409.289)" fill="none" stroke="#f7bdba" stroke-width="1" opacity="0.8" style="mix-blend-mode:multiply;isolation:isolate"/><path d="M619.37,493.222s-4.574,4.251-4.785,9.085-7.135,11.094-7.135,11.094" transform="translate(-460.939 -410.999)" fill="none" stroke="#547394" stroke-width="1"/><path d="M472.294,443.515s10.269-4.364,16.6,5.135" transform="translate(-435.871 -401.593)" fill="none" stroke="#fff" stroke-width="1"/><path d="M467.461,468.853s7.359,6.5,19.768,6.589" transform="translate(-434.974 -406.479)" fill="none" stroke="#f7bdba" stroke-width="1" opacity="0.8" style="mix-blend-mode:multiply;isolation:isolate"/><path d="M680.676,487.745s-4.022-2.834-4.45,4.359" transform="translate(-473.696 -409.881)" fill="none" stroke="#fff" stroke-width="1"/><path d="M682.109,500.652s3.937-2.311,4.878-3.851" transform="translate(-474.787 -411.663)" fill="none" stroke="#f7bdba" stroke-width="1" opacity="0.8" style="mix-blend-mode:multiply;isolation:isolate"/><path d="M687.118,572.016s17.282,12.583,17.046,32.1c0,0-.814,14.792,10,10.651a5.822,5.822,0,0,1-5.065,2.783s-1.046,3.381-8.46.56c0,0,1.178,11.242-13.525,3.916a11.074,11.074,0,0,0,3.638-9.244s9.4.78,9.278-16.71S687.118,572.016,687.118,572.016Z" transform="translate(-475.716 -425.613)" fill="#a9a2ba" opacity="0.512" style="mix-blend-mode:multiply;isolation:isolate"/><path d="M601.039,518.415l-18.429,6.929,8.412,16.049a6.686,6.686,0,0,0,5.922,3.581h4.9a25.566,25.566,0,0,0,11.469-2.716l4.05-2.033a11.987,11.987,0,0,0,6.477-7.946,48.784,48.784,0,0,1,1.461-5.8l2.007-5.6C627.736,519.559,601.039,518.415,601.039,518.415Z" transform="translate(-456.332 -415.671)" fill="#adc8d9" stroke="#547394" stroke-width="1"/><path d="M581.461,525.85s-.209,2.392,1.216,2.468c.565.03,13.93-6.743,16.633-7.116,7.246-1,22.79.424,27.986,1.158,0,0,1.816-2.251,0-3.113s-27.438-1.962-27.438-1.962-18.46,6.118-18.409,7.85" transform="translate(-456.117 -415.462)" fill="#b8d1dd" stroke="#547394" stroke-width="1"/><circle cx="2.467" cy="2.467" r="2.467" transform="translate(138.259 110.187)" fill="#fff" stroke="#547394" stroke-width="1"/><path d="M598.466,516.581s-3.6,4.265-1.312,11.336l4.884-.63S606.554,510.751,598.466,516.581Z" transform="translate(-458.889 -415.1)" fill="#abdaea" stroke="#547394" stroke-width="1"/><g transform="translate(149.866 105.863)"><path d="M617.156,522.723s-11.221,17.325-1.857,21.888,19.233-5.408,5.405-20.994l-.592-1.06-.907-.112c3.034,6.42,2.525,6.643,2.7,8.958l-3.637-.107s-1.717-7.132.591-8.737Z" transform="translate(-611.569 -522.281)" fill="#fff89b" stroke="#547394" stroke-width="1"/><ellipse cx="2.281" cy="5.465" rx="2.281" ry="5.465" transform="translate(2.195 23.303) rotate(-88.746)" fill="#bfb197" opacity="0.55" style="mix-blend-mode:multiply;isolation:isolate"/><path d="M621.269,531.927s-4.455-.863-4.25,2.616-.161,3.721,3.538,3.6,5.591-.077,5.591-.077a4.623,4.623,0,0,0,.181-4.3C625.291,531.137,621.269,531.927,621.269,531.927Z" transform="translate(-612.579 -524.02)" fill="#fff89b" stroke="#547394" stroke-width="1"/><path d="M622.052,540.432l3.805-.053-.044-1.912-3.8.053Z" transform="translate(-613.506 -525.253)" fill="#d8d4ce" stroke="#547394" stroke-width="1"/><path d="M616.4,525.949l1.874.948s-.011-4.266,1.479-4.375,2.3,4.035,2.3,4.035l2.049.125s-3.216-5.647-5.83-4.2Z" transform="translate(-612.465 -522.244)" fill="#bfb197" opacity="0.55" style="mix-blend-mode:multiply;isolation:isolate"/><ellipse cx="0.801" cy="2.791" rx="0.801" ry="2.791" transform="matrix(0.024, -1, 1, 0.024, 5.414, 9.71)" fill="#cec3b2" opacity="0.55"/></g><g transform="translate(169.396 0.944)"><path d="M660.308,402.979c4.367-3,4.78-8.682,3.7-9.48s-8.252,5.913-14.955,8.908a36.335,36.335,0,0,1-8.988,2.813,4.57,4.57,0,0,0-1.013.126h0A4.58,4.58,0,1,0,643,413.368h0c14.734,5.212,11.349-2.846,11.349-2.846C667.193,406.873,660.308,402.979,660.308,402.979Z" transform="translate(-635.547 -393.434)" fill="#fff" stroke="#547394" stroke-width="1"/><path d="M644.7,417.008a3.455,3.455,0,0,0,1.058-3.856" transform="translate(-637.244 -397.091)" fill="#fff" stroke="#547394" stroke-width="1"/></g><path d="M628.333,523.14s-27.567-4.7-30.817,22.283c0,0,11.787.864,15.176-.741,0,0,10.552,5.217,12.517-8.133s-.262-.982-.262-.982,3.3-11.675,4.612-12.426Z" transform="translate(-459.097 -416.49)" fill="#a9a2ba" opacity="0.15" style="mix-blend-mode:multiply;isolation:isolate"/><path d="M646.1,417.183s7.2-2.307,9.922-.591c0,0,.3,3.253-6.269,2.011l-4.28-1.181Z" transform="translate(-467.991 -396.668)" fill="#d2d7e8" opacity="0.5"/><path d="M658.071,413s2.044-4.068,6.5-3.734S658.071,413,658.071,413Z" transform="translate(-470.329 -395.424)" fill="#d2d7e8" opacity="0.5"/><path d="M665.23,404.331s.148-2.934,2.265-2.005,0-.182,0-.182A3.6,3.6,0,0,1,665.23,404.331Z" transform="translate(-471.657 -394.106)" fill="#d2d7e8" opacity="0.5"/><path d="M498.459,433.626s12.158,9.2,16.9,9.422l-9.363-10.39Z" transform="translate(-440.724 -399.765)" fill="#d2d7e8" opacity="0.5"/><path d="M537.751,472.147c-1.644,0-3.151-.314-3.787-1.314-.384-.606-.612-1.639.49-3.12,1.513-2.033,12.284-10.72,29.517-15.5,15.171-4.206,39.149-6.29,67.222,7.669,1.839.8,4.025,2.136,3.674,3.821-.321,1.537-2.256,2.137-6.9,2.137-.674,0-.507-.42-.507-1.095s.354-1.352,1.029-1.352a13.783,13.783,0,0,0,3.5-.286,11.125,11.125,0,0,0-1.824-1.011c-50.959-25.337-90.281,2.419-93.746,7.073a2.771,2.771,0,0,0-.243.378,12.653,12.653,0,0,0,5-.226c.661-.133.674.475.807,1.135s.626,1.069-.034,1.2A22.068,22.068,0,0,1,537.751,472.147Z" transform="translate(-447.251 -402.809)" fill="#fff89b" stroke="#547394" stroke-width="1"/><path d="M606.275,505.148A325.4,325.4,0,0,0,591.3,452.672" transform="translate(-457.944 -403.477)" fill="none" stroke="#547394" stroke-width="1"/><path d="M636.165,509.288c1.92-28.958,13.01-44.223,13.01-44.223" transform="translate(-466.266 -405.776)" fill="none" stroke="#547394" stroke-width="1"/><path d="M622.076,598.229a14.313,14.313,0,0,0,2.864,3.36,7.569,7.569,0,0,0,11.59-3.417c.833-2.142,2.065-4.113,3.586-3,2.916,2.136,19.426.053,20.448-12.228,0,0,8.522,15.06,13.592,16.22a5.091,5.091,0,0,0,5.833-4.872s6.765,8.184,7.368,6c0,0-.51,7.4-2.424,8.163,0,0-2.032-6.727-8.1-4.193l-.687-1.293s-8.974,3.013-14.762-14.951a16.512,16.512,0,0,1-4.575,11.073c-5.091,4.954-14.508,8.368-18.016,1.5,0,0-4.962,4.43-8.245,5.509S621.374,604.215,622.076,598.229Z" transform="translate(-463.642 -427.64)" fill="#a9a2ba" opacity="0.512" style="mix-blend-mode:multiply;isolation:isolate"/><path d="M668.043,574.094a51.613,51.613,0,0,1-16.625-3.327,1.064,1.064,0,1,1,.78-1.979c.146.056,14.679,5.69,23.413,1.807a1.064,1.064,0,1,1,.865,1.943A20.846,20.846,0,0,1,668.043,574.094Z" transform="translate(-468.97 -425.001)" fill="#eaeff4" opacity="0.373"/><ellipse cx="2.733" cy="1.63" rx="2.733" ry="1.63" transform="translate(205.789 182.254)" fill="#ffc2b0" opacity="0.48"/><ellipse cx="2.733" cy="1.63" rx="2.733" ry="1.63" transform="translate(164.421 182.254)" fill="#ffc2b0" opacity="0.48"/><path d="M471.216,589.419l-.8-2.308a44.907,44.907,0,0,0,27.75-26.805l2.343.693C500.262,561.828,494.242,581.423,471.216,589.419Z" transform="translate(-435.522 -423.441)" fill="#eaeff4" opacity="0.208"/><path d="M588.431,497.014s-.507,6.243-4.778,3.7c0,0-4.043,11.473-8.014,4.9,0,0,.958,5.118,4.116,3.588S584,502.255,584,502.255s2.1,3.15,3.706,1.319S588.431,497.014,588.431,497.014Z" transform="translate(-455.039 -411.702)" fill="#a9a2ba" opacity="0.15" style="mix-blend-mode:multiply;isolation:isolate"/><path d="M578.245,494.116s9.336-5.939,18.234-1.022l1.449,2.832-3.986-1.218-3.946.251S582.685,492.866,578.245,494.116Z" transform="translate(-455.523 -410.613)" fill="#d2d7e8" opacity="0.35" style="mix-blend-mode:multiply;isolation:isolate"/><path d="M509.611,650.671s14.9,23.394,53.5-1.894c0,0,2,5.665-7.838,9.386s-11.429,11.4-43.122,5.462C512.149,663.625,505.118,659.98,509.611,650.671Z" transform="translate(-442.514 -439.851)" fill="#abdaea" opacity="0.809" style="mix-blend-mode:multiply;isolation:isolate"/><path d="M470.414,607.529" transform="translate(-435.522 -432.2)" fill="#fff"/><path d="M468.767,605.91a105.876,105.876,0,0,0,24.939-4.941c14.673-4.755,31.751-13.491,32.363-15.463,0,0,2.2,8.6-9.175,11.992,0,0,1.645,10.177-10.319,9.1,0,0-3.148,5.13-7.889,6.048,0,0-8.513,8.44,2.88,15.649l1.908,7.911L500,637.9S475.857,644.95,468.767,605.91Z" transform="translate(-435.217 -428.115)" fill="#a9a2ba" opacity="0.321" style="mix-blend-mode:multiply;isolation:isolate"/><path d="M545.427,570.569s-.893,8.174-6.592,12.167,10.057,3.308,10.545-6.083C549.38,576.653,549.576,574.115,545.427,570.569Z" transform="translate(-447.983 -425.345)" fill="#a9a2ba" opacity="0.15" style="mix-blend-mode:multiply;isolation:isolate"/><path d="M497.276,512.182s7.759,8.879,19,6.98l-13.338,6.026Z" transform="translate(-440.505 -414.515)" fill="#ddd5af" opacity="0.563" style="mix-blend-mode:multiply;isolation:isolate"/></g><path d="M427.619,551.864l-.146.565-.534-.235c-1.745-.769-3.9-.638-4.38,1.209v0a4.206,4.206,0,0,0,2.3,4.738l.533.235,6.322,2.785,1.868-7.253a4.207,4.207,0,0,0-2.3-4.737h0C429.535,548.4,428.095,550.018,427.619,551.864Z" transform="translate(0 -29.065)" fill="#cbe3f6"/><path d="M738.892,583.959l-.341.264-.206-.38c-.672-1.243-2-2.147-3.113-1.282h0a3.117,3.117,0,0,0-.807,3.818l.205.38,2.435,4.5,4.388-3.4a3.117,3.117,0,0,0,.807-3.817h0C741.587,582.8,740.01,583.094,738.892,583.959Z" transform="translate(-57.803 -35.231)" fill="#fff"/><path d="M571.636,682.769l-.04.431-.419-.109c-1.368-.355-2.932,0-3.059,1.405v0a3.118,3.118,0,0,0,2.245,3.192l.417.108,4.955,1.285.5-5.526a3.116,3.116,0,0,0-2.244-3.191h0C572.626,680.01,571.764,681.362,571.636,682.769Z" transform="translate(-27.018 -53.424)" fill="#fff"/><path d="M460.12,583.959l-.342.264-.205-.38c-.672-1.243-2-2.147-3.113-1.282h0a3.118,3.118,0,0,0-.807,3.818l.205.38,2.435,4.5,4.388-3.4a3.118,3.118,0,0,0,.807-3.817h0C462.815,582.8,461.238,583.094,460.12,583.959Z" transform="translate(-6.097 -35.231)" fill="#fff"/><path d="M701.848,454.141a9.781,9.781,0,0,1,4.949-8.508c-5.109-1.535-4.949-9.729-4.949-9.729h0s.161,8.193-4.948,9.729a9.779,9.779,0,0,1,4.948,8.508Z" transform="translate(-50.906 -8.092)" fill="#ffe9c2"/><path d="M517.036,492.3a9.174,9.174,0,0,1,4.642-7.981c-4.793-1.44-4.642-9.125-4.642-9.125h0s.151,7.685-4.642,9.125a9.174,9.174,0,0,1,4.642,7.981Z" transform="translate(-16.684 -15.38)" fill="#ffe9c2"/><path d="M692.314,592.688s5.534,2.027,2.528,13.9a12.872,12.872,0,0,0-5.682-.52l-.685-1.561s8.255-.331,3.839-11.819" transform="translate(-49.344 -37.172)" fill="#a9a2ba" opacity="0.32" style="mix-blend-mode:multiply;isolation:isolate"/><path d="M554.113,482.44S511.07,425.3,537.874,401.152c0,0-30.12,15.678-32.98,22.019Z" transform="translate(-15.293 -1.646)" fill="#d2d7e8" opacity="0.571" style="mix-blend-mode:multiply;isolation:isolate"/><path d="M592.861,498.01s7.082,2.617,6.9.746c0,0-.353-2.176-1.96-2.693s3.474.065,3.964,3.183S594.865,501.54,592.861,498.01Z" transform="translate(-31.609 -19.22)" fill="#a9a2ba" opacity="0.15" style="mix-blend-mode:multiply;isolation:isolate"/><path d="M646.492,669.366s27.087,12.58,40.737-18.925l2.314,5.477s-13.538,26.541-42.272,24.866Z" transform="translate(-41.557 -47.884)" fill="#a9a2ba" opacity="0.325" style="mix-blend-mode:multiply;isolation:isolate"/></g></svg>