<svg xmlns="http://www.w3.org/2000/svg" xmlns:xlink="http://www.w3.org/1999/xlink" width="304.073" height="249.883" viewBox="0 0 304.073 249.883"><defs><linearGradient id="a" x1="0.5" x2="0.5" y2="1" gradientUnits="objectBoundingBox"><stop offset="0" stop-color="#fff"/><stop offset="1" stop-color="#fff"/></linearGradient><linearGradient id="b" x1="0.5" x2="0.5" y2="1" gradientUnits="objectBoundingBox"><stop offset="0" stop-color="#f2f7ff"/><stop offset="0.099" stop-color="#fff"/><stop offset="0.872" stop-color="#f7f7f7"/><stop offset="1" stop-color="#f6f5ff"/></linearGradient><linearGradient id="c" y1="0.5" x2="1" y2="0.5" gradientUnits="objectBoundingBox"><stop offset="0" stop-color="#fff" stop-opacity="0"/><stop offset="0.046" stop-color="#fefdfc" stop-opacity="0.078"/><stop offset="0.194" stop-color="#fbf9f6" stop-opacity="0.322"/><stop offset="0.342" stop-color="#f9f6f1" stop-opacity="0.529"/><stop offset="0.487" stop-color="#f7f3ed" stop-opacity="0.698"/><stop offset="0.628" stop-color="#f5f0ea" stop-opacity="0.831"/><stop offset="0.762" stop-color="#f4efe7" stop-opacity="0.925"/><stop offset="0.889" stop-color="#f4eee6" stop-opacity="0.98"/><stop offset="1" stop-color="#f4eee6"/></linearGradient></defs><g transform="translate(-841.596 -381.044)"><path d="M141.386,0c78.085,0,141.386,54.373,141.386,121.446s-63.3,121.446-141.386,121.446S0,188.518,0,121.446,63.3,0,141.386,0Z" transform="translate(852.909 381.044)" opacity="0.186" fill="url(#a)"/><path d="M1141.546,571.808a15.218,15.218,0,0,1-1.479,1.594,59.43,59.43,0,0,1-4.174,9.172c.012.153.025.312.031.47a16.169,16.169,0,0,1-10.963,15.717q-2.457,3.1-5.249,6.288c.067.483.116.965.14,1.46.4,8.854-6.929,16.377-16.377,16.8a17.789,17.789,0,0,1-2.292-.043c-.165.141-.33.287-.5.422-.006.012-.012.012-.018.018q-2,1.705-4.082,3.379c-.96,5.592-4.816,9.851-9.613,10.065a8.458,8.458,0,0,1-3.342-.532c-.086.055-.166.116-.251.171-1.918,6.38-8.976,11.323-17.617,11.714-.764.037-1.522.031-2.262-.006a183.1,183.1,0,0,1-80.631,20.135,143.85,143.85,0,0,1-20.025-1.039l-1.54-.2a135.992,135.992,0,0,1-49.161-16.579c-.329-.189-.66-.372-.99-.562-29.277-16.86-48.63-41.687-59.311-58.584-5.114-4-7.76-11.409-8.94-19.908a117.532,117.532,0,0,1-.324-24.486,23.639,23.639,0,0,1,32.747,30.5,13.027,13.027,0,0,1,7.187,11.066,12.873,12.873,0,0,1-.306,3.447,11.333,11.333,0,0,1,8.738,14.488,17.242,17.242,0,0,1,29.094,11.727,17.509,17.509,0,0,1-.116,2.9c.349-.049.7-.085,1.063-.1a12.629,12.629,0,0,1,11.769,6.789,12.621,12.621,0,0,1,18.388,7.455,14.879,14.879,0,0,1,21.76-1.308c5.12-4.344,14.245-7.485,24.767-7.956,9.3-.422,17.7,1.325,23.325,4.406a21.017,21.017,0,0,1,14.293-6.111,21.8,21.8,0,0,1,12.661,3.2c2.86-5.036,9.087-8.69,16.469-9.02a22.1,22.1,0,0,1,11.708,2.628c.868-5.744,4.779-10.144,9.661-10.37h.3a15.211,15.211,0,0,1-.434-2.958c-.4-8.854,6.936-16.371,16.377-16.8.538-.024,1.063-.024,1.589,0a15.173,15.173,0,0,1-1.889-6.667c-.349-7.656,5.09-14.317,12.68-16.248a16.111,16.111,0,1,1,27.138,3.465Z" transform="translate(0 -38.227)" stroke="#547394" stroke-linecap="round" stroke-linejoin="round" stroke-width="1" fill="url(#b)"/><path d="M1073.54,544.216c-5.373-4.7-15.75-6.279-20.83-6.784-.59-.142-6.844-.131-6.844-.131-3.37.52-1.832,9.907-1.832,13.483,0,2.329,9.448.677,15.427,1.606,2.239.348,3.222-.408,2.324,1.672-1.244,2.881-1.236,5.856,5.922,3.6C1080.006,553.783,1073.54,544.216,1073.54,544.216Z" transform="translate(-47.153 -36.55)" fill="#fff89b" stroke="#547394" stroke-linecap="round" stroke-linejoin="round" stroke-width="1"/><path d="M989.7,627.237s2.755,29.126,7.675,28.535,5.276-36.014,5.276-36.014Z" transform="translate(-34.527 -55.838)" fill="#fff" stroke="#547394" stroke-miterlimit="10" stroke-width="1"/><path d="M1031.447,627.237s2.756,29.126,7.675,28.535,5.276-36.014,5.276-36.014Z" transform="translate(-44.291 -55.838)" fill="#fff" stroke="#547394" stroke-miterlimit="10" stroke-width="1"/><path d="M993.635,438.053s-14.426-22.639-44.453,0-30.5,74.975-39.559,74.782-9.294,11.485,1.907,7.2-15.967,16.682-6.673,24.069,22.162-5.242,22.162-5.242-1.191,10.247,11.678,2.859c0,0,15.49,3.575,29.788-15.966S1007.585,474.038,993.635,438.053Z" transform="translate(-14.218 -10.982)" fill="#aa9d8f" stroke="#547394" stroke-miterlimit="10" stroke-width="1"/><path d="M984.345,438.787s-34.5-3.346-48.482,30.229-5.421,40.13-14.621,56.8c-4.69,8.5-10.085,18.931-9.8,23.1,0,0,11.656-.086,17.579-7.561,0,0-1.046,9.912,11.678,2.859,0,0,14.061,3.646,28.528-14.346S984.345,438.787,984.345,438.787Z" transform="translate(-16.217 -13.485)" fill="#a9a2ba" opacity="0.562" style="mix-blend-mode:multiply;isolation:isolate"/><path d="M984.327,441s-49.884,6.057-44.959,54.264,75.939,20.946,75.939,20.946,35.746-19.9,20.018-53.633S988.14,437.905,984.327,441Z" transform="translate(-22.672 -13.216)" fill="#aa9d8f" stroke="#547394" stroke-miterlimit="10" stroke-width="1"/><path d="M1019.943,458.5s21.856,5.818,38.072,31.071c0,0-1.247,11.157-6.228,15.064,0,0,.5-23.8-24.739-32.918C1027.049,471.715,1026.007,460.67,1019.943,458.5Z" transform="translate(-41.6 -18.117)" fill="#a9a2ba" opacity="0.503" style="mix-blend-mode:multiply;isolation:isolate"/><circle cx="8.372" cy="8.372" r="8.372" transform="translate(922.704 494.015)" fill="#fff" stroke="#547394" stroke-miterlimit="10" stroke-width="1"/><path d="M983.665,571.332,971.594,618.55s48.429,2.97,69.93-4.788c0,0-17.166-54.252-15.588-70.9S980.26,554.35,980.26,554.35s-16.618,20.4-17.114,30.948c0,0,8.707,8.511,10.434,7.885S983.665,571.332,983.665,571.332Z" transform="translate(-28.314 -36.618)" fill="#fff89b" stroke="#547394" stroke-linecap="round" stroke-linejoin="round" stroke-width="1"/><path d="M1025.694,550.562s-48.905,6.546-58.378,35.664c0,0-2.86,3.286-4.17.681,0,0,7.056-23.342,17.081-30.063s45.709-12.377,45.709-12.377Z" transform="translate(-28.314 -38.227)" fill="#ffc7c7" opacity="0.466" style="mix-blend-mode:multiply;isolation:isolate"/><circle cx="8.372" cy="8.372" r="8.372" transform="translate(998.104 462.378)" fill="#fff" stroke="#547394" stroke-miterlimit="10" stroke-width="1"/><path d="M1036.049,498.714c5.146,17.9-9.787,31.559-31.276,37.737s-41.393,2.539-46.541-15.365,6.413-43.292,27.9-49.47S1030.9,480.81,1036.049,498.714Z" transform="translate(-26.881 -20.861)" fill="#fff" stroke="#547394" stroke-miterlimit="10" stroke-width="1"/><path d="M1013.132,476.557s-2.261,32.174-22.054,33.271c0,0-6.154-.252-8.12-2.874l-34.415,23.191s-5.735-9.989,6.169-14.049v-4.26s13.148,11.138,27.7-10.237l27.729-26.376Z" transform="translate(-24.576 -22.03)" fill="url(#c)"/><ellipse cx="33.853" cy="5.914" rx="33.853" ry="5.914" transform="translate(1016.076 588.828)" fill="#9fcefc" opacity="0.43" style="mix-blend-mode:multiply;isolation:isolate"/><path d="M1009.264,538.967s14.3,5.06,18.51-9.664" transform="translate(-39.102 -34.68)" fill="none" stroke="#547394" stroke-miterlimit="10" stroke-width="1"/><path d="M944.582,483.267c-3.525.742-2.17,15.683-6.814,17.232s-9.8,10.448,0,15.092,13.441-7.337,13.441-7.337c18.326,14.16,27.7-10.237,27.7-10.237,1.231,10.662,14.2,4.931,21.581-3.514,11.863-13.572,3.578-31.365,3.578-31.365s-2.636-3.66-4.69-3.185" transform="translate(-21.073 -18.448)" fill="#aa9d8f" stroke="#547394" stroke-miterlimit="10" stroke-width="1"/><circle cx="7.195" cy="7.195" r="7.195" transform="translate(931.807 547.999)" fill="#fff" stroke="#547394" stroke-miterlimit="10" stroke-width="1"/><path d="M1122.125,663.382s7.9,1.526,11.653-2.14l-5.524-2.078Z" transform="translate(-65.502 -65.056)" fill="#ffdddc" stroke="#547394" stroke-linecap="round" stroke-linejoin="round" stroke-width="1"/><path d="M1020.629,577.053l-.745,1.116-1.057-.83c-3.45-2.713-8.509-3.755-10.946-.107l0,0a8.729,8.729,0,0,0,1.834,11.524l1.054.828,12.5,9.824,9.569-14.337A8.73,8.73,0,0,0,1031,573.552h0C1027.551,570.839,1023.066,573.4,1020.629,577.053Z" transform="translate(-38.45 -44.765)" fill="#f8b67b" stroke="#547394" stroke-miterlimit="10" stroke-width="1"/><ellipse cx="4.621" cy="3.458" rx="4.621" ry="3.458" transform="translate(959.796 593.028)" fill="#a9a2ba" stroke="#547394" stroke-miterlimit="10" stroke-width="1"/><ellipse cx="4.621" cy="3.458" rx="4.621" ry="3.458" transform="translate(990.865 593.028)" fill="#a9a2ba" stroke="#547394" stroke-miterlimit="10" stroke-width="1"/><path d="M1064.88,567.064l-.977,11.395q-.977,11.405-1,22.869l-.079,33.96a3.6,3.6,0,0,0,3.473,3.706h2.531V628.055c0-2.413,1.519-4.369,3.393-4.369h32.644c1.873,0,3.392,1.956,3.392,4.369v10.938h3.873a2.657,2.657,0,0,0,2.57-2.386l9.235-81.707h-50.143C1068.868,554.9,1064.88,560.346,1064.88,567.064Z" transform="translate(-51.629 -40.667)" fill="#f8b67b" stroke="#547394" stroke-miterlimit="10" stroke-width="1"/><path d="M1070.657,659.93l2.08-1.731a2.508,2.508,0,0,0,.9-2.075c-.182-3.023-.292-11.5,4.161-11.5,0,0-6.947-1.485-7.046,3.335S1070.657,659.93,1070.657,659.93Z" transform="translate(-53.463 -61.604)" fill="#e5a5a3" stroke="#547394" stroke-miterlimit="10" stroke-width="1"/><path d="M1138.073,661.877" transform="translate(-69.232 -65.69)" fill="none" stroke="#547394" stroke-miterlimit="10" stroke-width="1"/><rect width="33.714" height="6.055" rx="2.904" transform="translate(1021.233 526.406)" fill="#e2a3a3"/><path d="M1151.734,651.088h-2.1a2.1,2.1,0,0,1-2.029-2.164c0-4.019-.138-12.187-1.265-11.712,0,0,2.986-1.86,4.118-.747s1.443,2,1.272,14.748" transform="translate(-71.167 -59.663)" fill="#e5a5a3" stroke="#547394" stroke-miterlimit="10" stroke-width="1"/><rect width="33.714" height="6.055" rx="2.904" transform="translate(1020.381 525.495)" fill="#f8b67b" stroke="#547394" stroke-miterlimit="10" stroke-width="1"/><rect width="34.038" height="34.448" rx="2.881" transform="translate(1020.381 537.718)" fill="none" stroke="#547394" stroke-miterlimit="10" stroke-width="1"/><path d="M1138.912,554.9c-5.477,0-9.917,6.265-9.917,13.993l.83,22.908.037,43.58a2.4,2.4,0,0,0,3.181,2.38l2.343-.908V623.385a3.141,3.141,0,0,1,1.651-2.955l7.517-3.17c1.542-.65,3.123.846,3.123,2.955v11.877h0a5.2,5.2,0,0,0,3.214-4.894l-.031-24.89q-.016-12.739-1.209-25.43l-.82-8.725C1148.83,560.425,1144.39,554.9,1138.912,554.9Z" transform="translate(-67.108 -40.667)" fill="#f8b67b" stroke="#547394" stroke-miterlimit="10" stroke-width="1"/><circle cx="7.195" cy="7.195" r="7.195" transform="translate(1011.191 510.677)" fill="#fff" stroke="#547394" stroke-miterlimit="10" stroke-width="1"/><path d="M1008.542,480.045s-7.587,20.323-15.906,21.331-9.831-6.718-9.831-6.718-11.252,22.84-21.665,19.314-8.228-10.491-8.228-10.491.327,14.583-13.441,16.82c0,0,8.4,5.091,13.441-7.337,0,0,16.1,13.955,27.7-10.237,0,0,2.632,12.635,16.184,1.443S1008.542,480.045,1008.542,480.045Z" transform="translate(-22.777 -23.158)" fill="#a9a2ba" opacity="0.503" style="mix-blend-mode:multiply;isolation:isolate"/><path d="M946.64,487.823c-5.053,1.135-7.093,10.521-7.524,12.854-.062.334-.091.523-.091.523l.342,5.828s2.841-3.457,3.465-6.91S946.64,487.823,946.64,487.823Z" transform="translate(-22.672 -24.977)" fill="#a9a2ba" opacity="0.32" style="mix-blend-mode:multiply;isolation:isolate"/><path d="M954.462,459.35a31.51,31.51,0,0,0,23.036-6.836c11.108-8.835,9.043-7.5,9.043-7.5" transform="translate(-26.283 -14.947)" fill="none" stroke="#eaeff4" stroke-miterlimit="10" stroke-width="4" opacity="0.25"/><path d="M1050.987,550.852s9.043-9.585,23.71-4.135a8.9,8.9,0,0,0-4.455-4.662c-3.32-1.49-19.439-4.465-19.439-4.465l-7.114,6.177,1.567,8.111Z" transform="translate(-47.154 -36.618)" fill="#ffc7c7" opacity="0.466" style="mix-blend-mode:multiply;isolation:isolate"/><g transform="translate(1024.587 541.84)"><path d="M1080.307,595.317v-.09l.479-.231v-3.077l-.479-.231v-.09h1.865v.09l-.535.231v3.089h1.24l.457-1.066h.09v1.375Z" transform="translate(-1080.307 -591.091)" fill="#547394"/><path d="M1086.288,595.707a1.238,1.238,0,0,1-.915-.335,1.2,1.2,0,0,1-.336-.888,1.516,1.516,0,0,1,.186-.758,1.356,1.356,0,0,1,1.206-.7.874.874,0,0,1,.71.3,1.337,1.337,0,0,1,.26.863l-.023.028H1085.8v.028a1,1,0,0,0,.09.431.685.685,0,0,0,.285.307,1,1,0,0,0,.5.113,1.544,1.544,0,0,0,.341-.04,1.607,1.607,0,0,0,.369-.135h.017v.09a1.223,1.223,0,0,1-.431.5A1.192,1.192,0,0,1,1086.288,595.707Zm.011-2.428a.381.381,0,0,0-.324.18,1.082,1.082,0,0,0-.161.507h.953a1.073,1.073,0,0,0-.161-.539A.381.381,0,0,0,1086.3,593.279Z" transform="translate(-1081.413 -591.425)" fill="#547394"/><path d="M1089.669,595.535a.992.992,0,0,1-.563-.146.466.466,0,0,1-.221-.411v-1.815h-.405v-.08l.518-.174.57-.621h.107v.621h.783v.254h-.783v1.673a.227.227,0,0,0,.123.214.6.6,0,0,0,.293.067,1.144,1.144,0,0,0,.188-.014c.054-.01.108-.02.161-.031l.017.012v.1a.837.837,0,0,1-.31.245A1.033,1.033,0,0,1,1089.669,595.535Z" transform="translate(-1082.219 -591.253)" fill="#547394"/><path d="M1092.508,595.535a.992.992,0,0,1-.563-.146.464.464,0,0,1-.22-.411v-1.815h-.406v-.08l.519-.174.569-.621h.107v.621h.783v.254h-.783v1.673a.228.228,0,0,0,.123.214.605.605,0,0,0,.293.067,1.162,1.162,0,0,0,.189-.014c.054-.01.108-.02.16-.031l.017.012v.1a.827.827,0,0,1-.309.245A1.033,1.033,0,0,1,1092.508,595.535Z" transform="translate(-1082.883 -591.253)" fill="#547394"/><path d="M1095.572,595.707a1.238,1.238,0,0,1-.915-.335,1.2,1.2,0,0,1-.336-.888,1.515,1.515,0,0,1,.186-.758,1.353,1.353,0,0,1,1.206-.7.871.871,0,0,1,.709.3,1.329,1.329,0,0,1,.26.863l-.022.028h-1.578v.028a1.006,1.006,0,0,0,.09.431.678.678,0,0,0,.284.307,1,1,0,0,0,.5.113,1.528,1.528,0,0,0,.34-.04,1.616,1.616,0,0,0,.37-.135h.016v.09a1.22,1.22,0,0,1-.431.5A1.194,1.194,0,0,1,1095.572,595.707Zm.011-2.428a.381.381,0,0,0-.323.18,1.079,1.079,0,0,0-.161.507h.952a1.066,1.066,0,0,0-.16-.539A.381.381,0,0,0,1095.583,593.279Z" transform="translate(-1083.585 -591.425)" fill="#547394"/><path d="M1097.933,595.651v-.09l.372-.18V593.7l-.355-.264v-.068l1.026-.343h.067l.051.507h.028a2.025,2.025,0,0,1,.242-.324.584.584,0,0,1,.2-.146.574.574,0,0,1,.208-.037.464.464,0,0,1,.1.014.931.931,0,0,1,.1.031c.113.033.169.087.169.158a.218.218,0,0,1-.022.1l-.136.366h-.039l-.147-.051a.9.9,0,0,0-.3-.051.513.513,0,0,0-.411.219v1.573l.456.18v.09Z" transform="translate(-1084.43 -591.425)" fill="#547394"/><path d="M1101.368,595.185v-3.607l-.36-.264v-.067l1.082-.31h.067v1.938h.034a1.437,1.437,0,0,1,.394-.26,1.1,1.1,0,0,1,.418-.078.809.809,0,0,1,.464.148,1.045,1.045,0,0,1,.347.426,1.737,1.737,0,0,1-.054,1.434,1.313,1.313,0,0,1-.482.5,1.283,1.283,0,0,1-.66.174,1.836,1.836,0,0,1-.445-.05,1.259,1.259,0,0,1-.378-.163l-.361.18Zm1.167-2.186a.6.6,0,0,0-.189.028,1.093,1.093,0,0,0-.188.084v1.629a.536.536,0,0,0,.422.186.489.489,0,0,0,.274-.087.625.625,0,0,0,.218-.307,1.807,1.807,0,0,0,.084-.621,1.043,1.043,0,0,0-.192-.689A.559.559,0,0,0,1102.535,593Z" transform="translate(-1085.149 -590.936)" fill="#547394"/><path d="M1106.8,595.707a1.342,1.342,0,0,1-.7-.182,1.3,1.3,0,0,1-.474-.488,1.431,1.431,0,0,1,0-1.347,1.272,1.272,0,0,1,.474-.485,1.355,1.355,0,0,1,.7-.18,1.337,1.337,0,0,1,.7.18,1.275,1.275,0,0,1,.471.485,1.429,1.429,0,0,1,0,1.347,1.3,1.3,0,0,1-.471.488A1.324,1.324,0,0,1,1106.8,595.707Zm.061-.276a.324.324,0,0,0,.268-.133.874.874,0,0,0,.153-.352,2.236,2.236,0,0,0,.047-.468,2.719,2.719,0,0,0-.059-.575,1.136,1.136,0,0,0-.186-.439.4.4,0,0,0-.335-.169.341.341,0,0,0-.277.132.864.864,0,0,0-.158.35,2.05,2.05,0,0,0-.052.47,2.59,2.59,0,0,0,.062.578,1.11,1.11,0,0,0,.195.437A.416.416,0,0,0,1106.866,595.431Z" transform="translate(-1086.19 -591.425)" fill="#547394"/><path d="M1109.239,595.668v-.09l.293-.175.778-.913-.817-1.149-.254-.152v-.09h1.533v.09l-.316.146v.035l.428.6.44-.568v-.034l-.287-.181v-.09h1.008v.09l-.3.175-.7.834.867,1.229.232.152v.09h-1.5v-.09l.31-.146V595.4l-.49-.687-.49.654v.034l.31.18v.09Z" transform="translate(-1087.075 -591.442)" fill="#547394"/></g><path d="M1094.976,605.026l-.417.455-.422-.451c-1.378-1.475-3.6-2.3-4.968-.816v0a4.013,4.013,0,0,0,.026,5.366l.421.45,4.993,5.342,5.355-5.846a4.015,4.015,0,0,0-.026-5.367h0C1098.559,602.687,1096.34,603.537,1094.976,605.026Z" transform="translate(-57.555 -52.01)" fill="#547394"/><rect width="27.382" height="1.821" transform="translate(1023.362 527.612)" fill="#547394"/><ellipse cx="24.37" cy="2.33" rx="24.37" ry="2.33" transform="translate(956.212 598.326)" fill="#9fcefc" opacity="0.43" style="mix-blend-mode:multiply;isolation:isolate"/><path d="M979.4,428s-35.382,3.28-53.5,59.165" transform="translate(-19.602 -10.983)" fill="none" stroke="#eaeff4" stroke-miterlimit="10" stroke-width="4" opacity="0.25"/><path d="M1100.91,631.712q-2,1.705-4.082,3.379c-.96,5.592-4.816,9.851-9.613,10.065a8.46,8.46,0,0,1-3.342-.532c-.086.055-.166.116-.251.171-1.918,6.38-8.976,11.324-17.617,11.714-.764.037-1.521.031-2.261-.006a183.1,183.1,0,0,1-80.63,20.135,143.851,143.851,0,0,1-20.025-1.039,4.576,4.576,0,0,1,.3-.856c-.586.232-1.2.453-1.839.654a135.991,135.991,0,0,1-49.161-16.579,8.65,8.65,0,0,1,.263-1.381,10.237,10.237,0,0,1-1.253.819c-29.277-16.86-48.63-41.687-59.311-58.584-5.114-4-7.76-11.409-8.939-19.908A18.03,18.03,0,0,1,849.3,578.7a18.282,18.282,0,0,1,18.283,18.283c0,.507-.031,1.008-.067,1.509a18.284,18.284,0,0,1,9.478,14.207,10.3,10.3,0,0,1,6.025,15.643,17.532,17.532,0,0,1,7.388-1.606c8.848,0,16.016,6.385,16.016,14.262v.024c5.524.275,9.912,4.332,9.912,9.319a8.338,8.338,0,0,1-.318,2.248,11.216,11.216,0,0,1,6.814-2.248c5.8,0,10.5,4.186,10.5,9.349a8.539,8.539,0,0,1-.373,2.438c3.8-2.261,9.832-3.715,16.621-3.715,11.507,0,20.832,4.18,20.832,9.343a4.51,4.51,0,0,1-.441,1.913,38.2,38.2,0,0,1,13.81-2.353,38.882,38.882,0,0,1,13.322,2.163,7.608,7.608,0,0,1-.489-2.658c0-6.386,8.164-11.562,18.228-11.562a26.367,26.367,0,0,1,9.747,1.79c1.876-5.114,9.111-8.928,17.752-8.928,8.592,0,15.79,3.765,17.715,8.837,1.13-5.7,8.793-10.108,18.087-10.108a28.383,28.383,0,0,1,3.563.22,13.04,13.04,0,0,1,4.589-13.688C1090.742,629.733,1096.626,629.226,1100.91,631.712Z" transform="translate(-0.245 -46.233)" fill="#9fcefc" opacity="0.454" style="mix-blend-mode:multiply;isolation:isolate"/><path d="M1218.839,581.75a59.442,59.442,0,0,1-4.174,9.172c.012.153.024.312.031.47a16.169,16.169,0,0,1-10.963,15.717q-2.457,3.1-5.249,6.288c.067.483.116.965.14,1.46.4,8.854-6.929,16.377-16.377,16.8a17.789,17.789,0,0,1-2.292-.043c-.165.141-.33.287-.5.422-1.6-4.682.049-10.358,4.492-14a14.182,14.182,0,0,1,5.451-2.78,13.145,13.145,0,0,1,4.8-12.919c4.5-3.7,10.492-4.174,14.781-1.577-.024-.03-.054-.054-.085-.091-4.094-4.987-2.9-12.741,2.671-17.306a13.822,13.822,0,0,1,8.75-3.208A15.2,15.2,0,0,1,1218.839,581.75Z" transform="translate(-78.772 -46.575)" fill="#9fcefc" opacity="0.18" style="mix-blend-mode:multiply;isolation:isolate"/><path d="M1206.669,605.4l-.241.168-.12-.269c-.392-.877-1.237-1.546-2.025-1h0a2.189,2.189,0,0,0-.715,2.586l.119.268,1.424,3.177,3.093-2.164a2.189,2.189,0,0,0,.714-2.586h0C1208.525,604.7,1207.456,604.845,1206.669,605.4Z" transform="translate(-84.512 -52.175)" fill="#bbd7ea"/><path d="M857.735,566.845l-.19.133-.095-.212c-.31-.693-.977-1.22-1.6-.786h0a1.729,1.729,0,0,0-.565,2.042l.1.211,1.124,2.509,2.442-1.709a1.729,1.729,0,0,0,.564-2.042h0C859.2,566.3,858.357,566.41,857.735,566.845Z" transform="translate(-3.054 -43.222)" fill="#bbd7ea"/><path d="M927.848,651.134l-.1.211-.189-.135c-.617-.441-1.459-.562-1.777.128h0a1.728,1.728,0,0,0,.542,2.048l.188.134,2.236,1.6L930,652.413a1.73,1.73,0,0,0-.542-2.048h0C928.839,649.924,928.166,650.445,927.848,651.134Z" transform="translate(-19.543 -62.959)" fill="#bbd7ea"/><path d="M979.99,690.026l-.078.17-.153-.109c-.5-.356-1.177-.453-1.434.1h0a1.394,1.394,0,0,0,.437,1.652l.152.109,1.8,1.29,1.006-2.184a1.394,1.394,0,0,0-.437-1.652h0C980.789,689.05,980.246,689.47,979.99,690.026Z" transform="translate(-31.839 -72.099)" fill="#bbd7ea"/><path d="M1038.9,682.4l-.152.11-.079-.17c-.258-.555-.8-.974-1.3-.617h0a1.394,1.394,0,0,0-.433,1.654l.078.169.934,2.011,1.951-1.405a1.393,1.393,0,0,0,.433-1.653h0C1040.076,681.943,1039.4,682.041,1038.9,682.4Z" transform="translate(-45.548 -70.301)" fill="#bbd7ea"/><path d="M1104.605,684.356l-.152.109-.079-.17c-.257-.555-.8-.974-1.3-.617h0a1.4,1.4,0,0,0-.433,1.653l.079.17.934,2.011,1.951-1.405a1.394,1.394,0,0,0,.433-1.653h0C1105.782,683.9,1105.1,684,1104.605,684.356Z" transform="translate(-60.918 -70.759)" fill="#bbd7ea"/><path d="M1180.41,636.886l-.109.152-.129-.136c-.421-.444-1.069-.669-1.427-.172h0a1.4,1.4,0,0,0,.115,1.706l.128.136,1.525,1.61,1.4-1.952a1.394,1.394,0,0,0-.114-1.705h0C1181.381,636.079,1180.768,636.389,1180.41,636.886Z" transform="translate(-78.69 -59.71)" fill="#bbd7ea"/><g transform="translate(1101.138 427.302)"><path d="M1208.665,456.655a9,9,0,0,0,1.652-2.564c.038-.072.058-.114.058-.114l-.007-.005a9.082,9.082,0,1,0-17.212-5.637l-.01.024c-2.136,5.573,4.777,13.66,5.641,14.641l-1.522,1.321,2.039.7-.375-1.937C1203.585,462.356,1206.846,459.072,1208.665,456.655Z" transform="translate(-1183.157 -441.426)" fill="#9ce2ac" stroke="#547394" stroke-linecap="round" stroke-linejoin="round" stroke-width="1"/><path d="M0,0H13.6V10.167H0Z" transform="matrix(0.919, 0.393, -0.393, 0.919, 3.998, 33.519)" fill="#fae5b5" stroke="#547394" stroke-linecap="round" stroke-width="1"/><path d="M1185.45,485.179l3.862,7.687,8.641-2.339" transform="translate(-1181.453 -451.66)" fill="none" stroke="#af9c90" stroke-linecap="round" stroke-linejoin="round" stroke-width="1"/><path d="M1197.142,471.807s-2.2,14.691-9.639,21.771" transform="translate(-1181.933 -448.532)" fill="none" stroke="#547394" stroke-linecap="round" stroke-linejoin="round" stroke-width="1"/><path d="M1209.223,443.543s6.355,3.1,4.438,10.08" transform="translate(-1187.013 -441.921)" fill="none" stroke="#fff" stroke-linecap="round" stroke-linejoin="round" stroke-width="1"/><path d="M1194.307,452.173a20.221,20.221,0,0,0,5.057,12.2" transform="translate(-1183.524 -443.94)" fill="none" stroke="#9ce2ac" stroke-linecap="round" stroke-linejoin="round" stroke-width="2" opacity="0.8" style="mix-blend-mode:multiply;isolation:isolate"/><path d="M1184.238,486.484s-1.027,7.4,4.55,11.995l-8.425-3.882Z" transform="translate(-1180.263 -451.965)" fill="#ddd5af" opacity="0.44" style="mix-blend-mode:multiply;isolation:isolate"/></g><g transform="translate(873.306 485.29)"><path d="M895.037,518.51a3.37,3.37,0,0,0-4.687-.761,3.321,3.321,0,0,0-1.21,1.619l0,.008c-.973,1.968,1.3,5.158,1.583,5.546l-.6.433.727.326-.073-.721a5.817,5.817,0,0,0,3.8-2.028,3.339,3.339,0,0,0,.694-.883l.025-.04,0,0A3.321,3.321,0,0,0,895.037,518.51Z" transform="translate(-884.252 -517.12)" fill="#8bd9c4"/><path d="M886.6,532.538l-1.984-1.066-1.786,3.287,4.421,2.375,1.786-3.286-1.869-1a20.863,20.863,0,0,0,1.918-4.744Z" transform="translate(-882.834 -519.688)" fill="#8bd9c4"/></g><path d="M1173.949,416.37a6.5,6.5,0,0,0-.879.067,6.4,6.4,0,0,0-7.358-5.164,10.471,10.471,0,0,0-18.763-.271,9.145,9.145,0,0,0-2.647-.393c-4.287,0-7.762,2.889-7.762,6.453a5.509,5.509,0,0,0,.629,2.544c-3.572,1.161-5.774,2.742-5.774,4.485,0,3.565,9.192,6.453,20.53,6.453,7.423,0,13.925-1.239,17.531-3.093a6.452,6.452,0,1,0,4.494-11.081Z" transform="translate(-67.67 -5.677)" fill="#edf1f4" stroke="#547394" stroke-linecap="round" stroke-linejoin="round" stroke-width="1"/><ellipse cx="13.389" cy="5.331" rx="13.389" ry="5.331" transform="translate(1076.56 412.849)" fill="#9fcefc" opacity="0.18" style="mix-blend-mode:multiply;isolation:isolate"/><path d="M1179.985,426.108l-.241.168-.12-.269c-.393-.877-1.238-1.546-2.026-1h0a2.189,2.189,0,0,0-.715,2.586l.12.268,1.423,3.177,3.093-2.164a2.189,2.189,0,0,0,.715-2.586h0C1181.841,425.417,1180.772,425.558,1179.985,426.108Z" transform="translate(-78.271 -10.238)" fill="#bbd7ea"/><path d="M1100.566,411.448l-.24.169-.12-.268c-.393-.877-1.238-1.547-2.026-1h0a2.189,2.189,0,0,0-.715,2.586l.12.268,1.423,3.177,3.093-2.164a2.19,2.19,0,0,0,.715-2.586h0C1102.422,410.757,1101.353,410.9,1100.566,411.448Z" transform="translate(-59.694 -6.809)" fill="#bbd7ea"/><path d="M1205.475,525.733l-.241.169-.12-.268c-.392-.877-1.237-1.547-2.025-1h0a2.189,2.189,0,0,0-.715,2.587l.12.267,1.424,3.177,3.093-2.164a2.189,2.189,0,0,0,.714-2.586h0C1207.332,525.042,1206.263,525.183,1205.475,525.733Z" transform="translate(-84.233 -33.542)" fill="#bbd7ea"/><path d="M850.5,515.791l-.115.271-.244-.165c-.8-.535-1.868-.656-2.245.228h0a2.19,2.19,0,0,0,.764,2.573l.244.163,2.891,1.941,1.477-3.474a2.19,2.19,0,0,0-.764-2.573h0C851.7,514.221,850.872,514.906,850.5,515.791Z" transform="translate(-1.319 -31.233)" fill="#bbd7ea"/><path d="M1145.869,421.392l-.12.084-.06-.134c-.2-.439-.619-.773-1.013-.5h0a1.1,1.1,0,0,0-.357,1.294l.06.134.712,1.589,1.547-1.082a1.1,1.1,0,0,0,.358-1.293h0C1146.8,421.047,1146.263,421.116,1145.869,421.392Z" transform="translate(-70.673 -9.286)" fill="#bbd7ea"/><path d="M879.444,480.3s-19.722-4.313-20.827-15.242,6.14-2.919,6.14-2.919-3.467-11.769,3.388-10.773S869.4,468.812,879.444,480.3Z" transform="translate(-3.837 -16.434)" fill="#abdaea"/><path d="M1118.263,518.42s19.723-4.313,20.828-15.242-6.14-2.919-6.14-2.919,3.468-11.769-3.387-10.773S1128.3,506.936,1118.263,518.42Z" transform="translate(-64.598 -25.352)" fill="#f8b67b" stroke="#547394" stroke-miterlimit="10" stroke-width="1"/><path d="M1062.687,611.213s20.611,19.718,72.568,10.96l.023,18.2s-1.452,5.622-5.311,4.894c0,0-2.5-.32-2.119-7.427s-1.174-6.45-1.174-6.45-6.127,1.192-6.9,5.169,0,13.469,0,13.469-2.853,3.162-11.653,2.14V640.073s-.882-4.094-7.724-3.431-26.036.594-26.036.594-3.193,2.114-2.685,11.124a6.549,6.549,0,0,1-3.413,4.121s-7.97,2.222-5.556-11.946Z" transform="translate(-51.496 -53.839)" fill="#f7bdba" opacity="0.632" style="mix-blend-mode:multiply;isolation:isolate"/><path d="M1089.771,554.867s33.3-4.646,51.944,46.539l-1.963-32.25s-.187-11.787-6.082-13.263S1089.771,554.867,1089.771,554.867Z" transform="translate(-57.934 -40.634)" fill="#ffc38d" opacity="0.67"/><path d="M1119.937,521.194s18.306-16.617,19.318-12.339-.377,1.2-.377,1.2S1129,521.609,1119.937,521.194Z" transform="translate(-64.99 -29.732)" fill="#f7bdba" opacity="0.32" style="mix-blend-mode:multiply;isolation:isolate"/><path d="M1146.813,559.511a7.337,7.337,0,0,1,3.713-6.383c-3.834-1.152-3.713-7.3-3.713-7.3h0s.12,6.146-3.713,7.3a7.339,7.339,0,0,1,3.713,6.383Z" transform="translate(-71.408 -31.545)" fill="#fff89b"/><path d="M915.143,468.754a7.337,7.337,0,0,1,3.712-6.383c-3.833-1.152-3.712-7.3-3.712-7.3h0s.121,6.146-3.712,7.3a7.337,7.337,0,0,1,3.712,6.383Z" transform="translate(-16.217 -17.316)" fill="#fff89b"/><path d="M1164.492,468.754a7.337,7.337,0,0,1,3.712-6.383c-3.833-1.152-3.712-7.3-3.712-7.3h0s.12,6.146-3.712,7.3a7.337,7.337,0,0,1,3.712,6.383Z" transform="translate(-74.543 -17.316)" fill="#ffd98b"/><g transform="translate(900.818 560.813)"><path d="M923.059,617.1l-.224.326-.326-.224c-1.065-.732-2.616-.973-3.349.093h0a2.344,2.344,0,0,0,.6,3.258l.325.224,3.86,2.654,2.876-4.186a2.343,2.343,0,0,0-.6-3.257h0C925.155,615.256,923.792,616.036,923.059,617.1Z" transform="translate(-918.748 -615.702)" fill="#f7bdba" stroke="#547394" stroke-miterlimit="10" stroke-width="1"/><path d="M926.229,632.135a28.228,28.228,0,0,1-.7-6.342" transform="translate(-920.332 -618.063)" fill="none" stroke="#547394" stroke-linecap="round" stroke-linejoin="round" stroke-width="1"/><path d="M924.027,628.617s-1.223-1.549-4.9-.881C919.131,627.736,919.372,631.3,924.027,628.617Z" transform="translate(-918.837 -618.478)" fill="#b9ffbc" stroke="#547394" stroke-miterlimit="10" stroke-width="1"/><path d="M919.61,617.758s2.022,4.607,4.367,5.509C923.977,623.267,916.677,621.386,919.61,617.758Z" transform="translate(-918.787 -616.183)" fill="#f7bdba" opacity="0.55" style="mix-blend-mode:multiply;isolation:isolate"/></g><g transform="translate(1085.111 578.425)"><path d="M1163.486,640.091l.224.326.326-.224c1.065-.733,2.616-.973,3.349.093h0a2.344,2.344,0,0,1-.6,3.258l-.326.224-3.859,2.654-2.876-4.185a2.344,2.344,0,0,1,.6-3.257h0C1161.391,638.246,1162.754,639.025,1163.486,640.091Z" transform="translate(-1159.31 -638.692)" fill="#fff89b" stroke="#547394" stroke-linecap="round" stroke-linejoin="round" stroke-width="1"/><path d="M1162.693,655.124a28.2,28.2,0,0,0,.7-6.342" transform="translate(-1160.102 -641.052)" fill="none" stroke="#547394" stroke-linecap="round" stroke-linejoin="round" stroke-width="1"/><path d="M1163.616,651.607s1.223-1.549,4.9-.882C1168.512,650.725,1168.27,654.291,1163.616,651.607Z" transform="translate(-1160.318 -641.468)" fill="#b9ffbc" stroke="#547394" stroke-miterlimit="10" stroke-width="1"/><path d="M1167.983,640.748s-2.022,4.606-4.367,5.508C1163.616,646.256,1170.915,644.375,1167.983,640.748Z" transform="translate(-1160.318 -639.173)" fill="#f7bdba" opacity="0.55" style="mix-blend-mode:multiply;isolation:isolate"/></g><ellipse cx="2.672" cy="1.115" rx="2.672" ry="1.115" transform="translate(1085.383 591.878)" fill="#9fcefc" opacity="0.43" style="mix-blend-mode:multiply;isolation:isolate"/><ellipse cx="2.672" cy="1.115" rx="2.672" ry="1.115" transform="translate(902.628 574.409)" fill="#9fcefc" opacity="0.43" style="mix-blend-mode:multiply;isolation:isolate"/><path d="M982.417,601.176s1.279,37.342,57.715,14.236l5.612,12.718s-29.009,8.113-71.57,5.294Z" transform="translate(-30.894 -51.492)" fill="#ffc7c7" opacity="0.466" style="mix-blend-mode:multiply;isolation:isolate"/></g></svg>